<svg xmlns="http://www.w3.org/2000/svg"
     preserveAspectRatio="none"
     viewBox="0 0 328.95304157442956 485.4370154444518">
    <defs>
        <style type="text/css">
            <![CDATA[
    .fil0 {fill:#DFA9C3;fill-rule:nonzero}
   ]]>
        </style>
    </defs>
    <path class="fil0"
          d="M322.85304157442954,171.48253837745338C323.0530415744296,170.96918995046548 323.1530415744295,170.35317183807996 323.1530415744295,169.63448404029685L322.85304157442954,171.48253837745338ZM301.85304157442954,6.799999999999983C303.1530415744295,6.699999999999983 303.7530415744295,6.499999999999983 303.7530415744295,6.199999999999983 302.55304157442947,6.3999999999999835 301.55304157442947,6.599999999999984 301.85304157442954,6.799999999999983ZM280.4032070749101,3.899999999999983C280.72101946840934,3.999999999999983 281.0388318619086,3.999999999999983 281.303675523158,4.099999999999983 280.9858631296587,3.799999999999983 280.61508200390955,3.699999999999983 280.4032070749101,3.8999999999999826ZM323.1530415744296,169.63448404029685L323.95304157442956,164.911678512008C323.1530415744296,164.60366945581524 323.35304157442954,167.37575096155 323.1530415744296,169.63448404029685ZM321.95304157442956,402.9000092636078C321.85304157442954,402.592000207415 321.85304157442954,402.1813214658247 321.7530415744295,401.8733124096319L321.95304157442956,402.9000092636078ZC321.95304157442956,403.10534863440296 322.0530415744296,403.310688005198 322.0530415744296,403.5160273759933L321.95304157442956,402.9000092636078ZM325.85304157442954,204.74751644627062C326.1530415744295,204.64484676087307 326.45304157442956,204.43950739007786 326.6530415744295,204.23416801928272 326.35304157442954,204.13149833388513 326.05304157442947,204.43950739007786 325.85304157442954,204.74751644627062ZM318.2530415744295,475.13701544445183L319.35304157442954,473.73701544445186 318.45304157442956,473.8370154444519C318.35304157442954,474.3370154444519 318.2530415744295,474.73701544445186 318.2530415744295,475.1370154444519ZM251.95899785672523,0.9H252.064935321225C252.85946630497318,0.7 252.43571644697414,0.8 251.95899785672523,0.9ZM8.6,80.00384868820603C7.699999999999999,80.8252061713867 5,72.20095259798966 3.6999999999999993,79.28516089042294 5.699999999999999,73.63832819355582 6.299999999999999,88.73077194700068 8.6,80.00384868820603ZM187.07230085062392,3.3C187.07230085062392,3.0999999999999996 186.9133946538743,2.8 186.3837073313755,2.3 186.54261352812514,2.6999999999999997 186.80745718937453,3 187.07230085062392,3.3ZM234.05556635626627,5.3C234.53228494651515,5.5 234.90306607226432,5.6 235.27384719801347,5.6L234.05556635626627,5.3ZM160.53496599343472,5.3999999999999995C160.21715359993544,5.3 159.8993412064362,5.199999999999999 159.31668515168752,5.3999999999999995 159.42262261618725,5.499999999999999 159.47559134843715,5.6 159.5815288129369,5.699999999999999 159.7934037419364,5.3999999999999995 160.11121613543568,5.299999999999999 160.53496599343472,5.3999999999999995ZC160.69387219018438,5.499999999999999 160.852778386934,5.499999999999999 161.06465331593353,5.6 160.852778386934,5.3999999999999995 160.69387219018438,5.3999999999999995 160.53496599343472,5.3999999999999995ZM233.79072269501685,6.5C233.52587903376747,6.8 233.20806664026819,6.9 232.9432229790188,7 233.52587903376747,6.8 234.37337874976552,6.9 233.79072269501685,6.5ZM232.83728551451904,7.1H232.9432229790188 232.83728551451904ZM205.7172946025812,478.13701544445183C205.9291695315807,478.23701544445186 206.14104446058022,478.3370154444518 206.45885685407947,478.43701544445184 206.19401319283008,478.3370154444518 205.9291695315807,478.23701544445186 205.7172946025812,478.13701544445183ZM253.70696602097124,1.900000000000034C254.07774714672038,1.900000000000034 254.44852827246953,1.800000000000034 254.7663406659688,1.7000000000000342 254.2896220757199,1.7000000000000342 253.97180968222062,1.8000000000000342 253.70696602097124,1.900000000000034ZM327.5530415744296,32.30000000000003C325.6530415744296,28.500000000000032 326.25304157442963,40.20000000000003 324.0530415744296,36.80000000000003 324.25304157442963,33.500000000000036 325.25304157442963,30.000000000000032 326.35304157442954,27.20000000000003 326.6530415744295,26.500000000000032 326.85304157442954,25.800000000000033 327.0530415744296,25.20000000000003 327.25304157442963,24.20000000000003 327.45304157442956,23.20000000000003 327.6530415744296,22.40000000000003 328.0530415744296,20.60000000000003 328.25304157442963,19.20000000000003 328.25304157442963,18.300000000000033 329.0530415744296,10.100000000000033 327.9530415744297,6.900000000000032 326.9530415744297,4.500000000000032 322.4530415744297,5.500000000000032 318.6530415744297,6.600000000000032 312.0530415744297,6.100000000000032 312.85304157442965,6.600000000000032 313.25304157442974,7.500000000000032 312.35304157442965,8.300000000000033 311.4530415744297,9.200000000000033 309.25304157442963,10.000000000000032 305.4530415744297,10.500000000000032 298.75304157442963,10.100000000000032 297.25304157442963,6.500000000000032 301.4530415744297,5.700000000000032 303.0530415744297,5.6000000000000325 303.85304157442965,5.900000000000032 303.75304157442963,6.300000000000032 304.25304157442963,6.200000000000032 304.85304157442965,6.100000000000032 305.4530415744297,6.000000000000032C306.0530415744297,5.900000000000032 306.6530415744297,5.700000000000032 307.0530415744297,5.600000000000032C308.0530415744297,5.300000000000032 308.1530415744297,5.000000000000032 306.1530415744297,4.400000000000031L305.25304157442974,5.400000000000031C301.9530415744298,4.400000000000031 292.75304157442974,4.500000000000031 294.85304157442977,2.9000000000000314 290.55304157442976,3.7000000000000313 292.0530415744298,4.300000000000031 294.9530415744298,4.800000000000031 288.24257944789224,3.800000000000031 285.75304903214794,4.9000000000000306 281.356644255408,4.000000000000031 282.0982065069063,4.500000000000031 282.7868000261547,5.700000000000031 282.0452377746564,5.700000000000031 275.1593025821722,4.500000000000031 279.02602003641334,7.500000000000031 274.36477159842406,8.000000000000032 271.71633498593013,6.500000000000032 275.31820877892187,4.500000000000032 270.60399160868263,5.700000000000032 267.7436800671892,4.700000000000032 270.02133555393397,3.100000000000032 271.1336789311814,2.4000000000000323 266.84321161894127,4.300000000000033 263.18836909369963,1.2000000000000324 260.75180741020523,0.8000000000000322L262.9764941647001,3.219646771412954e-14C261.65227585845315,0.5000000000000322 260.53993248120565,0.4000000000000322 259.4275891039582,0.4000000000000322L260.69883867795534,2.3000000000000322C259.3746203717084,2.0000000000000324 258.2622769944609,2.0000000000000324 258.31524572671077,1.2000000000000322 256.9380586882139,2.500000000000032 259.3746203717084,4.400000000000032 256.67321502696456,6.1000000000000325 254.92524686271852,5.1000000000000325 251.32337306972676,7.200000000000033 250.68774828272822,4.6000000000000325 255.71977784646668,5.400000000000032 251.11149814072726,2.6000000000000325 253.7069660209713,1.8000000000000327 253.01837250172287,1.9000000000000328 252.27681025022457,1.8000000000000327 251.42931053422652,1.6000000000000327 251.217435605227,1.3000000000000327 251.641185463226,1.1000000000000327 251.9589978567253,0.9000000000000328 246.66212463173744,-1.399999999999967 249.52243617323086,3.8000000000000327 244.06665675149338,3.7000000000000326 244.7552502707418,2.3000000000000327 242.79540717749632,1.0000000000000324 241.89493872924837,1.3000000000000327 244.11962548374325,1.3000000000000327 242.95431337424594,3.7000000000000326 240.94150154875055,4.800000000000033 237.44556522025854,3.7000000000000326 237.1277528267593,5.6000000000000325 235.27384719801353,5.500000000000033L237.39259648800868,6.000000000000033C236.70400296876025,7.400000000000032 234.90306607226438,7.300000000000033 232.46650438876995,7.700000000000033 232.41353565652005,7.300000000000033 232.5724418532697,7.100000000000033 232.8372855145191,7.000000000000033 230.29478636652493,7.900000000000033 227.22259989603197,4.000000000000033 223.83260103203975,5.500000000000033 222.08463286779374,4.500000000000033 223.6736948352901,2.8000000000000327 222.13760160004364,2.100000000000033 217.90010302005334,4.000000000000033 217.5293218943042,0.10000000000003295 213.07994838531437,1.700000000000033 214.35119795931143,3.600000000000033 214.61604162056085,3.200000000000033 211.43791768556812,5.100000000000033L218.80057146830123,3.7000000000000335 214.08635429806205,6.500000000000034C216.31104105255696,6.500000000000034 218.74760273605136,5.300000000000034 220.07182104229835,5.600000000000033 217.84713428780344,7.200000000000033 218.05900921680293,6.700000000000033 219.1183838618005,8.300000000000033 216.09916612355744,5.400000000000032 213.07994838531437,10.000000000000032 209.58401205682236,8.000000000000032L209.68994952132212,3.200000000000032C204.39307629633424,1.100000000000032 200.3144839130936,5.700000000000032 193.48151745285924,4.500000000000032L195.70620420735415,5.300000000000032C194.80573575910623,7.200000000000031 191.46870562736385,5.600000000000032 189.24401887286896,6.300000000000032 189.45589380186846,4.700000000000031 188.07870676337163,4.100000000000032 187.1252695828738,3.1000000000000316 187.23120704737357,4.300000000000032 182.09324001913535,3.0000000000000315 181.51058396438665,6.200000000000031L178.4383974938937,4.1C172.92964933990635,3.1999999999999997 172.13511835615816,8.7 166.78527639892042,8.1 168.37433836641677,6.3999999999999995 165.99074541517223,5.199999999999999 169.53965047591407,4 167.7916823116681,4 166.14965161192188,3.7 166.14965161192188,4.8 165.0902769669243,3.8 161.22355951268315,7 159.58152881293694,5.3999999999999995 158.83996656143864,6.1 158.57512290018926,7.799999999999999 156.61527980694373,7.699999999999999 156.45637361019408,7.499999999999999 156.50934234244397,7.199999999999999 156.56231107469384,7.1 156.1385612166948,7.8 153.6490308009505,8.1 155.23809276844688,9.8 149.78231334670937,4.800000000000001 139.9830978804818,10.200000000000001 135.21591197799273,5.9 135.48075563924212,5.9 135.7985680327414,5.800000000000001 136.0634116939908,5.800000000000001L134.73919338774382,5.500000000000001C134.89809958449348,5.700000000000001 135.0570057812431,5.800000000000001 135.21591197799273,6.000000000000001 131.34919452375158,6.500000000000001 126.68794608576229,7.100000000000001 123.13904102502042,7.200000000000001 123.35091595401991,6.700000000000001 123.13904102502042,6.400000000000001 123.82763454426885,6.600000000000001 118.95451117728001,5.100000000000001 120.86138553827564,11.200000000000001 115.29966865203838,9.500000000000002 112.4923258427948,6.900000000000002 118.21294892578169,8.100000000000001 116.46498076153571,7.100000000000001 115.72341851003739,1.8000000000000016 109.79092049805101,7.800000000000002 106.08310924055948,4.700000000000001L106.98357768880743,4.400000000000001C104.12326614731398,2.6000000000000014 100.04467376407334,6.400000000000001 95.43639405833387,6.000000000000002 95.43639405833387,6.000000000000002 95.6482689873334,5.500000000000002 95.43639405833387,5.200000000000002 92.25827012334116,7.900000000000002 86.27280337910487,8.800000000000002 81.77046113786518,9.500000000000002 83.14764817636203,7.400000000000002 83.78327296336059,8.400000000000002 82.93577324736253,6.300000000000002 80.92296142186713,6.600000000000001 83.51842930211119,9.700000000000001 79.54577438337029,10.3 78.27452480937319,9.200000000000001 75.36124453562988,8.200000000000001 74.99046340988073,5.9L78.75124339962211,5.800000000000001C76.84436903862648,3.000000000000001 73.87812003263326,6.000000000000001 71.91827693938777,5.500000000000001L72.18312060063715,4.200000000000001C66.40952878540038,4.600000000000001 66.3565600531505,7.800000000000001 60.106249647664825,7.600000000000001L60.74187443466337,8.600000000000001C57.35187557067114,11.8 57.88156289316993,6.800000000000002 54.491564029177695,9.200000000000001L53.48515811643002,6C51.26047136193512,6.7 45.64578574344799,9 41.620162092457214,9.6C43.897817579202,7.2 48.61203474944119,6 51.52531502318452,4.6C49.300628268689614,4.6 44.00375504370175,4.8 42.83844293420442,6.3999999999999995 43.73891138245236,6.1 44.85125475969981,5.299999999999999 45.75172320794775,5.8 43.05031786320394,8.3 38.6,9.6 30.3,9.5 30.5,8.5 30.1,7.8 29.2,7.2 28.7,6.9 28.2,6.7 27.5,6.6000000000000005 27.2,6.500000000000001 26.8,6.4 26.4,6.4 26,6.300000000000001 25.299999999999997,6.300000000000001 24.7,6.2 19.799999999999997,5.8 13.1,5.8 6.599999999999998,5.6000000000000005 6.399999999999998,12 5.899999999999998,17.900000000000002 4.1999999999999975,21.1L4.799999999999997,28.3C4.899999999999997,30.2 4.999999999999997,32 4.999999999999997,33.9 4.999999999999997,37.6 4.799999999999997,41.3 4.599999999999997,45.2 4.099999999999997,53.00172142864145 3.399999999999997,61.21529626044817 3.599999999999997,70.0448892046404 8.399999999999997,63.78203839538777 3.699999999999997,75.1783734745196 8.699999999999996,74.15167662054375 8.999999999999996,78.25846403644712 8.899999999999995,79.79850931741089 8.599999999999996,80.20918805900122L8.799999999999995,79.38783057582054C8.699999999999996,79.79850931741089 8.599999999999996,80.00384868820605 8.599999999999996,80.31185774439882L5.599999999999996,92.73488967750647C4.199999999999996,95.7123105540364 4.4999999999999964,88.83344163239829 3.399999999999996,89.24412037398861 2.999999999999996,97.97104363278325 1.2999999999999958,92.73488967750647 -3.9968028886505635e-15,98.68973143056635 1.799999999999996,97.45769520579533 2.499999999999996,101.76982199249386 1.899999999999996,106.90330626237306L4.199999999999996,99.71642828454219C6.799999999999995,112.34479958844501 -4.440892098500626e-15,110.59941493668609 2.5999999999999956,123.22778624058893L1,119.32633819548073C1.9,125.79452837552851 1,143.35104457851537 5,149.71656507316558 4.4,150.845931612539 3.1,152.38597689350274 2.7,149.51122570237044 2.1,165.0143481974056 6.9,184.11090968135622 4.5,196.22593255827115L3.3,195.09656601889773C3.6999999999999997,197.9713172100301 5.6,200.12738060337935 4.4,203.82348927769237 3.9000000000000004,203.61814990689723 3.2,202.69412273831895 3.1000000000000005,204.02882864848752 3.5000000000000004,205.56887392945129 5.200000000000001,211.72905505330633 4.5,215.63050309841455L3.1,212.34507316569184C1.5,227.54018660453428 6.4,235.65109175094338 7.300000000000001,248.3821327402438 3.7000000000000006,248.3821327402438 2.6000000000000005,260.2918162463635 2.000000000000001,266.2466579994234L1.5000000000000009,265.7333095724355C1.100000000000001,283.39249546082 4.500000000000001,295.71285770853 5.900000000000001,312.1400073721435 2.0000000000000013,322.3043062265043 4.300000000000001,346.5343519803341 2.1000000000000014,362.85883195855 2.8000000000000016,360.39475950900794 4.900000000000001,363.26951070014024 5.200000000000001,366.14426189127255 4.500000000000001,369.94304025098324 7.700000000000001,376.71923948722383 4.400000000000001,376.1032213748383L4.500000000000001,374.7685154646697C1.2,377.6432666558021 2.1,385.54883243141603 2,391.7090135552711L6.3,392.73571040924696C0.09999999999999964,408.85485101666757 8.6,434.83028142225635 3,443.5370154444518 4.1,447.3370154444518 4.1,452.0370154444518 5.1,455.7370154444518L2.8,455.5370154444518C2.6999999999999997,457.2370154444518 2.5999999999999996,458.8370154444518 2.5,460.3370154444518 2.4,463.0370154444518 2.4,465.5370154444518 2.3,468.13701544445183 2.1999999999999997,473.23701544445186 2.0999999999999996,478.3370154444518 2.0999999999999996,484.23701544445186 7,484.23701544445186 13.799999999999999,484.13701544445183 22.200000000000003,483.93701544445184L19.6,484.73701544445186 16.8,485.53701544445187C20.3,485.53701544445187 23.3,485.1370154444519 25.8,484.53701544445187 26.2,484.43701544445184 26.400000000000002,484.3370154444519 26.5,484.3370154444519L27,484.03701544445187 27.9,483.43701544445184C28.5,483.03701544445187 29,482.63701544445183 29.599999999999998,482.23701544445186 31.799999999999997,480.53701544445187 34,478.8370154444519 37.4,478.73701544445186L39.4,482.13701544445183C46.5992229239458,482.0370154444518 53.43218938418015,485.13701544445183 60.10624964766485,481.93701544445184 60.00031218316509,482.43701544445184 59.788437254165586,483.43701544445184 58.72906260916801,483.53701544445187 61.80124907966097,483.6370154444519 70.38218370414131,485.73701544445186 69.95843384614228,481.6370154444519 70.75296482989046,483.9370154444519 77.05624396762602,481.4370154444519 80.49921156386813,480.1370154444519L79.91655550911946,482.4370154444519C82.98874197961241,479.5370154444519 83.09467944411219,478.7370154444519 87.38514675635236,477.9370154444519 88.39155266910004,478.2370154444519 88.28561520460028,479.7370154444519 86.90842816610343,479.1370154444519 90.29842703009567,480.3370154444519 89.55686477859737,477.03701544445187 93.63545716183802,478.2370154444519L92.09936392659154,479.6370154444519C95.59530025508352,479.8370154444519 95.33045659383413,479.03701544445187 97.23733095482976,477.3370154444519 99.40904897707478,476.4370154444519 103.85842248606458,477.9370154444519 104.38810980856337,479.9370154444519 104.86482839881228,478.7370154444519 106.77170275980791,477.0370154444519 108.83748331755316,477.6370154444519 109.10232697880258,478.4370154444519 108.36076472730426,478.9370154444519 107.98998360155511,479.1370154444519 113.81654414904176,480.6370154444519 116.6768556905352,476.53701544445187 120.64951060927612,478.7370154444519 120.75544807377585,479.5370154444519 121.02029173502527,479.83701544445194 121.33810412852455,480.0370154444519 117.10060554853425,479.9370154444519 113.60466922004227,479.83701544445194 113.33982555879288,479.7370154444519 113.39279429104275,481.83701544445194 117.04763681628438,482.1370154444519 114.08138781029118,485.0370154444519 117.10060554853425,483.4370154444519 122.2385725767725,480.0370154444519 125.8934151020141,481.0370154444519 126.05232129876376,481.2370154444519 126.26419622776325,481.4370154444519 126.37013369226304,481.7370154444519L125.99935256651389,481.9370154444519C126.84685228251195,482.1370154444519 127.58841453401024,481.9370154444519 128.32997678550853,481.6370154444519 129.49528889500587,481.9370154444519 130.23685114650416,482.2370154444519 131.34919452375163,482.2370154444519 131.77294438175065,483.9370154444519 135.63966183599177,483.1370154444519 137.49356746473754,483.2370154444519 137.33466126798788,480.9370154444519 139.77122295148232,481.33701544445194 137.49356746473754,479.4370154444519 137.75841112598692,479.6370154444519 137.17575507123826,479.7370154444519 135.95747422949105,479.8370154444519 136.1163804262407,479.73701544445186 136.22231789074044,479.73701544445186 136.3812240874901,479.73701544445186 136.1163804262407,479.53701544445187 135.9045054972412,479.3370154444519 135.63966183599177,479.23701544445186 135.48075563924215,479.43701544445184 135.32184944249252,479.73701544445186 135.21591197799276,479.93701544445184H135.74559930049153C135.48075563924215,480.03701544445187 135.21591197799276,480.03701544445187 135.0570057812431,480.13701544445183 135.10997451349297,480.0370154444518 135.16294324574287,480.0370154444518 135.16294324574287,479.93701544445184 133.94466240399564,479.93701544445184 132.3556004364993,480.03701544445187 130.50169480775352,480.13701544445183 131.98481931075014,478.93701544445184 133.52091254599662,478.0370154444518 135.58669310374188,479.23701544445186 136.5401302842397,477.73701544445186 137.59950492923727,476.23701544445186 138.18216098398594,475.53701544445187 140.72466013198013,478.73701544445186 145.65075223121883,480.43701544445184 146.33934575046726,482.43701544445184 152.05996883345415,481.13701544445183 159.74043500968654,481.63701544445183 163.3423088026783,477.3370154444518 164.98433950242455,476.7370154444518 165.19621443142404,478.5370154444518 165.8318392184226,479.2370154444518 164.87840203792476,479.6370154444518 163.76605866067734,479.6370154444518 163.2893400704284,480.2370154444518 166.52043273767103,479.1370154444518 172.87668060765645,479.8370154444518 173.6712115914046,476.8370154444518 177.74980397464526,478.2370154444518 171.39355610465984,479.63701544445183 177.008241723147,479.13701544445183L176.2666794716487,480.0370154444518C187.07230085062392,484.7370154444518 193.95823604310814,472.9370154444518 205.71729460258123,478.2370154444518 205.3465134768321,478.0370154444518 205.13463854783254,477.8370154444518 204.97573235108294,477.5370154444518 218.90650893280102,480.2370154444518 233.73775396276704,475.0370154444518 247.50962434773547,479.3370154444518 251.4293105342265,480.2370154444518 251.85306039222553,478.3370154444518 254.23665334347007,476.8370154444518L255.08415305946812,479.3370154444518 259.1627454427088,476.5370154444518C264.9363372579455,474.4370154444518 269.1738358379358,482.5370154444518 276.536489620669,478.63701544445183L275.5830524401712,477.0370154444518C278.2314890526651,477.3370154444518 283.8991434034021,476.0370154444518 283.47539354540305,477.9370154444518 283.74023720665247,477.6370154444518 284.32289326140113,476.2370154444518 285.3822679063987,477.0370154444518L285.48820537089847,478.3370154444518 294.25304157442963,476.13701544445183C303.75304157442963,477.0370154444518 292.75304157442963,481.23701544445186 306.5530415744296,481.43701544445184 311.6530415744296,480.93701544445184 321.1530415744296,477.73701544445186 319.25304157442963,476.8370154444518 317.1530415744296,476.7370154444518 313.9530415744297,476.0370154444518 313.85304157442965,474.7370154444518L318.5530415744297,474.0370154444518C318.6530415744297,473.8370154444518 318.6530415744297,473.5370154444518 318.75304157442974,473.3370154444518H319.4530415744298V471.0370154444518C319.75304157442974,470.0370154444518 319.85304157442977,469.0370154444518 319.4530415744298,468.0370154444518V417.27376521926954L320.0530415744298,417.88978333165505 319.4530415744298,416.1443986798962V408.7521813312701C319.9530415744298,408.95752070206527 320.35304157442977,409.67620849984826 320.5530415744298,411.1135840954146 322.25304157442986,405.7747604547402 319.35304157442977,406.3907785671257 321.25304157442986,401.77064272423445 321.5530415744298,401.2572942972465 321.65304157442984,401.4626336680416 321.8530415744299,401.9759820950295L320.8530415744299,396.7398281397527C321.5530415744299,397.7665249937286 323.25304157442986,395.918470656572 322.75304157442986,399.1012309038972 324.65304157442984,389.7582895327171 320.25304157442986,384.00878715045235 322.75304157442986,380.4153481615368L322.9530415744299,381.23670564471763C322.0530415744299,371.48308553194715 321.15304157442995,375.5898729478505 319.4530415744299,374.2551670376819V368.1976555992244L323.65304157442995,363.6801894417307 321.15304157442995,362.4481532169598C321.25304157443,361.11344730679116 321.4530415744299,358.444035486454 322.4530415744299,358.95738391344196 320.75304157442986,353.92656932896034 321.3530415744299,359.77874139662254 319.75304157442986,356.90399020549023 322.0530415744298,350.4358000254424 318.65304157442984,339.03946494631066 322.65304157442984,337.60208935074445 320.75304157442986,335.2406865866001 321.25304157442986,343.7622704745994 319.8530415744299,336.88340155296135 324.15304157442984,334.9326775304073 319.15304157442984,328.8751660919497 321.0530415744299,323.0229940242875 323.25304157443,324.87104836144397 322.0530415744299,330.4152113729135 324.0530415744299,324.5630393052513 320.3530415744299,320.9696003163359 324.8530415744299,313.0640345407219 324.15304157442995,308.13588964163785 324.5530415744299,308.13588964163785 325.15304157442995,307.9305502708427 325.75304157443,307.5198715292523 325.85304157443,306.1851656190837 323.5530415744299,305.6718171920958 322.5530415744299,305.15846876510784 323.4530415744299,305.87715656289095 323.9530415744299,306.9038534168668 324.15304157442995,308.03321995624026 321.25304157443,307.7252109000475 322.9530415744299,297.15023330409633 321.9530415744299,288.83398878689206 322.9530415744299,289.34733721388 323.5530415744299,273.1255269210617 324.65304157442995,265.32263083084536L325.15304157442995,265.52797020164047C322.15304157442995,263.98792492067673 322.75304157443,255.97968945966514 322.15304157442995,250.1275173920029 323.9530415744299,250.33285676279803 324.65304157442995,251.35955361677387 325.4530415744299,254.542313864099V249.10082053802702C325.75304157442986,249.51149927961737 326.15304157442995,249.9221780212077 326.5530415744299,250.33285676279803L325.4530415744299,247.66344494246084V249.10082053802702C324.5530415744299,247.76611462785843 323.9530415744299,246.1233996614971 323.65304157442995,242.52996067258167L325.85304157443,243.86466658275026C325.75304157443,236.5751189195218 323.25304157443,229.18290157089572 324.75304157443,219.737290514318 323.35304157443,219.42928145812525 321.15304157442995,222.92005076164313 319.5530415744299,222.20136296386005V217.1705483793784C320.25304157443,217.37588775017358 320.8530415744299,217.88923617716148 321.15304157442995,219.2239420873301 320.9530415744299,218.4025846041494 320.25304157443,216.14385152540257 320.65304157442995,214.50113655904124L322.5530415744299,218.50525428954703C323.3530415744299,214.1931275028485 320.9530415744299,216.24652121080018 321.15304157442995,212.8584215926799 322.75304157443,212.96109127807748 322.25304157443,210.2916794577403 323.5530415744299,210.80502788472822 323.75304157443,211.72905505330647 322.8530415744299,213.78244876125817 323.5530415744299,215.11715467142673 323.8530415744299,211.21570662631854 324.75304157443,206.59557078342723 325.9530415744299,205.0555255024635 325.0530415744299,205.36353455865626 323.75304157442986,205.0555255024635 323.5530415744299,202.18077431133113 323.4530415744299,194.89122664810267 325.4530415744299,199.7167018617891 326.3530415744299,195.40457507509058 325.25304157442986,193.65919042333167 326.3530415744299,188.93638489504278 323.9530415744299,188.8337152096452 323.9530415744299,186.67765181629593 325.0530415744299,186.2669730747056 325.75304157442986,185.44561559152493 324.65304157442984,181.64683723181432 325.4530415744299,167.78642970314047 322.8530415744299,171.99588680444143L322.65304157442984,172.91991397301967C322.5530415744298,172.71457460222453 322.5530415744298,172.50923523142933 322.5530415744298,172.30389586063419 322.5530415744298,172.30389586063419 322.5530415744298,172.2012261752366 322.65304157442984,172.2012261752366 322.65304157442984,172.2012261752366 322.65304157442984,172.30389586063419 322.5530415744298,172.30389586063419 320.15304157442984,159.88086392752652 323.9530415744298,146.5338048258406 322.85304157442977,134.21344257813053H323.6530415744297C322.75304157442974,126.82122522950446 323.1530415744297,117.88896259991466 321.35304157442977,112.65280864463789 321.35304157442977,110.49674525128862 322.85304157442977,107.51932437475868 323.75304157442974,108.44335154333695 323.1530415744297,102.79651884646982 322.25304157442974,102.18050073408432 323.5530415744297,94.06959558767518 324.9530415744297,99.7164282845423 324.75304157442974,92.11887156512108 324.5530415744297,99.81909796993988 325.25304157442974,92.52955030671143 326.5530415744297,90.88683534035007 324.35304157442965,83.08393925013368 326.4530415744297,85.75335107047087 326.9530415744297,77.64244592406175 326.35304157442965,74.15167662054388L324.85304157442965,79.28516089042307C324.5530415744297,75.38371284531489 324.75304157442963,71.99561322719461 324.9530415744297,68.50484392367676L327.6530415744297,70.35289826083326C330.9530415744297,55.363124192785996 322.0530415744297,43.40000000000012 327.5530415744297,32.30000000000012ZM133.94466240399566,482.1370154444518L134.1035686007453,481.83701544445177C133.99763113624556,482.23701544445174 133.8387249394959,482.6370154444518 133.62685001049638,482.9370154444518 132.40856916874918,483.2370154444518 131.98481931075017,482.83701544445177 131.77294438175065,482.33701544445177 132.35560043649932,482.33701544445177 133.04419395574774,482.23701544445174 133.94466240399566,482.1370154444518ZM319.7530415744295,399.614579330885C319.6530415744295,399.9225883870778 319.55304157442947,400.12792775787295 319.35304157442954,400.3332671286681V397.25317656674065C319.5530415744296,397.97186436452364 319.6530415744295,398.69055216230674 319.7530415744295,399.614579330885ZM156.50934234244397,7.3C156.56231107469387,7.2 156.56231107469387,7.2 156.56231107469387,7.1 156.56231107469387,7.1 156.56231107469387,7.199999999999999 156.50934234244397,7.3ZM322.85304157442954,171.48253837745338C322.7530415744295,171.68787774824852 322.7530415744295,171.89321711904373 322.6530415744295,171.99588680444128L322.85304157442954,171.79054743364617V171.48253837745338ZM323.35304157442954,345.3023157555631L322.6530415744295,354.6452571267432C323.55304157442947,353.00254216038195 324.7530415744295,350.84647876703275 324.95304157442945,355.15860555373115 327.55304157442947,343.35159173300906 322.95304157442945,357.6226780032732 323.3530415744294,345.3023157555631ZM324.5530415744296,316.2467947880468C324.95304157442956,321.27760937252845 325.85304157442954,316.14412510264924 326.35304157442954,316.452134158842 325.5530415744296,313.2693739115168 325.35304157442954,312.55068611373383 324.5530415744296,316.2467947880468ZM324.5530415744296,106.28728814998755L326.6530415744296,106.80063657697545C326.35304157442965,102.89918853186727 325.85304157442965,106.69796689157788 324.5530415744296,106.28728814998755ZM328.1530415744296,37.79999999999998L328.6530415744296,42.499999999999986 328.95304157442956,44.09999999999999 328.1530415744296,37.79999999999999ZM139.3474730934833,3.499999999999986L139.93012914823197,6.099999999999985C141.3073161867288,5.599999999999985 141.62512858022808,2.7999999999999856 139.3474730934833,3.4999999999999853ZM60.79484316691328,6.1C59.94734345091523,4.8 57.72265669642032,3.9999999999999996 56.34546965792347,5.3 58.14640655441935,5.5 59.89437471866535,6.5 60.79484316691328,6.1ZM3,400.3332671286681L2.2,397.25317656674065 2.9000000000000004,403.10534863440296 3.0000000000000004,400.3332671286681Z"
          fill="var(--fillColor0)"></path>
</svg>
