<?xml version="1.0" encoding="iso-8859-1"?>
<!DOCTYPE svg PUBLIC "-//W3C//DTD SVG 1.1//EN" "http://www.w3.org/Graphics/SVG/1.1/DTD/svg11.dtd">
<svg version="1.1" id="Capa_1" xmlns="http://www.w3.org/2000/svg" xmlns:xlink="http://www.w3.org/1999/xlink" x="0px" y="0px"
	 width="297.679px" height="297.68px" viewBox="0 0 297.679 297.68" style="enable-background:new 0 0 297.679 297.68;"
	 xml:space="preserve">
<g>
	<g>
		<g>
			<polygon style="fill:#030303;" points="297.679,297.674 256.693,297.674 256.693,285.963 285.969,285.963 285.969,256.688 
				297.679,256.688 			"/>
		</g>
		<g>
			<rect x="112.888" y="285.963" style="fill:#030303;" width="71.907" height="11.711"/>
		</g>
		<g>
			<polygon style="fill:#030303;" points="40.987,297.674 0,297.674 0,256.688 11.71,256.688 11.71,285.963 40.987,285.963 			"/>
		</g>
		<g>
			<rect y="112.888" style="fill:#030303;" width="11.71" height="71.901"/>
		</g>
		<g>
			<polygon style="fill:#030303;" points="11.71,40.992 0,40.992 0,0.005 40.987,0.005 40.987,11.716 11.71,11.716 			"/>
		</g>
		<g>
			<rect x="112.888" y="0.005" style="fill:#030303;" width="71.907" height="11.71"/>
		</g>
		<g>
			<polygon style="fill:#030303;" points="297.679,40.992 285.969,40.992 285.969,11.716 256.693,11.716 256.693,0.005 
				297.679,0.005 			"/>
		</g>
		<g>
			<rect x="285.969" y="112.888" style="fill:#030303;" width="11.71" height="71.901"/>
		</g>
	</g>
</g>
</svg>
