<?xml version="1.0" encoding="iso-8859-1"?>
<!-- Generator: Adobe Illustrator 19.0.0, SVG Export Plug-In . SVG Version: 6.00 Build 0)  -->
<svg version="1.1" id="Capa_1" xmlns="http://www.w3.org/2000/svg" xmlns:xlink="http://www.w3.org/1999/xlink" x="0px" y="0px"
	 viewBox="0 0 128 128" style="enable-background:new 0 0 128 128;" xml:space="preserve">
<g>
	<path d="M96,26V8c0-4.4-3.6-8-8-8H40c-4.4,0-8,3.6-8,8v8c-0.55,0-1,0.45-1,1v2c0,0.55,0.45,1,1,1v6c-0.55,0-1,0.45-1,1v6
		c0,0.55,0.45,1,1,1v2c-0.55,0-1,0.45-1,1v6c0,0.55,0.45,1,1,1v76c0,4.4,3.6,8,8,8h48c4.4,0,8-3.6,8-8V36c0.55,0,1-0.45,1-1v-8
		C97,26.45,96.55,26,96,26z M94,120c0,3.308-2.692,6-6,6H40c-3.308,0-6-2.692-6-6V8c0-3.308,2.692-6,6-6h48c3.308,0,6,2.692,6,6V120
		z"/>
	<circle cx="53.5" cy="8.5" r="0.5"/>
	<path d="M56.5,9h15C71.775,9,72,8.775,72,8.5S71.775,8,71.5,8h-15C56.225,8,56,8.225,56,8.5S56.225,9,56.5,9z"/>
	<path d="M64,116c-2.209,0-4,1.791-4,4s1.791,4,4,4s4-1.791,4-4S66.209,116,64,116z M64,123c-1.654,0-3-1.346-3-3s1.346-3,3-3
		s3,1.346,3,3S65.654,123,64,123z"/>
</g>
<g>
</g>
<g>
</g>
<g>
</g>
<g>
</g>
<g>
</g>
<g>
</g>
<g>
</g>
<g>
</g>
<g>
</g>
<g>
</g>
<g>
</g>
<g>
</g>
<g>
</g>
<g>
</g>
<g>
</g>
</svg>
