<?xml version="1.0" encoding="iso-8859-1"?>
<!-- Generator: Adobe Illustrator 19.0.0, SVG Export Plug-In . SVG Version: 6.00 Build 0)  -->
<svg version="1.1" id="Capa_1" xmlns="http://www.w3.org/2000/svg" xmlns:xlink="http://www.w3.org/1999/xlink" x="0px" y="0px"
	 viewBox="0 0 512 512" style="enable-background:new 0 0 512 512;" xml:space="preserve">
<g>
	<g>
		<path d="M497,0H15C6.716,0,0,6.716,0,15v482c0,8.284,6.716,15,15,15h482c8.284,0,15-6.716,15-15V15C512,6.716,505.284,0,497,0z
			 M482,482H30V30h452V482z"/>
	</g>
</g>
<g>
	<g>
		<path d="M390.998,135.956c-0.024-8.216-6.709-14.96-15.003-14.956H316c-8.284,0-15,6.716-15,15s6.716,15,15,15h23.787L151,339.787
			V316c0-8.284-6.716-15-15-15s-15,6.716-15,15v60c0,0.015,0.002,0.03,0.002,0.044C121.026,384.25,127.695,391,136,391h60
			c8.284,0,15-6.716,15-15s-6.716-15-15-15h-23.787L361,172.213V196c0,8.284,6.716,15,15,15s15-6.716,15-15v-60
			C391,135.985,390.998,135.97,390.998,135.956z"/>
	</g>
</g>
<g>
</g>
<g>
</g>
<g>
</g>
<g>
</g>
<g>
</g>
<g>
</g>
<g>
</g>
<g>
</g>
<g>
</g>
<g>
</g>
<g>
</g>
<g>
</g>
<g>
</g>
<g>
</g>
<g>
</g>
</svg>
