<?xml version="1.0" encoding="iso-8859-1"?>
<!-- Generator: Adobe Illustrator 16.0.0, SVG Export Plug-In . SVG Version: 6.00 Build 0)  -->
<!DOCTYPE svg PUBLIC "-//W3C//DTD SVG 1.1//EN" "http://www.w3.org/Graphics/SVG/1.1/DTD/svg11.dtd">
<svg version="1.1" id="Capa_1" xmlns="http://www.w3.org/2000/svg" xmlns:xlink="http://www.w3.org/1999/xlink" x="0px" y="0px"
	 width="58.42px" height="58.42px" viewBox="0 0 58.42 58.42" style="enable-background:new 0 0 58.42 58.42;" xml:space="preserve"
	>
<g>
	<path d="M45.802,39.2L30.138,54.859V3.56l15.664,15.664c0.181,0.18,0.42,0.271,0.654,0.271c0.24,0,0.478-0.091,0.659-0.271
		c0.363-0.364,0.363-0.953,0-1.315L29.866,0.659c0,0,0,0,0-0.002L29.209,0l-0.656,0.657c0,0.002,0,0.002,0,0.002l-17.25,17.249
		c-0.365,0.363-0.365,0.951,0,1.315c0.362,0.361,0.95,0.361,1.315,0L28.282,3.56v51.3L12.618,39.2c-0.365-0.365-0.953-0.365-1.315,0
		c-0.365,0.362-0.365,0.951,0,1.312L29.212,58.42L47.12,40.512c0.362-0.36,0.362-0.949,0-1.312
		C46.751,38.835,46.162,38.835,45.802,39.2z"/>
</g>
<g>
</g>
<g>
</g>
<g>
</g>
<g>
</g>
<g>
</g>
<g>
</g>
<g>
</g>
<g>
</g>
<g>
</g>
<g>
</g>
<g>
</g>
<g>
</g>
<g>
</g>
<g>
</g>
<g>
</g>
</svg>
