<?xml version="1.0" standalone="no"?><!DOCTYPE svg PUBLIC "-//W3C//DTD SVG 1.1//EN" "http://www.w3.org/Graphics/SVG/1.1/DTD/svg11.dtd"><svg t="1583140787227" class="icon" viewBox="0 0 1024 1024" version="1.1" xmlns="http://www.w3.org/2000/svg" p-id="30715" xmlns:xlink="http://www.w3.org/1999/xlink" width="128" height="128"><defs><style type="text/css"></style></defs><path d="M298.922667 196.096l83.84 140.8-140.8-83.84 56.96-56.96zM172.373333 669.269333L151.466667 591.36l163.84-2.176-142.976 80zM772.266667 196.053333l56.96 56.96-140.8 83.797334 83.84-140.8z m107.050666 470.016l-142.976-80 163.84 2.176-20.906666 77.824zM495.018667 887.466667l32.853333-132.010667 32.938667 132.010667h-65.792z" fill="#707070" p-id="30716"></path><path d="M525.482667 677.034667l188.501333 98.773333-36.010667-209.237333 152.448-148.181334-210.688-30.506666-94.293333-190.421334-94.250667 190.421334-210.645333 30.506666 152.448 148.181334-36.010667 209.237333 188.501334-98.773333z m0 31.317333L300.117333 826.453333l43.050667-250.197333-182.357333-177.237333 251.989333-36.48 112.64-227.584 112.682667 227.584 252.032 36.48-182.4 177.237333 43.093333 250.197333-225.365333-118.101333z" fill="#707070" p-id="30717"></path><path d="M507.264 570.752h9.472l66.688 33.152-13.653333-75.136 57.045333-52.608-78.890667-10.837333L512 396.373333l-35.925333 68.906667-78.890667 10.837333 57.002667 52.608-13.610667 75.136 66.688-33.152z m-95.232 71.210667l19.114667-105.472L349.44 461.226667l112.768-15.488L512 350.250667l49.749333 95.445333 112.768 15.488-81.664 75.306667 19.114667 105.472L512 592.213333l-99.968 49.749334z" fill="#707070" opacity=".4" p-id="30718"></path></svg>