<?xml version="1.0" standalone="no"?><!DOCTYPE svg PUBLIC "-//W3C//DTD SVG 1.1//EN" "http://www.w3.org/Graphics/SVG/1.1/DTD/svg11.dtd"><svg t="1583141442678" class="icon" viewBox="0 0 1024 1024" version="1.1" xmlns="http://www.w3.org/2000/svg" p-id="31597" xmlns:xlink="http://www.w3.org/1999/xlink" width="128" height="128"><defs><style type="text/css"></style></defs><path d="M511.658667 683.861333l-180.309334 94.634667a9.898667 9.898667 0 0 1-14.378666-10.453333l34.432-200.405334-145.834667-141.952a9.898667 9.898667 0 0 1 5.504-16.896l201.557333-29.226666 90.154667-182.4a9.898667 9.898667 0 0 1 17.749333 0l90.154667 182.4 201.557333 29.226666a9.898667 9.898667 0 0 1 5.504 16.896l-145.834666 141.952 34.432 200.405334a9.898667 9.898667 0 0 1-14.378667 10.453333l-180.309333-94.634667zM294.826667 207.914667l80.213333 134.826666-134.826667-80.213333 54.613334-54.613333zM173.653333 661.376L153.6 586.794667l156.842667-2.048L173.653333 661.333333z m574.293334-453.461333l54.613333 54.613333-134.826667 80.213333 80.213334-134.826666z m102.485333 450.474666l-136.832-76.672 156.842667 2.048-20.010667 74.624z m-367.957333 212.096l31.573333-126.336 31.530667 126.336h-63.104z" fill="#444444" p-id="31598"></path></svg>