<?xml version="1.0" standalone="no"?><!DOCTYPE svg PUBLIC "-//W3C//DTD SVG 1.1//EN" "http://www.w3.org/Graphics/SVG/1.1/DTD/svg11.dtd"><svg t="1583139433244" class="icon" viewBox="0 0 1024 1024" version="1.1" xmlns="http://www.w3.org/2000/svg" p-id="27458" width="128" height="128" xmlns:xlink="http://www.w3.org/1999/xlink"><defs><style type="text/css"></style></defs><path d="M288 288v48h-48V256a16 16 0 0 1 16-16h80v48h-48z m0 448h48v48H256a16 16 0 0 1-16-16V688h48v48z m448-448h-48v-48h80a16 16 0 0 1 16 16v80h-48v-48z m0 448v-48h48v80a16 16 0 0 1-16 16H688v-48h48zM160 128h704a32 32 0 0 1 32 32v704a32 32 0 0 1-32 32H160a32 32 0 0 1-32-32V160a32 32 0 0 1 32-32z m32 64v640h640V192H192z" fill="#707070" p-id="27459"></path></svg>