<?xml version="1.0" standalone="no"?><!DOCTYPE svg PUBLIC "-//W3C//DTD SVG 1.1//EN" "http://www.w3.org/Graphics/SVG/1.1/DTD/svg11.dtd"><svg t="1584942555589" class="icon" viewBox="0 0 1024 1024" version="1.1" xmlns="http://www.w3.org/2000/svg" p-id="11397" xmlns:xlink="http://www.w3.org/1999/xlink" width="128" height="128"><defs><style type="text/css"></style></defs><path d="M456.037 791.81H270.553L460.82 601.573l-39.594-39.567-189.91 189.91 0.874-183.953c0-15.466-12.515-27.982-27.982-27.982s-27.98 12.515-27.98 27.982v251.83c0 8.306 3.415 14.974 8.825 19.564 5.083 5.192 12.132 8.416 19.947 8.416h251.037c15.466 0 27.981-12.514 27.981-27.98 0.001-15.466-12.513-27.981-27.98-27.981z m382.909-607.166c-5.083-5.19-12.132-8.416-19.947-8.416H567.96c-15.466 0-27.981 12.515-27.981 27.98 0 15.467 12.514 27.982 27.981 27.982h185.483L563.207 422.428l39.567 39.567 189.91-189.91-0.874 183.953c0 15.467 12.514 27.982 27.982 27.982s27.98-12.514 27.98-27.982v-251.83c0-8.305-3.416-14.973-8.826-19.564z m8.826-120.34H176.227c-61.81 0-111.924 50.115-111.924 111.924v671.544c0 61.81 50.114 111.924 111.924 111.924h671.545c61.81 0 111.924-50.114 111.924-111.924V176.228c0-61.81-50.114-111.924-111.924-111.924z m55.961 783.468c0 30.879-25.056 55.963-55.962 55.963H176.227c-30.905 0-55.962-25.084-55.962-55.963V176.228c0-30.933 25.056-55.963 55.962-55.963h671.545c30.905 0 55.962 25.03 55.962 55.963v671.544z" p-id="11398"></path></svg>