<?xml version="1.0" standalone="no"?><!DOCTYPE svg PUBLIC "-//W3C//DTD SVG 1.1//EN" "http://www.w3.org/Graphics/SVG/1.1/DTD/svg11.dtd"><svg t="1585120453619" class="icon" viewBox="0 0 1024 1024" version="1.1" xmlns="http://www.w3.org/2000/svg" p-id="34644" xmlns:xlink="http://www.w3.org/1999/xlink" width="128" height="128"><defs><style type="text/css"></style></defs><path d="M177.066667 484.266667a123.733333 123.733333 0 0 1-123.733334-123.733334v-183.466666a123.733333 123.733333 0 0 1 123.733334-123.733334h183.466666a123.733333 123.733333 0 0 1 123.733334 123.733334v183.466666a123.733333 123.733333 0 0 1-123.733334 123.733334h-183.466666z m0-64h183.466666a59.733333 59.733333 0 0 0 59.733334-59.733334v-183.466666a59.733333 59.733333 0 0 0-59.733334-59.733334h-183.466666a59.733333 59.733333 0 0 0-59.733334 59.733334v183.466666a59.733333 59.733333 0 0 0 59.733334 59.733334z m641.322666-366.933334h0.426667a124.032 124.032 0 0 1 122.581333 124.032v183.381334a124.074667 124.074667 0 0 1-123.733333 123.52h-183.594667a124.074667 124.074667 0 0 1-123.605333-123.648V177.493333a123.605333 123.605333 0 0 1 124.458667-124.16h183.466666z m-183.68 64a59.776 59.776 0 0 0-60.245333 60.032v183.125334c0.128 32.938667 26.88 59.648 59.733333 59.776h183.338667a60.032 60.032 0 0 0 59.861333-59.648V177.322667c0-32.768-26.368-59.52-59.178666-59.989334h-183.509334z m182.954667 393.130667a124.16 124.16 0 0 1 123.733333 123.733333v183.594667a124.16 124.16 0 0 1-123.733333 123.605333h-183.594667a124.16 124.16 0 0 1-123.605333-123.733333v-183.466667a123.733333 123.733333 0 0 1 123.733333-123.733333h183.466667z m-183.466667 64a59.733333 59.733333 0 0 0-59.733333 59.733333v183.338667c0.128 33.024 26.88 59.733333 59.733333 59.861333h183.338667c33.024-0.128 59.733333-26.88 59.861333-59.733333v-183.338667a60.117333 60.117333 0 0 0-59.776-59.861333h-183.424z m-273.664-64a123.733333 123.733333 0 0 1 123.733334 123.733333v183.594667a124.16 124.16 0 0 1-123.733334 123.605333H176.938667a124.16 124.16 0 0 1-123.605334-123.008v-183.338666a124.16 124.16 0 0 1 123.733334-124.586667h183.466666z m0 64H177.194667a60.117333 60.117333 0 0 0-59.861334 60.458667v183.125333c0.426667 32.810667 27.050667 59.221333 59.733334 59.349333h183.338666c33.024-0.128 59.733333-26.88 59.861334-59.733333v-183.466667a59.733333 59.733333 0 0 0-59.733334-59.733333z" p-id="34645"></path></svg>