<?xml version="1.0" standalone="no"?><!DOCTYPE svg PUBLIC "-//W3C//DTD SVG 1.1//EN" "http://www.w3.org/Graphics/SVG/1.1/DTD/svg11.dtd"><svg t="1585119737457" class="icon" viewBox="0 0 1024 1024" version="1.1" xmlns="http://www.w3.org/2000/svg" p-id="13711" xmlns:xlink="http://www.w3.org/1999/xlink" width="128" height="128"><defs><style type="text/css"></style></defs><path d="M853.330656 85.331995 170.66399 85.331995c-31.513623 0-58.711925 17.261284-73.488955 42.665997l73.488955 0 85.331995 0 597.334672 0c23.573646 0 42.665997 19.092351 42.665997 42.665997l0 640.000669 0 54.509037 0 73.488955c25.404713-14.782384 42.665997-41.980686 42.665997-73.488955L938.662651 170.66399C938.668005 123.543467 900.456533 85.331995 853.330656 85.331995z" p-id="13712"></path><path d="M767.998662 170.66399 256.001338 170.66399 127.997992 170.66399l-42.665997 0C38.206118 170.66399 0 208.875462 0 256.001338l0 682.666667c0 47.125876 38.206118 85.331995 85.331995 85.331995l682.666667 0c47.125876 0 85.331995-38.206118 85.331995-85.331995l0-42.665997 0-127.997992L853.330656 256.001338C853.330656 208.875462 815.124538 170.66399 767.998662 170.66399zM810.664659 896.002008l0 42.665997c0 23.573646-19.092351 42.665997-42.665997 42.665997L85.331995 981.334003c-23.573646 0-42.665997-19.092351-42.665997-42.665997L42.665997 256.001338c0-23.573646 19.092351-42.665997 42.665997-42.665997l42.665997 0 640.000669 0c23.573646 0 42.665997 19.092351 42.665997 42.665997L810.664659 896.002008z" p-id="13713"></path><path d="M938.668005 0 256.001338 0c-31.513623 0-58.711925 17.261284-73.488955 42.665997l73.488955 0 85.331995 0 597.334672 0c23.573646 0 42.665997 19.092351 42.665997 42.665997l0 640.000669 0 54.509037 0 73.488955c25.404713-14.782384 42.665997-41.980686 42.665997-73.488955L1024 85.331995C1024 38.206118 985.788528 0 938.668005 0z" p-id="13714"></path></svg>