<?xml version="1.0" encoding="iso-8859-1"?>
<!-- Generator: Adobe Illustrator 19.0.0, SVG Export Plug-In . SVG Version: 6.00 Build 0)  -->
<svg version="1.1" id="Capa_1" xmlns="http://www.w3.org/2000/svg" xmlns:xlink="http://www.w3.org/1999/xlink" x="0px" y="0px"
	 viewBox="0 0 50.5 50.5" style="enable-background:new 0 0 50.5 50.5;" xml:space="preserve" stroke-width="2">
<g>
	<path fill="#0c2239" d="M25.25,0c-4.217,0-8.392,1.061-12.072,3.069c-0.485,0.265-0.664,0.872-0.399,1.357c0.265,0.485,0.874,0.664,1.356,0.399
		C17.523,2.977,21.367,2,25.25,2C38.07,2,48.5,12.43,48.5,25.25S38.07,48.5,25.25,48.5C12.43,48.5,2,38.07,2,25.25
		c0-6.261,2.455-12.134,6.914-16.539C9.307,8.323,9.311,7.69,8.922,7.297c-0.388-0.394-1.02-0.397-1.414-0.009
		C2.666,12.072,0,18.451,0,25.25C0,39.173,11.327,50.5,25.25,50.5c13.923,0,25.25-11.327,25.25-25.25C50.5,11.327,39.173,0,25.25,0z
		"/>
	<path stroke="#69E781" fill="#69E781" d="M17.609,13.498c-0.553,0-1,0.448-1,1v21.504c0,0.552,0.447,1,1,1c0.553,0,1-0.448,1-1v-8.826l13.707,9.644
		c0.175,0.123,0.375,0.182,0.574,0.182c0.314,0,0.624-0.148,0.818-0.425c0.318-0.452,0.21-1.075-0.242-1.393L19.348,25.25
		l12.544-8.826v12.773c0,0.552,0.447,1,1,1c0.553,0,1-0.448,1-1V14.498c0-0.374-0.208-0.715-0.539-0.888
		c-0.333-0.172-0.73-0.144-1.036,0.07l-13.707,9.644v-8.826C18.609,13.946,18.162,13.498,17.609,13.498z"/>
</g>
<g>
</g>
<g>
</g>
<g>
</g>
<g>
</g>
<g>
</g>
<g>
</g>
<g>
</g>
<g>
</g>
<g>
</g>
<g>
</g>
<g>
</g>
<g>
</g>
<g>
</g>
<g>
</g>
<g>
</g>
</svg>
