<svg width="260" height="130" xmlns="http://www.w3.org/2000/svg">
 <g>
  <title>background</title>
  <rect fill="none" id="canvas_background" height="132" width="262" y="-1" x="-1"/>
 </g>
 <defs>
  <filter id="svg_4_blur">
   <feGaussianBlur stdDeviation="0"/>
  </filter>
 </defs>
 <g>
  <title>Layer 1</title>
  <path id="svg_2" d="m157.329884,21.609997c-0.882784,0 -1.596355,0.693606 -1.596355,1.548226l0,33.293054c0,0.854621 0.713571,1.548226 1.596355,1.548226c0.882784,0 1.596355,-0.693606 1.596355,-1.548226l0,-13.664643l21.88124,14.931092c0.279362,0.190432 0.598633,0.281777 0.916308,0.281777c0.501255,0 0.996126,-0.229137 1.305818,-0.657996c0.507641,-0.699798 0.335234,-1.664343 -0.386318,-2.156679l-22.537342,-15.380078l20.024679,-13.664643l0,19.775492c0,0.854621 0.713571,1.548226 1.596355,1.548226c0.882784,0 1.596355,-0.693606 1.596355,-1.548226l0,-22.757376c0,-0.579037 -0.332042,-1.106981 -0.860436,-1.374825c-0.531586,-0.266295 -1.165339,-0.222945 -1.653824,0.108376l-21.88124,14.931092l0,-13.664643c-0.001596,-0.854621 -0.715167,-1.548226 -1.597952,-1.548226l0.000001,0.000001l0.000001,-0.000001z" fill="transparent" stroke-width="3" stroke="#69E781"/>
  <path stroke="#0c2239" id="svg_3" d="m169.711844,6.723366c-5.524908,0 -10.99479,1.390071 -15.816148,4.020855c-0.635423,0.34719 -0.869941,1.142452 -0.52275,1.777875c0.34719,0.635423 1.145072,0.869941 1.776565,0.52275c4.438793,-2.42116 9.475015,-3.701178 14.562333,-3.701178c16.796141,0 30.46102,13.664879 30.46102,30.46102s-13.664879,30.46102 -30.46102,30.46102c-16.796141,0 -30.46102,-13.664879 -30.46102,-30.46102c0,-8.202858 3.216422,-15.897377 9.058387,-21.668594c0.514889,-0.508339 0.52013,-1.337665 0.010481,-1.852554c-0.508339,-0.5162 -1.336354,-0.52013 -1.852554,-0.011791c-6.343753,6.267764 -9.836617,14.62522 -9.836617,23.532939c0,18.241238 14.840085,33.081322 33.081322,33.081322c18.241238,0 33.081322,-14.840085 33.081322,-33.081322c0,-18.241238 -14.840085,-33.081322 -33.081322,-33.081322l0.000001,0z" fill="transparent"/>
  <text xml:space="preserve" text-anchor="start" font-family="Helvetica, Arial, sans-serif" font-size="24" id="svg_1" y="7.55" x="-240.4" fill-opacity="null" stroke-opacity="null" stroke-width="0" stroke="#69E781" fill="#000000">D</text>
  <text fill="#000000" stroke-width="0" stroke-opacity="null" fill-opacity="null" x="47.264301" y="58.601563" id="svg_4" font-size="47" font-family="Arvo, sans-serif" text-anchor="start" xml:space="preserve" font-weight="bold" filter="url(#svg_4_blur)" transform="matrix(1.1265864372253418,0,0,1,-26.747318603098392,0) " stroke="#0c2239">Dan</text>
  <text transform="matrix(1,0,0,1,0,0) " fill="#0c2239" stroke="#000000" stroke-width="0" x="203.5" y="62.5" id="svg_5" font-size="57" font-family="Arvo, sans-serif" text-anchor="start" xml:space="preserve" font-weight="bold">e</text>
 </g>
</svg>