<?xml version="1.0" standalone="no"?>
<svg class="icon" viewBox="0 0 1024 1024" version="1.1" xmlns="http://www.w3.org/2000/svg" width="128" height="128">
    <path fill="#515151" d="M819.413333 273.066667h-614.4c-18.773333 0-34.133333-15.36-34.133333-34.133334 0-18.773333 15.36-34.133333 34.133333-34.133333h614.4c18.773333 0 34.133333 15.36 34.133334 34.133333 0 18.773333-15.36 34.133333-34.133334 34.133334z m34.133334 148.48c0-18.773333-15.36-34.133333-34.133334-34.133334h-353.28c-18.773333 0-34.133333 15.36-34.133333 34.133334 0 18.773333 15.36 34.133333 34.133333 34.133333h353.28c18.773333 0 34.133333-15.36 34.133334-34.133333z m0 181.76c0-18.773333-15.36-34.133333-34.133334-34.133334H362.026667c-18.773333 0-34.133333 15.36-34.133334 34.133334 0 18.773333 15.36 34.133333 34.133334 34.133333h457.386666c18.773333 0 34.133333-15.36 34.133334-34.133333z m-2.56 181.76c0-18.773333-15.36-34.133333-34.133334-34.133334H235.733333c-18.773333 0-34.133333 15.36-34.133333 34.133334 0 18.773333 15.36 34.133333 34.133333 34.133333h581.12c18.773333 0 34.133333-15.36 34.133334-34.133333z"
          ></path>
</svg>
