<svg xmlns="http://www.w3.org/2000/svg" enable-background="new 0 0 7580.8 6972.9" version="1.1" viewBox="0 0 7580.8 6972.9" x="0px" xml:space="preserve" y="0px" style="fill: rgb(0, 0, 0);">
<g>
	<g id="__id234_sz2mecxx3g" style="fill: rgb(255, 174, 67);">
		<path d="m6818.4 4347.9c-20.7 103.7-105 90.7-105 90.7s3.1 44.9-8 78.1c-13.1 38.7-50.6 70.4-50.6 70.4s66.9 31.4 92.2 106.9c45.6-42.9 73.4-101.7 88.8-153.6 19.9-67 19.9-119.1-17.4-192.5zm-60.3 121.1c3-3.9 7.2-5.8 10.9-8.5 4.5-0.7 8.6-2.5 13.4-1.8 4.8 0.6 9.6 1.7 15 5.9l0.4 1.5c-15.4 5.1-30.8 10.8-44.4 19.6l-0.9-1.2c0-6.9 2.6-11.5 5.6-15.5zm-1.3 146.7l-1.2 0.9c-10.5-12.2-20.3-24.8-29.4-38l1.2-0.9c6.7-0.1 11.1 1.5 15.2 3.4s6.5 5.1 9.7 7.7c1.6 3.8 4.2 6.9 4.9 11.4 0.9 4.4 1.4 9.1-0.4 15.5zm30.6-41.7c-6.8-5.5-13.9-10.7-21.4-15.1-7.2-4.8-14.8-9.4-23.3-11.1l0.2-1.5c5.5-4.7 11.6-5.1 16.9-4.9 5.5 0.3 9.7 2.9 14.3 4.6 3.5 3.5 7.4 6.1 9.9 10.6 2.4 4.5 4.5 9.3 4.3 16.3l-0.9 1.1zm17.9-44.8c-13.8-6.8-27.6-13.4-42.1-18.5l0.4-1.5c5.2-4.1 10-5.2 14.6-5.7s8.4 1.2 12.5 2c3.3 2.7 7 4.3 9.7 8 2.6 3.7 5 7.8 5.7 14.4l-0.8 1.3z" style="fill: inherit;"></path>
		<path d="m6555.5 3685.8c-5-8-10.7-15.9-16.6-23.1-28 7-65.5-10.6-65.5-10.6s16.6 53.9-49.9 151.9c-41.6 61.2-29.1 115-29.1 115s75.9 77 61.9 158.3l0.4 0.9c24.6-14.3 38.7-33.7 35.8-56.4 0 0 111.8-66.9 83-172.2 0 0 51.6-51.7-20-163.8zm-77.2 118.6c1.5-4.8 4.1-8.8 5.4-13.7 3.3-4 4.9-9 8.5-13.4 3.5-4.6 7.3-9.3 13.4-14.2l1.5 0.2c-1.6 11.8-4.7 23.4-9.8 34.3-5.5 10.6-13.6 20.5-24.8 25.3l-0.6-1.4c3-7.5 4.7-12.3 6.4-17.1zm-6.7 151.6l-1.5 0.5c-6.3-16.6-11.8-33.5-16.4-50.6l1.5-0.5c6.5 2.5 10.2 6 13.6 9.6 3.3 3.6 4.6 7.8 6.9 11.7 0.3 4.5 1.9 8.7 1.2 13.6-0.6 4.9-1.6 9.8-5.3 15.7zm66.1-45.8c-19.4-6.6-38.4-13.9-57.2-22l0.6-1.4c6.7-3.2 12.4-3.7 17.9-3.8s10.2 1.8 15.4 2.7c4.4 2.8 9.2 4.5 13.2 8.3s7.9 8 10.7 14.8l-0.6 1.4zm-56.5-52.9l-0.4-1.5c4.1-7 8.9-11.3 13.8-15.1s10.4-5.6 15.6-8.4c5.8-0.8 11.3-2.8 17.5-2.7s12.5 0.6 19.9 3.8l0.5 1.4c-22 8.3-44.4 15.8-66.9 22.5z" style="fill: inherit;"></path>
		<path d="m5933.5 4278.8c5 14 8.6 27.9 10.9 41.2 4.5 26.8 3.5 51.6-2.4 71.8-3 10.1-7.2 19-12.6 26.5-2.7 3.7-5.7 7-9 10-4.4 3.8-9.6 7.6-15.6 11.2s-12.8 7.1-20.4 10.4c252 2.4 325.6-213.9 270.9-288.5 0 0 27.8-28.3 26.8-85.1 0.1-13.6-1.9-29-6-46.1-5-19.7-13.2-38.8-24-55.7-8.5-13.3-18.5-25.2-29.9-35.1-11.3-9.9-24-17.7-37.5-22.7-1.7-0.6-3.3-1.5-5-2.1-3.3-12.7-12-25.8-25.1-38.6-4.4-4.3-9.2-8.5-14.5-12.6 0.6 9.5 2.1 18.8 3.9 27.8-12.7-6-27-10.6-43.6-12.9-15.9-2.2-34-2.1-54.6 0.9-2.6 0.4-5.3 0.9-8 1.4-8.7 1.6-17.8 3.7-27.4 6.4-4.6 1.3-9.1 2.4-14 4 9.5 6.2 19.4 15 28.6 25.5 9.3 10.5 17.9 22.7 25.1 35.9 10.7 19.8 17.9 41.7 18.5 63.2 0.2 7.2-0.4 14.3-1.8 21.2-2.5 12.5-9.1 23.9-18 34.4-3 3.5-6.2 6.8-9.7 10.1-6.9 6.5-14.6 12.5-22.7 18-12.1 8.2-25.1 15.4-37.3 21.3-28.5 13.8-52.7 21.2-52.7 21.2 54.6 37.4 89.5 88 107.1 137zm116.8-170.3l0.2 1.5c-4.8 6.1-10 9.3-15.2 12-5.2 2.8-10.7 3.4-16.1 5.1-5.6-0.4-11.1 0.5-16.9-0.9-5.8-1.3-11.6-3.1-17.7-7.7l-0.2-1.5c21.9-3.7 43.8-6.5 65.9-8.5zm-2.2 49.5c-4.2 5.5-8.4 8.1-12.6 10.2s-8.5 2.1-12.8 3.2c-4.3-1-8.6-0.7-12.9-2.8-4.3-2-8.6-4.4-13-9.7v-1.5c17.1-1.2 34.1-1.5 51.2-1l0.1 1.6zm-19.2-102.1l0.9 1.2c-0.8 7.3-3.4 12.3-6.1 16.9-2.8 4.6-6.9 7.5-10.3 11.3-4.7 2.1-8.6 5.2-13.8 6.4-5.2 1.3-10.8 2.2-17.9 0.9l-0.9-1.2c15.5-12.5 31.5-24.3 48.1-35.5zm-58.3 131.8c10.7 7.3 22.3 13.3 34.3 17.7 11.9 4.7 24.7 7.8 37.6 6.6l0.2 1.5c-6 6.1-13.8 8.3-21.4 9.2-7.6 0.7-14.7-1.5-21.8-3-6.3-3.6-12.8-6.4-17.9-11.6-5.1-5.1-9.7-10.9-11.9-19.1l0.9-1.3zm-16.1 36.2c7.1 1.9 11.6 5.2 15.8 8.7s6.4 8.1 9.7 12.1c1.4 5 3.9 9.4 4.3 14.9 0.5 5.4 0.6 11.1-1.9 17.9l-1.4 0.7c-10.1-17.5-19.4-35.3-28-53.6l1.5-0.7z" style="fill: inherit;"></path>
		<path d="m736 5982.1s-36.9-22.2-56.6-49.3c-23.1-31.8-27.2-78.3-27.2-78.3s-61.9 35.1-134.8 13.2c9 59.5 39.5 113.6 71.8 154.1 41.2 52.5 82.1 81.2 159.8 92.3-69.5-73-13-132-13-132zm-154.9-84.7c16.1 2.5 31.9 5.7 47.7 9.8l-0.3 1.4c-5 4.3-9.5 5.8-13.8 6.9-4.4 1.1-8.3 0.2-12.5 0.4-3.8-1.8-7.8-2.5-11.3-5.3-3.6-2.8-7.1-5.9-10-11.8l0.2-1.4zm13.8 57.6c-5-2.1-9.8-4.7-14.2-10.3l0.2-1.5c9.4 0.6 18.9 0.5 28.3-0.4 9.4-0.4 18.9-1.6 27.5-5.2l0.6 1.3c-2.3 6.8-7.1 10.7-11.9 13.7-4.9 3-10.2 3.4-15.2 4.8-5.2-0.5-10.3-0.3-15.3-2.4zm38.6 49.7c-5.4 1.5-11.1 2.4-18 0.4l-0.7-1.3c16.2-10.5 31.3-23.4 42-39.6l1.3 0.7c1.9 6.9 0.7 12.8-1.2 18.2-2 5.4-5.8 9.3-9.2 13.7-4.7 2.9-8.8 6.4-14.2 7.9zm48.1 7.5c-3.6 3.6-6.6 7.5-11.3 9.6s-9.8 3.5-16.4 2.2l-0.9-1.2c12.2-11 23.3-24.9 25.7-41.5l1.5 0.1c4.7 4.8 6 10.5 6 16-0.1 5.5-2.6 10.2-4.6 14.8z" style="fill: inherit;"></path>
		<path d="m1440.6 5644.1c-4.2-4.5-7.6-9.6-10.2-15.1-27.2-53.9 5.9-152.9 5.9-152.9-52.5 19.6-104.2 21.6-148.5 12.7-71.4-14.2-123.4-55.8-128.1-97.2-1.1-11.5-0.1-25.5 3.3-41.1-66.6 92.7-73.4 180.9-52.6 248 23.4 76.1 81.6 125.6 128.7 124.6 0 0 6.3 32.8 44.1 62.1l0.3 0.1c12.4 9.6 27.8 18.6 47.1 26.2 48.4 18.8 106.1 16.9 143.7-11.4 1.6-0.4 3.2-0.8 4.7-1.7 42.4-12.9 87.5-40.1 115.1-129.1-40.5 16-115.9 14.4-153.5-25.2zm-216-130.8c22.5 3.8 44.9 8.4 67 13.7l-0.3 1.4c-6.6 3.9-12.7 5.1-18.7 5.9s-11.5-0.4-17.3-0.6c-5.4-2.2-11-3.1-16.2-6.3-5.2-3.1-10.3-6.6-14.8-12.8l0.3-1.3zm30 72.3c-7.1 1.3-14.4 2.2-23 0.8l-0.7-1.3c24.2-12.8 48.7-25 73.6-36.4 0.3-0.2 0.6-0.3 1-0.5l0.6 1.3c-0.2 0.4-0.5 0.7-0.8 1.1-3.9 7.1-8.7 12.1-13.7 16.7-5.3 4.8-11.5 7.8-17.2 11.7-6.6 2.1-12.7 5.3-19.8 6.6zm17.1 52.9l-1.2-0.9c-0.3-8 1.5-14.3 3.7-20.4s6-10.8 9-16.3c4.6-4.2 8.2-9.2 13.5-12.7 5.3-3.6 11-7 18.8-8.7l1.2 0.9c-14.4 19.9-29.4 39.3-45 58.1zm69-39.8c-11.2 22.2-23 43.9-35.6 65.3l-1.3-0.6c-1.7-7.7-0.8-14.3 0.4-20.8 1.3-6.5 4.4-12 6.6-18.1 4-5.1 6.8-10.8 11.6-15.3 4.7-4.5 9.7-8.7 16.9-11.5 0.1 0 0.1-0.1 0.2-0.1l1.2 0.8c0.1 0 0 0.2 0 0.3zm37.1 24.1c-8.4 17.5-17.3 34.9-26.9 51.8l-1.3-0.7c-2.1-7.1-1.8-13-1.1-18.6s3.3-10.3 4.9-15.5c3.4-4.3 5.7-9.1 10-12.9l1.5-1.2c2.1-1.9 4.6-3.6 7.2-5.2 0.3-0.1 0.6-0.3 0.8-0.4 2-1.1 3.8-2.2 6.3-3.1l1.3 0.7c-0.9 1.8-1.9 3.4-2.7 5.1zm43 77.4c-5.8-3.2-8.8-6.8-11.4-10.5s-3.2-7.7-4.8-11.6c0.4-4.2-0.5-8.2 0.9-12.5 1.3-4.3 3-8.7 7.4-13.6l1.4-0.2c3.4 15.9 6.1 31.9 7.9 48.1l-1.4 0.3z" style="fill: inherit;"></path>
		<path d="m1331.8 6141.2c-25.6-65.8-74.9-85.4-74.9-85.4s-101.9 17.8-158.5-37.6l-1.1 0.1c-1.9 27 5.5 48.7 25.1 58.7 0 0-8 124.6 90.7 159.4 0 0 12.5 68.7 139.9 73.5 9.3 0.3 18.5 0.3 27.5-0.6 9.4-26 43.9-45.6 43.9-45.6s-51.4-16.4-92.6-122.5zm-143.2-64.2c16.3 2.8 32.4 6.3 48.4 10.7l-0.3 1.4c-5.2 4.2-9.7 5.6-14.2 6.7-4.5 1-8.5 0.1-12.7 0.1-3.8-1.9-7.9-2.6-11.5-5.5-3.6-2.8-7.1-6.1-10-12l0.3-1.4zm11.9 58.7c-5-0.9-10.1-2.1-15.8-6l-0.3-1.4c18-5.1 36.1-9.4 54.5-13l0.3 1.4c-3.3 6.1-7.3 9.5-11.4 12.6-4.1 3-8.6 4-13 6-4.8 0.1-9.3 1.3-14.3 0.4zm52 20.4c-2.7 5.2-6.9 8.5-10.5 12.7-4.8 2.5-8.9 5.9-14.4 7.4-5.4 1.5-11.1 2.6-18.3 1.2l-0.8-1.2c8.4-5.9 16.5-12.2 24.4-18.7 8.1-6.2 16.1-12.7 22.9-20.3l1.1 0.9c0.5 7.2-1.8 12.8-4.4 18zm29.6 29.8c-2.5 4.3-3.9 9-7.5 12.8-3.5 3.8-7.5 7.5-14.1 9.8l-1.3-0.6c6.3-17.6 12.4-35.3 16.9-53.4l1.4 0.3c4.1 5.6 5.4 11 6 16.2 0.6 5.3-0.9 10-1.4 14.9zm39 18c-1.7 3.5-3.8 6.9-8.7 10.6l-1.5 0.1c-1.9-13.1-3-26.3-3.2-39.5l1.5-0.1c5.4 2.9 8.1 6 10.4 9.1 2.2 3.1 2.4 6.5 3.7 9.7-0.9 3.4-0.5 6.6-2.2 10.1z" style="fill: inherit;"></path>
		<path d="m1379.4 2040.3c2.1-6.1 26.4-69.6 103.9-72.5 72.8-2.5 190.2 51.8 258.5 65.6 25.4 55.4 55.3 108.9 91.7 157.8 23.3 31.4 49.7 60.5 78.1 87.3 5.6 5.3 11.2 10.4 16.9 15.5 5.4 4.8 10.9 9.5 16.5 14.2 8.2 6.8 16.7 13.3 25.2 19.7 2.7 2 5.3 4.3 8 6.3 2.3 1.7 4.8 3.1 7.2 4.7 8.5 6 17.2 11.7 26 17.2 6.8 4.3 13.7 8.5 20.8 12.6 6.9 4 13.9 7.9 20.9 11.7 11.3 6 23 11.9 35.1 17.4 3.6 1.7 7.2 3.4 10.8 5 15.2 6.7 31 12.9 47.4 18.8 2.3 0.8 4.5 1.8 6.8 2.6 1.8 0.6 3.5 1.4 5.3 2 11 3.6 22.1 6.7 33.2 9.8 53.8 15.2 108.8 25 164.2 30.8-66.5-9.6-132.1-24.4-194.7-47.8s-121.3-56.4-173.7-97.1c-52.3-40.8-98-89.6-135.3-144.2-30.4-44.3-55.5-91.9-76.8-141.2h0.2c49.5-6.1 128.7-168 259.3-261.9 150.4-108.4 429.7-4.5 490.5-29.4 47.5-19.3 151.7-212.5 255.7-224.5 109.8-12.9 250.9 99.6 292.6 135.4 21.2 88.8 17.1 184.3-4.7 274.6-2.3 9.5-5 19-7.7 28.5-24.6 85.1-65.5 165.8-119.4 237.1-1 1.3-1.9 2.6-2.9 3.9-1.2 1.5-2.2 3.1-3.4 4.6 67.1-78 118.6-170.3 148.2-270.2 27.1-92.3 36.6-191.6 17.7-288.5 39.7-73 6.7-227.2 45.6-328.2 41.1-106.8 108.4-93.7 108.4-93.7-93.6-131.1-244.1-37.3-314.8-47.9-117.9-17.5-174.4-204.6-302.6-215.3-102.9-8.6-176.7 121.8-241.6 140.6-117.1 34.4-172.4 135.4-193.2 144.2-35.8 15.5-168.2-0.3-273.2 29-69.5 19.4-105.1 103.8-122.4 116.2-17.1 12.3-98.2 1.1-139.2 18.4-57.2 24.2-109.1-6.8-151 36.5-90.5 93.3-59.2 146.7-84 191.8-21.8 39.1-71.1 40.9-92.3 96.9-32.1 83.2 51 223.6 38.2 305.7zm690.6-324.3c-8.6 22.2-33.8 33.5-56.2 25-22.5-8.5-33.5-33.8-25-56.2 8.6-22.2 33.8-33.5 56-24.9 22.4 8.5 33.7 33.7 25.2 56.1zm561.7-238.3c23.7 2.5 41.2 23.6 38.8 47.6-2.5 23.7-23.6 41.2-47.6 38.8-24-2.3-41.2-23.6-38.8-47.6 2.3-24 23.6-41.2 47.6-38.8zm-55.8 106.1c-8.5 22.5-33.7 33.8-56.1 25.3-22.5-8.5-33.5-33.8-25-56.2s33.8-33.5 56-24.9c22.4 8.4 33.7 33.5 25.1 55.8zm-81.9-197.5c8.5-22.5 33.7-33.8 55.9-25.2 22.5 8.5 33.8 33.7 25.3 56.1-8.8 22.6-33.8 33.5-56.2 25-22.6-8.4-33.6-33.6-25-55.9zm-7.9 310.6c-8.5 22.5-33.7 33.8-56.1 25.3-22.2-8.6-33.5-33.8-25-56.2 8.5-22.5 33.8-33.5 56.2-25 22.2 8.6 33.5 33.7 24.9 55.9zm-74.5-446c24 2.3 41.2 23.6 38.8 47.6-2.3 24-23.6 41.2-47.6 38.8-23.7-2.5-41.2-23.6-38.8-47.6 2.5-23.7 23.6-41.2 47.6-38.8zm-50.8 250.7c8.9-22.3 33.8-33.5 56.2-25 22.5 8.5 33.5 33.8 25 56.2-8.6 22.2-33.8 33.5-56 24.9-22.4-8.5-33.7-33.6-25.2-56.1zm-61.3 135.8c8.5-22.5 33.8-33.5 56-24.9 22.5 8.5 33.8 33.7 25.2 55.9-8.5 22.5-33.7 33.8-56.1 25.3-22.6-8.6-33.6-33.8-25.1-56.3zm-103.9-132.8c8.6-22.2 33.8-33.5 56-24.9 22.5 8.5 33.8 33.7 25.3 56.1-8.9 22.3-33.8 33.5-56.2 25-22.5-8.5-33.6-33.8-25.1-56.2zm-8.4 144c8.5-22.5 33.4-33.7 56-24.9 22.5 8.5 33.7 33.4 24.9 56-8.5 22.5-33.5 33.4-56 24.9s-33.4-33.5-24.9-56zm-71.8-84.7c22.5 8.5 33.5 33.8 25 56.2-8.5 22.5-33.5 33.4-56 24.9s-33.8-33.7-25.2-55.9c8.9-22.5 33.8-33.7 56.2-25.2zm-130.4-112.6c8.8-22.6 33.8-33.5 56.2-25 22.5 8.5 33.5 33.8 24.9 56-8.5 22.5-33.7 33.8-55.9 25.2-22.5-8.8-33.7-33.7-25.2-56.2zm-100.3 93.4c8.6-22.2 33.8-33.5 56.2-25 22.2 8.6 33.5 33.8 25 56.2-8.6 22.2-33.8 33.5-56.2 25-22.2-8.6-33.5-33.7-25-56.2zm-57.7 277.5c2.3-24 23.5-41.4 47.5-39.1 23.7 2.5 41.3 23.9 38.8 47.6-2.3 24-23.5 41.4-47.5 39.1-23.7-2.5-41.3-23.9-38.8-47.6z" style="fill: inherit;"></path>
		<path d="m6383.9 5046.3s-26.9 71.3-152 47.8c-119.4-22.5-247.3-145.8-339.7-148.8-80-73.6-178.7-122.4-281.1-150.8-111.5-30.6-228.9-36.1-342-18.4 2.4-0.3 4.7-0.4 7.1-0.6l3.9-0.3c109.4-10.7 220.3 0.1 324 33.2 1.3 0.4 2.6 0.8 3.9 1.2 97.2 31.7 189.1 82.8 260.7 153.6 9.1 56.9 35.1 260.9-42.4 358.8-72.1 91.4-315.8 77-361.8 110.7-59.2 43-124 368-314.4 447-165.2 68.7-364.6 49.1-399.3 92.3-0.4 0.5-0.7 1.1-1.1 1.6-34.3-49.3-64.8-101.1-89-156.1-29.7-67.3-49.1-139.3-57-212.7-7.8-73.4-4.6-148.3 10-221.2s39.1-143.7 69-212.1c-32.2 67.3-59.2 137.4-76.5 210.5-17.2 73-23.2 148.9-17.8 224.2 4.9 66.1 19.4 131.6 41.8 194.2 3.1 8.6 5.8 17.4 9.2 25.9 24.9 62.4 57.8 121.3 95 177.1-27.2 72.1-44.2 217.4-89.4 285.2-48 71.7-122.2 57.6-129.3 56 85.2 35.9 169.5 196.5 266.8 214.9 65.4 12.6 95.8-33 145.6-30.7 57.2 2.8 89.4 63.7 230.6 32.5 65.5-14.3 66.4-81.5 122.8-121.5 40.4-28.8 77.2-112 98.8-121 21.8-9.2 122.6 6.5 181.5-47.9 89.1-82.3 151.4-216.8 187-241.6 20.4-14.6 148.3-7.9 249.3-98.6 55.7-50.4 222.2-44 274.2-146.4 64.8-127.6-79.3-290.4-27-412.1 31.3-73.2 208-160.8 138.6-325.9zm-1335.5 980.1c-11.8 24-40.7 33.9-64.7 22.1-23.9-11.5-33.9-40.7-22.3-64.5 11.8-24 40.7-33.9 64.7-22.1 23.9 11.5 33.9 40.7 22.3 64.5zm382.1-490.1c5.1-26.2 30.5-43.4 56.7-38.3 26.1 4.8 43.2 30.2 38.4 56.3-5.1 26.2-30.3 43.7-56.5 38.6s-43.4-30.5-38.6-56.6zm-34.6 116.5c5.1-26.2 30.5-43.4 56.7-38.3 26.1 4.8 43.2 30.2 38.2 56.5-4.8 26.1-30 43.5-56.3 38.4-26.2-5.1-43.6-30.4-38.6-56.6zm-75.9 100c5.1-26.2 30-43.5 56.3-38.4 26.5 4.9 43.5 30 38.4 56.3-4.9 26.5-30 43.5-56.3 38.4s-43.5-30.1-38.4-56.3zm-111.8 222.9c-26.2-5.1-43.7-30.3-38.6-56.5s30.5-43.4 56.5-38.6c26.2 5.1 43.4 30.5 38.3 56.7-4.8 26-30.2 43.2-56.2 38.4zm128.3 141.7c-5.1 26.2-30.5 43.4-56.5 38.6-26.2-5.1-43.4-30.5-38.6-56.5 5.1-26.2 30.5-43.4 56.5-38.6 26.2 5 43.4 30.4 38.6 56.5zm3.4-152.6c-26.1-4.8-43.2-30.2-38.2-56.5 5.1-26.2 30-43.5 56.3-38.4 26.2 5.1 43.7 30.3 38.6 56.5-5.1 26.3-30.2 43.3-56.7 38.4zm143.6 112.3c-5.1 26.2-30 43.5-56.5 38.6-26.2-5.1-43.2-30.2-38.3-56.7 4.8-26.1 30.2-43.2 56.5-38.2 25.9 4.8 43.3 30 38.3 56.3zm72.4-230.3c-4.8 26.1-30.2 43.2-56.3 38.4-26.2-5.1-43.7-30.3-38.6-56.5s30.2-43.2 56.5-38.6c26.3 5 43.4 30.5 38.4 56.7zm99.5-154.8c-5.1 26.2-30.2 43.2-56.5 38.6-26.2-5.1-43.4-30.5-38.3-56.7 4.8-26.1 30.2-43.2 56.3-38.4 26.1 5.1 43.6 30.3 38.5 56.5zm29.6-156.4c-4.8 26.1-30 43.5-56.3 38.4-26.2-5.1-43.7-30.3-38.6-56.5s30.5-43.4 56.7-38.3c26.1 4.7 43.2 30.1 38.2 56.4zm30.2-25c-24-11.8-34.1-40.5-22.3-64.5s40.7-33.9 64.5-22.3c24 11.8 33.9 40.7 22.3 64.5-11.7 24-40.4 34.1-64.5 22.3zm32.1 105.1c5.1-26.2 30-43.5 56.5-38.6 26.2 5.1 43.4 30.5 38.3 56.7-4.8 26.1-30.2 43.2-56.5 38.2-25.9-4.9-43.3-30.1-38.3-56.3zm118.5 213.4c-11.8 24-40.7 33.9-64.5 22.3-24-11.8-33.9-40.7-22.3-64.5 11.8-24 40.5-34.1 64.5-22.3 24 11.7 34.1 40.4 22.3 64.5z" style="fill: inherit;"></path>
		<path d="m6622.8 2611l-166.9 12.8-149.3 14.2c21.9-5.7 42.6-13.1 62.4-22.1 24.8-11 48.1-24.6 70.9-38.7 22.4-14.9 44.4-30.3 64.8-48.3 20.3-17.5 39.7-36.6 56.3-59.9 0.2-0.2 0.4-0.4 0.6-0.7l-1.6-2.6-0.4 0.3-136 85.5-103.1 67.6c9.2-8.3 17.8-17.1 25.9-26.2 16.3-17.8 30.1-37.2 43.4-56.9 12.5-20.2 24.4-40.8 33.7-63.1 9.6-21.9 17.6-44.9 21.4-70.6 0-0.1 0.1-0.3 0.1-0.4l-1.5-1-1.1-0.7-78.3 119.2-75.8 120.8 1.3 0.8-0.7 1.4c13.2 18.7 28.7 32.8 45.1 45.3 16.2 12.8 33.7 22.9 51.6 32.4 18.3 8.7 36.8 16.8 56.7 22.2 19.8 5.7 40.4 9.7 63.3 9.2l0.5-1 0.9-1.8-0.2-0.1-107.4-55.8-96.4-47c24.2 5.8 48.1 8.5 71.9 9.7 28.1 1.7 56 0.5 83.9-1.4 27.8-2.8 55.4-6.3 82.9-12.8 27.5-6.2 54.8-14.2 81.6-27.3l-0.1-1.1-0.4-1.9z" style="fill: inherit;"></path>
		<path d="m1868.8 741.5c25.4 0 51.6-8.3 75-21.8 2.8-1.7 5.2-3.7 7.9-5.6-1 3.9-2 7.6-2.9 12.2-0.3 1.7-0.4 3.5-0.4 5.8 0.3 2.4-0.2 5.1 3.7 11.3 8.2 9.8 15 9.7 19.3 11.2 9.1 1.9 14.6 1.4 20.4 2.1 10.7 1.1 19.9 2 22.8 4.7 3.9 2.1 11.4 7.6 19.3 15 8.6 6.6 18.3 15 31.5 21.9 7.4 3.5 11.1 4.5 17.8 7.1 6.2 2.4 13.5 4.3 20.5 5 27.2 2.8 49.1-3.2 71.7-12.8 4.7 5.4 4.9 16.5 6.6 25.4 1.6 9.4 3.4 18.9 6.1 28.2 5.1 18.6 12.9 36.3 22.2 53 9 16.9 20.4 32.4 31.8 47.7 11.9 15 24.6 29.2 37.8 43l1.2-1.2 1-0.9c-10.4-16.3-21.1-32-30.8-48.1-9.1-16.4-17.7-32.9-25.1-49.3-7.3-16.5-13-33.4-16-50.4-1.7-8.5-2.5-17-3.2-25.9-0.2-4.6-0.7-9.3-1.4-14.8-0.7-3.4-0.8-5.9-2.4-10.6-0.9-2.5-1.7-4.8-3.1-7.4-2.2-3.5-4.9-6.9-7.9-9.6l-1.3-1.2-4.3-2.2c-34.7-17.5-68.7-37.7-90.5-63.9-22.6-26-27.2-54.5-13.5-86.6 12-29.4 43.4-57.1 73.9-82 15.7-12.4 32.1-24.6 48.6-36.9l50.9-35.7-0.6-1.3-0.7-1.4c-37.5 17.4-74.2 36.4-109 59-18.4 12.6-37.1 26-53.6 41.5-5.5 0.4-11 0.8-16.6 0.8-6.2 0.4-12.4 0.3-18.6-0.1 2.2-10.9 3.4-21.8 3-32.6-0.2-25.6-6.3-50-15.2-72.3-10.3-21.9-21.9-42.4-37.2-60.1l-1.6 0.8-1.2 0.6c20 40.1 34.2 84.5 31.1 129.4-1.3 22.2-7.6 44.3-19.2 63.1-5.9 9.7-13.2 16.9-22.6 23.9-8.9 8.7-14 18.7-20.4 28-12.2 18.8-26.8 36-45.4 48.1-18.5 12.1-40 19.6-62.2 22.3-44.6 5.6-89.8-3.7-133.1-15.8l-0.4 1.4-0.5 1.5c20.3 11.6 41.9 20 64.6 27.5 22.8 6.1 46.9 9.4 72.2 9z" style="fill: inherit;"></path>
		<path d="m2406 4538.7c-11.5 0.9-23.2 1.5-34.9 2.8l-34.6 5.7c-22.9 5-46.3 10.2-68.3 20.1-22.2 9.3-43.9 20.8-64 35.5-10.1 7.2-19.6 15.4-28.5 23.5-4.4 4-8.6 8-12.1 11.5-0.2 0.3-0.6 0.5-0.9 0.8-15.2-3.2-30.6-5.9-46.3-7.8-9-4.8-18.2-9.2-28.1-12.3-14.8-3.8-29.6-6.3-44.9-6.5-15.2 0-30.1 2.1-44.8 2.4-14.8 0.9-29-1.4-41.1-9.8-12.6-7.6-21.9-19.2-35.8-27.2-3.2-2-9.6-2.5-12.8 1.1-3 2.8-5.3 5.8-7.6 8.7-4.6 5.9-9.2 11.6-14.7 16.4-6.2 5.9-13.9 9.4-22.1 10.9-2-9.1-4.4-18.1-7.9-26.7-10.3-25.1-26.7-47.5-46.7-65.6-40.3-36.4-90.7-58.1-141-75.7l-0.4 1.3-0.5 1.6c11.6 7.4 23.1 14.3 34.8 20.5 11.6 6.4 22.1 14.6 33 21.7 11.2 6.6 20.8 15.1 31.2 22.4 9.6 8.1 18.7 16.7 27 25.6 33.1 36.5 48.1 77.7 44.9 127.1 0.2 13.3-1.8 24.5 0.8 45.1 3.8 16.6 4.5 13.8 5.3 19.7 0.9 4.3 1.3 9.4 1.4 14.6 0.9 21.2-6.1 44-15.9 65.7-21 43.3-57.5 81.6-99 116.2l0.6 1 0.9 1.7c46.7-25.8 90.9-59.8 118.4-106.8 2.9-4.9 5.4-10.1 7.9-15.2 2.9 2.8 5.2 5.5 7.1 7.8 4 5.6 8 9.7 13 15.1 5.5 4.7 11.5 10.3 19.8 15.4 3 2 6.3 3.9 9.8 5.8 7.2 22.4 15.8 43.7 25.5 64.3 10.7 23.3 23.2 45.6 37.2 66.8 13.7 21.4 27.8 42.3 43.8 62l1.4-0.8 1.3-0.7c-24.7-43.4-47.6-87.9-65.9-134.3-17.2-46.1-34.2-95.5-26.8-144.6 3.8-24.3 13.4-47.9 30.1-65.8 16.5-18.1 39.1-29.5 62.8-35.8 47.9-12.3 98.9-7.2 147.4 2.3l0.5 0.1 0.2-0.1c13.8-3.8 19.3-14.8 27.7-22.4 8-8.2 16.1-16.2 24.9-23.4 17.5-14.6 37-26.6 57.5-36.8 20.3-10.5 42-18 63.7-25.3 21.9-6.7 44.2-12 66.7-16.7l-0.3-1.3-0.7-1.6z" style="fill: inherit;"></path>
		<path d="m3600.4 419.3c13.4 34.8 21 68.6 25.2 93.7 1.1 6.3 1.9 12 2.6 17.1 2.1 15.2 2.6 24.5 2.6 24.5s1.9-0.6 4.7-1.2c4.4-1 11.7-2.3 21.6-2.2 12.9 0.1 29.6 2.5 47.9 10.9 13.8 6.3 28.4 16 43.1 30.6 4.9 4.9 9.8 10.3 14.7 16.3 14.6 18 28.9 41.5 42 71.9 3.9 8.9 7.5 18.1 10.8 27.4 2.8 7.8 5.2 15.8 7.6 23.7-5.2 35.8-9.4 71.6-12.1 107.5-3.6 50.6-5.4 101.3-4.5 151.9 1.1 101.2 11.2 202.1 29.8 301.1-13.5-99.9-18.5-200.6-14.5-300.9 1.7-50.1 6-100.1 12.1-149.8 6.2-49.5 14.3-99.4 25.7-147 3.5-8.1 7.3-16.1 11.8-23.6 6.3-10.5 13.7-20.4 22.4-29.5 10.5-11.1 23.1-20.8 37.6-29.1 9.3-5.3 19.2-10.2 30.3-14.2 11.7-4.2 24.7-7.2 38.6-9.6 11.4-1.9 23.2-3.4 36.2-4 6.2-0.3 12 0 17.5 0.7 5.4 0.7 10.5 1.8 15.3 3.4s9.2 3.5 13.2 5.8c8.2 4.5 15.1 10.4 21 17.1s10.7 14.3 14.6 22.2c17.7 35.7 17.7 78.6 17.7 84.6 0.7-2.1 2.8-8.2 6.6-16.5 1.3-2.8 2.7-5.8 4.4-9 4.2-8 9.6-17.2 16.5-26.5 10.4-13.9 24-28.2 41.6-39.3s39.1-19.1 65.2-20.5c13.9-0.8 29.1 0.3 45.7 3.8 30.6 6.3 55.5 28.8 73.3 62.1 20.8 38.8 31.9 92.4 31 152.2v1.1c0 1.5-0.2 3-0.2 4.5-7.6 80.2-21.8 160-49.6 235.9-31.1 87.3-81.8 167.9-148.7 233.7 70.3-62 126.3-140.8 162.9-228.1 27.4-63.7 45.3-130.8 57.6-199 1.7-1.7 3.3-3.4 5.1-5.1 7.3-6.9 14.8-13.5 22.5-19.8 30.4-25.1 63.4-44.9 99-55.7 11.2-3.4 20.9-5.6 29.8-7 11.9-1.9 22-2.2 30.5-1.3 8.4 1 15.2 3.3 20.6 6.6 8.3 5.2 13.1 12.9 15.9 21.6 2.1 6.7 3.2 14 3.1 21.5 10.8-35.8 28.6-81.8 56.2-120.3 7.9-11 16.6-21.4 26.1-30.8 14.3-14.1 30.6-25.8 49-33.9 24.6-10.8 53-15 85.8-9.5 11.8 2.1 22.1 5.5 31.6 9.5 4.9 2.1 9.9 4.1 14.2 6.7 117.3-304.2-147.5-386.6-280.7-315.1 0 0-15-74.9-117.2-122.2-82.6-38.3-184.3 6.2-184.3 6.2s-83.1-260-308.6-220.3c-225.6 39.4-252.3 194-252.3 194-125.1-124.3-303.6-81-356.9 63.7 23.1 3.7 43.5 11.1 61.5 21.1 54.2 30.1 87.2 84.3 107.3 136.4zm947.3 171c19.5-2.9 37.9 10.7 40.8 30.2 3 19.7-10.7 37.9-30.2 40.8-19.7 3-37.8-10.5-40.8-30.2-2.9-19.4 10.5-37.7 30.2-40.8zm-260.2-225.1c19.5-2.9 37.9 10.7 40.8 30.2s-10.7 37.9-30.2 40.8c-19.7 3-38.1-10.6-40.8-30.2-3-19.7 10.5-37.8 30.2-40.8zm-18.9 117.4c19.8-2.8 37.9 10.7 40.9 30.4 2.9 19.5-10.7 37.9-30.3 40.6-19.7 3-37.8-10.5-40.8-30.2-2.9-19.5 10.7-37.9 30.2-40.8zm-94.6-116.9c19.5-2.9 37.8 10.5 40.8 30.2 2.9 19.5-10.7 37.9-30.2 40.8-19.8 2.8-37.9-10.7-40.9-30.4-2.8-19.6 10.7-38 30.3-40.6zm-94 52.4c19.5-2.9 37.9 10.7 40.8 30.2 2.8 19.8-10.7 37.9-30.4 40.9-19.5 2.9-37.9-10.7-40.8-30.2-2.8-19.8 10.7-37.8 30.4-40.9zm-188.7 109.4c-19.7 3-37.9-10.7-40.8-30.2-3-19.7 10.7-37.9 30.2-40.8 19.7-3 37.8 10.5 40.8 30.2 2.9 19.5-10.7 37.8-30.2 40.8zm-20.1-189.2c19.5-2.9 37.8 10.5 40.8 30.2 2.9 19.5-10.7 37.9-30.2 40.8-19.8 2.8-37.9-10.7-40.9-30.4-2.9-19.5 10.4-37.8 30.3-40.6zm-89.2 102.3c19.5-2.9 37.9 10.7 40.8 30.2 3 19.7-10.6 38.1-30.2 40.8-19.7 3-37.8-10.5-40.8-30.2-2.9-19.5 10.5-37.8 30.2-40.8z" style="fill: inherit;"></path>
		<path d="m4788.3 4157.7s270-155.6 267.5-500.2c-1-132.3-63.9-278.8-155.1-278.6 72.3-400.8-292-763.4-455.5-886.2-160.4-120.5-366.6-174.1-681.1-98.5 0 0-118-209.6-445.5-93.5-130.5 46.3-336.8 162.3-341.3 237.5-1.5 25.6-40.8 66.3-40.8 66.3-43.9 8.1-138.4 51.3-250.1 135.4-177.3 133.3-83.7 256.2-99 304.8s-205.6 160-225.2 407.6c-19.5 247.6 169.5 466.9 267.5 536.2-53.9 58.6-60.7 398.5 261.8 651.2 322.5 252.6 598.7 159.3 702.7 204.8 216.4 154.4 712-106.3 712-106.3 577.6-325.4 482.1-580.5 482.1-580.5zm-1612.5 113.2s-77.9-41.1-238.8-171.3c-160.9-130.1-127.6-285.2-127.6-285.2s-180.3-456 134.6-665.8c151 259.7-26.1 691.3-26.1 691.3s60.7 63 164.4 185.9c103.6 123 93.5 245.1 93.5 245.1zm-28.1-1140.9c-55.8-24.5-195.2-116.1-141.2-253.4 54.1-137.3 188.7-89.4 188.7-89.4 28.2-86.9 158.2-115.5 277.8-180.9s491.1-127.5 595.7 128.8c0 0-249.4-104.7-573.6 48.8-82.8 39.2-188.9 92.5-273.5 192-68.9 81-73.9 154.1-73.9 154.1zm263.9 406.4c5.6 28.7-13.1 56.5-41.8 62.2-28.7 5.6-56.5-13.1-62.2-41.8-5.6-28.7 13.1-56.5 41.8-62.2 28.8-5.6 56.6 13.1 62.2 41.8zm-18.6-193.5c3.5-29 29.9-49.7 59-46.2 29 3.5 49.7 29.9 46.2 59s-29.9 49.7-59 46.2c-29.1-3.6-49.8-30-46.2-59zm-21 434c3.5-29 29.9-49.7 59-46.2 29 3.5 49.7 29.9 46.2 59-3.5 29-29.9 49.7-59 46.2-29.1-3.6-49.7-30-46.2-59zm67.1-197.7c3.5-29 29.9-49.7 59-46.2 29 3.5 49.7 29.9 46.2 59-3.5 29-29.9 49.7-59 46.2-29.1-3.6-49.8-30-46.2-59zm64.4-135.1c3.5-29 29.9-49.7 59-46.2 29 3.5 49.7 29.9 46.2 59-3.5 29-29.9 49.7-59 46.2-29-3.5-49.7-29.9-46.2-59zm29.3 403.6c28.9-4.7 56.1 15 60.7 43.8 4.7 28.9-15 56.1-43.8 60.7-28.9 4.7-56.1-15-60.7-43.8-4.7-28.9 14.9-56.1 43.8-60.7zm55.5-240.2c3.5-29 29.9-49.7 59-46.2 29 3.5 49.7 29.9 46.2 59-3.5 29-29.9 49.7-59 46.2-29.1-3.6-49.7-30-46.2-59zm43.5-263.9c3.5-29 29.9-49.7 59-46.2 29 3.5 49.7 29.9 46.2 59-3.5 29-29.9 49.7-59 46.2-29-3.6-49.7-30-46.2-59zm11.4 492.5c10.6-27.3 41.3-40.8 68.6-30.1s40.8 41.3 30.1 68.6-41.3 40.8-68.6 30.1c-27.2-10.6-40.7-41.3-30.1-68.6zm67.2-63.8c-29-3.5-49.7-29.9-46.2-59 3.5-29 29.9-49.7 59-46.2s49.7 29.9 46.2 59c-3.6 29-30 49.7-59 46.2zm29.3-202.3c-5.6-28.7 13.1-56.5 41.8-62.2 28.7-5.6 56.5 13.1 62.2 41.8 5.6 28.7-13.1 56.5-41.8 62.2-28.8 5.6-56.6-13.1-62.2-41.8zm61.5 228.8c19.4-21.9 52.9-24 74.8-4.6s24 52.9 4.6 74.8-52.9 24-74.8 4.6-23.9-52.9-4.6-74.8zm20.8-59.4c-21.9-19.4-24-52.9-4.6-74.8s52.9-24 74.8-4.6 24 52.9 4.6 74.8c-19.4 22-52.9 24-74.8 4.6zm63-162.4c-18-23-14-56.3 9-74.4 23-18 56.3-14 74.4 9 18 23 14 56.3-9 74.4s-56.4 14.1-74.4-9zm-31.8-114.2c-28.7 5.6-56.5-13.1-62.2-41.8-5.6-28.7 13.1-56.5 41.8-62.2 28.7-5.6 56.5 13.1 62.2 41.8 5.6 28.7-13.1 56.5-41.8 62.2zm-22.6-142.7c-28.7 5.6-56.5-13.1-62.2-41.8-5.6-28.7 13.1-56.5 41.8-62.2 28.7-5.6 56.5 13.1 62.2 41.8 5.6 28.7-13.1 56.6-41.8 62.2zm-599.5 534.1c-5.6-28.7 13.1-56.5 41.8-62.2 28.7-5.6 56.5 13.1 62.2 41.8 5.6 28.7-13.1 56.5-41.8 62.2s-56.5-13.1-62.2-41.8zm31.7 622.1s-45.5-67.5 155.3-121.7c200.9-54.1 704.5 23.2 704.5 23.2s-432 240-859.8 98.5zm1241.4-459.7c-110 175.7-212.9 283.6-339.4 265.9 0 0-21.9-76.6 23.3-155.1-4.4-4.5-8-9.7-10.1-16.2-96.6-301.2 84.5-585 87.4-713.3 4.3-187.2-279.8-369.7-295.9-465.8-109.2-29.2-149.1-116.8-149.1-116.8 290.1-28.1 653.9 4.5 865.1 681.7 67.6 216.5-45 403.1-181.3 519.6z" style="fill: inherit;"></path>
	</g>
	<g id="__id235_sz2mecxx3g" style="fill: rgb(255, 222, 85);">
		<path d="m6426.5 4255.6c-107.9 79.7-109.9 154.5-117.5 207.8-7.2 53.3 47.1 303.2 292.2 292.3 61.6-2.8 109.2-27.1 145.7-61.8-25.2-75.6-92.2-106.9-92.2-106.9s37.5-31.7 50.6-70.4c11.1-33.2 8-78.1 8-78.1s84.3 13.1 105-90.7c-5.8-11.3-12.5-23-20-35.3-85.9-140-263.8-136.5-371.8-56.9z" style="fill: inherit;"></path>
		<path d="m6079.7 3914.7c1.7 0.5 3.3 1.4 5 2.1 27.1 10.2 50.5 31.2 67.4 57.8 10.8 17 19 36.1 24 55.7 4.1 17 6.1 32.5 6 46.1 93.7 42.7 215.2 36.7 274.7 1.9l-0.4-0.9c14.1-81.3-61.9-158.3-61.9-158.3s-12.5-53.8 29.1-115c66.4-98 49.9-151.9 49.9-151.9s37.4 17.6 65.5 10.6c-118.8-153.1-349.7-140.3-439.5-23-50.9 66.1-67.6 148.3-59.3 223.7 5.3 4.2 10.2 8.4 14.5 12.6 13 12.8 21.7 25.8 25 38.6z" style="fill: inherit;"></path>
		<path d="m5551.6 4365c114 120.7 257.6 116.5 332.7 84.9 7.6-3.3 14.4-6.8 20.4-10.4s11.2-7.4 15.6-11.2c3.3-2.9 6.3-6.2 9-10 5.4-7.4 9.6-16.4 12.6-26.5 5.9-20.2 6.9-45.1 2.4-71.8-2.2-13.4-5.9-27.3-10.9-41.2-17.6-49-52.5-99.6-107.1-137.1 0 0 24.3-7.3 52.7-21.2 12.2-5.9 25.2-13 37.3-21.3 8.1-5.5 15.8-11.5 22.7-18 13.8-12.9 24.3-27.8 27.7-44.4 1.4-7 2-14.1 1.8-21.2-0.6-21.5-7.8-43.4-18.5-63.2-7.1-13.2-15.8-25.4-25.1-35.9s-19.1-19.2-28.6-25.5c4.9-1.6 9.4-2.7 14-4 9.6-2.7 18.8-4.9 27.4-6.4 2.7-0.5 5.4-1 8-1.4 20.6-3 38.7-3.1 54.6-0.9 16.6 2.3 30.9 6.9 43.6 12.9-1.8-9-3.3-18.4-3.9-27.8-90.2-70.8-308.6-120.1-431.6 2.2 0 0-167.1 110.8-133.3 247.2 0 0-60.3 107.1 76.5 252.2z" style="fill: inherit;"></path>
		<path d="m939.6 5651.4c-37.9-35-263.7-130.2-390.2 67.8-31.8 49.9-39 101-32.1 148.4 73 21.9 134.8-13.2 134.8-13.2s4.1 46.5 27.2 78.3c19.8 27.1 56.6 49.3 56.6 49.3s-56.5 58.9 12.8 131.9c12.2 1.7 25.3 3.2 39.4 4 119.7 7.5 203.4-72.5 235.3-167.8 10.1-30.1 14.9-61.5 14.4-92-1.8-80-24.6-126.9-50.8-159.2-15.9-19.6-32.9-34-47.4-47.5z" style="fill: inherit;"></path>
		<path d="m1652.5 5216.8s-50.4-106.4-239.8-79c-157 22.6-232.6 136.5-249.6 212.7-3.4 15.7-4.4 29.6-3.3 41.1 4.7 41.4 56.7 82.9 128.1 97.2 44.3 8.9 96 6.9 148.5-12.7 0 0-33.1 99-5.9 152.9 2.5 5.5 6 10.6 10.2 15.1 37.6 39.6 112.9 41.2 153.5 25.2-27.6 89-72.6 116.3-115.1 129.1 3.4 1.7 6.6 3.2 9.9 5.1 93.8 10 316.6-154.3 283.9-345.6-0.1 0.1 5.4-192.4-120.4-241.1z" style="fill: inherit;"></path>
		<path d="m1330.7 5811.6c-19.3-7.6-34.8-16.6-47.1-26.2l-0.3-0.1c-87.5 35.4-157.6 126.4-179 198.6-3.7 12.1-6 23.6-6.8 34.3l1.1-0.1c56.5 55.4 158.5 37.6 158.5 37.6s49.3 19.6 74.9 85.4c41.1 106.1 92.6 122.6 92.6 122.6s-34.5 19.5-43.9 45.6c185.2-10.6 301.1-199.2 257.6-333.8-12.9-40.1-34.6-75.5-61.3-104.6-25.3-28-55.9-50.6-87.9-67.3-5.3-0.7-10.1-1.8-14.6-3.4-37.7 28.2-95.5 30.1-143.8 11.4z" style="fill: inherit;"></path>
		<path d="m3172.6 1959.5c138.8-299.6 155.3-553.9 82.7-735.3 0 0-67.3-13.1-108.4 93.7-38.9 101.1-5.9 255.2-45.6 328.2 18.8 96.9 9.3 196.1-17.7 288.5-29.5 99.8-81.1 192.1-148.2 270.2 1.2-1.5 2.3-3.1 3.4-4.6 1-1.3 1.9-2.6 2.9-3.9 53.9-71.4 94.8-152 119.4-237.1 2.7-9.4 5.4-18.9 7.7-28.5 21.8-90.3 25.9-185.8 4.7-274.6-41.7-35.8-182.8-148.3-292.6-135.4-104 12-208.1 205.3-255.7 224.5-60.8 25-340.1-78.9-490.5 29.4-130.6 94-209.8 255.8-259.3 261.9h-0.2c21.3 49.3 46.4 96.9 76.8 141.2 37.3 54.5 83.1 103.3 135.3 144.2 52.3 40.7 111 73.7 173.7 97.1 62.6 23.4 128.3 38.2 194.7 47.8-55.3-5.8-110.4-15.6-164.2-30.8-11.1-3.1-22.2-6.2-33.2-9.8-1.8-0.6-3.5-1.4-5.3-2-2.3-0.8-4.5-1.8-6.8-2.6-16-5.7-31.8-11.9-47.4-18.8-3.6-1.6-7.2-3.3-10.8-5-11.9-5.5-23.6-11.2-35.1-17.4-7-3.8-14-7.7-20.9-11.7-7-4.1-14-8.3-20.8-12.6-8.8-5.5-17.4-11.3-26-17.2-2.3-1.6-4.8-3.1-7.2-4.7-2.8-2-5.3-4.3-8-6.3-8.6-6.4-17-12.9-25.2-19.7-5.6-4.6-11.1-9.4-16.5-14.2-5.7-5.1-11.4-10.2-16.9-15.5-28.4-26.8-54.7-55.9-78.1-87.3-36.4-49-66.3-102.4-91.7-157.8-68.2-13.7-185.7-68.1-258.5-65.6-77.5 2.9-101.8 66.3-103.9 72.5l-0.1 0.4c-16.4 102.7 147.1 287.2 270.9 361.3 112.6 67.5 479.5 169.2 778 71.1 14.1-4.5 28.1-9.6 41.8-15.1 177.9-71.6 326.4-145.5 442.6-223.8 126.2-85.1 214.4-175.5 260.2-274.7z" style="fill: inherit;"></path>
		<path d="m5639.8 4694.9c-120.5-14.6-257.6 16-411.7 85.7-142 64.2-298.7 161.5-470.4 288.1-13.3 9.7-26.2 19.9-38.7 30.7-267.3 225.2-385.4 631.8-387.3 777.8-2.2 160.4 76.9 422.9 183.6 467.4l0.4 0.1c7.1 1.6 81.3 15.7 129.3-56 45.2-67.8 62.2-213.1 89.4-285.2-37.2-55.8-70.1-114.7-95-177.1-3.4-8.5-6.2-17.3-9.2-25.9-22.5-62.6-37-128.1-41.8-194.2-4-56.4-1.7-113.1 6.9-168.8 0-0.2 0.1-0.4 0.1-0.6 2.9-18.3 6.4-36.5 10.7-54.6 0-0.2 0.1-0.4 0.1-0.6 17.2-73 44.2-143 76.4-210.2-29.9 68.4-54.4 139.2-69 212.1s-17.8 147.8-10 221.2c8 73.4 27.3 145.4 57 212.7 24.2 55 54.7 106.8 89 156.1 0.4-0.5 0.7-1.1 1.1-1.6 34.7-43.3 234.1-23.7 399.3-92.3 190.4-79 255.2-404 314.4-447 46-33.7 289.7-19.4 361.8-110.7 77.5-97.9 51.5-301.9 42.4-358.8-71.8-71.1-164.3-122.4-261.9-154-0.9-0.3-1.8-0.5-2.6-0.8-103.7-33.1-214.7-43.9-324-33.2l-3.9 0.3c-2.4 0.2-4.7 0.3-7.1 0.6 113.1-17.6 230.4-12.2 342 18.4 102.4 28.4 201.1 77.2 281.1 150.8 92.4 2.9 220.3 126.3 339.7 148.8 125.1 23.5 152-47.8 152-47.8-129.3-174.7-379.5-307.7-744.1-351.4z" style="fill: inherit;"></path>
		<path d="m838.1 4520.6c-11.4 27.6 1.6 59.3 29.3 70.9s59.4-1.3 71-29c7.4-17.6 4.5-37.3-5.5-51.7l-1.4-1.1c0-0.1 0.1-0.2 0.2-0.4-5.6-7.6-13.2-13.9-22.5-17.7-27.8-11.6-59.5 1.3-71.1 29z" style="fill: inherit;"></path>
		<path d="m703.7 4417.9c-11.4 27.6 1.6 59.3 29.3 70.9s59.3-1.6 71-29c5.3-12.7 5.2-26.5 0.8-38.6l-0.6 0.3-1.4-2.7c0.2-0.2 0.5-0.4 0.8-0.7-5.3-12.7-15.1-23.5-28.8-29.2-27.8-11.6-59.5 1.3-71.1 29z" style="fill: inherit;"></path>
		<path d="m672.9 4296.8c27.7 11.6 59.3-1.6 71-29 3.1-7.7 4.3-15.4 3.9-23v-2c-1.7-19.6-13.9-38-33.2-46-27.7-11.6-59.4 1.3-71 29-11.3 27.6 1.6 59.3 29.3 71z" style="fill: inherit;"></path>
		<path d="m829.1 4125.2c27.2 11.4 58.2-0.9 70.3-27.6l-0.2-0.1 1.1-1.7c11-27.5-2-59.1-29.4-70.4-27.7-11.6-59.4 1.3-71 29-11.4 27.5 1.5 59.1 29.2 70.8z" style="fill: inherit;"></path>
		<path d="m7202.1 2479.3c-3.9-23.9 50.8-72.2 34.2-135.5-22.1-83.8-120.2-70.4-134.3-93.9-14.3-23.3 39.3-77 6.1-118.1-58.6-73.1-194.5-33.4-344.8 62.4 60-111.5 95.7-208.4 41.1-260-56.5-53.2-168.3 25.8-168.3 25.8s5.6-90.7-41.3-101c-60.7-13.5-249.8 243.2-293.9 364.2-41.3 113.7-44.8 270.8-29.5 376.3l44.7 125.8c67.9 130.6 399.8 373.5 466.6 393.5 66.8 19.9 78.8-6.8 85.5-19.7 6.9-13 1.2-27.2 15.6-42.4 14.2-15.1 152 36.8 181-51.8 22-68.3-40.9-290.7-257.9-331.3 316 12.5 426-91.1 428-138.9 1.6-37.9-32.8-55.4-32.8-55.4zm-489.2 139.2c-7.6 24.5-33.4 38.2-57.9 30.6-17-5.2-29-19.7-32-36.2l0.1 1.1c-26.9 13.2-54.2 21.2-81.6 27.3-27.4 6.5-55.1 10-82.9 12.8-27.8 1.9-55.7 3.1-83.9 1.4-23.8-1.2-47.7-3.9-71.9-9.7l96.4 47 107.4 55.8c8.1-23.5 33.3-36.5 57.3-29.1 24.5 7.6 38.2 33.4 30.8 57.8-7.6 24.5-33.4 38.2-57.9 30.6-24.2-7.3-37.9-33.1-30.9-57.3l-0.5 1c-22.9 0.6-43.5-3.5-63.3-9.2-19.9-5.4-38.5-13.5-56.7-22.2-17.8-9.6-35.4-19.6-51.6-32.4-16.3-12.5-31.9-26.6-45.1-45.3l0.7-1.4-1.3-0.8 75.8-120.8 78.3-119.2 1.1 0.7c-9.7-11.4-13.8-27.9-9-43.5 7.6-24.5 33.4-38.2 57.9-30.6s38.2 33.4 30.8 57.8c-7.6 24.5-33.4 38.1-57.9 30.6-8.1-2.4-15-7.1-20.4-12.9-3.8 25.7-11.8 48.6-21.4 70.6-9.4 22.2-21.3 42.8-33.7 63.1-13.3 19.7-27 39.1-43.4 56.9-8.1 9.1-16.6 17.9-25.9 26.2l103.1-67.6 136-85.5c-4.7-9.9-5.9-21.5-2.5-32.7 7.7-24.3 33.4-38.2 57.9-30.6s38.1 33.4 30.8 57.8c-7.6 24.5-33.4 38.2-57.9 30.6-12.1-3.6-21.2-11.9-26.8-22.1-16.7 23.3-36 42.4-56.3 59.9-20.4 18-42.4 33.4-64.8 48.3-22.9 14.1-46.1 27.7-70.9 38.7-19.7 9-40.5 16.4-62.4 22.1l149.3-14.2 166.8-12.8c-0.9-6.4-0.6-12.9 1.4-19.6 7.7-24.3 33.4-38.2 57.9-30.6 24.6 7.4 38.3 33.2 31 57.6z" style="fill: inherit;"></path>
		<path d="m1771.5 4310.6c-50.3 43.2-88.7 88-117.5 132.2-91.6 138.5-91.1 269.9-68.6 315.8 19.5 39.7 59.6 113.8 131.9 178.3 38.1 33.9 84.7 65 142 87.1 55.6 21.4 111.7 33 165.5 35 169.5 6.6 318.8-80.5 371.8-249.5 23.9-75.8 31.1-218.5 9.7-269.3-22.7-229.7-421.1-413.2-634.8-229.6zm635.1 231.1c-22.5 4.7-44.7 10-66.7 16.7-21.7 7.3-43.4 14.8-63.7 25.3-20.4 10.2-40 22.2-57.5 36.8-8.8 7.2-17 15.2-24.9 23.4-8.5 7.6-13.9 18.6-27.7 22.4l-0.2 0.1-0.5-0.1c-48.6-9.5-99.5-14.7-147.4-2.3-23.7 6.3-46.3 17.7-62.8 35.8-16.7 17.9-26.3 41.5-30.1 65.8-7.4 49 9.6 98.5 26.8 144.6 18.3 46.4 41.2 91 65.9 134.3l-1.3 0.7-1.4 0.8c-15.9-19.7-30.1-40.7-43.8-62-14-21.2-26.6-43.4-37.2-66.8-9.7-20.6-18.3-41.9-25.5-64.3-3.5-1.9-6.9-3.8-9.8-5.8-8.3-5.1-14.3-10.7-19.8-15.4-5-5.4-9-9.5-13-15.1-1.9-2.3-4.2-5-7.1-7.8-2.4 5.2-5 10.3-7.9 15.2-27.5 47-71.7 81.1-118.4 106.8l-0.9-1.7-0.6-1c41.5-34.6 78-72.9 99-116.2 9.7-21.7 16.7-44.5 15.9-65.7-0.2-5.2-0.5-10.3-1.4-14.6-0.9-5.9-1.5-3.1-5.3-19.7-2.5-20.7-0.6-31.8-0.8-45.1 3.1-49.3-11.9-90.6-44.9-127.1-8.2-8.9-17.4-17.4-27-25.6-10.3-7.3-20-15.8-31.2-22.4-10.9-7.1-21.4-15.3-33-21.7-11.7-6.3-23.2-13.2-34.8-20.5l0.5-1.6 0.4-1.3c50.3 17.6 100.7 39.4 141 75.7 20.1 18.1 36.4 40.5 46.7 65.6 3.6 8.6 6 17.6 7.9 26.7 8.2-1.5 15.9-5.1 22.1-10.9 5.5-4.8 10.1-10.5 14.7-16.4 2.3-2.9 4.6-5.9 7.6-8.7 3.2-3.6 9.5-3 12.8-1.1 13.9 8 23.2 19.6 35.8 27.2 12.1 8.5 26.3 10.7 41.1 9.8 14.7-0.4 29.6-2.4 44.8-2.4 15.4 0.2 30.1 2.7 44.9 6.5 9.9 3.1 19.1 7.5 28.1 12.3 15.7 1.9 31.1 4.7 46.3 7.8 0.3-0.3 0.6-0.5 0.9-0.8 3.5-3.5 7.7-7.5 12.1-11.5 9-8.1 18.4-16.3 28.5-23.5 20.1-14.7 41.8-26.2 64-35.5 22-10 45.4-15.1 68.3-20.1l34.6-5.7c11.6-1.3 23.3-1.9 34.9-2.8l0.3 1.7 0.7 1.2z" style="fill: inherit;"></path>
		<path d="m3814.6 1390.2c113.5 108.7 302.3 25.5 302.3 25.5 586.3-5.1 1008.9-641.3 814.3-759.9-4.3-2.6-9.3-4.6-14.2-6.7-9.5-4.1-19.7-7.5-31.6-9.5-32.8-5.6-61.2-1.3-85.8 9.5-18.4 8.1-34.7 19.9-49 33.9-9.5 9.4-18.2 19.8-26.1 30.8-27.6 38.5-45.4 84.5-56.2 120.3 0.1-7.5-0.9-14.8-3.1-21.5-2.8-8.7-7.6-16.4-15.9-21.6-10.7-6.7-27.2-9.2-51-5.4-8.9 1.4-18.7 3.6-29.8 7-35.6 10.8-68.7 30.6-99 55.7-7.6 6.3-15.2 12.8-22.5 19.8-1.7 1.6-3.4 3.4-5.1 5.1-12.3 68.1-30.2 135.3-57.6 199-36.6 87.3-92.6 166.1-162.9 228.1 66.8-65.8 117.5-146.4 148.7-233.7 27.9-75.8 42-155.7 49.6-235.9 0-1.5 0.2-3 0.2-4.5v-1.1c0.8-59.8-10.3-113.4-31-152.2-17.8-33.3-42.7-55.8-73.3-62.1-16.6-3.5-31.8-4.5-45.7-3.8-69.5 3.9-106.6 54.2-123.3 86.3-1.7 3.2-3.1 6.2-4.4 9-3.8 8.3-5.9 14.4-6.6 16.5 0-6 0-49-17.7-84.6-3.9-7.9-8.7-15.5-14.6-22.2s-12.8-12.6-21-17.1c-4.1-2.3-8.5-4.2-13.2-5.8-9.5-3.1-20.3-4.6-32.7-4.1-28.7 1.3-53.5 6.1-74.8 13.6-11.1 3.9-21 8.8-30.3 14.2-14.5 8.3-27.1 18-37.6 29.1-8.6 9.1-16 19-22.4 29.5-4.6 7.6-8.4 15.5-11.8 23.6-11.5 47.6-19.6 97.5-25.7 147-6.1 49.7-10.4 99.7-12.1 149.8-4 100.3 1 201 14.5 300.9-18.6-99-28.7-199.9-29.8-301.1-0.8-50.6 0.9-101.3 4.5-151.9 2.7-36 6.8-71.7 12.1-107.5-2.4-8-4.9-15.9-7.6-23.7-3.3-9.3-6.9-18.5-10.8-27.4-17.5-40.6-37.1-68.7-56.7-88.2-14.7-14.6-29.4-24.3-43.1-30.6-18.3-8.4-35-10.8-47.9-10.9-16.1-0.1-26.3 3.4-26.3 3.4s-0.5-9.3-2.6-24.5c-0.7-5.1-1.5-10.8-2.6-17.1-4.3-25.1-11.9-58.9-25.2-93.7-20.1-52.1-53.1-106.3-107.2-136.5-18.1-10-38.5-17.4-61.5-21.1-16.9-2.5-35.1-3.4-55.2-1.8-284.7 23.1-80.4 669.1 74.4 882.5 154.8 212.9 320.4 288.5 363.9 247.6z" style="fill: inherit;"></path>
		<path d="m4068.7 2735.1c-104.5-256.3-476.1-194.2-595.7-128.8s-249.6 93.9-277.8 180.9c0 0-134.7-47.9-188.7 89.4-54.1 137.3 85.4 229 141.2 253.4 0 0 5-73.1 73.9-154.1 84.7-99.5 190.8-152.8 273.5-192 324.2-153.6 573.6-48.8 573.6-48.8z" style="fill: inherit;"></path>
		<path d="m3418.1 4354.6c-200.9 54.2-155.3 121.7-155.3 121.7 427.8 141.5 859.8-98.5 859.8-98.5s-503.6-77.4-704.5-23.2z" style="fill: inherit;"></path>
		<path d="m2917.9 3840s177.1-431.6 26.1-691.3c-314.9 209.8-134.6 665.8-134.6 665.8s-33.3 155.1 127.6 285.2c160.9 130.1 238.8 171.3 238.8 171.3s10.1-122.1-93.5-245c-103.7-123-164.4-186-164.4-186z" style="fill: inherit;"></path>
		<path d="m4504.2 4016.6c136.4-116.5 248.9-303.1 181.4-519.5-211.2-677.2-575-709.8-865.1-681.7 0 0 39.8 87.6 149.1 116.8 16 96.1 300.1 278.6 295.9 465.8-2.9 128.3-184 412-87.4 713.3 2.1 6.5 5.7 11.7 10.1 16.2-45.2 78.5-23.3 155.1-23.3 155.1 126.4 17.6 229.2-90.2 339.3-266z" style="fill: inherit;"></path>
	</g>
	<g id="__id236_sz2mecxx3g" style="fill: rgb(255, 255, 255);">
		<path d="m5999.6 4091.8c5.3-1.2 9.2-4.4 13.8-6.4 3.4-3.8 7.5-6.6 10.3-11.3 2.8-4.6 5.3-9.6 6.1-16.9l-0.9-1.2c-16.6 11.1-32.6 23-48.2 35.5l0.9 1.2c7.2 1.3 12.7 0.4 18-0.9z" style="fill: inherit;"></path>
		<path d="m5984.4 4117l0.2 1.5c6.2 4.6 12 6.4 17.7 7.7 5.8 1.4 11.2 0.5 16.9 0.9 5.4-1.7 10.9-2.3 16.1-5.1s10.4-6 15.2-12l-0.2-1.5c-22.1 2-44 4.8-65.9 8.5z" style="fill: inherit;"></path>
		<path d="m5996.8 4157.5v1.5c4.4 5.3 8.7 7.7 13 9.7 4.3 2.1 8.6 1.8 12.9 2.8 4.3-1.1 8.5-1.1 12.8-3.2 4.2-2.2 8.5-4.8 12.6-10.2v-1.5c-17.2-0.6-34.3-0.3-51.3 0.9z" style="fill: inherit;"></path>
		<path d="m5980 4244.7c-3.2-4-5.5-8.6-9.7-12.1s-8.7-6.8-15.8-8.7l-1.3 0.7c8.6 18.3 17.9 36.1 28 53.6l1.4-0.7c2.5-6.9 2.3-12.5 1.9-17.9-0.6-5.5-3.1-9.9-4.5-14.9z" style="fill: inherit;"></path>
		<path d="m6005 4205.4c-12.1-4.4-23.7-10.4-34.3-17.7l-0.9 1.2c2.3 8.2 6.8 14 11.9 19.1 5.1 5.2 11.6 8 17.9 11.6 7.1 1.6 14.2 3.7 21.8 3 7.6-0.9 15.4-3.1 21.4-9.2l-0.2-1.5c-12.9 1.3-25.7-1.7-37.6-6.5z" style="fill: inherit;"></path>
		<path d="m6797.7 4466.1l-0.4-1.5c-5.4-4.2-10.3-5.3-15-5.9-4.8-0.6-8.9 1.1-13.4 1.8-3.7 2.7-7.9 4.5-10.9 8.5s-5.6 8.6-5.7 15.4l0.9 1.2c13.6-8.7 29.1-14.4 44.5-19.5z" style="fill: inherit;"></path>
		<path d="m6800.4 4513.5c-2.6-3.7-6.4-5.3-9.7-8-4.1-0.8-7.9-2.4-12.5-2-4.6 0.5-9.3 1.6-14.6 5.7l-0.4 1.5c14.4 5.1 28.3 11.7 42.1 18.5l0.8-1.3c-0.7-6.7-3.1-10.8-5.7-14.4z" style="fill: inherit;"></path>
		<path d="m6774.3 4546c-4.6-1.7-8.8-4.3-14.3-4.6-5.4-0.2-11.5 0.2-16.9 4.9l-0.2 1.5c8.4 1.7 16.1 6.3 23.3 11.1 7.5 4.5 14.6 9.6 21.4 15.1l1-1.1c0.2-7-1.9-11.8-4.3-16.3-2.6-4.5-6.5-7.1-10-10.6z" style="fill: inherit;"></path>
		<path d="m6752.4 4588.8c-3.3-2.5-5.6-5.8-9.7-7.7s-8.5-3.5-15.2-3.4l-1.2 0.9c9.1 13.2 18.9 25.9 29.4 38l1.2-0.9c1.8-6.4 1.3-11.1 0.5-15.6s-3.4-7.5-5-11.3z" style="fill: inherit;"></path>
		<path d="m6497.4 3797.5c5.1-10.9 8.2-22.5 9.8-34.3l-1.5-0.2c-6.1 4.9-9.9 9.6-13.4 14.2-3.6 4.5-5.3 9.5-8.5 13.4-1.4 4.9-3.9 8.9-5.4 13.7-1.6 4.8-3.4 9.6-6.3 17l0.6 1.4c11.1-4.7 19.2-14.6 24.7-25.2z" style="fill: inherit;"></path>
		<path d="m6527.6 3829.6c-6.2-0.2-11.7 1.9-17.5 2.7-5.2 2.8-10.7 4.6-15.6 8.4-4.9 3.9-9.7 8.1-13.8 15.1l0.4 1.5c22.5-6.7 44.9-14.2 66.9-22.4l-0.5-1.4c-7.3-3.3-13.7-3.8-19.9-3.9z" style="fill: inherit;"></path>
		<path d="m6514.3 3885.7c-5.1-0.9-9.9-2.8-15.4-2.7s-11.2 0.6-17.9 3.8l-0.6 1.4c18.8 8.1 37.8 15.5 57.2 22l0.6-1.4c-2.8-6.8-6.7-11-10.7-14.8s-8.8-5.5-13.2-8.3z" style="fill: inherit;"></path>
		<path d="m6468.8 3915c-3.4-3.6-7.1-7-13.6-9.6l-1.5 0.5c4.7 17.1 10.1 34 16.4 50.6l1.5-0.5c3.7-5.9 4.7-10.9 5.4-15.7 0.7-4.9-0.9-9-1.2-13.6-2.4-3.9-3.7-8.1-7-11.7z" style="fill: inherit;"></path>
		<path d="m1412.9 5652.1c-4.4 4.8-6.1 9.2-7.4 13.6-1.4 4.3-0.5 8.3-0.9 12.5 1.6 3.8 2.2 7.9 4.8 11.6s5.7 7.3 11.4 10.5l1.4-0.2c-1.8-16.2-4.5-32.2-7.9-48.1l-1.4 0.1z" style="fill: inherit;"></path>
		<path d="m1372.8 5620.2c-0.3 0.1-0.6 0.3-0.8 0.4-2.7 1.6-5.1 3.3-7.2 5.2l-1.5 1.2c-4.3 3.8-6.6 8.6-10 12.9-1.6 5.2-4.1 9.9-4.9 15.5-0.7 5.7-1 11.5 1.1 18.6l1.3 0.7c9.6-16.9 18.5-34.2 26.9-51.8 0.8-1.7 1.8-3.3 2.6-5l-1.3-0.7c-2.3 0.7-4.2 1.9-6.2 3z" style="fill: inherit;"></path>
		<path d="m1339.4 5597.7c-7.2 2.8-12.2 7-16.9 11.5-4.8 4.5-7.7 10.2-11.6 15.3-2.2 6.1-5.3 11.6-6.6 18.1-1.2 6.5-2.1 13.1-0.4 20.8l1.3 0.6c12.6-21.4 24.4-43.1 35.6-65.3 0.1-0.1 0.1-0.2 0.2-0.3l-1.2-0.8c-0.3 0-0.3 0-0.4 0.1z" style="fill: inherit;"></path>
		<path d="m1283.2 5601c-3 5.4-6.8 10.2-9 16.3s-4 12.4-3.7 20.4l1.2 0.9c15.7-18.9 30.7-38.2 45-58.1l-1.2-0.9c-7.8 1.7-13.5 5.1-18.8 8.7-5.3 3.5-8.9 8.5-13.5 12.7z" style="fill: inherit;"></path>
		<path d="m1239.2 5527.5c5.2 3.2 10.8 4.1 16.2 6.3 5.8 0.2 11.3 1.4 17.3 0.6s12.1-2 18.7-5.9l0.3-1.4c-22.2-5.4-44.5-10-67-13.7l-0.3 1.4c4.5 6.1 9.6 9.6 14.8 12.7z" style="fill: inherit;"></path>
		<path d="m1231.6 5586.3c8.7 1.4 16 0.5 23-0.8 7.1-1.2 13.2-4.4 19.8-6.5 5.7-3.9 11.9-6.9 17.2-11.7 5-4.6 9.8-9.6 13.7-16.7 0.2-0.4 0.5-0.7 0.8-1.1l-0.6-1.3c-0.3 0.2-0.6 0.3-1 0.5-24.9 11.4-49.4 23.6-73.6 36.4l0.7 1.2z" style="fill: inherit;"></path>
		<path d="m678.7 5981.4c-2.4 16.6-13.5 30.5-25.7 41.5l0.9 1.2c6.6 1.4 11.7-0.1 16.4-2.2s7.7-6.1 11.3-9.6c2-4.7 4.5-9.3 4.5-14.8 0-5.4-1.3-11.2-6-16l-1.4-0.1z" style="fill: inherit;"></path>
		<path d="m658 5965l-1.3-0.7c-10.7 16.2-25.8 29.1-42 39.6l0.7 1.3c6.9 2 12.6 1.1 18-0.4 5.5-1.5 9.5-5 14.2-7.9 3.3-4.3 7.2-8.2 9.2-13.7 2-5.4 3.1-11.4 1.2-18.2z" style="fill: inherit;"></path>
		<path d="m637.4 5939.1l-0.6-1.3c-8.6 3.6-18.1 4.8-27.5 5.2-9.4 0.9-18.9 0.9-28.3 0.4l-0.2 1.5c4.3 5.6 9.2 8.2 14.2 10.3s10.1 1.9 15.3 2.5c5.1-1.4 10.3-1.8 15.2-4.8 4.8-3.1 9.6-7 11.9-13.8z" style="fill: inherit;"></path>
		<path d="m590.8 5910.6c3.6 2.8 7.6 3.4 11.3 5.3 4.2-0.1 8.1 0.8 12.5-0.4s8.8-2.7 13.8-6.9l0.3-1.4c-15.7-4.1-31.6-7.3-47.7-9.8l-0.3 1.4c3.1 5.9 6.6 9.1 10.1 11.8z" style="fill: inherit;"></path>
		<path d="m1309.1 6175l-1.5 0.1c0.3 13.2 1.4 26.4 3.2 39.5l1.5-0.1c4.8-3.7 7-7.2 8.7-10.6 1.8-3.5 1.3-6.7 2.1-10.1-1.2-3.2-1.4-6.5-3.7-9.7-2.2-3.1-4.9-6.2-10.3-9.1z" style="fill: inherit;"></path>
		<path d="m1276 6154.6c-4.5 18.1-10.5 35.9-16.9 53.4l1.3 0.6c6.6-2.4 10.6-6 14.1-9.8 3.6-3.8 5-8.5 7.5-12.8 0.6-4.9 2-9.6 1.4-14.9-0.7-5.2-1.9-10.6-6-16.2l-1.4-0.3z" style="fill: inherit;"></path>
		<path d="m1232.9 6157.3c-7.8 6.6-16 12.8-24.4 18.7l0.8 1.2c7.2 1.4 12.8 0.3 18.3-1.2s9.6-4.8 14.4-7.4c3.6-4.1 7.8-7.5 10.5-12.7 2.6-5.1 5-10.8 4.4-18.1l-1.1-0.9c-6.9 7.7-14.8 14.2-22.9 20.4z" style="fill: inherit;"></path>
		<path d="m1227.8 6129.3c4.1-3 8.1-6.4 11.4-12.6l-0.3-1.4c-18.4 3.5-36.5 7.8-54.5 13l0.3 1.4c5.7 3.9 10.8 5.2 15.8 6 5 0.9 9.5-0.3 14.3-0.4 4.3-2 8.9-3 13-6z" style="fill: inherit;"></path>
		<path d="m1198.3 6090.4c3.6 2.9 7.7 3.6 11.5 5.5 4.2-0.1 8.3 0.9 12.7-0.1 4.5-1.1 9-2.5 14.2-6.7l0.3-1.4c-16-4.4-32.1-7.9-48.4-10.7l-0.3 1.4c2.9 5.9 6.4 9.2 10 12z" style="fill: inherit;"></path>
		<path d="m2631.7 1477.7c-24-2.3-45.2 14.9-47.6 38.8-2.3 24 14.9 45.2 38.8 47.6 24 2.3 45.1-15.1 47.6-38.8 2.4-24-15.1-45.2-38.8-47.6z" style="fill: inherit;"></path>
		<path d="m2518.9 1442.3c22.5 8.5 47.5-2.4 56.2-25 8.5-22.5-2.8-47.6-25.3-56.1-22.2-8.6-47.4 2.7-55.9 25.2-8.5 22.2 2.5 47.4 25 55.9z" style="fill: inherit;"></path>
		<path d="m2402.9 1337.3c24 2.3 45.2-14.9 47.6-38.8 2.3-24-14.9-45.2-38.8-47.6-24-2.3-45.1 15.1-47.6 38.8-2.4 24 15 45.1 38.8 47.6z" style="fill: inherit;"></path>
		<path d="m2550.7 1527.9c-22.2-8.6-47.5 2.4-56 24.9s2.6 47.7 25 56.2c22.5 8.5 47.6-2.8 56.1-25.3 8.7-22.2-2.6-47.3-25.1-55.8z" style="fill: inherit;"></path>
		<path d="m2442.1 1532.8c8.5-22.5-2.6-47.7-25-56.2-22.5-8.5-47.4 2.7-56.2 25-8.5 22.5 2.8 47.6 25.3 56.1 22.1 8.7 47.2-2.6 55.9-24.9z" style="fill: inherit;"></path>
		<path d="m2461.1 1641c-22.5-8.5-47.7 2.6-56.2 25-8.5 22.5 2.8 47.6 25 56.2 22.5 8.5 47.6-2.8 56.1-25.3 8.7-22.2-2.6-47.3-24.9-55.9z" style="fill: inherit;"></path>
		<path d="m2355.5 1612.5c-22.2-8.6-47.5 2.4-56 24.9s2.6 47.7 25 56.2c22.5 8.5 47.6-2.8 56.1-25.3 8.6-22.2-2.7-47.3-25.1-55.8z" style="fill: inherit;"></path>
		<path d="m2251.6 1479.6c-22.2-8.6-47.4 2.7-56 24.9-8.5 22.5 2.6 47.7 25 56.2 22.5 8.5 47.4-2.7 56.2-25 8.6-22.4-2.7-47.5-25.2-56.1z" style="fill: inherit;"></path>
		<path d="m2243.2 1623.7c-22.6-8.8-47.5 2.4-56 24.9s2.4 47.5 24.9 56 47.5-2.4 56-24.9c8.8-22.6-2.5-47.5-24.9-56z" style="fill: inherit;"></path>
		<path d="m2010.3 1507.4c22.2 8.6 47.4-2.7 55.9-25.2 8.6-22.2-2.4-47.5-24.9-56s-47.5 2.4-56.2 25c-8.6 22.6 2.6 47.5 25.2 56.2z" style="fill: inherit;"></path>
		<path d="m2115.4 1563.9c-22.5-8.5-47.4 2.7-56.1 25.3-8.6 22.2 2.7 47.4 25.2 55.9s47.5-2.4 56-24.9-2.6-47.8-25.1-56.3z" style="fill: inherit;"></path>
		<path d="m2044.7 1659.9c-22.2-8.6-47.4 2.7-56 24.9-8.5 22.5 2.6 47.7 25 56.2 22.5 8.5 47.6-2.8 56.2-25 8.6-22.4-2.7-47.6-25.2-56.1z" style="fill: inherit;"></path>
		<path d="m1940.9 1519.7c-22.5-8.5-47.6 2.8-56.2 25-8.5 22.5 2.8 47.6 25 56.2 22.5 8.5 47.6-2.8 56.2-25 8.6-22.4-2.7-47.6-25-56.2z" style="fill: inherit;"></path>
		<path d="m1874.5 1783.1c-24-2.3-45.1 15.1-47.5 39.1-2.5 23.7 15.1 45.1 38.8 47.6 24 2.3 45.1-15.1 47.5-39.1 2.5-23.8-15.1-45.2-38.8-47.6z" style="fill: inherit;"></path>
		<path d="m5779.8 5488.3c11.5-23.9 1.7-52.8-22.3-64.5-23.9-11.5-52.8-1.7-64.5 22.3-11.8 24-1.7 52.8 22.3 64.5 24 11.8 52.7 1.7 64.5-22.3z" style="fill: inherit;"></path>
		<path d="m5842.2 5633.8c5.1-26.2-12.1-51.6-38.3-56.7-26.5-4.9-51.5 12.4-56.5 38.6-5.1 26.2 12.4 51.5 38.4 56.3 26.2 5 51.6-12.2 56.4-38.2z" style="fill: inherit;"></path>
		<path d="m5843.5 5764.5c-24-11.8-52.8-1.7-64.5 22.3-11.5 23.9-1.7 52.8 22.3 64.5 23.9 11.5 52.8 1.7 64.5-22.3 11.8-24 1.7-52.7-22.3-64.5z" style="fill: inherit;"></path>
		<path d="m5646.8 5479.1c-26.2-5.1-51.6 12.1-56.7 38.3s12.4 51.5 38.6 56.5c26.2 5.1 51.5-12.4 56.3-38.4 5-26.2-12.1-51.6-38.2-56.4z" style="fill: inherit;"></path>
		<path d="m5616.8 5635.5c-26.1-4.8-51.5 12.4-56.3 38.4-5.1 26.2 12.1 51.6 38.3 56.7 26.3 4.6 51.5-12.4 56.5-38.6 5.2-26.2-12.3-51.4-38.5-56.5z" style="fill: inherit;"></path>
		<path d="m5469.1 5592.9c26.2 5.1 51.5-12.4 56.5-38.6 4.8-26.1-12.4-51.5-38.4-56.3-26.2-5.1-51.6 12.1-56.7 38.3-4.8 26.1 12.4 51.5 38.6 56.6z" style="fill: inherit;"></path>
		<path d="m5434.5 5709.3c26.2 5.1 51.5-12.4 56.3-38.4 5.1-26.2-12.1-51.6-38.2-56.5-26.2-5.1-51.6 12.1-56.7 38.3-5 26.3 12.4 51.6 38.6 56.6z" style="fill: inherit;"></path>
		<path d="m5517.5 5790.1c-26.3-4.6-51.5 12.4-56.5 38.6-5.1 26.2 12.4 51.5 38.6 56.5 26.1 4.8 51.5-12.4 56.3-38.4 5-26.2-12.1-51.7-38.4-56.7z" style="fill: inherit;"></path>
		<path d="m5358.4 5809.1c26.2 5.1 51.4-11.9 56.3-38.4 5.1-26.2-11.9-51.4-38.4-56.3-26.2-5.1-51.2 12.2-56.3 38.4s12.1 51.2 38.4 56.3z" style="fill: inherit;"></path>
		<path d="m5445 6020.8c-26.2-5.1-51.6 12.1-56.5 38.2-4.9 26.5 12.1 51.6 38.3 56.7 26.5 4.9 51.5-12.4 56.5-38.6 5.2-26.3-12.2-51.5-38.3-56.3z" style="fill: inherit;"></path>
		<path d="m5358 5869.9c-26.2-5.1-51.2 12.2-56.3 38.4s12.1 51.6 38.2 56.5c26.5 4.9 51.6-12.1 56.7-38.3 5.1-26.3-12.4-51.5-38.6-56.6z" style="fill: inherit;"></path>
		<path d="m5264.4 5937.2c5.1-26.2-12.1-51.6-38.3-56.7-26.1-4.8-51.5 12.4-56.5 38.6-5.1 26.2 12.4 51.5 38.6 56.5 26 4.9 51.4-12.3 56.2-38.4z" style="fill: inherit;"></path>
		<path d="m5297.9 6060.8c-26.1-4.8-51.5 12.4-56.5 38.6-4.8 26.1 12.4 51.5 38.6 56.5 26.1 4.8 51.5-12.4 56.5-38.6 4.8-26-12.4-51.4-38.6-56.5z" style="fill: inherit;"></path>
		<path d="m5026.1 5961.9c-24-11.8-52.9-2-64.7 22.1-11.5 23.9-1.5 53 22.3 64.5 24 11.8 52.9 2 64.7-22.1 11.6-23.8 1.6-53-22.3-64.5z" style="fill: inherit;"></path>
		<path d="m1140.9 4247.2c-14.2-21.8-31.2-39.2-49.2-55.1-17.8-16.2-37.2-29.8-56.9-42.9-20.2-12.3-40.8-24.1-63.1-33.3-22-9.5-45.1-17.4-70.9-21l-0.5 0.8-1.1 1.7 0.2 0.1 119 77.3 111 68.8c-29-9-58.1-14.4-87.1-18.2-32.6-4.6-65.3-6.1-98-7.1-32.7 0-65.4 0.7-98.1 4.4-32.7 3.4-65.5 8.6-98.3 19v1.1 2l196.1 4.1 182.2 1c-27.8 5.1-54.4 12.7-80.1 22.1-29.9 10.6-58.5 23.9-86.8 37.8-27.8 14.7-55.4 30-81.6 48-26 17.5-51.2 36.7-74.2 60.3-0.2 0.2-0.5 0.4-0.8 0.7l1.4 2.7 0.6-0.3 168.4-84.2 146.7-76.3c-17.5 12.3-33.8 25.5-48.7 39.8-20.5 19.3-38.7 40.4-56.4 62-16.9 22.1-33.4 44.7-47.4 69.1-14.2 24.1-27 49.3-35.8 77.7 0 0.1-0.1 0.2-0.2 0.4l1.4 1.1 1 0.8 104.9-130.1 102.5-132-1.2-0.9 1-1.4z" style="fill: inherit;"></path>
		<path d="m4547.7 590.3c-19.7 3-33.1 21.3-30.2 40.8 3 19.7 21.1 33.2 40.8 30.2 19.5-2.9 33.2-21.1 30.2-40.8-2.9-19.5-21.3-33.1-40.8-30.2z" style="fill: inherit;"></path>
		<path d="m4287.5 365.2c-19.7 3-33.2 21.1-30.2 40.8 2.7 19.6 21.1 33.2 40.8 30.2 19.5-2.9 33.1-21.3 30.2-40.8s-21.3-33.1-40.8-30.2z" style="fill: inherit;"></path>
		<path d="m4268.6 482.6c-19.5 2.9-33.1 21.3-30.2 40.8 3 19.7 21.1 33.2 40.8 30.2 19.6-2.7 33.2-21.1 30.3-40.6-3-19.7-21.1-33.2-40.9-30.4z" style="fill: inherit;"></path>
		<path d="m4174 365.7c-19.6 2.7-33.2 21.1-30.3 40.6 3 19.7 21.1 33.2 40.9 30.4 19.5-2.9 33.1-21.3 30.2-40.8-3-19.8-21.3-33.2-40.8-30.2z" style="fill: inherit;"></path>
		<path d="m4080 418.1c-19.7 3-33.2 21.1-30.4 40.9 2.9 19.5 21.3 33.1 40.8 30.2 19.7-3 33.2-21.1 30.4-40.9-2.9-19.5-21.3-33.1-40.8-30.2z" style="fill: inherit;"></path>
		<path d="m3881.8 409.3c19.5-2.9 33.1-21.3 30.2-40.8-3-19.7-21.3-33.1-40.8-30.2-19.8 2.8-33.2 21.1-30.3 40.6 3 19.7 21.1 33.2 40.9 30.4z" style="fill: inherit;"></path>
		<path d="m3921.4 486.7c-3-19.7-21.1-33.2-40.8-30.2-19.5 2.9-33.2 21.1-30.2 40.8 2.9 19.5 21.1 33.2 40.8 30.2 19.6-3 33.2-21.3 30.2-40.8z" style="fill: inherit;"></path>
		<path d="m3792.6 511.6c19.6-2.7 33.2-21.1 30.2-40.8-2.9-19.5-21.3-33.1-40.8-30.2-19.7 3-33.1 21.3-30.2 40.8 3 19.8 21.1 33.2 40.8 30.2z" style="fill: inherit;"></path>
		<path d="m3894 3502.7c-23 18-27.1 51.3-9 74.4 18 23 51.3 27.1 74.4 9s27.1-51.3 9-74.4c-18.1-23-51.4-27.1-74.4-9z" style="fill: inherit;"></path>
		<path d="m3801.8 3611.8c28.7-5.6 47.4-33.4 41.8-62.2-5.6-28.7-33.4-47.4-62.2-41.8-28.7 5.6-47.4 33.4-41.8 62.2 5.7 28.7 33.5 47.4 62.2 41.8z" style="fill: inherit;"></path>
		<path d="m3853.2 3462.8c28.7-5.6 47.4-33.4 41.8-62.2-5.6-28.7-33.4-47.4-62.2-41.8-28.7 5.6-47.4 33.4-41.8 62.2 5.6 28.7 33.5 47.4 62.2 41.8z" style="fill: inherit;"></path>
		<path d="m3272.9 3792.1c-28.7 5.6-47.4 33.4-41.8 62.2 5.6 28.7 33.4 47.4 62.2 41.8 28.7-5.6 47.4-33.4 41.8-62.2-5.6-28.7-33.4-47.4-62.2-41.8z" style="fill: inherit;"></path>
		<path d="m3830.6 3320.1c28.7-5.6 47.4-33.4 41.8-62.2-5.6-28.7-33.4-47.4-62.2-41.8-28.7 5.6-47.4 33.4-41.8 62.2 5.7 28.7 33.5 47.4 62.2 41.8z" style="fill: inherit;"></path>
		<path d="m3411.6 3536.4c-5.6-28.7-33.4-47.4-62.2-41.8-28.7 5.6-47.4 33.4-41.8 62.2 5.6 28.7 33.4 47.4 62.2 41.8 28.7-5.6 47.4-33.5 41.8-62.2z" style="fill: inherit;"></path>
		<path d="m3817.4 3664.7c-19.4 21.9-17.3 55.4 4.6 74.8s55.4 17.3 74.8-4.6 17.3-55.4-4.6-74.8-55.4-17.3-74.8 4.6z" style="fill: inherit;"></path>
		<path d="m3801.2 3798.8c-19.4 21.9-17.3 55.4 4.6 74.8s55.4 17.3 74.8-4.6 17.3-55.4-4.6-74.8-55.4-17.4-74.8 4.6z" style="fill: inherit;"></path>
		<path d="m3711.8 3806c-27.3-10.6-58 2.9-68.6 30.1s2.9 58 30.1 68.6c27.3 10.6 58-2.9 68.6-30.1s-2.9-58-30.1-68.6z" style="fill: inherit;"></path>
		<path d="m3693.4 3620.2c3.5-29-17.2-55.4-46.2-59-29-3.5-55.4 17.2-59 46.2-3.5 29 17.2 55.4 46.2 59 29.1 3.5 55.5-17.1 59-46.2z" style="fill: inherit;"></path>
		<path d="m3549.7 3503.1c29 3.5 55.4-17.2 59-46.2 3.5-29-17.2-55.4-46.2-59-29-3.5-55.4 17.2-59 46.2-3.5 29.1 17.2 55.5 46.2 59z" style="fill: inherit;"></path>
		<path d="m3439.2 3401.9c29 3.5 55.4-17.2 59-46.2s-17.2-55.4-46.2-59c-29-3.5-55.4 17.2-59 46.2s17.1 55.4 46.2 59z" style="fill: inherit;"></path>
		<path d="m3544.2 3591.9c3.5-29-17.2-55.4-46.2-59-29-3.5-55.4 17.2-59 46.2-3.5 29 17.2 55.4 46.2 59 29.1 3.5 55.5-17.1 59-46.2z" style="fill: inherit;"></path>
		<path d="m3431 3730.7c-29-3.5-55.4 17.2-59 46.2-3.5 29 17.2 55.4 46.2 59 29 3.5 55.4-17.2 59-46.2 3.5-29.1-17.2-55.5-46.2-59z" style="fill: inherit;"></path>
		<path d="m3678 3402.5c29 3.5 55.4-17.2 59-46.2 3.5-29-17.2-55.4-46.2-59-29-3.5-55.4 17.2-59 46.2-3.5 29.1 17.2 55.5 46.2 59z" style="fill: inherit;"></path>
		<path d="m3723.2 3667.1c-29-3.5-55.4 17.2-59 46.2-3.5 29 17.2 55.4 46.2 59 29 3.5 55.4-17.2 59-46.2 3.5-29.1-17.2-55.5-46.2-59z" style="fill: inherit;"></path>
		<path d="m3532.8 3847.7c-28.9 4.7-48.5 31.9-43.8 60.7 4.7 28.9 31.9 48.5 60.7 43.8 28.9-4.7 48.5-31.9 43.8-60.7-4.6-28.9-31.8-48.5-60.7-43.8z" style="fill: inherit;"></path>
	</g>
	<g id="__id237_sz2mecxx3g" style="fill: rgb(255, 255, 255);">
		<path d="m2583.1 5176.7c-8.3-4.8-16.7-9.6-25.8-14.1-4.8-2.3-9.4-4.1-14-6.2-323.4-145.2-491.6 287.8-658.5 603.6l158.4-37.2-32.1 181.5 143.8-85.4 22.6 157 113.4-89.2 20 161.8 119.9-130.9 54.1 143.2c174.9-321.2 392.6-711.7 98.2-884.1zm-40.4 81c-0.9 27.3-0.9 54.6-2.5 81.8-1.5 27.3-2.6 54.6-5.6 81.9-2.7 27.3-4.8 54.6-8 82-4.4 27.4-7.2 54.7-13.1 82.2h-3.1l1.9-306 0.1-14.4-51.4 86.4-36.6 61.5-95 153.6-2.6-1.6c6.4-31.3 17.2-60 29.5-87.7 12.1-27.9 26.8-54.2 42-80.2 16.1-25.5 32.6-50.6 51.8-74.2 0.9-1.1 1.8-2.1 2.7-3.2 15.1-18.8 31.7-36.6 50.3-53.2l-32.4 16.2c-37.5 18.8-74.9 37.9-112 57.6-52.2 27.8-104.1 56.3-153.9 88.3l-1.7-2.6c21.5-21.4 45.9-38.8 69.5-57.5 24.3-17.6 49.1-34.2 74.4-49.9 48.1-30 97.7-57 148.6-82.1 2.6-1.3 5.2-2.8 7.8-4.1l40.8-20-0.7 21.7-0.8 23.5z" style="fill: inherit;"></path>
		<path d="m6218.2 3031.4l-125.3-57.7 106.7-98.7-159.2-18.1 70.1-122.8c-308.9 61.9-718.9 94.9-664.1 412.8 1 5.9 2.4 11.4 3.6 17 3.4 15.3 7.5 29.7 12.6 43 92.5 245.6 452.7 165.2 750.3 101.7l-105.9-80.5 138.8-67.6-129.9-56.7 102.3-72.4zm-534.3 144.5c22.3 8.9 44.7 17.2 66.8 26.4 21.7 10.4 43.9 19.4 65.1 31.3l-0.9 2.9-251-70.2-24-6.7-4.7-1.3 3.3-3.6c1.4-1.5 11.4-11.9 24.6-25.8 25.3-26.4 63.4-65.9 82.8-85.3 36.5-36.3 73.5-72.2 112.8-105.5l2 2.3c-15.6 21.2-32.5 40.5-48 61.3-16.3 19.9-32.6 39.8-49.4 59.2-14.4 16.9-29.4 33.2-44.2 49.7-9.1 10.1-17.9 20.4-27 30.4l37.8-10.3 61.8-16.9 152.3-38.5 0.8 3c-22.6 17.1-46.4 29.2-70.8 39.6-24.3 10.6-49.3 18.4-74.5 25.5-22.7 5.5-45.6 10.2-69 13.1 18 6.1 35.9 12.2 53.4 19.4z" style="fill: inherit;"></path>
		<path d="m3003.6 5753c-8.3-3-16.9-5.7-25.9-8.2-5.1-1.4-10-2.2-14.9-3.2-283-59.8-347.4 433.2-401.6 604.7l92-42.9 11.5 83.8 93-90.4 20.5 145.8 123.7-98.4 21 144.2 83.7-111.1 88.8 118.3c90.9-287.4 172.9-647.3-91.8-742.6zm39.8 317c-9.8-22.3-17.1-44.6-26.4-66.6-8-22.2-16.1-44.4-23.5-66.8-7.4-21.9-14-44.1-20.6-66.2l-17 73.5-36.6 144.7-3-0.7c-4.7-26.7-4.3-52.2-2.1-77.3 1.8-25.1 6.6-49.6 12-73.9 3.4-12.8 7-25.5 11.1-38.1 3.3-10.4 7.1-20.7 11.3-30.9-3.1 3.2-6.2 6.4-9.3 9.6-10.1 10.5-20.4 20.9-31.3 30.7-16.3 15.1-32.2 30.6-48.7 45.3-17.5 13.9-33.8 28.9-52.4 41.8l-2.3-2.1 142-165.7 30-35 3.7-4.3 1.5 5.4c0.3 1.1 1.9 6.9 4.1 15.3 7.8 29.6 24.7 93.9 31.5 121.9 11 46 21.5 92.1 29 138.8l-3 0.6z" style="fill: inherit;"></path>
		<path d="m5773.7 6249c-224.7 95.4-15.1 445 36.4 581.2l36.3-72.2 48.5 46.7 13.5-102.4 84.7 81 28.8-122.5 84.3 79.7-2.5-110.7 113.8 30.1c-87.6-231.3-219.1-506.3-443.8-410.9zm209.1 168.6c-17.1-9.1-32.7-19.5-49.3-28.6-16-9.9-32-19.8-47.6-30.2-19.7-12.8-39.1-26.2-58.2-39.8l30.7 65 48.5 108.4-2.2 1c-16.1-14.4-28.4-30.5-39.5-47.2-11.3-16.6-20.3-34.2-28.9-52.1-5.3-12.1-10.1-24.4-14.4-37-0.9 8.6-2 17.3-3.5 25.9-2.7 17.5-5 35-8.1 52.4-4.1 17.4-6.9 34.8-12.1 52l-2.4-0.2 8.4-210.3 0.2-4.5 3.6 2.6c3.4 2.5 66.8 50 89.9 68.2 29.5 23.3 58.8 46.9 86.6 72.4l-1.7 2z" style="fill: inherit;"></path>
		<path d="m1118.7 4146.9c-64.1-160.1-423.2-481.9-498.8-512.8s-92.7-1.1-102 13.1c-9.6 14.4-4.6 31.5-23.1 47.6-18.3 15.9-173-60.5-217.1 39.5-33.6 77.1 14.1 343.8 262.5 416.2-367.1-51.1-507.4 57-515.3 112.5-6.2 44.3 32 68.7 32 68.7 1.7 28.4-67.6 78.4-55.6 154 16 100.3 132 96 145.8 125 14 28.9-54.7 85.3-20.7 137 59.9 92 223 61.4 409.4-33-82.9 123.1-135.7 232-78 298.5 59.7 68.6 199.3-10.7 199.3-10.7s-17 105.1 36.5 122.6c69.2 22.8 319.5-254.8 384.8-390.8 61.4-127.8 83.5-310.7 77.9-435.5l-37.6-151.9zm-80 234.5l-104.9 130.1-1-0.8c10 14.5 12.9 34.1 5.5 51.7-11.6 27.7-43.3 40.6-71 29s-40.6-43.3-29.3-70.9c11.6-27.7 43.3-40.6 71-29 9.3 3.7 16.8 10.1 22.5 17.7 8.8-28.4 21.6-53.6 35.8-77.7 14.1-24.4 30.5-46.9 47.4-69.1 17.7-21.5 35.9-42.7 56.4-62 14.9-14.3 31.2-27.5 48.7-39.8l-146.6 76.4-168.4 84.2c4.4 12.2 4.5 25.9-0.8 38.6-11.8 27.4-43.3 40.6-71 29s-40.6-43.3-29.3-70.9c11.6-27.7 43.3-40.6 71-29 13.8 5.7 23.6 16.5 28.8 29.2 22.9-23.6 48.1-42.8 74.2-60.3 26.2-18 53.7-33.3 81.6-48 28.3-13.8 56.8-27.2 86.8-37.8 25.7-9.4 52.2-17 80.1-22.1l-182.2-1-196.1-4.1c0.4 7.6-0.8 15.3-3.9 23-11.8 27.4-43.3 40.6-71 29s-40.6-43.3-29.3-70.9c11.6-27.7 43.3-40.6 71-29 19.2 8 31.5 26.3 33.2 46v-1.1c32.8-10.4 65.6-15.6 98.3-19 32.7-3.7 65.4-4.4 98.1-4.4 32.7 1 65.4 2.5 98 7.1 29.1 3.8 58.1 9.2 87.1 18.2l-111-68.8-119-77.3c-12.1 26.7-43.1 39-70.3 27.6-27.7-11.6-40.6-43.3-29.3-70.9 11.6-27.7 43.3-40.6 71-29 27.4 11.3 40.4 43 29.4 70.4l0.5-0.8c25.8 3.6 48.8 11.5 70.9 21 22.2 9.2 42.8 21 63.1 33.3 19.7 13.1 39.1 26.8 56.9 42.9 18 15.9 34.9 33.4 49.2 55.1l-0.8 1.3 1.2 0.9-102.5 132z" style="fill: inherit;"></path>
		<path d="m6523 2384.6c7.3-24.4-6.3-50.2-30.8-57.8s-50.3 6.1-57.9 30.6c-4.8 15.6-0.7 32 9 43.5l1.5 1c0 0.1-0.1 0.3-0.1 0.4 5.4 5.9 12.3 10.6 20.4 12.9 24.5 7.6 50.3-6.1 57.9-30.6z" style="fill: inherit;"></path>
		<path d="m6645.7 2460.5c7.3-24.4-6.3-50.2-30.8-57.8s-50.2 6.3-57.9 30.6c-3.4 11.1-2.2 22.7 2.5 32.7l0.4-0.3 1.6 2.6c-0.2 0.2-0.4 0.4-0.6 0.7 5.6 10.2 14.7 18.5 26.8 22.1 24.6 7.5 50.5-6.1 58-30.6z" style="fill: inherit;"></path>
		<path d="m6682.1 2560.7c-24.5-7.6-50.2 6.3-57.9 30.6-2 6.7-2.3 13.3-1.4 19.6l0.2 1.9c3.1 16.5 15 31.1 32 36.2 24.5 7.6 50.3-6.1 57.9-30.6 7.3-24.3-6.4-50.1-30.8-57.7z" style="fill: inherit;"></path>
		<path d="m6563.8 2719.6c-24-7.4-49.1 5.6-57.3 29.1l0.2 0.1-0.9 1.8c-7 24.2 6.7 50 30.9 57.3 24.5 7.6 50.3-6.1 57.9-30.6 7.4-24.3-6.3-50.2-30.8-57.7z" style="fill: inherit;"></path>
		<path d="m2281 994c38.7-24.2 101.9-124.4 121.8-187.2 44.6-139.8-15.1-270-133.2-346.4-37.5-24.3-81-43.1-129-55.2-49.4-12.4-95.8-13.4-137.8-8.6-79.8 9.3-142.3 40.4-174.4 58-37.1 20.4-100.1 109.3-104 246.8-1.5 43.7 3.1 92.4 16.6 145.7 57.3 226.4 415 291.9 540 146.9zm-247.2-217.5c-7.9-7.4-15.5-13-19.3-15-2.9-2.7-12.1-3.6-22.8-4.7-5.7-0.7-11.3-0.2-20.4-2.1-4.3-1.5-11.1-1.3-19.3-11.2-3.9-6.2-3.3-8.9-3.7-11.3 0-2.3 0.1-4.1 0.4-5.8 1-4.5 2-8.3 2.9-12.2-2.6 1.8-5.1 3.9-7.9 5.6-23.4 13.4-49.6 21.8-75 21.8-25.3 0.4-49.4-2.9-72.3-8.9-22.7-7.5-44.3-16-64.6-27.5l0.5-1.5 0.4-1.4c43.2 12.1 88.4 21.4 133.1 15.8 22.2-2.6 43.7-10.2 62.2-22.3 18.6-12.1 33.3-29.4 45.4-48.1 6.4-9.3 11.5-19.3 20.4-28 9.4-6.9 16.8-14.2 22.6-23.9 11.6-18.8 17.9-40.8 19.2-63.1 3.1-44.9-11.1-89.3-31.1-129.4l1.2-0.6 1.6-0.8c15.3 17.8 26.9 38.2 37.2 60.1 8.9 22.3 15 46.7 15.2 72.3 0.4 10.8-0.8 21.7-3 32.6 6.2 0.4 12.4 0.5 18.6 0.1 5.5 0 11-0.4 16.6-0.8 16.5-15.6 35.2-29 53.6-41.5 34.7-22.6 71.5-41.6 109-59l0.7 1.4 0.6 1.3-50.9 35.7c-16.5 12.3-32.9 24.4-48.6 36.9-30.5 24.9-62 52.6-73.9 82-13.6 32.1-9.1 60.6 13.5 86.6 21.9 26.2 55.9 46.4 90.5 63.9l4.3 2.2 1.3 1.2c3 2.8 5.8 6.2 7.9 9.6 1.4 2.6 2.2 4.9 3.1 7.4 1.5 4.7 1.7 7.2 2.4 10.6 0.8 5.5 1.2 10.3 1.4 14.8 0.7 8.9 1.5 17.5 3.2 25.9 3.1 17 8.7 33.9 16 50.4 7.4 16.4 15.9 32.9 25.1 49.3 9.7 16.1 20.3 31.8 30.8 48.1l-1 0.9-1.2 1.2c-13.2-13.8-25.9-28-37.8-43-11.5-15.3-22.8-30.8-31.8-47.7-9.3-16.8-17-34.5-22.2-53-2.7-9.2-4.5-18.7-6.1-28.2-1.7-8.9-1.9-20-6.6-25.4-22.6 9.6-44.5 15.6-71.7 12.8-7-0.7-14.3-2.6-20.5-5-6.8-2.6-10.4-3.7-17.8-7.1-13.1-7-22.8-15.4-31.4-22z" style="fill: inherit;"></path>
		<path d="m2236.2 2887.7c0-30.5-24.7-55.2-55.2-55.2s-55.2 24.7-55.2 55.2 24.7 55.2 55.2 55.2 55.2-24.7 55.2-55.2z" style="fill: inherit;"></path>
		<path d="m4323.6 5045.1c0-33.4-27.1-60.5-60.5-60.5s-60.5 27.1-60.5 60.5 27.1 60.5 60.5 60.5 60.5-27.1 60.5-60.5z" style="fill: inherit;"></path>
		<path d="m4859.2 1474.8c-33.4 0-60.5 27.1-60.5 60.5s27.1 60.5 60.5 60.5 60.5-27.1 60.5-60.5-27.1-60.5-60.5-60.5z" style="fill: inherit;"></path>
		<circle cx="4283.4" cy="5257.1" r="60.5" style="fill: inherit;"></circle>
		<path d="m1893.6 2808.8c0 30.5 24.7 55.2 55.2 55.2s55.2-24.7 55.2-55.2c0-30.5-24.7-55.2-55.2-55.2s-55.2 24.7-55.2 55.2z" style="fill: inherit;"></path>
		<path d="m2185.5 3229.4c30.5 0 55.2-24.7 55.2-55.2s-24.7-55.2-55.2-55.2-55.2 24.7-55.2 55.2 24.7 55.2 55.2 55.2z" style="fill: inherit;"></path>
		<path d="m5003.4 1303.1c-30.5 0-55.2 24.7-55.2 55.2s24.7 55.2 55.2 55.2 55.2-24.7 55.2-55.2-24.7-55.2-55.2-55.2z" style="fill: inherit;"></path>
	</g>
	<g id="__id238_sz2mecxx3g" style="fill: rgb(27, 73, 140);">
		<path d="m1007.3 2752.5c90.4 316.7 428.3 549.9 428.3 549.9-121.4-421.4-428.3-549.9-428.3-549.9z" style="fill: inherit;"></path>
		<path d="m2396.3 3903.3l19.5-29.2c-187.5-108.6-346.6-192.4-488.4-261.3-7.2-88.6-36-293.4-152.4-449.7-89.7-120.4-211.2-197.3-211.2-197.3s-97.7 268.8 248.1 592.3c-89.2-41.1-172-76.8-251.5-109.7-776.7-563.8-1545.9-465.1-1545.9-465.1 449.3 585.3 1318.7 503 1513.2 476.2l589.2 301.1c-275.9-87.7-719.6-168.1-1134.5 21.2 0 0 209 212.4 845.8 196.9 256.3-6.2 452.5-68.4 527.7-96l40.4 20.6z" style="fill: inherit;"></path>
		<path d="m5448 1991.8c69.6-120 139-240.3 206.8-360.9 401.7-305.5 337.1-635.9 337.1-635.9s-105.1 62.7-188.4 173.1c-110.7 146.8-151.5 355.7-164 440.1l-132.4 224.5c29.7-130.1 68.5-387.4-13.4-623.3 0 0-154.9 253.3-19.4 678.9l-94.6 160.5c-60.3 102-121.1 203.7-182.1 305.2 180.5-487.4-41.7-737.3-41.7-737.3s-66.3 120.8-86.2 272.8c-29.3 223.3 63.2 466.4 89.1 528.8-21.6 35.8-43.1 71.7-64.8 107.4-68.8 112.7-138.2 225.1-209.4 336.3l0.6-0.3c-2.4 4-3.8 6.4-3.8 6.4s235.9-2.4 505.1-137.5c519.2-260.6 582-556.3 582-556.3-432.8-3.5-752.1 273.7-928.9 478.7 25-38.3 49.9-76.6 74.8-115 88.9-138.1 173.5-278.8 258.7-419.2 54.5-5.5 579.1-70.3 688.7-556.2-0.1 0.1-344.6 49.5-613.8 429.2z" style="fill: inherit;"></path>
		<path d="m2644.4 457.5c23.1-10.4 33.4-37.6 23-60.7s-37.6-33.4-60.7-23-33.4 37.6-23 60.7c10.5 23.1 37.6 33.4 60.7 23z" style="fill: inherit;"></path>
		<path d="m2773.4 399.4c20.7-9.3 29.9-33.7 20.6-54.4s-33.7-29.9-54.4-20.6-29.9 33.7-20.6 54.4c9.4 20.7 33.7 29.9 54.4 20.6z" style="fill: inherit;"></path>
		<path d="m2828.2 591.5c-8.1-18.1-29.4-26.1-47.5-18s-26.1 29.4-18 47.5 29.4 26.1 47.5 18c18.1-8.2 26.1-29.4 18-47.5z" style="fill: inherit;"></path>
		<path d="m2770.3 492.6c10.8 24 39 34.6 62.9 23.8 12.5-5.7 21.3-16.1 25.4-28.2 37.3 29.7 71 63.8 100.8 101 15 18.6 29.1 38 42.2 58.1 11.2 17.5 21.8 35.4 31.2 53.9-1.3-0.8-2.5-1.7-3.8-2.5-8.3-3.7-17-6.6-27-6.6-8.6-0.3-17.9 1.2-28.3 6.1 1.7-8.2 1-16.9-2.7-25.1-9.3-20.7-33.7-29.9-54.4-20.6s-29.9 33.7-20.6 54.4 33.7 29.9 54.4 20.6c10.3-4.6 17.7-12.9 21.4-22.7 14.7 6.6 29.3 13.6 43.5 21.2 15.2 7 30.1 14.6 44.7 22.8l84.3 145 2.7-1.5c-4.5-17.9-11.2-34.5-17-51.6-5.7-17.2-13.8-33-20.5-49.6-7.2-16.3-13.7-33.1-22-48.7-0.8-1.6-1.7-3.2-2.5-4.8 0.2-10-0.1-19.9-0.9-29.7-1.4-22.3-5.7-43.7-10.6-65.1-5.8-21.1-12.3-42.1-21.8-62.5-9.1-20.5-20.1-40.6-36.1-60l-3 0.6 31.1 128.8 4.1 15.3c-6.7-11.7-13.8-22.9-21.4-33.9-13.8-20.8-30.2-39.7-46.8-58.1-17.4-17.8-35.5-34.8-55.5-49.6-20.4-14.3-41.2-27.9-64-37.8l-0.9 1.2c3.2-10.6 2.9-22.2-2-33.1-10.8-24-39-34.6-62.9-23.8-24.1 10.6-34.8 38.8-24 62.7z" style="fill: inherit;"></path>
		<path d="m3027.4 514.6c24-10.8 34.6-39 23.8-62.9-10.8-24-39-34.6-62.9-23.8-24 10.8-34.6 39-23.8 62.9 10.7 23.9 38.9 34.6 62.9 23.8z" style="fill: inherit;"></path>
		<path d="m2190.7 6885.3c-23.1-10.4-50.3-0.2-60.7 22.9s-0.2 50.2 22.9 60.7c23.1 10.4 50.2 0.2 60.7-22.9 10.4-23.1 0.1-50.3-22.9-60.7z" style="fill: inherit;"></path>
		<path d="m2061.8 6827c-20.7-9.3-45-0.2-54.4 20.5-9.3 20.7-0.1 45 20.5 54.4 20.7 9.3 45 0.1 54.4-20.5 9.4-20.7 0.2-45-20.5-54.4z" style="fill: inherit;"></path>
		<path d="m2217 6640.9c-18.1-8.2-39.3-0.1-47.5 17.9-8.2 18.1-0.1 39.3 17.9 47.5 18.1 8.2 39.3 0.1 47.5-17.9 8.2-18.1 0.2-39.4-17.9-47.5z" style="fill: inherit;"></path>
		<path d="m2109.9 6704.7c-12.5-5.7-26.2-5.3-38-0.4-2.4-47.6 0.9-95.5 9.1-142.4 4-23.6 9.2-47 15.6-70 5.7-20 12.1-39.8 19.7-59 0.3 1.5 0.3 3 0.6 4.5 2.8 8.7 6.3 17.2 13 24.6 5.5 6.6 12.8 12.6 23.3 17.2-7.2 4.2-13.3 10.4-17 18.6-9.3 20.7-0.2 45 20.5 54.4 20.7 9.3 45 0.2 54.4-20.5 9.3-20.7 0.1-45-20.5-54.4-10.3-4.6-21.4-4.7-31.2-1.1-4.8-15.4-9.2-30.9-12.9-46.7-4.8-16-8.9-32.3-12.5-48.6l52.9-159.1-2.9-1c-10.4 15.2-18.4 31.2-27.4 46.9-9.1 15.6-15.6 32.2-23.6 48.2-7.5 16.2-15.7 32.2-22 48.8-0.7 1.8-1.5 3.6-2.2 5.4-7.5 6.4-14.7 13-21.5 19.9-15.8 15.8-29 33.2-41.8 51-12 18.4-23.4 37.1-32.5 57.7-9.3 20.4-17.2 41.9-21.1 66.8l2.4 1.9 75.9-108.6 8.8-13.2c-4.4 12.7-8.1 25.5-11.2 38.5-6.5 24.1-9.8 48.9-12.6 73.5-1.9 24.8-2.6 49.7-0.5 74.5 2.7 24.8 6.3 49.3 14 73l1.5-0.1c-10 4.6-18.6 12.6-23.5 23.4-10.8 24-0.2 52.1 23.8 63 24 10.8 52.1 0.2 63-23.8 11-23.9 0.4-52.1-23.6-62.9z" style="fill: inherit;"></path>
		<path d="m1980 6560.4c-24-10.8-52.1-0.2-63 23.8-10.8 24-0.2 52.1 23.8 63 24 10.8 52.1 0.2 63-23.8 10.8-24 0.2-52.2-23.8-63z" style="fill: inherit;"></path>
		<path d="m272.4 5483.5c-23.7 7.7-36.7 33.2-29 56.9s33.2 36.7 56.9 29 36.7-33.2 29-56.9-33.2-36.7-56.9-29z" style="fill: inherit;"></path>
		<path d="m384.1 5336.4c-7.6 2-14.8 4.4-22.2 6.5-7.5-4-15-7-22.6-9.5-14.5-5.2-29.3-7.3-44.1-8.9-14.9-0.6-29.7-0.5-44.9 2.6-14.7 2.7-29.6 7.2-44.9 16.4 0.4-6.4-0.3-12.9-2.4-19.3-8.9-27.5-38.4-42.5-65.9-33.6s-42.5 38.4-33.6 65.9 38.4 42.5 65.9 33.6c19.7-6.4 32.9-23.5 35.5-42.8l88 7.7 27.9 1.5c-8.4 3.1-16.7 5.9-25.2 9.4-28.8 13.2-56.7 28.1-82.1 47.3-18 13.4-35.3 28.3-50.1 45.8-11.4-5.1-24.6-6.3-37.4-2.2-27.5 8.9-42.5 38.4-33.6 65.9s38.4 42.5 65.9 33.6c27.5-8.9 42.5-38.4 33.6-65.9-3.3-10.2-9.5-18.6-17.3-24.8 16.5-11.2 33.3-21.8 50.7-31.5 26.7-14.9 54.4-28.1 82.5-40.3 9.1-4.1 18.3-7.8 27.5-11.6-6.8 6.4-12.9 13.4-18.2 21-6.4 10.8-12.1 22-14.9 34.9-3.1 12.6-4.3 26.4-0.5 42.2l2.7 1.4c12-21.2 24.8-41.9 38.4-62 11.8-19.1 24.3-37.8 37.4-56l12.6-5.1 85.3-34.8-1.1-2.8c-32.3 1.4-63 7.6-92.9 15.4z" style="fill: inherit;"></path>
		<path d="m6303.8 1577.5c8.7-23.4-3.2-49.4-26.6-58.1s-49.4 3.2-58.1 26.6 3.2 49.4 26.6 58.1 49.4-3.2 58.1-26.6z" style="fill: inherit;"></path>
		<path d="m6538.9 1591.5c10.1-27.1-3.7-57.2-30.7-67.2-27.1-10.1-57.2 3.7-67.2 30.7-7.2 19.4-2 40.3 11.4 54.4l-60.7 64.2-18.5 21c2.8-8.5 5.8-16.7 8.2-25.6 7.6-30.7 13.3-61.8 14-93.7 0.8-22.4-0.2-45.3-4.8-67.7 11.1-5.8 20.2-15.3 24.9-28 10.1-27.1-3.7-57.2-30.7-67.2-27.1-10.1-57.2 3.7-67.3 30.7-10.1 27.1 3.7 57.2 30.7 67.2 10 3.7 20.5 4.2 30.2 1.9-1.5 19.8-3.7 39.7-6.9 59.3-5 30.2-11.8 60.1-19.8 89.7-2.4 9.6-5.3 19.2-8 28.8-0.8-9.3-2.5-18.4-5.1-27.3-4.4-11.7-9.7-23.2-18.1-33.4-8-10.3-18-19.8-32.7-26.7l-2.8 1.2c9.2 22.5 17.4 45.4 24.7 68.6 7.7 21.1 14.5 42.5 20.6 64.1-1.3 4.4-2.6 8.7-3.8 13.1l-25.8 88.4 2.9 0.9c19.1-26.3 33.4-54.2 45.9-82.5 3.2-7.2 5.8-14.4 8.7-21.5 7.7-3.4 14.8-7.3 21.5-11.7 13.1-8.2 23.9-18.4 34.3-29 9.7-11.3 18.9-23 25.9-36.8 7-13.2 12.7-27.7 15-45.4 4.8 4.3 10.3 7.8 16.7 10.2 27.1 10.1 57.2-3.7 67.3-30.7z" style="fill: inherit;"></path>
		<path d="m7188.5 5697.4c-51.9-36.4-135-94.3-241.9-168 222.3 81.5 448.4-19.5 339.6-250.7-108.2-229.8-410.7-56.1-450.2 174.7-63.7-43.6-133.1-90.9-207.4-141.2 133 22.9 347.1-65 262.4-216.9-98.3-176.2-313.7 53.1-301.5 190.4-21.8-14.8-43.9-29.6-66.5-44.8l-7.5 31.8c73.5 49.5 143 96.5 207.9 140.7-269.8 29.3-334.7 358.9-146.7 453.2 202.7 101.7 303.4-241.3 174-434.6 102.9 70.2 193.1 132.3 266.7 183.3-223.6 105.5-307.5 352.6-102.9 430.1 197.3 74.7 293.6-197.2 121.4-417.2 56.8 39.4 102.7 71.4 135.7 94.6 43 255.5 311.9 380.6 394.1 166 81.2-211.8-182.5-280.7-377.2-191.4z" style="fill: inherit;"></path>
		<path d="m3758.1 6328.7c-2.1-91.4-6.8-202.5-16.5-325.8 62.5 186.5 296.9 228.6 357.7 37.8 65.7-206.2-246.8-274-364.1-112.4-11.6-126.8-28.5-264-53-404.6 179.9 207.1 368 193.5 389.3-11.3 26.9-258.6-296.3-224.9-394.2-16.1-5.5-30.4-11.3-60.9-17.5-91.5l-29.9 6.1c103 505.3 101.3 994.3 98.2 1135.6-173.2 180.4-164.1 370.5 6.5 394.9 216.3 31 195.8-297.8 24.2-403 0.6-31.2 1.1-76 0.5-132.1 46.2 160.9 251.2 270.2 332.8 104.6 75.9-153.8-127.1-325-334-182.2z" style="fill: inherit;"></path>
		<path d="m3722.4 6212c-216.3-82.9-373.9-5.3-329.6 143.3 56.1 187.9 322.3 38.1 329.6-143.3z" style="fill: inherit;"></path>
		<path d="m3679 5771.6c-205.1-63.8-404 47-316.6 214.7 85.4 164.2 310.7 35.8 316.6-214.7z" style="fill: inherit;"></path>
		<path d="m2656.2 5000.6c-33.5 39.5-63.3 81.4-92.6 123.7-6.9 10.6-13.5 21.4-20.3 32.1 4.7 2.1 9.3 3.9 14 6.2 9.1 4.5 17.5 9.2 25.8 14.1 6.1-9 12.4-17.9 18.5-26.9 56.7-86 112.8-172.5 168.4-259.3l-3.8-2.5c-41.7 34.4-76.9 72.8-110 112.6z" style="fill: inherit;"></path>
		<path d="m2495.6 5236.7c-50.8 25.2-100.4 52.1-148.6 82.1-25.3 15.7-50.2 32.3-74.4 49.9-23.6 18.7-48 36.1-69.5 57.5l1.7 2.6c49.8-31.9 101.7-60.4 153.9-88.3 37.1-19.7 74.5-38.8 112-57.6 10.8-5.4 21.6-10.9 32.4-16.2-18.6 16.6-35.2 34.5-50.3 53.2-0.9 1.1-1.9 2.1-2.7 3.2-19.2 23.6-35.7 48.8-51.8 74.2-15.2 26-29.9 52.3-42 80.2-12.4 27.7-23.2 56.4-29.5 87.7l2.6 1.6 95-153.6 36.6-61.5 51.4-86.4-0.1 14.4-1.9 306h3.1c5.9-27.4 8.7-54.8 13.1-82.2 3.2-27.3 5.3-54.7 8-82 3-27.3 4.2-54.6 5.6-81.9 1.7-27.3 1.6-54.6 2.5-81.8l0.8-23.4 0.7-21.7-40.8 20c-2.6 1.2-5.2 2.7-7.8 4z" style="fill: inherit;"></path>
		<path d="m5450.1 3163.9c-9.3 2.8-18.5 5.7-27.8 8.5l-256.4 80.3 1.3 4.4c47.5 2.7 92.9-2.1 137.5-9.7 44.7-7.1 88.1-18.7 131.2-31.3 8.9-3 17.8-6.2 26.8-9.3-5-13.2-9.2-27.6-12.6-42.9z" style="fill: inherit;"></path>
		<path d="m5815.8 3233.6c-21.2-11.9-43.4-20.8-65.1-31.3-22.1-9.3-44.5-17.6-66.8-26.4-17.5-7.2-35.4-13.3-53.3-19.4 23.4-2.9 46.3-7.6 69-13.1 25.2-7.1 50.2-14.8 74.5-25.5 24.3-10.3 48.2-22.5 70.8-39.6l-0.8-3-152.3 38.5-61.8 16.9-37.8 10.3c9.1-10 17.9-20.3 27-30.4 14.8-16.5 29.8-32.8 44.2-49.7 16.7-19.4 33-39.3 49.4-59.2 15.5-20.8 32.4-40.1 48-61.3l-2-2.3c-39.4 33.3-76.3 69.2-112.8 105.5-19.4 19.4-57.5 58.9-82.8 85.3-13.3 13.8-23.2 24.2-24.6 25.8l-3.3 3.6 4.7 1.3 24 6.7 251 70.2 0.8-2.9z" style="fill: inherit;"></path>
		<path d="m3020.6 5542.6c-16 41.7-28.1 84.2-40.3 126.5l-15.8 64.1c-0.5 2.8-1.2 5.6-1.8 8.4 5 1 9.8 1.9 14.9 3.2 9 2.5 17.6 5.2 25.9 8.2 7.3-23.9 14.3-48 21-72 22.2-86.5 41.5-173.6 58-261.4l-4.5-0.8c-24.2 40.5-41.9 82-57.4 123.8z" style="fill: inherit;"></path>
		<path d="m2985.9 5808.8c-2.2-8.4-3.8-14.2-4.1-15.3l-1.5-5.4-3.7 4.3-30 35-142 165.7 2.3 2.1c18.6-12.9 34.9-27.9 52.4-41.8 16.6-14.8 32.5-30.2 48.7-45.3 10.9-9.8 21.2-20.2 31.3-30.7 3.1-3.2 6.2-6.4 9.3-9.6-4.2 10.2-8 20.5-11.3 30.9-4.1 12.6-7.7 25.3-11.1 38.1-5.4 24.3-10.2 48.7-12 73.9-2.2 25.1-2.5 50.6 2.1 77.3l3 0.7 36.6-144.7 17-73.5c6.6 22.1 13.2 44.3 20.6 66.2 7.3 22.4 15.4 44.6 23.5 66.8 9.3 22 16.6 44.4 26.4 66.6l3-0.5c-7.5-46.7-18-92.9-29-138.8-6.7-28-23.6-92.3-31.5-122z" style="fill: inherit;"></path>
		<path d="m5807.9 6275.2l-3.6-2.6-0.2 4.5-8.4 210.3 2.4 0.2c5.3-17.2 8.1-34.6 12.1-52 3.1-17.4 5.4-34.9 8.1-52.4 1.5-8.6 2.6-17.2 3.5-25.9 4.4 12.5 9.2 24.8 14.4 37 8.6 17.8 17.7 35.5 28.9 52.1 11 16.7 23.4 32.8 39.5 47.2l2.2-1-48.5-108.4-30.7-65c19.2 13.6 38.5 27 58.2 39.8 15.6 10.3 31.6 20.2 47.6 30.2 16.7 9.1 32.2 19.5 49.3 28.6l1.6-1.8c-27.8-25.5-57.1-49.1-86.6-72.4-23-18.3-86.4-65.9-89.8-68.4z" style="fill: inherit;"></path>
		<path d="m4336.9 1995.4c18-37.3 33.9-70.9 46.7-98.6 167.2-27.3 294.1-267 117.6-320.5-143.2-43.4-219.3 104-146.4 310-32.2 69.5-83.2 176.3-138.7 279.1l26.9 14.5c24-44.4 47.1-89.6 68.3-132.3 99.5 229 370.5 195.4 392.7 25.1 25.2-193.2-239.9-205.8-367.1-77.3z" style="fill: inherit;"></path>
		<path d="m4265.8 2069.2c78.1-186.7-120.2-463.5-265.5-300-114.8 129.2-8 335.6 265.5 300z" style="fill: inherit;"></path>
		<path d="m879.7 2240.6c36.6 24.9 85.2 58 138.5 94.4-176.6-63.8-429.8 86.5-296 240.9 112.1 129.4 327.2 52.7 331.5-216.6 116.1 79.5 245.9 169.1 321 223.2l17.9-24.8c-84.2-60.7-237-165.9-362.2-251.5 248.5-64.8 252-344.1 84.1-388.7-196.3-52.2-238.9 234.2-109 371.7-40.7-27.8-77.5-52.8-106.8-72.8-1.9-170.9-226.1-331.7-302.7-162.2-61.2 135.4 72.6 229.6 283.7 186.4z" style="fill: inherit;"></path>
		<path d="m3512.9 1888.9c24.9-2.1 43.3-24 41.1-48.9-2.1-24.9-24-43.3-48.9-41.1-24.9 2.1-43.3 24-41.1 48.9 2.2 24.8 24.1 43.2 48.9 41.1z" style="fill: inherit;"></path>
		<path d="m3565.5 1760.2c10.7-0.9 20.3-5 28.1-11.2 7.2 18.6 13.7 37.4 19.2 56.5 8.5 29.4 15.1 59.4 20.5 89.5 1.9 9.7 3.5 19.6 5.1 29.4-4.7-8.1-10.2-15.6-16.3-22.4-9-8.7-18.7-16.8-30.6-22.4-11.6-5.9-24.7-10.1-41-10.1l-2 2.3c17.9 16.5 35.2 33.6 51.7 51.5 15.9 15.8 31.3 32.2 46.1 49.1l2.1 13.5 14.5 91 3-0.5c6-32 7-63.2 6.2-94.2-0.2-7.8-0.9-15.4-1.3-23.1 5.5-6.4 10.2-13 14.4-19.8 8.3-13 13.8-26.9 18.6-40.9 3.9-14.3 7.2-28.9 7.7-44.3 0.7-15-0.3-30.5-5.8-47.5 6.1 1.8 12.6 2.7 19.4 2.1 28.8-2.5 50.1-27.8 47.6-56.6s-27.8-50.1-56.6-47.6-50.1 27.8-47.6 56.6c1.8 20.7 15.4 37.3 33.6 44.2l-27.4 84-7.8 26.9c-1.1-8.8-2-17.6-3.5-26.6-6.3-31-14.5-61.6-27.4-90.7-8.9-20.6-19.6-40.8-33.3-59.2 7.6-10 11.7-22.5 10.6-36-2.5-28.8-27.8-50.1-56.6-47.6s-50.1 27.8-47.6 56.6c2.3 28.7 27.7 50 56.4 47.5z" style="fill: inherit;"></path>
		<path d="m3144.5 4977.2c0-33.4-27.1-60.5-60.5-60.5s-60.5 27.1-60.5 60.5 27.1 60.5 60.5 60.5 60.5-27.1 60.5-60.5z" style="fill: inherit;"></path>
		<path d="m3175.3 5115.5c-33.4 0-60.5 27.1-60.5 60.5s27.1 60.5 60.5 60.5 60.5-27.1 60.5-60.5c0.1-33.4-27-60.5-60.5-60.5z" style="fill: inherit;"></path>
		<path d="m3472 5144c33.4 0 60.5-27.1 60.5-60.5s-27.1-60.5-60.5-60.5-60.5 27.1-60.5 60.5 27.1 60.5 60.5 60.5z" style="fill: inherit;"></path>
		<path d="m3318.9 6676.1c-33.4 0-60.5 27.1-60.5 60.5s27.1 60.5 60.5 60.5 60.5-27.1 60.5-60.5-27.1-60.5-60.5-60.5z" style="fill: inherit;"></path>
		<path d="m5497.6 3544.4c-33.4 0-60.5 27.1-60.5 60.5s27.1 60.5 60.5 60.5 60.5-27.1 60.5-60.5-27.1-60.5-60.5-60.5z" style="fill: inherit;"></path>
		<path d="m5347.6 3726.7c-33.4 0-60.5 27.1-60.5 60.5s27.1 60.5 60.5 60.5 60.5-27.1 60.5-60.5c0.1-33.4-27-60.5-60.5-60.5z" style="fill: inherit;"></path>
		<path d="m5163.3 4334.6c-33.4 0-60.5 27.1-60.5 60.5s27.1 60.5 60.5 60.5 60.5-27.1 60.5-60.5-27.1-60.5-60.5-60.5z" style="fill: inherit;"></path>
		<path d="m869.5 1732.9c33.4 0 60.5-27.1 60.5-60.5s-27.1-60.5-60.5-60.5c-33.4 0-60.5 27.1-60.5 60.5s27 60.5 60.5 60.5z" style="fill: inherit;"></path>
		<path d="m7535.9 3454.2s-240.9-275.5-722.4-142.7c-0.1 0 361.4 366.8 722.4 142.7z" style="fill: inherit;"></path>
		<path d="m7258.2 3813.5s-44.4-238-518.8-329.1c-0.1 0 54.7 293.6 518.8 329.1z" style="fill: inherit;"></path>
	</g>
</g>
</svg>