<svg xmlns="http://www.w3.org/2000/svg" enable-background="new 0 0 3375.4 3923.8" version="1.1" viewBox="0 0 3375.4 3923.8" x="0px" xml:space="preserve" y="0px" style="fill: rgb(0, 0, 0);">
<g>
	<g id="__id226_swi1l6uf9" style="fill: rgb(255, 222, 85);">
		<path d="m2750.7 32c-189.9-51.5-336.4-47.9-540.4 62.1 293.4 51 262.5 289.1 262.5 289.1s126.1-11.7 220.2 17.2c109.8 34.3 201.5 137.5 201.5 137.5s83.6-190.5 294.5-266.8c-123.8-125.1-291.1-199.3-438.3-239.1zm-151.6 238.6c-19.1 0-32.3-7-43.7-15-11.3-8.2-16.9-19.8-24.6-30-2.3-12.7-7.5-24-6.1-37.6 1.3-13.4 4.2-27.2 15.5-42.7l4.2-1.1c15.4 43 32.5 86 58.2 123.7l-3.5 2.7zm73-32.6l-4.2-1.1c-11.9-14.4-15.2-27.8-16.9-40.6-1.6-12.8 2.8-23.7 4.7-35.3 7.3-9.4 11.5-20.1 21.8-27.7 10.2-7.7 21.6-14.6 40.1-17l3.8 2.1c-18.3 39.1-35.9 78.7-49.3 119.6zm135.6-11.2c-13.1 20.5-25.4 42.4-29.6 66.2l-4.3-0.5c-13.5-15-15.1-32.3-14.9-47.4 0.4-15.5 7.4-27.6 12-40.6 9.6-10 16.6-21.4 29.1-28.5 12.4-7.1 25.8-13.2 45.5-13.2l3.3 2.8c-15.1 19.5-29.1 39.9-41.1 61.2zm58.3 110.7l-2.7-3.3c-0.8-18.9 3.5-31.5 8.5-43.2 5.1-11.6 14-18.5 21-27.8 10.7-4.7 19.1-12.3 31.6-14.7 12.4-2.6 25.6-4.2 43.9 0.4l2.7 3.3c-33.5 30.3-68.5 58.7-105 85.3z" style="fill: inherit;"></path>
		<path d="m1033 1317s211.4-219.1 441.2-185.1l2.4-1.2c-41.9-68.3-97.5-106.7-161.2-96.8 0 0-196.1-309.8-490.4-221.5 0 0-149-141.3-459.4 67.9-22.1 14.7-43.9 31.2-63.9 48.2 21.6 77.9-24.6 183.6-25.2 184.9 1.7-0.5 152.1-49.3 430.9 129.8 175 112.9 325.6 73.8 325.6 73.8zm-16.6-208.8c9.8-9.6 21.7-13.5 32.5-20.4 12.8-1.3 24.4-5.9 38.1-4.4 13.7 1.4 27.8 3.9 44.6 14l1.4 4.1c-46.3 18.8-93.4 35.4-141.2 49.7l-1.4-4.1c6.8-18.4 16.2-29.2 26-38.9zm-263.5-2.4c-21-7.7-34.6-12.2-48.3-16.5-13.6-4-25.1-10.8-39-14.4-11.4-8.9-25.5-13.1-38.4-23-13.1-9.7-26.7-19.9-40.9-36.9l0.5-4.3c33.3 3.8 66.1 11.7 97.1 25.2 30.1 14.7 58.6 36.7 73 67.9l-4 2zm96.1-27.1c-20.1-10.9-32.4-24.1-43.6-37.7-11.1-13.5-16.4-29-24.7-43.4-2.7-16.4-8.8-31.6-8.8-49.1-0.1-17.4 0.9-35.3 9.3-56.3l4-1.6c24.8 61.4 47.5 123.7 67.8 186.7l-4 1.4zm87.2-3.1c-9.5-18.7-11.3-34.6-12-50.1-0.6-15.5 4.5-29 6.6-43.5 7.7-12.5 12-26.3 22.5-37.8 10.3-11.6 21.8-22.8 40.9-31.2l4 1.4c-17.1 55-36.4 109.2-58 162.5l-4-1.3z" style="fill: inherit;"></path>
		<path d="m1731.9 1973.5s-81.5-76.1-241.4-69.6c-38.2 0.7-81.5 7.4-129.2 20.1-55 15.4-108.2 39.8-155.2 71.3-36.9 24.7-69.7 53.9-96.6 86.5-27 32.6-48 68.7-61.4 107.2-1.7 4.8-4.1 9.4-5.5 14.2-35.6 10.1-71.8 35.5-106.8 73.3-11.7 12.6-23.2 26.6-34.5 41.8 26.6-2.4 52.8-7.3 78-13-15.9 36.1-28 76.7-33.3 123.5-5.1 45-3.7 95.9 6.3 153.6 1.3 7.3 3 14.9 4.5 22.4 5 24.3 11.8 50 19.9 76.7 4 13 7.4 25.5 12.2 39.1 16.9-27.2 40.8-55.6 69.7-82.4s62.7-52 99.3-73c54.9-31.5 116.2-53.3 176.6-56.4 20.1-1 40.2 0 59.9 3.5 35.2 6.3 68 23.8 97.9 48.2 10 8.1 19.6 17 29 26.5 18.7 19 36.1 40.3 52.1 62.7 24 33.6 45 69.6 62.5 103.5 40.9 79.1 63.3 146.9 63.3 146.9 101.8-156.3 241.8-258.1 378.5-311 39-15.1 77.8-26.2 115.3-33.5 75-14.5 145.1-13.6 202.3 1.7 28.6 7.7 54.1 18.9 75.3 33.6 10.6 7.4 20.2 15.6 28.6 24.7 11 12.2 22 26.6 32.6 43.2s21 35.5 30.8 56.6c-10.9-709.1-624.7-901-830.7-741.9zm-181.5 493.3l-3.4 2.6c-36.3-42.9-70.7-87.3-103.3-133.2l3.4-2.6c20.6 1.8 34.8 8.6 48 16.1s21.6 18.8 32.4 28.2c6.2 13 15.2 23.7 19.1 38.5 4.1 14.6 7.1 30 3.8 50.4zm93.1-60.8c-3.4 16.3-8 32.8-20.5 50.5l-4.2 0.7c-11.9-61.2-21.5-122.8-28.7-184.8l4.2-0.7c17.4 13.1 26.7 27.4 35 41.9 8.1 14.5 10.3 30 15.5 44.9-0.7 15.9 2.2 31.2-1.3 47.5zm118.9-23.9c-5.3 12.3-11.8 24.6-26.4 37.3l-4.3 0.2c-4.5-47.9-6.6-96-6.3-144.1l4.3-0.2c15.7 11.3 23.3 23 29.7 34.8 6.3 11.8 6.6 23.8 10 35.7-2.6 12.1-1.5 24.1-7 36.3zm144.1 25.3c-9.6 18-17.2 36.5-31.4 51.3-14.1 14.7-29.9 28-52.9 34.9l-3.5-2.5c19.7-30.5 35.8-63.6 47.3-97.9 12.5-33.8 20.2-70.1 15.8-106.2l4.3-0.7c17.6 16.4 24.4 38.2 27.4 59.5 2.5 21.4-3.1 41.5-7 61.6zm17.2 130.2l-2.1-3.7c4.8-20 13.8-33.1 23.4-45.1s22.3-18.6 33.4-28.1c14-4.2 26.2-11.6 41.6-13.3 15.3-1.8 31.1-2.5 50.6 4l2 3.8c-48.5 29.6-98.1 57-148.9 82.4z" style="fill: inherit;"></path>
	</g>
	<g id="__id227_swi1l6uf9" style="fill: rgb(255, 255, 255);">
		<path d="m3373.1 676.9c-12.1-173.1-84-305.5-184-405.7-211 76.3-294.5 266.8-294.5 266.8s-91.7-103.2-201.5-137.5c-94.1-28.9-220.2-17.2-220.2-17.2s30.9-238-262.5-289.1c-31.3 17-63.9 36.9-97.9 58.7-388.2 251.7-366.2 752.2-134.5 1050.5 231.7 298.2 442.4 298.6 593 316.1 150.5 16.6 849.8-153.8 802.1-842.6z" style="fill: inherit;"></path>
		<path d="m1042.7 2203.2c1.4-4.9 3.8-9.4 5.5-14.2 26.7-77.1 84.3-144.3 158-193.7 47-31.5 100.1-55.9 155.2-71.3 47.6-12.6 91-19.3 129.2-20.1 113.5-266.5 88.3-608.1-13.9-773.3l-2.4 1.2c-229.9-33.9-441.3 185.2-441.3 185.2s-150.6 39.1-325.7-73.9c-280.3-180.1-430.9-129.8-430.9-129.8s47-106.5 25.2-184.9c-422.5 345-370.5 994-34 1238.5 189.5 138.5 422.2 179.9 633.6 151.4 11.3-15.3 22.9-29.2 34.5-41.8 35.1-37.8 71.3-63.2 107-73.3z" style="fill: inherit;"></path>
		<path d="m2531.8 2659.1c-10.6-16.6-21.6-31-32.6-43.2-8.4-9.1-18-17.3-28.6-24.7-21.3-14.7-46.7-26-75.3-33.6-57.2-15.3-127.3-16.3-202.3-1.7-37.5 7.3-76.3 18.4-115.3 33.5-136.6 52.9-276.7 154.7-378.5 311 0 0-22.4-67.8-63.3-146.9-17.5-33.9-38.5-69.9-62.5-103.5-16-22.4-33.4-43.7-52.1-62.7-37.4-37.9-79.9-66.4-126.9-74.7-19.7-3.5-39.7-4.5-59.9-3.5-60.4 3.1-121.7 25-176.6 56.4-36.6 21-70.4 46.2-99.3 73s-52.8 55.2-69.7 82.4c-4.8-13.6-8.2-26.1-12.2-39.1-8.2-26.8-15-52.5-19.9-76.7-1.5-7.5-3.3-15.2-4.5-22.4-10-57.7-11.4-108.6-6.3-153.6 5.3-46.7 17.4-87.4 33.3-123.5-25.2 5.7-51.4 10.6-78 13-193 258.9-316.4 876.8 36.3 1214.5 0 0 323.3 462.4 704.8 357.9 0 0 305.4 162.3 704.5-233 331.8-329.2 310-733.1 215.8-942.1-9.9-21.3-20.2-40.2-30.9-56.8z" style="fill: inherit;"></path>
	</g>
	<g id="__id228_swi1l6uf9" style="fill: rgb(255, 255, 255);">
		<path d="m683.8 1036c-31-13.5-63.8-21.5-97.1-25.2l-0.5 4.3c14.2 16.9 27.8 27.2 40.9 36.9 12.9 9.9 27 14.1 38.4 23 13.9 3.6 25.4 10.4 39 14.4 13.7 4.3 27.4 8.8 48.3 16.5l3.9-1.8c-14.4-31.4-42.8-53.4-72.9-68.1z" style="fill: inherit;"></path>
		<path d="m1527.6 2377.8c-10.9-9.3-19.2-20.6-32.4-28.2-13.3-7.5-27.4-14.3-48-16.1l-3.4 2.6c32.5 45.9 67 90.2 103.3 133.2l3.4-2.6c3.3-20.3 0.3-35.8-3.7-50.4-4-14.8-13-25.5-19.2-38.5z" style="fill: inherit;"></path>
		<path d="m1644.7 2358.5c-5.2-15-7.3-30.4-15.5-44.9s-17.6-28.8-35-41.9l-4.2 0.7c7.2 62 16.8 123.6 28.7 184.8l4.2-0.7c12.5-17.7 17.1-34.2 20.5-50.5 3.6-16.3 0.7-31.6 1.3-47.5z" style="fill: inherit;"></path>
		<path d="m1729.7 2275.3l-4.3 0.2c-0.3 48.1 1.8 96.2 6.3 144.1l4.3-0.2c14.5-12.7 21.1-25 26.4-37.3 5.5-12.3 4.4-24.3 6.9-36.4-3.4-11.9-3.6-23.9-10-35.7-6.3-11.7-13.9-23.4-29.6-34.7z" style="fill: inherit;"></path>
		<path d="m2019.9 2447.4c-15.4 1.6-27.6 9-41.6 13.3-11.1 9.4-23.7 16.1-33.4 28.1-9.6 12-18.6 25.1-23.4 45.1l2.1 3.7c50.8-25.4 100.3-52.8 148.8-82.4l-2-3.8c-19.4-6.4-35.2-5.7-50.5-4z" style="fill: inherit;"></path>
		<path d="m1886.1 2286.3l-4.3 0.7c4.4 36.1-3.3 72.4-15.8 106.2-11.6 34.3-27.6 67.4-47.3 97.9l3.5 2.5c23-6.9 38.9-20.2 52.9-34.9 14.2-14.7 21.8-33.3 31.4-51.3 3.9-20 9.5-40.2 7-61.6-3-21.3-9.8-43.1-27.4-59.5z" style="fill: inherit;"></path>
		<path d="m2540.2 145.4c-11.3 15.4-14.2 29.2-15.5 42.7-1.4 13.6 3.8 24.9 6.1 37.6 7.7 10.2 13.3 21.8 24.6 30 11.4 8 24.6 15.1 43.7 15l3.4-2.7c-25.7-37.7-42.8-80.7-58.2-123.7l-4.1 1.1z" style="fill: inherit;"></path>
		<path d="m2677.5 133.3c-10.3 7.6-14.5 18.3-21.8 27.7-1.9 11.7-6.3 22.5-4.7 35.3 1.7 12.8 5 26.2 16.9 40.6l4.2 1.1c13.4-41 31-80.5 49.2-119.7l-3.8-2.1c-18.5 2.5-29.9 9.4-40 17.1z" style="fill: inherit;"></path>
		<path d="m2800 176.1c-12.5 7.1-19.5 18.5-29.1 28.5-4.5 13-11.6 25.1-12 40.6-0.2 15.1 1.4 32.3 14.9 47.4l4.3 0.5c4.2-23.8 16.5-45.7 29.6-66.2 12.1-21.3 26.1-41.7 41.1-61.1l-3.3-2.8c-19.6-0.1-33.1 5.9-45.5 13.1z" style="fill: inherit;"></path>
		<path d="m2968.3 248.8c-18.3-4.6-31.5-3-43.9-0.4-12.5 2.4-20.9 10-31.6 14.7-6.9 9.3-15.9 16.2-21 27.8-5 11.7-9.3 24.3-8.5 43.2l2.7 3.3c36.5-26.6 71.5-55 105-85.3l-2.7-3.3z" style="fill: inherit;"></path>
		<path d="m781.3 892.2c-8.4 21-9.4 38.9-9.3 56.3-0.1 17.5 6 32.7 8.7 49.1 8.3 14.4 13.6 29.9 24.7 43.4 11.2 13.5 23.5 26.8 43.6 37.7l4.1-1.3c-20.3-63-43-125.3-67.8-186.7l-4 1.5z" style="fill: inherit;"></path>
		<path d="m994.2 913.1c-19 8.5-30.5 19.6-40.9 31.2-10.5 11.5-14.8 25.2-22.5 37.8-2.1 14.5-7.3 28-6.6 43.5s2.5 31.4 12 50.1l4 1.4c21.6-53.4 40.9-107.6 58-162.5l-4-1.5z" style="fill: inherit;"></path>
		<path d="m1087.1 1083.5c-13.8-1.5-25.4 3.1-38.1 4.4-10.8 6.8-22.7 10.7-32.5 20.4s-19.2 20.5-26 39l1.4 4.1c47.9-14.3 94.9-30.9 141.2-49.7l-1.4-4.1c-16.8-10.2-30.9-12.8-44.6-14.1z" style="fill: inherit;"></path>
	</g>
</g>
</svg>