<?xml version="1.0" encoding="UTF-8"?><!-- Generator: Adobe Illustrator 23.0.2, SVG Export Plug-In . SVG Version: 6.00 Build 0)  --><svg xmlns="http://www.w3.org/2000/svg" enable-background="new 0 0 2567.9 2722.8" id="图层_1" version="1.1" viewBox="0 0 2567.9 2722.8" x="0px" xml:space="preserve" y="0px">
<g>
	<g id="change1_1"><path d="m781 954.3c23.8-1.8 47.8 0.1 70.8 6 230.5 49.1 450.8 392 450.8 392 68.9-207.4 189.2-369.7 324.8-482.7 218-182.4 471.7-238.9 609-151.8 37.6 24.8 77.6 62.2 117 110.8-118.8-429.5-370.7-666.2-625.9-767-288.7-114.9-581.9-59.2-694 86.4 0 0-115.2-61.3-296.8-17.6l-1.1 0.4c-59.5 14.1-124.6 39-194.9 79.3-175.5 101.3-311 281.6-316.9 464.9-2.6 5.9-5.3 11.8-6.4 18.4-64.7 160.6-92.1 364.4 111.2 666.2 50.7-162.5 240-387.8 452.4-405.3zm926.5-336.9c-66.6 59.2-135.2 116-205.8 170.3l-3.7-4.4c4.3-29.8 15.5-51.1 27.6-71.4 12.2-20.2 29.6-34 44.3-51.2 19.7-11.1 36.4-25.8 58.7-33.8 22.1-8.2 45.3-15.2 75.2-13.9l3.7 4.4zm-293.1-85.5c13.4-24.7 28.5-49.1 54-71.9l5.6 1c-20 104.9-43.3 209.4-69.4 313l-0.9 4.2-5.5-1.4c-0.8-1.8-0.9-3.4-1.6-5.1-11.9-29.3-15.5-56.3-17.3-82.7-1.7-28 4.4-54 6.5-80.9 9.9-25.4 15-51.7 28.6-76.2zm-202.9-77.6l5.6-1.3c25.2 18.6 39.8 39.7 53 61.1 13.1 21.5 18.2 44.8 27.5 67.2 1.6 24.2 7.8 47.3 5.6 72.4-2 25.1-5.6 50.5-19.6 78.4l-5.6 1.3c-25.2-92.4-47.4-185.4-66.5-279.1zm-47.5 307.2c-40.1-88.3-77.3-177.3-111.6-268l5.2-2.5c27.6 13.7 45.6 32.6 62.2 52.2 16.6 19.7 25.8 42.8 38.9 64.3 5.8 24.5 16 47.2 18 72.9 2.2 25.3 2.7 51-6.5 79.6-0.1 0.4-0.1 0.7-0.2 1l-5.4 1.9c-0.3-0.4-0.4-0.9-0.6-1.4zm-164.4 54c-32.7-68.6-63.7-137.9-91.6-208.6l5.2-2.3c26.9 11 43.8 26.3 59.4 42.2 15.5 16 23.5 35.2 35.3 52.8 4.7 20.7 13.7 39.5 14.8 61.8 0.1 2.4-0.1 4.9-0.1 7.3 0.4 11.1-0.2 22.7-2 34.7-0.2 1.1-0.6 2.4-0.8 3.6-1.5 8.6-2.6 17.1-6.1 26.6l-5.2 2.3c-3.2-6.8-5.7-13.7-8.9-20.4zm-340.5-58.5c23.7-9.8 42.1-10.1 59.8-9.2 17.6 1 31.2 9.2 46.9 13.7 11.8 11.3 26 18.5 35.9 33.2 10 14.6 19.2 30.5 23.1 55.8l-2.8 5c-56.8-28.4-112-59.6-165.7-93.5l2.8-5z" fill="#FFAE43"/></g>
	<g id="change2_1"><path d="m1562.5 2644.7s447.2 107 827-536.2c315.4-532.9 154.1-1041.7-36-1279.9-39.4-48.6-79.3-86-117-110.8-137.3-87.1-391.1-30.5-609 151.8-135.5 113-255.9 275.2-324.8 482.7 0 0-220.3-343-450.8-392-23.1-5.9-47-7.7-70.8-6-212.4 17.5-401.7 242.8-452.3 405.3-203.4-301.7-176-505.6-111.2-666.2-13.5 6.4-25.9 12.3-39.8 17.6-260.3 261-305.6 1340.7 356.6 1709.5 0 0 571.9 487.8 1028.1 224.2z" fill="#FFDE55"/></g>
	<g fill="#fff" id="change3_1">
		<path d="m765.8 761.5c-15.7-4.5-29.3-12.6-46.9-13.7-17.7-1-36.1-0.6-59.8 9.2l-2.8 5c53.7 34 108.9 65.1 165.7 93.5l2.8-5c-4-25.2-13.1-41.2-23.1-55.8-10-14.8-24.1-21.9-35.9-33.2z" fill="inherit"/>
		<path d="m1022.7 761.3c-1.1-22.3-10.1-41.1-14.8-61.8-11.9-17.5-19.9-36.8-35.4-52.7-15.6-15.9-32.5-31.2-59.4-42.2l-5.2 2.3c27.9 70.7 58.9 140 91.6 208.6 3.2 6.7 5.7 13.7 8.9 20.3l5.2-2.3c3.5-9.5 4.6-18 6.1-26.6 0.2-1.2 0.6-2.4 0.8-3.6 1.7-12 2.4-23.6 2-34.7 0-2.4 0.3-4.9 0.2-7.3z" fill="inherit"/>
		<path d="m1158.6 607.6c-13.1-21.5-22.3-44.6-38.9-64.3-16.7-19.6-34.7-38.5-62.2-52.2l-5.2 2.5c34.3 90.7 71.4 179.7 111.6 268 0.2 0.5 0.4 1 0.6 1.4l5.4-1.9c0.1-0.4 0.1-0.7 0.2-1 9.2-28.6 8.7-54.4 6.5-79.6-2-25.8-12.2-48.5-18-72.9z" fill="inherit"/>
		<path d="m1270.1 514c-13.2-21.4-27.8-42.5-53-61.1l-5.6 1.3c19 93.8 41.2 186.8 66.5 279.1l5.6-1.3c14-27.9 17.6-53.3 19.6-78.4 2.3-25.1-4-48.2-5.6-72.4-9.3-22.3-14.5-45.7-27.5-67.2z" fill="inherit"/>
		<path d="m1703.8 613c-29.9-1.3-53.1 5.7-75.2 13.9-22.3 8-38.9 22.8-58.7 33.8-14.7 17.1-32.1 31-44.3 51.2s-23.4 41.6-27.6 71.4l3.7 4.4c70.7-54.3 139.2-111.1 205.8-170.3l-3.7-4.4z" fill="inherit"/>
		<path d="m1414.4 531.9c-13.7 24.6-18.7 50.8-28.5 76.1-2.1 26.9-8.2 52.9-6.5 80.9 1.7 26.4 5.4 53.4 17.3 82.7 0.7 1.8 0.8 3.3 1.6 5.1l5.5 1.4 0.9-4.2c26.1-103.6 49.3-208.1 69.4-313l-5.6-1c-25.6 22.9-40.6 47.3-54.1 72z" fill="inherit"/>
	</g>
</g>
</svg>