<?xml version="1.0" standalone="no"?><!DOCTYPE svg PUBLIC "-//W3C//DTD SVG 1.1//EN"
        "http://www.w3.org/Graphics/SVG/1.1/DTD/svg11.dtd">
<svg t="1586489192180" class="icon" viewBox="0 0 1024 1024" version="1.1" xmlns="http://www.w3.org/2000/svg" p-id="2134"
     xmlns:xlink="http://www.w3.org/1999/xlink" width="128" height="128">
    <defs>
        <style type="text/css"></style>
    </defs>
    <path fill="#515151" d="M746.666667 341.333333v85.333334a42.666667 42.666667 0 0 1-42.666667 42.666666H149.333333a42.666667 42.666667 0 0 1-42.666666-42.666666V170.666667a42.666667 42.666667 0 0 1 42.666666-42.666667h554.666667a42.666667 42.666667 0 0 1 42.666667 42.666667v85.333333h149.333333a21.333333 21.333333 0 0 1 21.333333 21.333333v322.602667a21.333333 21.333333 0 0 1-18.56 21.162667L426.666667 682.666667v213.333333a21.333333 21.333333 0 0 1-21.333334 21.333333h-42.666666a21.333333 21.333333 0 0 1-21.333334-21.333333V630.485333a21.333333 21.333333 0 0 1 18.56-21.162666L832 547.754667V341.333333h-85.333333zM192 213.333333v170.666667h469.333333v-170.666667H192z"
          p-id="2135"></path>
</svg>