<?xml version="1.0" standalone="no"?><!DOCTYPE svg PUBLIC "-//W3C//DTD SVG 1.1//EN"
        "http://www.w3.org/Graphics/SVG/1.1/DTD/svg11.dtd">
<svg t="1584945105588" class="icon" viewBox="0 0 1024 1024" version="1.1" xmlns="http://www.w3.org/2000/svg"
     p-id="38754" xmlns:xlink="http://www.w3.org/1999/xlink" width="128" height="128">
    <defs>
        <style type="text/css"></style>
    </defs>
    <path fill="#515151" d="M888.269177 189.482539l-53.751205 0L834.517973 81.97706 135.728776 81.97706l0 107.506503L108.852662 189.483562c-14.829753 0-26.877137 12.033058-26.877137 26.875091 0 14.856359 12.046361 26.876114 26.877137 26.876114l26.876114 0 0 107.507526 698.789197 0L834.517973 243.233744l53.751205 0 0 161.258731-376.269689 0c-29.68509 0-53.752228 24.069185-53.752228 53.754275l0 161.259754-26.877137 0 0 268.76421c0 29.686113 24.068162 53.753251 53.754275 53.753251 29.68509 0 53.751205-24.068162 53.751205-53.753251L538.875602 619.506503l-26.876114 0L511.999488 458.246749l376.269689 0c29.68509 0 53.753251-24.069185 53.753251-53.754275L942.022429 243.233744C942.022429 213.549677 917.954267 189.482539 888.269177 189.482539zM780.762675 296.986995 189.481004 296.986995 189.481004 135.728264l591.281671 0L780.762675 296.986995z"
          p-id="38755"></path>
</svg>
