<?xml version="1.0" standalone="no"?><!DOCTYPE svg PUBLIC "-//W3C//DTD SVG 1.1//EN" "http://www.w3.org/Graphics/SVG/1.1/DTD/svg11.dtd"><svg t="1584949436686" class="icon" viewBox="0 0 1024 1024" version="1.1" xmlns="http://www.w3.org/2000/svg" p-id="61482" xmlns:xlink="http://www.w3.org/1999/xlink" width="128" height="128"><defs><style type="text/css"></style></defs><path d="M230.4 204.8H256L281.6 256v25.6H256v512c0 25.6-25.6 25.6-25.6 25.6s-25.6 0-25.6-25.6v-76.8l-25.6-25.6 25.6-25.6v-51.2h-25.6c0-25.6 25.6-25.6 25.6-25.6v-51.2s-25.6 0-25.6-25.6h25.6v-76.8h-25.6c0-25.6 25.6-25.6 25.6-25.6v-51.2s-25.6 0-25.6-25.6h25.6V281.6h-25.6V256l51.2-51.2z" fill="#515151" p-id="61483"></path><path d="M844.8 768v-25.6l-25.6-25.6-25.6-25.6v25.6c-25.6 0-25.6 0 0 25.6H256c0-25.6-25.6-25.6-25.6-25.6s-25.6 0-25.6 25.6h-25.6v25.6h25.6v25.6H256V768h102.4v25.6h25.6V768h51.2v25.6h25.6V768h76.8v25.6h25.6V768h51.2v25.6h25.6V768h51.2v25.6h51.2V768h51.2v25.6c-25.6 0-25.6 25.6 0 25.6h25.6l25.6-51.2zM307.2 204.8H384l25.6 51.2 25.6-51.2H512l-76.8 102.4V384H384V307.2L307.2 204.8zM640 512h51.2l51.2 51.2 25.6-51.2h51.2L768 588.8l51.2 76.8H768l-51.2-51.2-25.6 51.2H640l51.2-76.8L640 512z" fill="#515151" p-id="61484"></path></svg>