<?xml version="1.0" standalone="no"?><!DOCTYPE svg PUBLIC "-//W3C//DTD SVG 1.1//EN"
        "http://www.w3.org/Graphics/SVG/1.1/DTD/svg11.dtd">
<svg t="1586489260920" class="icon" viewBox="0 0 1024 1024" version="1.1" xmlns="http://www.w3.org/2000/svg" p-id="2894"
     xmlns:xlink="http://www.w3.org/1999/xlink" width="128" height="128">
    <defs>
        <style type="text/css"></style>
    </defs>
    <path d="M585.1 365.7V256h73.1v109.7H768v73.1H658.3v109.7h-73.1V438.9H475.4v-73.1h109.7z m109.8 365.7v182.9c0 20.2-16.4 36.6-36.6 36.6H109.7c-20.2 0-36.6-16.4-36.6-36.6V365.7c0-20.2 16.4-36.6 36.6-36.6h182.9V109.7c0-20.2 16.4-36.6 36.6-36.6h585.1c20.2 0 36.6 16.4 36.6 36.6v585.1c0 20.2-16.4 36.6-36.6 36.6H694.9zM292.6 402.3H146.3v475.4h475.4V731.4H329.1c-20.2 0-36.6-16.4-36.6-36.6V402.3z m73.1-73.2v329.1h512v-512h-512v182.9z"
          p-id="2895"></path>
</svg>