<?xml version="1.0" standalone="no"?><!DOCTYPE svg PUBLIC "-//W3C//DTD SVG 1.1//EN" "http://www.w3.org/Graphics/SVG/1.1/DTD/svg11.dtd"><svg t="1584946928307" class="icon" viewBox="0 0 1024 1024" version="1.1" xmlns="http://www.w3.org/2000/svg" p-id="51100" xmlns:xlink="http://www.w3.org/1999/xlink" width="128" height="128"><defs><style type="text/css"></style></defs><path d="M271.753846 886.153846h614.4V271.753846H271.753846v614.4z m-15.753846 47.261539c-11.815385 0-23.630769-11.815385-23.630769-23.63077V256c0-11.815385 11.815385-23.630769 23.630769-23.630769h661.661538c11.815385 0 23.630769 11.815385 23.63077 23.630769v661.661538c0 11.815385-11.815385 23.630769-23.63077 23.63077H256v-7.876923z m307.2-393.846154v-129.969231c0-11.815385 11.815385-23.630769 23.630769-23.630769s23.630769 11.815385 23.630769 23.630769v129.969231h129.969231c11.815385 0 23.630769 11.815385 23.630769 23.630769s-11.815385 23.630769-23.630769 23.630769h-137.846154v129.969231c0 11.815385-11.815385 23.630769-23.630769 23.630769s-23.630769-11.815385-23.630769-23.630769v-137.846154h-129.969231c-11.815385 0-23.630769-11.815385-23.630769-23.630769s11.815385-23.630769 23.630769-23.630769h137.846154v7.876923zM102.4 102.4v638.030769c0 11.815385-11.815385 23.630769-23.630769 23.630769s-23.630769-11.815385-23.630769-23.630769V78.769231c0-11.815385 11.815385-23.630769 23.630769-23.630769h661.661538c11.815385 0 23.630769 11.815385 23.630769 23.630769s-11.815385 23.630769-23.630769 23.630769H102.4z m807.384615 834.953846H256c-15.753846 0-27.569231-11.815385-27.569231-27.569231V256c-3.938462-19.692308 7.876923-31.507692 27.569231-31.507692h661.661538c15.753846 0 27.569231 11.815385 27.569231 31.507692v661.661538c-7.876923 11.815385-15.753846 19.692308-35.446154 19.692308zM256 236.307692c-11.815385 0-19.692308 7.876923-19.692308 19.692308v661.661538c0 11.815385 3.938462 15.753846 15.753846 15.753847h661.661539c11.815385 0 15.753846-3.938462 15.753846-15.753847V256c0-11.815385-3.938462-15.753846-15.753846-15.753846L256 236.307692z m638.030769 657.723077H267.815385V267.815385h626.215384v626.215384zM275.692308 882.215385h606.523077V275.692308H275.692308v606.523077z m-196.923077-118.153847c-15.753846 0-27.569231-11.815385-27.569231-27.56923V78.769231c0-15.753846 11.815385-27.569231 27.569231-27.569231h661.661538c15.753846 0 27.569231 11.815385 27.569231 27.569231s-11.815385 27.569231-27.569231 27.569231H106.338462v634.092307c0 11.815385-15.753846 23.630769-27.569231 23.630769zM78.769231 59.076923c-11.815385 0-19.692308 7.876923-19.692308 19.692308v661.661538c0 11.815385 3.938462 15.753846 15.753846 15.753846s15.753846-11.815385 15.753846-23.630769V94.523077h645.907693c11.815385 0 15.753846-3.938462 15.753846-15.753846s-3.938462-15.753846-15.753846-15.753846H78.769231v-3.938462z m500.184615 681.353846c-15.753846 0-27.569231-11.815385-27.569231-27.569231v-126.030769h-126.030769c-15.753846 0-27.569231-11.815385-27.569231-27.569231s11.815385-27.569231 27.569231-27.56923H551.384615v-118.153846c3.938462-15.753846 15.753846-27.569231 27.569231-27.569231s27.569231 11.815385 27.569231 27.569231v126.030769h126.030769c15.753846 0 27.569231 11.815385 27.569231 27.569231s-11.815385 27.569231-27.569231 27.56923h-126.030769v126.03077c0 7.876923-7.876923 19.692308-27.569231 19.692307z m-153.6-192.984615c-3.938462 0-11.815385 3.938462-11.815384 15.753846s3.938462 15.753846 15.753846 15.753846h137.846154v137.846154c0 11.815385 3.938462 15.753846 15.753846 15.753846 11.815385 0 15.753846-3.938462 15.753846-15.753846v-141.784615h137.846154c11.815385 0 15.753846-3.938462 15.753846-15.753847s-3.938462-15.753846-15.753846-15.753846h-141.784616v-133.907692c0-11.815385-3.938462-15.753846-15.753846-15.753846s-11.815385 3.938462-11.815384 15.753846v137.846154h-141.784616z" p-id="51101"></path></svg>