<?xml version="1.0" standalone="no"?>
<svg class="icon" viewBox="0 0 1024 1024" version="1.1" xmlns="http://www.w3.org/2000/svg" width="128" height="128">
    <path fill="#515151" d="M814.506667 193.28l5.418666 4.906667 14.506667 14.506666c31.232 31.274667 32.853333 81.066667 4.949333 114.261334l-4.949333 5.376L309.418667 857.344c-16.469333 16.469333-38.144 24.746667-59.776 24.746667-19.242667 0-38.485333-6.528-54.101334-19.584l-5.674666-5.162667-14.506667-14.506667a84.650667 84.650667 0 0 1-4.992-114.218666l4.949333-5.376L700.330667 198.186667a84.608 84.608 0 0 1 114.218666-4.906667z m7.594666 260.992l11.776 38.485333 37.418667 10.666667-37.418667 11.776-12.8 39.594667-11.776-38.485334-34.261333-12.842666 36.394667-10.666667 10.666666-38.528z m-61.952-220.586667a24.405333 24.405333 0 0 0-14.208 4.565334l-3.029333 2.56-124.757333 124.757333 48.938666 48.896 124.757334-124.714667a24.362667 24.362667 0 0 0 2.816-31.061333l-2.816-3.413333-14.506667-14.506667a24.32 24.32 0 0 0-17.194667-7.082667zM387.669333 177.493333l27.605334 90.325334 87.808 25.088-87.808 27.605333-30.122667 92.885333L357.546667 322.986667l-80.341334-30.122667 85.333334-25.088 25.088-90.325333z m143.786667-23.338666l11.776 38.485333 37.461333 10.709333-37.461333 11.776-12.8 39.552-11.776-38.485333-34.218667-12.842667 36.352-10.666666 10.666667-38.528z m-281.6-3.584l11.776 38.528 37.461333 10.666666-37.461333 11.776-12.8 39.552-11.776-38.485333-34.218667-12.8 36.352-10.709333 10.666667-38.528z"
          p-id="24131"></path>
</svg>
