<?xml version="1.0" standalone="no"?>
<svg t="1587714050134" class="icon" viewBox="0 0 1036 1024" version="1.1" xmlns="http://www.w3.org/2000/svg" p-id="5230"
     xmlns:xlink="http://www.w3.org/1999/xlink" width="129.5" height="128">
    <path d="M488.349981 554.370833a41.536806 41.536806 0 0 0-54.699878 0l-348.894543 342.093622a41.683062 41.683062 0 0 0 0 54.699878 27.349939 27.349939 0 0 0 27.423067 13.748098 52.067264 52.067264 0 0 0 27.423067-13.674969l348.821415-342.093623a41.536806 41.536806 0 0 0-0.073128-54.773006z"
          fill="#333333" p-id="5231"></path>
    <path d="M136.749695 342.518497l34.297116-102.379451 109.692269-34.223988-109.692269-34.223987-34.297116-102.379451-34.150859 102.379451-102.379451 34.223987 102.379451 34.223988z"
          fill="#333333" p-id="5232"></path>
    <path d="M1028.840354 376.449973l-150.132152-143.623745 34.297116-198.39675c0-13.67497 0-20.47589-13.748097-27.349939A40.805524 40.805524 0 0 0 871.907281 0.20549L693.840165 96.003405 509.118384 0.20549c-13.601841 0-27.349939 0-27.349939 6.874049-13.67497 6.800921-13.67497 13.601841-13.674969 27.349939l34.223987 198.39675-143.623744 143.623745c-6.874049 6.874049-6.874049 13.67497-6.874049 27.423067a18.06266 18.06266 0 0 0 20.475891 20.47589l205.270799 27.423067 88.923866 184.721781a34.077732 34.077732 0 0 0 54.699878 0l88.923866-184.721781 205.270799-27.423067c6.800921-6.800921 20.549018-6.800921 20.549019-20.549018a41.171165 41.171165 0 0 0-7.093434-27.349939z m-246.222579 20.549018c-6.874049 0-20.549018 6.874049-20.549019 13.748098l-61.573927 157.298713L625.245933 424.422058a35.467167 35.467167 0 0 0-27.349939-13.674969L433.650103 383.324021l116.346933-116.346933a40.95178 40.95178 0 0 0 6.874049-27.349939L529.448018 75.381258l143.696872 75.248897c13.67497 6.874049 20.47589 6.874049 27.349939 0l143.696873-75.248897-20.549019 157.371842c0 13.67497 0 20.47589 6.800921 27.349939l116.273805 109.692269z"
          fill="#333333" p-id="5233"></path>
    <path d="M823.35017 686.879094l-34.223987 102.379451-102.379451 34.223987 102.379451 34.223988 34.223987 102.379451 34.223988-102.379451 109.692269-34.223988-109.692269-34.223987z"
          fill="#333333" p-id="5234"></path>
    <path d="M570.546055 629.619729l-20.622147 54.699878-54.699878 13.67497 54.699878 20.622146 20.549019 47.82583 13.674969-47.82583 54.773006-20.549018-54.773006-13.748098z"
          fill="#333333" p-id="5235"></path>
</svg>