<?xml version="1.0" standalone="no"?>
<svg class="icon" viewBox="0 0 1024 1024" version="1.1" xmlns="http://www.w3.org/2000/svg" width="128" height="128">
    <path d="M434.773333 248.618667l1.813334 4.224 194.517333 491.434666a43.754667 43.754667 0 0 1-80.064 35.2l-1.301333-2.986666-62.058667-156.736H209.386667l-62.037334 156.736a43.754667 43.754667 0 0 1-82.453333-29.12l1.066667-3.093334 194.56-491.434666a94.677333 94.677333 0 0 1 174.272-4.224zM917.333333 532.245333a43.754667 43.754667 0 0 1 3.264 87.402667L917.333333 619.733333H661.333333a43.754667 43.754667 0 0 1-3.264-87.402666L661.333333 532.266667h256zM345.898667 281.024a7.168 7.168 0 0 0-3.328 2.730667l-0.682667 1.28-97.856 247.189333h209.002667L355.2 285.056a7.168 7.168 0 0 0-9.301333-4.032z"
          fill="#515151"></path>
</svg>