<?xml version="1.0" standalone="no"?><!DOCTYPE svg PUBLIC "-//W3C//DTD SVG 1.1//EN" "http://www.w3.org/Graphics/SVG/1.1/DTD/svg11.dtd"><svg t="1584945460403" class="icon" viewBox="0 0 1024 1024" version="1.1" xmlns="http://www.w3.org/2000/svg" p-id="50327" xmlns:xlink="http://www.w3.org/1999/xlink" width="128" height="128"><defs><style type="text/css"></style></defs><path d="M782.368 267.648v145.28l-10.496 9.056-10.72 9.216-30.144 26.016-10.496 8.992V266.944c0-6.016-4.928-11.392-10.496-11.392H239.584c-17.184 0-31.072-14.72-31.072-33.024 0-18.336 13.856-33.056 31.072-33.056H709.12c40.384 0 73.248 35.072 73.248 78.176z m-21.216 0.224v163.328l-19.648 16.96V266.944c0-18.528-14.272-33.696-31.68-33.696H239.616a10.24 10.24 0 0 1-9.856-10.496c0-4.928 3.84-10.56 9.856-10.56h469.536c28.608 0 52.032 25.056 52.032 55.648z m132.448-117.696v166.816l-62.048 53.536V149.248c0-6.016-4.928-11.392-10.496-11.392H350.848c-17.184 0-31.072-14.72-31.072-33.024 0-18.336 13.888-32.832 31.072-32.832h469.536c40.384 0 73.216 35.008 73.216 78.176z m-21.216-0.256v185.344l-19.648 16.96v-203.2c0-18.528-14.272-33.696-31.68-33.696H350.848a10.176 10.176 0 0 1-9.792-10.496c0-4.928 3.776-10.528 9.792-10.528h469.536c28.576 0 52.032 25.056 52.032 55.648z m9.376 372a338.304 338.304 0 0 0-19.392-17.888c-32.672-27.456-65.28-39.2-97.984-6.656l-71.072 70.56a97.6 97.6 0 0 0-22.336 34.08 100.064 100.064 0 0 0-1.376 68.256l139.648-139.648 62.912 62.848-9.792 9.792-129.568 129.6a100.416 100.416 0 0 0 102.656-23.776l70.944-70.56c13.984-13.856 19.84-27.68 19.84-41.536 0-24.992-19.2-49.984-44.48-75.072z m-177.664 239.648l-135.648 135.584-25.088-25.088-37.824-37.76 133.888-133.824a100.352 100.352 0 0 0-32.256-4.128 97.408 97.408 0 0 0-63.776 26.464c-0.704 0.576-1.312 1.216-1.952 1.824l-69.792 69.344c-28.256 28.096-22.592 55.776-2.304 83.552 7.328 10.208 16.672 20.384 27.008 30.656 24.864 24.768 49.504 43.776 74.208 43.776 12.16 0 24.352-4.576 36.608-15.424 1.376-1.216 2.752-2.464 4.128-3.84l69.792-69.344a97.44 97.44 0 0 0 23.04-101.856z m66.432-112.224c-11.232-11.168-25.472-16-35.776-13.056a17.184 17.184 0 0 0-7.872 4.416l-99.488 99.04c-9.632 9.568-0.736 23.84 13.632 38.24 14.496 14.368 8.48 5.728 18.112-3.84l11.808-11.808 77.184-77.12c9.632-9.568 36.8-21.408 22.368-35.808z m-104.224-312.864v176.512l-4.768 4.128-52.096 44.928v-167.52c0-17.952-12.544-32.448-27.968-32.448H182.56c-15.456 0-27.968 14.496-27.968 32.448v389.984c0 17.952 12.512 32.448 27.968 32.448h131.296l-65.952 56.864H126.752c-16.032 0-28.992-13.984-28.992-31.232V336.512c0-17.248 12.96-31.232 28.992-31.232h510.56c15.968 0 28.992 13.984 28.992 31.232z" p-id="50328"></path></svg>