<?xml version="1.0" standalone="no"?>
<svg t="1585557121997" class="icon" viewBox="0 0 1450 1024" version="1.1" xmlns="http://www.w3.org/2000/svg" p-id="1787" width="181.25" height="128">
    <path d="M886.272 603.946667l46.805333 29.312a41.386667 41.386667 0 0 1 19.029334 33.493333 39.936 39.936 0 0 1-17.877334 34.048l-429.525333 292.138667a45.824 45.824 0 0 1-22.528 6.314666 39.808 39.808 0 0 1-22.485333-6.912L34.773333 706.56a40.661333 40.661333 0 0 1-17.92-34.048 39.253333 39.253333 0 0 1 19.072-33.493333l47.146667-29.568 73.045333 49.152-24.917333 15.658666 350.421333 236.117334 355.626667-241.92-23.893333-14.933334 72.96-49.578666z"
          fill="#515151"></path>
    <path d="M886.272 422.954667l46.805333 29.269333a41.386667 41.386667 0 0 1 19.029334 33.493333 39.936 39.936 0 0 1-17.877334 34.090667l-429.525333 292.096a45.824 45.824 0 0 1-22.528 6.357333 39.808 39.808 0 0 1-22.485333-6.912L34.773333 525.568a40.661333 40.661333 0 0 1-17.92-34.048 39.253333 39.253333 0 0 1 19.072-33.493333l47.146667-29.568 352.810667 237.226666 6.101333 3.754667c12.416 6.912 26.026667 10.453333 40.192 10.453333 15.232 0 30.72-4.352 44.032-12.16l360.106667-244.778666z"
          fill="#515151"></path>
    <path d="M482.176 637.226667a39.808 39.808 0 0 1-22.485333-6.912L34.773333 344.533333a40.661333 40.661333 0 0 1-17.92-34.048 39.253333 39.253333 0 0 1 19.072-33.493333L467.754667 6.826667a40.661333 40.661333 0 0 1 42.709333 0l422.613333 264.405333a41.386667 41.386667 0 0 1 19.029334 33.493333 39.936 39.936 0 0 1-17.877334 34.048l-429.525333 292.138667a45.824 45.824 0 0 1-22.528 6.314667zM131.2 312.234667l350.421333 236.117333 355.626667-241.92-348.16-218.197333-357.888 224z"
          fill="#515151"></path>
    <path d="M1278.677333 338.261333l3.626667 3.157334 131.456 131.882666a32.725333 32.725333 0 0 1-42.666667 49.365334l-3.669333-3.157334-75.562667-75.776v293.376a32.725333 32.725333 0 0 1-65.152 4.437334l-0.298666-4.437334V443.306667l-76.586667 76.288a32.725333 32.725333 0 0 1-42.624 3.072l-3.669333-3.157334a32.725333 32.725333 0 0 1-3.072-42.624l3.2-3.669333 132.394666-131.84a32.725333 32.725333 0 0 1 42.624-3.114667z"
          fill="#515151"></path>
</svg>