<?xml version="1.0" standalone="no"?>
<svg t="1585558202245" class="icon" viewBox="0 0 1450 1024" version="1.1" xmlns="http://www.w3.org/2000/svg" width="181.25" height="128">
    <path d="M886.272 603.946667l46.805333 29.312a41.386667 41.386667 0 0 1 19.029334 33.493333 39.936 39.936 0 0 1-17.877334 34.048l-429.525333 292.138667a45.824 45.824 0 0 1-22.528 6.314666 39.808 39.808 0 0 1-22.485333-6.912L34.773333 706.56a40.661333 40.661333 0 0 1-17.92-34.048 39.253333 39.253333 0 0 1 19.072-33.493333l47.146667-29.568 73.045333 49.152-24.917333 15.658666 350.421333 236.117334 355.626667-241.92-23.893333-14.933334 72.96-49.578666z"
          fill="#515151"></path>
    <path d="M886.272 422.954667l46.805333 29.269333a41.386667 41.386667 0 0 1 19.029334 33.493333 39.936 39.936 0 0 1-17.877334 34.090667l-429.525333 292.096a45.824 45.824 0 0 1-22.528 6.357333 39.808 39.808 0 0 1-22.485333-6.912L34.773333 525.568a40.661333 40.661333 0 0 1-17.92-34.048 39.253333 39.253333 0 0 1 19.072-33.493333l47.146667-29.568 352.810667 237.226666c13.994667 9.386667 29.738667 14.208 46.293333 14.208 15.232 0 30.72-4.352 44.032-12.16l360.106667-244.778666z"
          fill="#515151"></path>
    <path d="M482.176 637.226667a39.808 39.808 0 0 1-22.485333-6.912L34.773333 344.533333a40.661333 40.661333 0 0 1-17.92-34.048 39.253333 39.253333 0 0 1 19.072-33.493333L467.754667 6.826667a40.661333 40.661333 0 0 1 42.709333 0l422.613333 264.405333a41.386667 41.386667 0 0 1 19.029334 33.493333 39.936 39.936 0 0 1-17.877334 34.048l-429.525333 292.138667a45.824 45.824 0 0 1-22.528 6.314667zM131.2 312.234667l350.421333 236.117333 355.626667-241.92-348.16-218.197333-357.888 224z"
          fill="#515151"></path>
    <path d="M1413.717333 504.405333a32.725333 32.725333 0 0 0-42.666666-3.072l-3.626667 3.157334-75.52 75.776V286.890667a32.725333 32.725333 0 0 0-65.194667-4.437334l-0.298666 4.437334 0.042666 293.845333-76.629333-76.330667a32.725333 32.725333 0 0 0-42.624-3.072l-3.669333 3.157334a32.725333 32.725333 0 0 0-3.072 42.624l3.2 3.669333 132.394666 131.84a32.725333 32.725333 0 0 0 42.624 3.114667l3.626667-3.157334 131.456-131.882666a32.725333 32.725333 0 0 0-0.042667-46.293334z"
          fill="#515151"></path>
</svg>