<?xml version="1.0" standalone="no"?><!DOCTYPE svg PUBLIC "-//W3C//DTD SVG 1.1//EN" "http://www.w3.org/Graphics/SVG/1.1/DTD/svg11.dtd"><svg t="1589269320232" class="icon" viewBox="0 0 1040 1024" version="1.1" xmlns="http://www.w3.org/2000/svg" p-id="2720" xmlns:xlink="http://www.w3.org/1999/xlink" width="130" height="128"><defs><style type="text/css"></style></defs><path d="M1003.347349 101.437668H398.083494a35.694064 35.694064 0 0 0-36.653581 38.892456 37.805003 37.805003 0 0 0 36.653581 38.892457h605.263855a38.956424 38.956424 0 0 0 0-77.784913z m3.710136 373.57228h-608.973991a39.020392 39.020392 0 0 0 0 77.84888h605.263855A35.758032 35.758032 0 0 0 1040.064898 513.902404a35.118353 35.118353 0 0 0-33.007413-38.892456z m0 373.572279h-608.973991a39.020392 39.020392 0 0 0 0 77.848881h605.263855a35.758032 35.758032 0 0 0 36.717549-38.892456 35.182321 35.182321 0 0 0-33.007413-38.956425zM148.608855 0.240519a140.345476 140.345476 0 1 0 132.093623 140.089605A135.675823 135.675823 0 0 0 148.608855 0.240519z m0 206.232368a62.36866 62.36866 0 1 1 58.722492-62.240724 62.240724 62.240724 0 0 1-58.722492 62.240724z m0 167.339912a140.345476 140.345476 0 1 0 132.093623 140.089605 135.739791 135.739791 0 0 0-132.093623-140.089605z m0 202.394297a62.36866 62.36866 0 1 1 58.722492-62.304692 59.745978 59.745978 0 0 1-58.722492 62.048821z m0 167.339912a140.345476 140.345476 0 1 0 132.093623 140.089605 138.170569 138.170569 0 0 0-132.093623-140.089605z m0 206.232368a62.36866 62.36866 0 1 1 58.722492-62.240724 59.745978 59.745978 0 0 1-58.722492 62.240724z" p-id="2721"></path></svg>