<?xml version="1.0" standalone="no"?>
<svg t="1585559163807" class="icon" viewBox="0 0 1024 1024" version="1.1" xmlns="http://www.w3.org/2000/svg" p-id="7044"
     xmlns:xlink="http://www.w3.org/1999/xlink" width="128" height="128">
    <path d="M248.533333 347.946667h469.333334a32 32 0 1 0 0-64h-469.333334a32 32 0 0 0 0 64zM483.2 710.613333h-234.666667a32 32 0 1 0 0 64h234.666667a32 32 0 0 0 0-64zM568.533333 497.28h-320a32 32 0 0 0 0 64h320a32 32 0 0 0 0-64zM798.08 565.546667l-60.373333-60.373334a32.213333 32.213333 0 0 0-45.226667 0l-60.373333 60.373334a32.213333 32.213333 0 0 0 0 45.226666 31.786667 31.786667 0 0 0 45.226666 0l5.76-5.76v145.706667a32 32 0 0 0 64 0v-145.706667l5.76 5.76a32 32 0 0 0 45.226667 0 31.786667 31.786667 0 0 0 0-45.226666z"
          fill="#515151"></path>
</svg>