<?xml version="1.0" standalone="no"?>
<svg t="1585301176256" class="icon" viewBox="0 0 1024 1024" version="1.1" xmlns="http://www.w3.org/2000/svg" width="128" height="128">
    <path fill="#515151" d="M805.7 439 805.7 284.7l-0.2 0C801.2 126.8 672 0.1 513.1 0.1c-158.5 0-287.6 126.1-292.4 283.4l-0.1 0 0 155.4-1.1 0c-40.4 0-73.1 32.7-73.1 73.1l0 438.8c0 40.4 32.7 73.1 73.1 73.1l585.1 0c40.4 0 73.1-32.7 73.1-73.1L877.7 512.1C877.7 472.1 845.6 439.6 805.7 439L805.7 439zM293.7 287 293.7 287c3-118.5 100.1-213.7 219.4-213.7S729.3 168.5 732.5 287l0.1 0 0 152L293.7 439 293.7 287 293.7 287zM804.6 914.4c0 20.2-16.4 36.6-36.6 36.6L256 951c-20.2 0-36.6-16.4-36.6-36.6L219.4 548.7c0-20.2 16.4-36.6 36.6-36.6l512 0c20.2 0 36.6 16.4 36.6 36.6L804.6 914.4 804.6 914.4zM548.6 715.8l0-59.7c0-20.2-16.4-36.6-36.6-36.6s-36.6 16.4-36.6 36.6l0 59.7c-19.2 12.1-32 33.6-32 58 0 37.9 30.7 68.6 68.6 68.6s68.6-30.7 68.6-68.6C580.6 749.4 567.8 727.9 548.6 715.8z"
          p-id="9421"></path>
</svg>
