<?xml version="1.0" standalone="no"?><!DOCTYPE svg PUBLIC "-//W3C//DTD SVG 1.1//EN" "http://www.w3.org/Graphics/SVG/1.1/DTD/svg11.dtd"><svg t="1589877491709" class="icon" viewBox="0 0 1024 1024" version="1.1" xmlns="http://www.w3.org/2000/svg" p-id="2095" xmlns:xlink="http://www.w3.org/1999/xlink" width="128" height="128"><defs><style type="text/css"></style></defs><path d="M634.026706 26.543539l-80.947614 84.472903c-44.806485 46.235021-69.425186 107.707071-69.425186 173.08508 0 65.37801 24.665773 126.802988 69.425186 173.038008 44.75839 46.236044 104.280018 71.710228 167.561273 71.710228 63.283302 0 122.755812-25.474185 167.515225-71.663156l81.709977-84.23345L634.026706 26.543539zM846.30032 413.902798c-33.568537 34.618449-78.18571 53.759391-125.659955 53.759391-47.475268 0-92.089371-19.141966-125.658931-53.759391-33.617655-34.71157-52.093449-80.757279-52.093449-129.802298 0-49.046043 18.476817-95.137801 52.187593-129.993656l39.189557-40.854477 251.748674 259.699764L846.30032 413.902798zM639.501394 807.811216l-447.712835 85.21173 171.634032-167.479409c17.828041 11.109012 38.700417 17.509792 60.995189 17.509792 65.330938 0 118.470205-54.92596 118.470205-122.398678 0-67.472717-53.139268-122.374118-118.470205-122.374118-65.328891 0-118.469182 54.902424-118.469182 122.374118 0 22.314215 5.816472 43.253106 15.95846 61.289901L137.294434 862.053608l48.279586-436.532191 253.273401-145.325853-28.808116-53.472865L130.195759 387.333676 64.676533 979.421712l618.539478-117.706819 94.756107-260.96457-55.472406-21.522176L639.501394 807.811216zM424.417781 559.468105c32.667004 0 59.236126 27.474748 59.236126 61.186548 0 33.712823-26.569122 61.187571-59.236126 61.187571-32.663934 0-59.233056-27.474748-59.233056-61.187571C365.184725 586.941829 391.753847 559.468105 424.417781 559.468105z" p-id="2096"></path></svg>