<?xml version="1.0" standalone="no"?><!DOCTYPE svg PUBLIC "-//W3C//DTD SVG 1.1//EN" "http://www.w3.org/Graphics/SVG/1.1/DTD/svg11.dtd"><svg t="1588123627017" class="icon" viewBox="0 0 1074 1024" version="1.1" xmlns="http://www.w3.org/2000/svg" p-id="16003" xmlns:xlink="http://www.w3.org/1999/xlink" width="134.25" height="128"><defs><style type="text/css"></style></defs><path d="M483.457087 708.915133a87.192863 87.192863 0 0 1-44.968044 12.448682 86.880344 86.880344 0 0 1-41.131002-10.295772c-26.963464-14.410609-43.683242-41.894938-43.683243-71.671075V377.43641c0-29.776137 16.719778-57.243104 43.683243-71.688437a87.366485 87.366485 0 0 1 86.064321 2.170272h0.034725l216.836254 130.980279c24.932089 15.087734 39.828839 41.078916 39.828838 69.518165 0 28.439249-14.89675 54.430431-39.828838 69.500803l-216.836254 130.997641z m-45.17639-331.600258l0.208346 262.082093 216.818892-130.980279-217.027238-131.101814z m590.643969 187.16429c-24.932089 217.322395-197.529511 393.704772-419.748041 428.932634a551.353358 551.353358 0 0 1-86.463652 6.85806c-134.799958 0-262.342525-50.419768-359.240846-144.088724C46.016986 742.684571-5.704946 585.661024 21.501589 425.408111 57.28504 214.457636 236.028673 48.058512 456.215828 20.782528 631.296041-1.145904 803.198976 64.083803 915.25448 194.786287a40.037185 40.037185 0 0 1-5.590622 57.711883c-18.091391 14.480057-44.811784 12.014628-59.673809-5.399638-93.46061-108.965036-236.577052-163.082948-383.00967-145.026281C283.722579 124.781981 134.928704 263.210634 105.204654 438.672816c-22.744455 133.897125 20.365836 264.946852 118.236439 359.553366 97.887965 94.606514 233.469222 136.293106 372.002048 114.295224 181.90355-28.838579 328.75286-179.004066 349.170783-357.12266a403.479679 403.479679 0 0 0-4.253734-121.552616 399.451653 399.451653 0 0 0-11.597935-45.870877c-6.875423-21.633275 5.712157-44.568714 28.109368-51.183704 22.397211-6.684439 46.096585 5.521173 52.972008 27.17181 5.712157 17.969855 10.399945 36.512663 13.907105 55.072832 9.063057 47.641819 10.816638 96.56844 5.17393 145.442974z" p-id="16004"></path></svg>