<?xml version="1.0" standalone="no"?>
<svg t="1586487588905" class="icon" viewBox="0 0 1024 1024" version="1.1" xmlns="http://www.w3.org/2000/svg" width="128" height="128">
    <path d="M793.979538 938.311264h50.30483a42.631212 42.631212 0 1 1 0 85.262424h-153.472363a52.862703 52.862703 0 0 1-28.136599-8.526242 37.089154 37.089154 0 0 1-23.020855 8.526242 37.941778 37.941778 0 0 1-26.005039-11.510427l-16.19986 3.836809v-196.103574A47.320645 47.320645 0 0 1 639.654551 767.786418a47.320645 47.320645 0 0 1 42.631212 51.157454v85.262423A426.312117 426.312117 0 1 0 85.448799 511.999147a42.631212 42.631212 0 0 1-85.262423 0 511.574541 511.574541 0 1 1 793.793162 426.312117zM511.760916 384.105512a127.893635 127.893635 0 1 1-127.893635 127.893635 127.893635 127.893635 0 0 1 127.893635-127.893635z m0 170.524847a42.631212 42.631212 0 1 0-42.631212-42.631212 42.631212 42.631212 0 0 0 42.631212 42.631212z"
          fill="#515151"></path>
</svg>