<?xml version="1.0" standalone="no"?>
<svg t="1585191590728" class="icon" viewBox="0 0 1024 1024" version="1.1" xmlns="http://www.w3.org/2000/svg" p-id="3946" width="128" height="128">
    <path fill="#515151" d="M397 201.7c-132.7 0-240.3 99.6-240.3 222.6 0 15.4-13.4 27.8-30 27.8s-30-12.5-30-27.8c0-153.6 134.5-278.2 300.3-278.2V74.6c0-10.1 7.4-13.7 16.6-7.6l147 96c9.3 6.1 9.2 15.7 0 21.7l-146.9 96.1c-9.3 6.1-16.6 2.6-16.6-7.6v-71.5zM282.4 388.1v541.1c0 17 13.8 30.7 30.7 30.7h505.1c17 0 30.7-13.8 30.7-30.7V388.1c0-17-13.8-30.7-30.7-30.7H313.1c-16.9 0-30.7 13.7-30.7 30.7z m61.5 30.8h443.6v479.6H343.9V418.9z"
          p-id="3947"></path>
</svg>
