<?xml version="1.0" standalone="no"?>
<svg t="1584949760771" class="icon" viewBox="0 0 1028 1024" version="1.1" xmlns="http://www.w3.org/2000/svg"
     p-id="67575" width="128.5" height="128">
    <path fill="#515151" d="M486.4 573.44S337.92 496.64 35.84 343.04c-15.36-10.24-25.6-30.72-25.6-46.08s10.24-40.96 30.72-51.2L491.52 15.36c15.36-5.12 30.72-5.12 46.08 0l450.56 230.4c15.36 10.24 25.6 25.6 25.6 46.08s-10.24 35.84-25.6 46.08l-450.56 230.4c-15.36 10.24-35.84 10.24-51.2 5.12z m5.12-71.68c15.36 5.12 30.72 5.12 40.96 0l368.64-174.08c35.84-15.36 40.96-25.6 40.96-30.72s-15.36-15.36-35.84-25.6l-373.76-184.32c-15.36-5.12-30.72-5.12-40.96 0L143.36 256c-20.48 10.24-51.2 25.6-51.2 35.84 0 10.24 35.84 25.6 51.2 35.84l348.16 174.08z m-10.24 276.48L25.6 542.72c-15.36-5.12-30.72-30.72-20.48-51.2 10.24-25.6 40.96-20.48 46.08-20.48 97.28 51.2 245.76 122.88 445.44 225.28 10.24 5.12 20.48 5.12 30.72 0 194.56-102.4 343.04-179.2 445.44-230.4 15.36-5.12 40.96-5.12 51.2 15.36s5.12 40.96-20.48 56.32l-455.68 235.52c-10.24 5.12-20.48 5.12-30.72 10.24-15.36 0-25.6 0-35.84-5.12z m0 225.28L25.6 768c-15.36-5.12-30.72-30.72-20.48-51.2 10.24-25.6 46.08-15.36 46.08-15.36 97.28 51.2 245.76 122.88 445.44 225.28 10.24 5.12 20.48 5.12 30.72 0 194.56-102.4 343.04-179.2 445.44-230.4 15.36-5.12 40.96-5.12 51.2 15.36 10.24 20.48 5.12 40.96-20.48 56.32l-455.68 235.52c-10.24 5.12-20.48 5.12-30.72 10.24-15.36 0-25.6-5.12-35.84-10.24z"
          p-id="67576"></path>
</svg>
