<?xml version="1.0" standalone="no"?><!DOCTYPE svg PUBLIC "-//W3C//DTD SVG 1.1//EN" "http://www.w3.org/Graphics/SVG/1.1/DTD/svg11.dtd"><svg t="1585207098898" class="icon" viewBox="0 0 1024 1024" version="1.1" xmlns="http://www.w3.org/2000/svg" p-id="3661" xmlns:xlink="http://www.w3.org/1999/xlink" width="128" height="128"><defs><style type="text/css"></style></defs><path d="M819.413333 273.066667h-614.4c-18.773333 0-34.133333-15.36-34.133333-34.133334 0-18.773333 15.36-34.133333 34.133333-34.133333h614.4c18.773333 0 34.133333 15.36 34.133334 34.133333 0 18.773333-15.36 34.133333-34.133334 34.133334z m-96.426666 148.48c0-18.773333-15.36-34.133333-34.133334-34.133334h-353.28c-18.773333 0-34.133333 15.36-34.133333 34.133334 0 18.773333 15.36 34.133333 34.133333 34.133333h353.28c18.773333 0 34.133333-15.36 34.133334-34.133333z m52.053333 181.76c0-18.773333-15.36-34.133333-34.133333-34.133334H283.52c-18.773333 0-34.133333 15.36-34.133333 34.133334 0 18.773333 15.36 34.133333 34.133333 34.133333h457.386667c18.773333 0 34.133333-15.36 34.133333-34.133333z m62.293333 181.76c0-18.773333-15.36-34.133333-34.133333-34.133334H222.08c-18.773333 0-34.133333 15.36-34.133333 34.133334 0 18.773333 15.36 34.133333 34.133333 34.133333h581.12c18.773333 0 34.133333-15.36 34.133333-34.133333z" p-id="3662"></path></svg>