<?xml version="1.0" standalone="no"?>
<svg t="1586486187800" class="icon" viewBox="0 0 1024 1024" version="1.1" xmlns="http://www.w3.org/2000/svg" width="128" height="128">
    <path fill="#515151" d="M487.104 0L187.776 298.88A424.128 424.128 0 0 0 64 597.12c0 105.792 41.28 217.344 123.776 299.904a422.592 422.592 0 0 0 598.72 0 427.776 427.776 0 0 0 123.712-299.904 424.128 424.128 0 0 0-123.712-298.24L487.04 0zM169.792 616.448c0.512-105.792 32.768-173.248 93.056-232.96l224.256-229.056 224.256 231.424c60.288 59.968 92.544 124.8 93.056 230.592H169.792z"
          ></path>
</svg>