<?xml version="1.0" standalone="no"?><!DOCTYPE svg PUBLIC "-//W3C//DTD SVG 1.1//EN" "http://www.w3.org/Graphics/SVG/1.1/DTD/svg11.dtd"><svg t="1584926377701" class="icon" viewBox="0 0 1024 1024" version="1.1" xmlns="http://www.w3.org/2000/svg" p-id="7823" xmlns:xlink="http://www.w3.org/1999/xlink" width="128" height="128"><defs><style type="text/css"></style></defs><path d="M627.5072 142.267733c104.584533 10.513067 188.552533 73.5232 206.4384 181.521067h-60.484267l97.621334 145.544533 97.826133-145.476266h-67.447467c-17.885867-145.476267-128-240.162133-267.0592-253.610667-19.182933-1.501867-37.137067 15.018667-37.137066 36.0448 1.2288 18.0224 13.653333 34.4064 30.242133 35.976533zM476.16 68.676267H136.055467c-19.182933 0-34.338133 16.520533-34.338134 37.546666v324.061867c0 21.026133 15.018667 37.546667 34.338134 37.546667h339.968c19.2512 0 34.338133-16.5888 34.338133-37.546667V106.222933c0-21.026133-15.018667-37.546667-34.338133-37.546666h0.136533v-0.068267z m-66.218667 825.344c-116.9408-10.581333-206.4384-88.610133-210.670933-217.634134h64.7168l-97.621333-145.544533-97.6896 145.408h64.7168c2.730667 166.570667 119.671467 274.6368 269.789866 289.655467 19.2512 1.570133 37.137067-15.018667 37.137067-36.0448a35.908267 35.908267 0 0 0-30.3104-36.0448l-0.068267 0.136533z m492.885334-325.700267c17.8176 0 34.269867 16.5888 34.269866 37.546667v325.632c0 20.8896-15.018667 37.410133-34.338133 37.410133h-339.968c-19.387733 0-34.4064-16.520533-34.4064-37.546667V605.866667c0-20.8896 15.018667-37.4784 34.4064-37.4784h339.968v-0.068267z m-50.312534 60.142933H612.829867c-13.653333 0-24.302933 11.741867-24.302934 26.4192v229.717334c0 14.7456 10.6496 26.487467 24.302934 26.487466h239.752533c13.585067 0 24.234667-11.741867 24.234667-26.487466V654.882133c0-14.677333-11.605333-26.4192-24.1664-26.4192h-0.136534zM426.1888 128.136533c12.6976 0 24.302933 11.741867 24.234667 26.487467V384.341333c0 14.813867-10.6496 26.487467-24.234667 26.487467H186.299733c-13.585067 0-24.234667-11.6736-24.234666-26.487467V154.624c0-14.7456 10.6496-26.487467 24.234666-26.487467h239.889067z" fill="#4C4C4C" p-id="7824"></path></svg>