<?xml version="1.0" standalone="no"?><!DOCTYPE svg PUBLIC "-//W3C//DTD SVG 1.1//EN"
        "http://www.w3.org/Graphics/SVG/1.1/DTD/svg11.dtd">
<svg t="1584948960506" class="icon" viewBox="0 0 1024 1024" version="1.1" xmlns="http://www.w3.org/2000/svg"
     p-id="51837" xmlns:xlink="http://www.w3.org/1999/xlink" width="128" height="128">
    <defs>
        <style type="text/css"></style>
    </defs>
    <path fill="#515151" d="M1001.702 133.587H22.298C9.999 133.587 0 143.686 0 155.885c0 12.299 9.999 22.298 22.298 22.298h111.189v779.024c0 36.796 29.997 66.793 66.793 66.793h623.34c36.796 0 66.693-29.997 66.693-66.793V178.183h111.29c12.298 0 22.297-10 22.397-22.298 0-12.299-10.099-22.298-22.298-22.298z m-155.785 823.62c0 12.298-9.999 22.297-22.297 22.297H200.38c-12.298 0-22.297-9.999-22.297-22.297V187.082h667.834v770.125zM378.363 44.596h267.174c12.199 0 22.198-10 22.198-22.298S657.635 0 645.437 0H378.363c-12.299 0-22.298 10.099-22.298 22.298 0 12.299 10.1 22.298 22.298 22.298z"
          p-id="51838"></path>
    <path fill="#515151" d="M400.66 667.835c12.3 0 22.299-10.1 22.299-22.298V378.463c0-12.199-10.1-22.198-22.298-22.298-12.299 0-22.298 10.1-22.298 22.298v267.074c0 12.299 10.1 22.298 22.298 22.298z m222.58 0c12.298 0 22.297-10.1 22.297-22.298V378.463c0-12.199-10.1-22.198-22.298-22.298-12.299 0-22.298 10.1-22.298 22.298v267.074c0 12.299 10.1 22.298 22.298 22.298z"
          p-id="51839"></path>
</svg>
