<?xml version="1.0" standalone="no"?>
<svg t="1585301060060" class="icon" viewBox="0 0 1024 1024" version="1.1" xmlns="http://www.w3.org/2000/svg" width="128" height="128">
    <path d="M769 472.8c23.2 6.1 40.4 27.2 40.4 52.4V904c0 29.9-24.2 54.1-54.1 54.1h-487c-29.9 0-54.1-24.2-54.1-54.1V525.2c0-29.9 24.2-54.1 54.1-54.1H699l1.4-1.4c74-74 74-193.9 0-267.8-74-74-193.9-74-267.8 0L364 270.5l-37.3-37.3 67.7-67.7c95.1-95.1 249.3-95.1 344.4 0 83.3 83.5 93.5 212.6 30.2 307.3z m-500.8 52.3v378.8h487V525.1h-487zM484 784v-75.7c-15.8-9.7-23.7-23.7-23.7-41.9 0-13.4 5.1-24.9 15.2-34.7 10.1-9.7 22.3-14.6 36.5-14.6s26.2 4.9 36 14.6 14.7 21.3 14.7 34.7c0 18.2-7.6 32.2-22.7 41.9V784c0 7.3-2.8 13.5-8.5 18.7-5.7 5.2-12.3 7.8-19.9 7.8-7.6 0-14.1-2.6-19.4-7.8S484 791.3 484 784z"
          fill="#515151"></path>
</svg>
