<svg xmlns="http://www.w3.org/2000/svg" xmlns:xlink="http://www.w3.org/1999/xlink" version="1.1" x="0px" y="0px" viewBox="446.664 -205.379 80.647 90.451" enable-background="new 446.664 -205.379 80.647 90.451" xml:space="preserve" style="fill: rgb(0, 0, 0);">
<g>
	<g id="__id463_svqbdvh6n"><path fill-rule="evenodd" clip-rule="evenodd" d="M499.646-205.255c8.47-1.458,8.546,10.399,2.4,11.76   c-3.854,0.854-7.582-1.771-8.16-5.04C493.15-202.702,495.334-204.512,499.646-205.255z M498.207-200.455   c-0.664,2.634,0.227,4.426,1.68,4.56c3.21,0.297,2.93-5.482-0.96-5.52C499.143-199.934,497.873-199.133,498.207-200.455z" style="fill: rgb(167, 191, 94);"></path></g>
    <g id="__id464_svqbdvh6n"><path fill-rule="evenodd" clip-rule="evenodd" d="M475.887-197.094c-0.511,2.733-1.94,4.486-4.08,4.8   c-2.748,0.401-3.673-2.084-5.76-3.12c-0.663-2.428,1.004-4.374,1.92-6C471.629-201.299,474.734-200.296,475.887-197.094z" style="fill: rgb(167, 191, 94);"></path></g>
    <g id="__id465_svqbdvh6n"><path fill-rule="evenodd" clip-rule="evenodd" d="M453.807-184.615c-0.553,0.566-1.211,1.029-2.16,1.2   c-0.88,1.912-1.184,4.719,0.721,5.76c-0.656-1.264-0.792-3.992,0.479-5.52c4.75-2.076,5.659,3.626,4.319,6.96   c-2.228,1.205-3.635,2.111-5.279,1.92c-5.748-0.672-7.381-13.936-1.68-14.4C451.849-188.829,454.242-187.042,453.807-184.615z" style="fill: rgb(167, 191, 94);"></path></g>
    <g id="__id466_svqbdvh6n"><path fill-rule="evenodd" clip-rule="evenodd" d="M518.127-188.215c2.548-0.525,5.845,1.629,6.239,3.84   c0.836,4.671-5.294,8.55-8.64,6C512.207-181.057,514.628-187.495,518.127-188.215z M517.167-181.014   c1.189,1.19,2.96-0.119,3.12-1.44c-0.673-0.608-1.008-1.553-1.921-1.92C517.515-183.707,517.491-182.211,517.167-181.014z" style="fill: rgb(167, 191, 94);"></path></g>
    <g id="__id467_svqbdvh6n"><path fill-rule="evenodd" clip-rule="evenodd" d="M491.247-187.255c-0.045-0.204,0.093-0.227,0.239-0.24   c1.872,0.768,4.368,0.912,6.48,1.439c0.97,1.809,3.054,2.332,3.359,4.32c0.393,2.55-3.261,6.334-5.52,6.721   C489.438-173.925,485.19-183.881,491.247-187.255z M495.087-176.695c5.144-0.253-2.346-7.713-4.08-7.44   C489.106-181.225,492.555-176.571,495.087-176.695z" style="fill: rgb(167, 191, 94);"></path></g>
    <g id="__id468_svqbdvh6n"><path fill-rule="evenodd" clip-rule="evenodd" d="M464.606-177.895c0.597-1.359,2.965-2.106,4.561-1.68   c3.791-3.233,10.229-1.883,11.04,2.64c0.785,4.385-2.468,8.246-6,8.641C467.949-167.596,466.309-173.257,464.606-177.895z    M474.927-170.935c2.376-2.831-0.271-7.507-3.601-6.72c-0.194,0.707,0.114,1.962-1.199,2.4   C470.828-172.987,471.7-169.913,474.927-170.935z" style="fill: rgb(167, 191, 94);"></path></g>
    <g id="__id469_svqbdvh6n"><path fill-rule="evenodd" clip-rule="evenodd" d="M508.287-169.014c3.809,1.516,1.477,7.144-2.4,6.959   c-3.548-0.168-5.637-6.836-0.96-7.439C506.084-169.644,506.738-168.367,508.287-169.014z" style="fill: rgb(167, 191, 94);"></path></g>
    <g id="__id470_svqbdvh6n"><path fill-rule="evenodd" clip-rule="evenodd" d="M526.047-168.535c2.721,2.452,0.875,8.694-3.84,7.44   c-2.652-0.706-2.853-4.587-0.721-6.721C523.649-167.412,523.911-168.911,526.047-168.535z M521.967-165.175   c0.521-0.041,0.108,0.851,0.24,1.199c0.597-0.037,0.742,0.377,1.199,0.48c0.587-0.421,0.567-1.447,0.24-2.16   C522.944-165.318,522.467-165.93,521.967-165.175z" style="fill: rgb(167, 191, 94);"></path></g>
    <g id="__id471_svqbdvh6n"><path fill-rule="evenodd" clip-rule="evenodd" d="M491.967-164.455c2.224,5.854-1.46,12.603-8.4,9.36   c-1.765-2.184-2.06-7.335,0.48-8.881C486.842-163.693,489.264-166.194,491.967-164.455z M485.247-157.735   c0.672,0.607,1.22,1.34,2.399,1.44C491.631-158.749,484.511-164.052,485.247-157.735z" style="fill: rgb(167, 191, 94);"></path></g>
    <g id="__id472_svqbdvh6n"><path fill-rule="evenodd" clip-rule="evenodd" d="M458.127-162.055c0.34,2.101-1.471,2.05-1.92,3.36   c2.912-0.348,6.843,0.401,6.96,3.36c0.1,2.541-2.662,3.54-4.081,5.279c-7.795,0.533-9.778-5.652-7.439-12.479   c1.047,0.017,1.604-0.595,2.641-1.44C456.146-163.915,457.419-163.267,458.127-162.055z" style="fill: rgb(167, 191, 94);"></path></g>
    <g id="__id473_svqbdvh6n"><path fill-rule="evenodd" clip-rule="evenodd" d="M501.566-153.415c7.958-1.605,4.991,15.631-3.12,10.56   c-2.47-1.544-3.318-6.622-0.72-8.88C498.79-152.659,500.256-152.466,501.566-153.415z M500.606-148.615   c0.031-0.431-0.238-0.562-0.72-0.479c-1.614,2.556,0.098,5.767,2.4,5.039c2.596-0.819,2.262-5.311-0.24-6.72   C501.595-150.027,501.017-149.405,500.606-148.615z" style="fill: rgb(167, 191, 94);"></path></g>
    <g id="__id474_svqbdvh6n"><path fill-rule="evenodd" clip-rule="evenodd" d="M524.127-150.535c-0.483,3.037-3.106,3.935-4.08,6.479   c-2.111,0.798-3.056-0.486-4.561-0.959c-0.862-3.877,0.432-8.555,4.561-8.641c0.993-0.021,1.386,0.575,2.399,0.72   C523.015-152.143,523.365-151.134,524.127-150.535z" style="fill: rgb(167, 191, 94);"></path></g>
    <g id="__id475_svqbdvh6n"><path fill-rule="evenodd" clip-rule="evenodd" d="M473.247-146.695c1.942,1.819,5.578,7.076,1.92,9.36   c-1.949,1.217-4.285-0.032-6.48-0.721C465.716-141.214,468.011-147.434,473.247-146.695z" style="fill: rgb(167, 191, 94);"></path></g>
    <g id="__id476_svqbdvh6n"><path fill-rule="evenodd" clip-rule="evenodd" d="M453.807-139.735c6.777-1.037,4.213,11.515-0.24,11.76   c-3.615,0.199-6.055-5.656-4.32-8.88C449.92-138.106,452.051-139.466,453.807-139.735z M451.166-133.014   c0.953,0.728,1.322,2.037,2.4,2.64c0.776-1.224,1.448-2.552,1.2-4.8C453.219-137.537,450.766-136.299,451.166-133.014z" style="fill: rgb(167, 191, 94);"></path></g>
    <g id="__id477_svqbdvh6n"><path fill-rule="evenodd" clip-rule="evenodd" d="M492.207-135.895c0.396,5.56-6.967,7.189-8.881,2.641   C482.27-140.062,489.447-139.54,492.207-135.895z M488.127-133.255c-0.481-0.559-0.588-1.493-1.44-1.681   C486.344-133.702,487.232-132.455,488.127-133.255z" style="fill: rgb(167, 191, 94);"></path></g>
    <g id="__id478_svqbdvh6n"><path fill-rule="evenodd" clip-rule="evenodd" d="M505.646-131.815c2.382-0.062,3.265,1.376,4.8,2.16   c0.694,4.269-0.89,8.282-4.8,8.16c-4.883-0.153-9.108-7.771-5.04-10.561C501.846-132.904,504.526-133.577,505.646-131.815z    M505.887-123.655c3.11-0.477,0.622-5.68-2.4-5.28C501.824-127.366,503.792-123.334,505.887-123.655z" style="fill: rgb(167, 191, 94);"></path></g>
    <g id="__id479_svqbdvh6n"><path fill-rule="evenodd" clip-rule="evenodd" d="M470.366-128.935c3.92-0.746,6.827,4.567,5.521,9.12   c-1.244,4.335-9.234,7.578-12,1.681c-0.885-1.888-0.629-5.349,0.479-6.721c0.555-0.685,1.574-0.4,2.641-1.2   C468.639-127.279,468.629-128.604,470.366-128.935z M466.767-118.855c1.099,0.942,2.462,1.932,4.32,1.44   c2.2-2.545,0.521-7.497-2.88-7.92C466.917-123.453,466.359-122.297,466.767-118.855z" style="fill: rgb(167, 191, 94);"></path></g>
    <g id="__id480_svqbdvh6n"><path fill-rule="evenodd" clip-rule="evenodd" d="M486.446-121.975c1.019-0.55,4.184,0.225,4.561,1.44   c0.551,1.779-1.326,3.937-2.4,4.08C486.873-116.223,483.035-120.132,486.446-121.975z" style="fill: rgb(167, 191, 94);"></path></g>
</g>
</svg>
