<svg xmlns="http://www.w3.org/2000/svg" xmlns:xlink="http://www.w3.org/1999/xlink" version="1.1" x="0px" y="0px" viewBox="164.33 -630.515 122.127 82.26" enable-background="new 164.33 -630.515 122.127 82.26" xml:space="preserve" style="fill: rgb(0, 0, 0);">
<g>
	<g id="__id459_s86nycm1j"><path fill-rule="evenodd" clip-rule="evenodd" d="M273.357-597.428c0.416,0.584-1.001,1.462,0,2.217   c0.345,0.009,0.523-0.149,0.605-0.402c0.448,0.084,0.158,1.069,0,1.209c0.085,0.453,1.068,0.006,1.209,0.403   c-1.144,3.626-4.065,5.474-7.658,6.65c4.535,2.437,13.615,1.842,18.138,3.022c0.183,1.518,0.611,2.31,0.201,3.83   c-0.139,0.541,0.417,0.389,0.604,0.604c-0.826,1.767-1.069,3.051-1.411,5.441c-2.342,1.429-5.22,2.306-8.464,2.217   c-1.551-0.043-3.059-1.033-4.433-1.008c-0.705,0.013-1.153,0.364-2.218,0c-0.259,0.341,0.051,1.235-0.402,1.814   c0.959,1.056,3.003,1.027,4.03,2.015c0.521-0.259,0.634-0.416,0.403-1.007c0.299,0.373,1.042,0.302,1.008,1.007   c-0.196-0.005-0.157-0.246-0.202-0.402c-0.572-0.035,0.243,1.318-0.604,1.008c0.844,0.882,1.024,1.892,2.216,2.015   c0.065,0.803,0.012,1.488-0.402,1.813c1.884,2.881-1.146,4.653-2.62,6.449c-3.014,1.873-6.61,0.596-10.076,1.411   c-0.074,0.018-0.487,0.128-0.604,0.201c-2.89,1.802-5.603,6.107-10.277,4.837c-0.625,0.54,0.527,0.767,0,1.209   c-1.361-0.219-2.122,0.162-2.217,1.209c-2.562-0.713-3.561-0.258-5.845,0.605c0.197,0.271,0.537,0.402,0.806,0.604   c-1.642,0.074-3.587-0.587-5.239-0.807c-0.139,0.542,0.416,0.39,0.604,0.604c-1.944,0.466-4.574-0.126-6.448-0.402   c-0.273,0.062-0.167,0.504-0.201,0.806c-1.391-0.171-4.135-0.146-5.441-1.008c-0.436,0.144-1.45,0.256-2.218,0   c-4.413-1.47-10.296-2.662-15.114-3.023c-0.921-0.068-1.86,0.412-2.62-0.402c-4.288,0.312-7.875-1.623-11.89-2.419   c-4.177-0.827-8.325-1.993-12.092-1.813c0.228,0.476,2.021,0.682,2.418,1.612c-5.354-0.352-7.941-2.137-12.293-3.426   c0.082-0.485-0.368-0.438-0.201-1.008c-2.012-1.577-2.94-3.489-5.441-4.837c0.18-0.356,0.817-0.257,0.604-1.008   c-1.275-0.726-0.105-0.864-1.612-1.209c0.216-0.522,0.489-0.988,0.402-1.813c0.567-0.323,0.859,0.338,0.807-0.604   c0.437-0.034,0.092,0.715,0.201,1.007c0.715-0.397,0.399-0.262,1.21,0c0.342-1.014-0.639-0.705-1.008-1.007   c0.121-0.751-0.516-1.275,0-1.814c-0.24-0.514-1.85-0.6-0.806-1.209c-0.913-0.363-1.182-1.371-2.419-1.411   c0.177-1.146,0.266-1.165,0.403-2.216c0.357-0.046,1.009,0.203,0.806-0.403c0.827-0.093-0.082,0.431,0.202,1.008   c1.088-0.037,2.84-2.237,3.022-1.21c0.819-0.808,0.836-1.128,2.619-1.209c-0.082-0.388-0.78-0.158-0.604-0.806   c0.637-0.099,0.713,0.363,1.411,0.201c-0.122-1.221-1.788-0.899-2.62-1.41c0.24-0.765,0.328-1.081,1.209-0.806   c0.314-1.405-1.05-1.6-1.611-1.008c0.284-0.725,0.779-1.235,1.208-1.814c-0.584-0.423-1.128-0.887-1.812-1.209   c0.942-2.531-0.703-5.266-0.605-9.068c0.773-0.037,0.073,0.164,0.202,0.604c3.809,0.558,11.385,1.266,17.937,0.807   c-5.479-0.758-9.634-2.007-15.519-1.209c-0.173-0.803,1.244-0.546,0.604-1.209c-0.36-0.705-1.965,0.042-2.418-0.403   c-0.05-0.588,0.379-0.695,0.605-1.008c-1.407-1.062-3.685-2.29-4.838-2.419c-0.667-0.841-0.083-2.152-0.402-3.627   c0.517,0.021,0.323,0.751,0.604,1.008c0.382-0.559,0.479-1.401,1.008-1.813c1.313,0.205,2.977-0.712,4.231-1.21   c-1.521-0.389-2.168,0.127-3.829-0.201c0.072-0.533,1.027-0.182,1.209-0.604c-1.14-0.203-1.647-1.039-3.022-1.008   c-0.49-0.373,1.329-0.136,1.813-0.201c-1.328-0.485-2.349-1.278-3.627-1.813c0.018-0.654,0.692-0.651,1.008-1.009   c0.027-1.036-0.968-1.047-1.21-1.813c0.255-0.927,1.146-0.436,2.016-0.402c0.521-0.405-0.882-0.583-1.008-1.008   c0.066-0.472,0.242-0.833,0.403-1.21c1.583,0.24,2.045-0.642,3.627-0.402c0.604-0.133-0.192-0.431,0-0.807   c2.394,0.39,5.431-0.571,7.457,0.807c0.633,0.095,0.532-0.543,1.008-0.605c0.263-0.602-1.324-0.802-0.202-1.007   c-0.24-0.484-1.093,0.097-0.806,0.806c-0.499-2.056,0.386-3.23,0.806-5.038c3.45-0.716,7.357-0.973,10.883-1.611   c-0.53-1.641,0.384-3.306,0.605-4.838c10.953-6.008,29.937-4.523,45.747-3.627c6.825,0.387,14.166,0.833,18.339,3.225   c-0.298,1.28-0.463,1.934-1.008,3.225c-4.685,0.639-11.484-0.369-17.735,0c6.004,2.268,14.771,3.748,21.564,5.844   c1.329,0.41,2.799,1.03,4.635,1.008c0.291,0.718,0.695,1.321,1.612,1.411c-0.336,0.591-0.707,1.563,0.605,1.41   c0.347,2.284,1.005,3.82,0,5.644c0.734,1.736,2.176,3.045,0.604,5.239c1.283,2.276,5.636,1.484,6.852,3.829   c0.485-0.083,0.438,0.368,1.008,0.201c0.228,0.981,0.457,1.961,1.41,2.217C273.113-596.857,272.887-597.565,273.357-597.428z    M250.183-583.724c0.545-0.608,1.244,0.787,1.41-0.201C250.991-583.872,250.366-584.489,250.183-583.724z M243.935-585.135   c0.221,0.727,2.112,0.835,2.821,0.403C245.877-584.8,244.856-585.78,243.935-585.135z M241.92-585.337   c0.691-0.224,1.628,1.01,1.813,0C242.979-585.069,242.341-585.937,241.92-585.337z M237.889-597.226   c1.347,0.16,4.127,0.94,5.038,0.201C241.091-597.155,239.185-597.907,237.889-597.226z M215.115-589.165   c-0.806,0.107,0.858,0.701,0.807,0.806c0.017-0.034-0.809,0.099-0.604,0.201c0.856,0.433,1.732-0.14,2.821,0   c1.545,0.198,3.143,1.38,4.232,0.403c2.876,1.09,5.825,0.661,8.666,1.008c3.425,0.418,7.442,1.699,9.875,1.008   c-1.744-0.444-4.372-0.747-6.046-1.814c0.156-0.045,0.397-0.005,0.402-0.201c-1.888-0.396-4.719-0.922-6.448-0.806   c0.305,0.501,1.735-0.124,2.015,0.402c-0.634,0.555-1.52-0.339-2.015,0.202c0.949,0.192,1.939,0.344,2.418,1.008   c-1.213-0.46-2.985-0.364-2.62-1.411c-3.621,0.214-8.617-1.462-10.883-0.403c0.484,0.132,2.107,0.161,1.612,0.604   C217.813-588.37,216.155-588.459,215.115-589.165z M236.68-601.055c-10.104-1.531-23.312-2.092-33.051-1.612   c9.552,0.554,20.434,0.365,29.826,2.62c-0.237,0.031-0.572-0.035-0.604,0.201c1.682-0.962,3.137,1.078,5.239,0.604   C237.864-599.885,237.214-600.257,236.68-601.055z M226.806-576.872c1.012-0.139,1.625,0.12,2.216,0.402   C229.181-577.621,226.917-577.752,226.806-576.872z M221.363-575.663c-0.312,0.851,1.119-0.044,0.806,0.806   c-0.26-0.277-0.875-0.198-1.41-0.201c0.551-0.557-0.295-0.189-0.403-0.604c0.302-0.034,0.743,0.072,0.806-0.201   c-0.946-0.107-1.604-0.192-2.82-0.403c0.091,0.715,1.332,0.278,1.41,1.008c-1.651-0.408-3.083-0.869-4.837-0.403   c3.896,0.891,8.424,1.71,12.293,2.015c-0.08-0.686-0.619-0.332,0-0.806c-0.156-0.045-0.397-0.005-0.401-0.201   c-0.884-0.146,0.161,0.4-0.404,0.403C224.91-575.333,223.106-575.094,221.363-575.663z M221.968-577.476   c1.151,0.125,2.052,0.501,3.426,0.402C224.146-577.842,224.067-577.627,221.968-577.476z M218.743-584.128   c0.431,0.143,2.365,0.584,2.218,0C220.075-583.858,219.294-584.729,218.743-584.128z M213.503-584.731   c1.129,1.145,3.336-0.001,4.838,0.806c-0.196-1.081-2.343-0.21-2.822-1.008c1.75-0.07,3.31,0.049,4.837,0.202   c-5.633-1.441-13.35-2.153-18.742-1.411c0.215-0.009,0.512,0.095,0.201,0.202c-8.031-0.62-14.237-1.41-20.959,1.209   c1.251-0.135,4.055,0.493,5.845,0.201c-0.237-0.031-0.572,0.035-0.605-0.201c0.684-0.062,2.003,0.907,1.21,0   c3.416-0.822,4.456,0.297,6.65-0.202c-0.246-0.022-0.477-0.061-0.403-0.403c0.778,1.091,2.238,0.115,3.225,0.605   c0.309-0.913-1.315,0.106-1.007-0.807C201.54-584.458,208.902-584.581,213.503-584.731z M207.257-583.321   c3.11,0.95,7.354,0.593,10.68,0.604C214.612-583.096,211.07-583.685,207.257-583.321z M213.303-557.122   c1.002,0.468,2.39,1.638,3.828,0.604C216.301-557.035,214.239-557.383,213.303-557.122z M213.503-589.165   c0.251,1.232,0.281,0.252,1.411,0.604C214.93-589.248,214.167-589.158,213.503-589.165z M211.488-588.56   c0.098-0.359,0.215,0.087,0.402,0.201c0.349-0.421,1.163-0.061,1.612-0.201c-0.282-0.053-0.229-0.442-0.402-0.604   c-0.779,0.107-0.984-0.36-1.813-0.202C211.543-588.862,211.185-588.736,211.488-588.56z M205.442-578.082   c0.237-0.031,0.572,0.035,0.604-0.201c-2.393-1.025-4.24-1.139-7.859-1.007c-0.945,1.77-4.972,0.028-6.65,1.41   c3.424-0.419,6.09-0.199,8.867,0.403c-3.294-0.147-5.896,0.242-8.263,0.201c2.601,1.4,7.041,0.396,10.883,0.403   c3.657,0.007,7.38,0.598,10.479,0.402C210.833-577.001,207.569-577.632,205.442-578.082z M206.853-560.145   c0.127-0.431,1.241-0.188,1.412,0c-0.684-1.266-3.402-0.494-4.838-1.007c0.405,0.938,2.479,0.208,2.62,1.41   c-1.004-0.354-2.952-0.773-3.426,0.403c2.126,0.1,4.511,0.982,5.441-0.202c1.408,0.963,2.216,0.647,4.232,0.807   c0.01-0.258,0.258-0.279,0.201-0.604C210.539-560.606,208.944-559.541,206.853-560.145z M200.404-556.517   c2.124,0.08,3.583,0.111,5.239,0.806c-1.062,0.317-2.215-0.71-2.619,0.202c2.954,0.426,5.755,1.062,8.866,0.402   c-2.575-0.491-4.492-0.445-6.448-1.41c0.87,0.119,2.121-0.192,3.225-0.403c-3.301-0.915-7.906-0.965-11.285-1.209   c0.139,0.6,0.741,0.736,1.007,1.209c-2.715-0.927-5.661-1.717-8.867-1.209c3.595,0.992,5.322,1.423,10.076,1.41   c0.338,1.071,2.627,1.043,3.023,0.807C201.362-555.997,200.945-556.021,200.404-556.517z M208.868-588.964   c0.587,0.249,1.507-0.104,2.217,0.403C211.013-589.682,209.583-589.271,208.868-588.964z M211.287-589.971   c-0.613,0.126-1.736-0.258-2.016,0.201C210.036-589.673,211.019-588.999,211.287-589.971z M209.07-592.188   c0.96-0.361,1.024,0.159,1.813,0.402C210.909-592.383,209.235-593.085,209.07-592.188z M204.838-574.252   c-0.649-0.094,0.162-0.913,0.806-1.21c0.11,0.849,3.137-0.025,1.814,1.008c1.546-0.171,2.412,0.355,3.225,0   c-0.6-0.61-2.064-0.354-2.62-1.008c0.246-0.022,0.478-0.06,0.402-0.402c-3.411-0.617-8.386-0.721-12.495-0.202   c1.065,1.242,3.033,0.551,4.838,1.209c-1.078-0.003-2.23-0.08-2.821,0.403C200.615-573.534,202.207-574.076,204.838-574.252z    M207.458-592.389c0.155-0.046,0.396-0.006,0.402-0.202c-1.562,0.076-4.11-0.756-5.239,0.202c0.677-0.121,1.356,0.072,0.806,0.604   c1.315-0.55,3.258,0.478,4.636-0.201C207.824-592.085,207.605-592.202,207.458-592.389z M194.56-592.389   c0.977,0.181,2.368-0.087,3.225-0.202C196.812-592.903,195.309-593.144,194.56-592.389z M192.343-592.995   c0.471-0.051,1.72,0.756,1.612,0C193.577-593.039,192.619-593.513,192.343-592.995z M191.738-559.137   c0.399,0.658,1.656,0.743,1.813,0.202C193.05-559.105,192.473-559.2,191.738-559.137z" style="fill: rgb(255, 212, 77);"></path></g>
    <g id="__id460_s86nycm1j"><path fill-rule="evenodd" clip-rule="evenodd" d="M193.754-553.092c0.515,0.041-1.746,0.672-1.612-0.403   C192.603-553.284,193.356-553.367,193.754-553.092z" style="fill: rgb(255, 212, 77);"></path></g>
    <g id="__id461_s86nycm1j"><path fill-rule="evenodd" clip-rule="evenodd" d="M189.521-553.293c-0.088-1.165,1.134,0.044,2.418-0.202   c-1.546,1.396-4.14-0.022-6.448-0.201c-2.438-0.189-4.898,0.091-6.65-1.209C181.642-554.095,186.289-553.935,189.521-553.293z" style="fill: rgb(255, 212, 77);"></path></g>
    <g id="__id462_s86nycm1j"><path fill-rule="evenodd" clip-rule="evenodd" d="M185.491-554.502c0.087,0.307-1.861-0.637-2.62-0.807   C183.601-555.695,184.768-554.791,185.491-554.502z" style="fill: rgb(255, 212, 77);"></path></g>
</g>
</svg>
