<?xml version="1.0" encoding="UTF-8"?><!-- Generator: Adobe Illustrator 21.0.0, SVG Export Plug-In . SVG Version: 6.00 Build 0)  -->
<svg xmlns="http://www.w3.org/2000/svg" enable-background="new 0 0 90.3 86.1" id="图层_1" version="1.1" preserveAspectRatio="none"
     viewBox="0 0 90.3 86.1" x="0px" xml:space="preserve" y="0px">
<g id="change1_1"><path d="m16.3 5.8c-13.8 7.3-18.8 26.4-15.1 41.5 1.9 7.8 8 12.5 14.8 16 4.4 2.3 8.3 3 13.3 2.2 3.7-0.6 6.7-1 10.5 0 5.3 1.5 9.4 5 12.3 9.5 2.2 3.3 4.2 6.6 7.8 8.7 12.8 7.8 34.1-5.5 29.8-20.7-2.2-8.2-7.1-16.1-14.2-20.5-5.7-3.6-7.7-6.9-8.9-13.2-1.1-6.5-1.4-12.9-5.5-18.5-3.7-5.1-19.6-18.4-44.8-5z" fill="#E598DE"/></g>
</svg>
