<?xml version="1.0" encoding="UTF-8"?><!-- Generator: Adobe Illustrator 21.0.0, SVG Export Plug-In . SVG Version: 6.00 Build 0)  -->
<svg xmlns="http://www.w3.org/2000/svg" enable-background="new 0 0 253.2 237" id="图层_1" version="1.1" preserveAspectRatio="none"
     viewBox="0 0 253.2 237" x="0px" xml:space="preserve" y="0px">
<linearGradient gradientUnits="userSpaceOnUse" id="SVGID_1_" x2="253.25" y1="118.5" y2="118.5">
	<stop offset=".0091878" stop-color="#0ff"/>
    <stop offset="1" stop-color="#7F47DD"/>
</linearGradient>
    <path d="m252.8 11.3c-0.9-2.4-2-5-3.2-7.6-1.1-2.3-3.3-3.7-5.8-3.7h-25c-3 0-5.6 2.1-6.3 5-4.6 20.9 1.4 34-13.6 34-14.4 0-9.2-30-25.2-30-22 0-7.8 31.1-32.5 30-13.7-0.6-12.7-14.8-19.8-34.7-0.9-2.6-3.3-4.3-6.1-4.3h-108.8c-3.5 0-6.3 2.8-6.4 6.3-0.9 32.7 4.2 150.7 31.1 150.7 28.8 0 3.9-83.9 21.9-83.9s9.2 24.4 22.1 26.9c14.9 3 8.1-9 25.7-9s-9 146 35.3 146c40 0 22.5-98.4 40-98.5 15.3 0 9.7 12.5 32 12.5s7-25.7 23.2-22.5c6.8 1.3 7.4 9.4 16.7 7.6 2.9-0.6 5-3.3 5-6.3v-116.2c0.1-0.8 0-1.5-0.3-2.3z"
          fill="url(#SVGID_1_)" opacity=".9"/>
</svg>
