<?xml version="1.0" encoding="UTF-8"?><!-- Generator: Adobe Illustrator 21.0.0, SVG Export Plug-In . SVG Version: 6.00 Build 0)  -->
<svg xmlns="http://www.w3.org/2000/svg" enable-background="new 0 0 92.5 56.2" id="图层_1" version="1.1"
     viewBox="0 0 92.5 56.2" x="0px" preserveAspectRatio="none" xml:space="preserve" y="0px">
<g id="change1_1"><path d="m83.7 52.3c11-4.9 11-17.5 3.9-27.4-3.6-5.1-10.4-8.1-17.6-10.4-4.6-1.5-8.4-1.9-12.8-1.4-3.2 0.4-6 0.7-9.7 0.1-5.2-1-9.9-3.2-13.7-6.1-2.8-2.1-5.5-4.3-9.3-5.6-13.7-5.1-30.2 3.8-22.6 13.8 4.1 5.3 10.5 10.5 18.1 13.3 6.1 2.3 8.8 4.5 11.5 8.6 2.6 4.3 4.4 8.4 9.6 12.1 4.7 3.3 22.6 11.9 42.6 3z" fill="#F9AC24"/></g>
</svg>
