<?xml version="1.0" encoding="UTF-8"?><!-- Generator: Adobe Illustrator 21.0.0, SVG Export Plug-In . SVG Version: 6.00 Build 0)  -->
<svg xmlns="http://www.w3.org/2000/svg" enable-background="new 0 0 262.2 175.9" id="图层_1" version="1.1"
     viewBox="0 0 262.2 175.9" x="0px" preserveAspectRatio="none" xml:space="preserve" y="0px">
<g id="change1_1"><path d="m3.4 138.5c-14.9-19.8 24.3-30.7 23.9-50-0.2-9.9-32.1-16.3-25.2-31.5 6-13.2 32.6-13.9 41-19.3 12.8-8.4-11.1-28.2 32-35.6 42-7.1 74.6 4.6 88.4 22.7 8 9.6 9.4 18.7 2.2 28.3-6.5 8.5-8 18.1 5.1 26 21.7 12.4 62.3 18.9 82.5 32.2 13 9 23.3 46.5-55.7 59.6-93 15.6-176.2-8.5-194.2-32.4z" fill="#F9BA37"/></g>
</svg>
