<svg class="_3n3aMw" width="1704" height="192.980405181003" viewBox="0 0 301.1 34.1" xmlns="http://www.w3.org/2000/svg">
    <path class="DnjQGA"
          d="M299.7,14.6L279.1,0.7C277.70000000000005,-0.20000000000000007 275.90000000000003,0.09999999999999998 274.90000000000003,1.5C273.90000000000003,2.9 274.3,4.7 275.70000000000005,5.7L288,14H12.8L25.3,5.6C26.7,4.699999999999999 27,2.8 26.1,1.3999999999999995C25.200000000000003,-8.881784197001252e-16 23.4,-0.4 22,0.5L1.3,14.4C0.5,15 0,15.9 0,16.9C0,17.9 0.5,18.799999999999997 1.3,19.4L22,33.3C22.5,33.599999999999994 23.1,33.8 23.7,33.8 24.7,33.8 25.599999999999998,33.3 26.2,32.5 27.099999999999998,31.1 26.8,29.3 25.4,28.3L12.899999999999999,19.9H288.5L275.8,28.5C274.40000000000003,29.4 274.1,31.3 275,32.7 275.6,33.6 276.5,34 277.5,34 278.1,34 278.7,33.8 279.2,33.5L299.9,19.6C300.7,19 301.2,18.1 301.2,17.1C301.2,16.1 300.59999999999997,15.100000000000001 299.7,14.600000000000001Z"
          fill="#777777"></path>
</svg>
