<svg height="512" viewBox="0 0 128 128" width="512" xmlns="http://www.w3.org/2000/svg"
     xmlns:xlink="http://www.w3.org/1999/xlink">
    <linearGradient id="a" gradientUnits="userSpaceOnUse" x1="127.487" x2=".513" y1="127.484" y2=".51">
        <stop offset="0" stop-color="#64e1dc"/>
        <stop offset="1" stop-color="#ffda2d"/>
    </linearGradient>
    <path d="m25.877 1.747v15.689a1.75 1.75 0 0 1 -3.5 0v-13.936h-18.877v18.873h13.186a1.75 1.75 0 0 1 0 3.5h-14.936a1.75 1.75 0 0 1 -1.75-1.75v-22.376a1.751 1.751 0 0 1 1.75-1.747h22.377a1.751 1.751 0 0 1 1.75 1.747zm102.123 0v22.376a1.75 1.75 0 0 1 -1.75 1.75h-22.377a1.75 1.75 0 0 1 -1.75-1.75v-22.376a1.751 1.751 0 0 1 1.75-1.747h22.377a1.751 1.751 0 0 1 1.75 1.747zm-3.5 1.753h-18.877v18.873h18.877zm-98.623 100.371v22.376a1.751 1.751 0 0 1 -1.75 1.75h-22.377a1.751 1.751 0 0 1 -1.75-1.75v-22.376a1.75 1.75 0 0 1 1.75-1.75h22.377a1.75 1.75 0 0 1 1.75 1.75zm-3.5 1.75h-18.877v18.879h18.877zm103.873-3.5a1.75 1.75 0 0 0 -1.75 1.75v20.629h-18.877v-20.629a1.75 1.75 0 0 0 -3.5 0v22.376a1.751 1.751 0 0 0 1.75 1.75h22.377a1.751 1.751 0 0 0 1.75-1.75v-22.376a1.75 1.75 0 0 0 -1.75-1.75zm-15.127 1.75a1.751 1.751 0 0 0 1.75 1.75h4.377a1.75 1.75 0 0 0 0-3.5h-4.377a1.75 1.75 0 0 0 -1.75 1.75zm-72.989-92.686h-4a1.75 1.75 0 0 0 0 3.5h4a1.75 1.75 0 0 0 0-3.5zm14.781 0h-7.391a1.75 1.75 0 0 0 0 3.5h7.391a1.75 1.75 0 0 0 0-3.5zm14.78 0h-7.39a1.75 1.75 0 1 0 0 3.5h7.39a1.75 1.75 0 0 0 0-3.5zm14.78 0h-7.39a1.75 1.75 0 0 0 0 3.5h7.39a1.75 1.75 0 0 0 0-3.5zm11.391 0h-4a1.75 1.75 0 0 0 0 3.5h4a1.75 1.75 0 0 0 0-3.5zm-55.732 102.124h-4a1.75 1.75 0 1 0 0 3.5h4a1.75 1.75 0 0 0 0-3.5zm29.561 0h-7.39a1.75 1.75 0 0 0 0 3.5h7.39a1.75 1.75 0 0 0 0-3.5zm-14.78 0h-7.391a1.75 1.75 0 0 0 0 3.5h7.391a1.75 1.75 0 0 0 0-3.5zm29.56 0h-7.39a1.75 1.75 0 0 0 0 3.5h7.39a1.75 1.75 0 0 0 0-3.5zm11.391 0h-4a1.75 1.75 0 0 0 0 3.5h4a1.75 1.75 0 1 0 0-3.5zm21.2-73.428a1.75 1.75 0 0 0 1.75-1.75v-4a1.75 1.75 0 1 0 -3.5 0v4a1.75 1.75 0 0 0 1.746 1.75zm-1.75 42.591a1.75 1.75 0 0 0 3.5 0v-7.39a1.75 1.75 0 0 0 -3.5 0zm0-14.78a1.75 1.75 0 0 0 3.5 0v-7.392a1.75 1.75 0 0 0 -3.5 0zm0-14.78a1.75 1.75 0 0 0 3.5 0v-7.391a1.75 1.75 0 0 0 -3.5 0zm0 40.951a1.75 1.75 0 0 0 3.5 0v-4a1.75 1.75 0 0 0 -3.5 0zm-100.378-53.982a1.75 1.75 0 0 0 1.75-1.75v-4a1.75 1.75 0 0 0 -3.5 0v4a1.75 1.75 0 0 0 1.75 1.75zm-1.75 27.811a1.75 1.75 0 0 0 3.5 0v-7.392a1.75 1.75 0 1 0 -3.5 0zm0 14.78a1.75 1.75 0 0 0 3.5 0v-7.39a1.75 1.75 0 0 0 -3.5 0zm0-29.56a1.75 1.75 0 0 0 3.5 0v-7.391a1.75 1.75 0 0 0 -3.5 0zm0 40.951a1.75 1.75 0 0 0 3.5 0v-4a1.75 1.75 0 0 0 -3.5 0z"
          fill="url(#a)"/>
</svg>
