<?xml version="1.0" encoding="utf-8"?>
<!-- Generator: Adobe Illustrator 18.1.1, SVG Export Plug-In . SVG Version: 6.00 Build 0)  -->
<!DOCTYPE svg PUBLIC "-//W3C//DTD SVG 1.1//EN" "http://www.w3.org/Graphics/SVG/1.1/DTD/svg11.dtd">
<svg version="1.1" id="Layer_1" xmlns="http://www.w3.org/2000/svg" xmlns:xlink="http://www.w3.org/1999/xlink" x="0px"
  y="0px" viewBox="0 0 309956 180208" xml:space="preserve" preserveAspectRatio="none">

  <g>
    <defs cursor="default"></defs>
    <g id="editor-p1">
      <path fill="#fff" fill-opacity="1" d="M 0 0 L 365760 0 365760 205740 0 205740 Z"></path>
      <g id="editor-p1-bg">
        <g>
          <g>
            <path fill="#FAF2DD" fill-opacity="1" d="M 0 0 L 365760 0 365760 205740 0 205740 Z"></path>
          </g>
        </g>
      </g>
      <g id="editor-p52_i9">
        <g id="editor-p52_i10">
          <g id="editor-p52_i11">
            <g>
              <g>
                <path fill="#FFD692" fill-opacity="1"
                  d="M 365766.8929 142450.0309 C 365150.8725 142668.8045 364500.3089 142919.2427 363887.1671 143172.5595 328126.3193 158328.3885 287866.2197 165760.93370000002 240133.2745 165760.93370000002 218915.1139 165760.93370000002 196217.3529 164292.8477 171783.79609999998 161379.70450000002 167638.6121 160939.27870000002 163487.6709 160723.3837 159362.6371 160723.3837 133417.8153 160723.3837 108520.8039 169275.7043 92314.28589999999 184172.45930000002 88013.6575 187569.2073 83571.97769999999 191507.13210000002 78767.5943 196202.1287 75480.2331 199417.52490000002 72408.76689999999 202595.49930000002 69593.49609999999 205557.5787 L 365766.8929 205557.5787 365766.8929 142450.0309 Z">
                </path>
              </g>
            </g>
          </g>
          <g id="editor-p52_i12">
            <g>
              <g>
                <path fill="#FFD692" fill-opacity="1"
                  d="M 365766.89290000004 101668.90470000001 C 358613.57190000004 101847.37790000002 351497.6727 102247.50330000001 344416.3167 102860.64510000002 337950.98110000003 103401.82190000002 331773.5055 104124.35050000002 326065.2417 104990.80910000001 300238.4425 109507.33250000002 283982.9883 119116.09930000002 266789.1105 129266.04290000001 260430.2831 133022.61590000003 253964.9475 136851.15390000003 246883.5915 140463.79690000002 237312.2465 144401.72170000002 227340.77610000002 148014.36470000003 216324.3739 150613.7405 201873.80190000002 154082.4535 186090.4381 155780.8275 170013.4571 157044.53290000002 163150.87470000001 157297.84970000002 156178.90550000002 157479.20150000002 149100.42810000002 157623.13150000002 135119.06790000002 157948.41330000001 120633.95270000001 158273.6951 106436.69750000001 159609.3655 98923.55150000002 160150.54230000003 92892.88450000001 160657.17590000003 87472.48070000001 161198.35270000002 65005.00770000001 163509.8685 49362.695300000014 167087.9683 36757.30590000001 172758.8103 21043.028500000008 179802.74450000003 10314.48630000001 190712.6385 6448.52650000001 203461.95790000004 6267.17470000001 204112.52150000003 6051.27970000001 204835.05010000002 5869.92790000001 205557.5787 L 7314.98510000001 205557.5787 C 7496.336900000009 204835.05010000002 7677.68870000001 204184.4865 7859.04050000001 203608.76650000003 11650.15670000001 191072.4635 22197.34710000001 180343.92130000002 37586.34270000001 173443.91710000002 50013.25890000001 167845.0401 65474.219500000014 164341.7839 87725.79750000002 162030.26810000002 93108.7795 161489.09130000003 99104.9033 160982.45770000003 106618.04930000001 160441.2809 120656.98150000001 159151.6681 134943.4733 158820.62910000002 148809.6895 158498.22590000002 L 148809.6895 158498.22590000002 C 120464.1153 160438.40230000002 92800.76930000001 162718.25350000002 71686.23830000001 172324.14170000004 54745.67730000001 180056.0613 45174.33230000001 191541.6753 41705.61930000001 203174.09790000002 41489.72430000001 203931.16970000003 41270.95070000001 204728.5419 41055.05570000001 205557.5787 L 67967.0871 205557.5787 C 70857.20150000001 202486.11250000002 74107.14090000001 199126.78630000004 77538.4321 195767.46010000003 82380.23730000001 191037.9203 86821.9171 187062.5737 91157.08870000001 183703.2475 107593.8947 168576.20450000002 132968.7537 159885.71110000001 159425.9663 159885.71110000001 163614.3293 159885.71110000001 167828.59970000002 160104.48470000003 172037.1129 160547.78910000002 196390.0689 163452.29650000003 219001.4719 164917.5039 240130.3959 164917.5039 287581.2383 164917.5039 327567.87090000004 157533.8949 363055.2517 142487.45270000002 363959.1321 142090.2059 364863.0125 141764.9241 365766.89290000004 141477.06410000002 L 365766.89290000004 114996.82270000002 C 358469.6419 113321.47750000002 350432.5907 112564.40570000002 342294.7885 112564.40570000002 333592.7807 112564.40570000002 324778.5075 113430.86430000002 316637.82670000003 114962.27950000002 297564.2231 118609.46570000002 281383.6125 125400.08310000002 265850.6869 132265.54410000003 262923.1507 133563.79270000002 259961.0713 134864.9199 257036.4137 136166.04710000003 260721.0217 134070.42630000002 264258.8211 131974.80550000002 267799.4991 129879.18470000001 284849.44690000004 119801.20610000001 300960.9711 110264.40430000002 326427.9453 105822.72450000001 332064.2441 104956.26590000001 338166.8761 104233.73730000002 344635.09030000004 103689.68190000001 351641.6027 103113.96190000002 358685.5369 102716.71510000002 365766.89290000004 102535.36330000001 L 365766.89290000004 101668.90470000001 Z">
                </path>
              </g>
            </g>
          </g>
        </g>
        <g id="editor-p52_i13">
          <g id="editor-p52_i14">
            <g>
              <g>
                <path fill="#FFD692" fill-opacity="1"
                  d="M -0.47000000008847564 -0.3425000000279397 L -0.47000000008847564 53771.20749999997 C 255.1699999999115 53550.42749999997 473.0449999999115 53370.31749999997 728.6849999999115 53149.53749999997 14710.44999999991 40228.09749999997 30441.02499999991 33877.76749999997 49091.124999999905 33877.76749999997 57379.08999999991 33877.76749999997 66245.1499999999 35129.82249999997 75788.07499999991 37622.31249999997 77403.2549999999 37994.15249999997 79018.43499999991 38177.16749999997 80624.8999999999 38177.16749999997 90772.0649999999 38177.16749999997 100521.24499999991 30873.99749999997 106848.3349999999 18190.767499999973 108524.5199999999 15311.912499999971 110276.2349999999 11956.637499999972 112135.43499999991 7947.737499999971 113410.72999999991 5214.1324999999715 114648.25999999991 2477.6224999999718 115743.4449999999 -0.3425000000279397 Z">
                </path>
              </g>
            </g>
          </g>
          <g id="editor-p52_i15">
            <g>
              <g>
                <path fill="#FFD692" fill-opacity="1"
                  d="M 116362.2099999999 -0.3425000000279397 C 115232.1649999999 2588.012499999972 113956.86999999991 5432.0074999999715 112608.94999999991 8310.862499999972 110711.9849999999 12357.527499999971 108998.0349999999 15712.80249999997 107321.8499999999 18591.657499999972 100869.8449999999 31498.57249999997 90963.79499999991 38912.13249999997 80610.37499999991 38912.13249999997 78974.85999999991 38912.13249999997 77327.7249999999 38729.11749999997 75680.58999999991 38351.46749999997 66152.1899999999 35864.78749999997 57306.46499999991 34609.82749999997 49041.73999999991 34609.82749999997 30525.26999999991 34609.82749999997 14919.60999999991 40904.96249999997 1056.9499999999114 53733.44249999997 693.8249999999115 54026.84749999997 365.5599999999115 54317.34749999997 -0.47000000008847564 54607.84749999997 L -0.47000000008847564 77136.12249999997 C 2846.429999999911 78559.57249999997 5980.924999999911 79204.48249999997 9153.18499999991 79204.48249999997 12563.654999999912 79204.48249999997 16020.60499999991 78460.80249999996 19213.19999999991 77136.12249999997 26649.99999999991 74074.25249999997 32991.61499999991 68278.77749999997 39042.72999999991 62445.53749999997 40210.539999999906 61315.49249999997 41340.58499999991 60185.447499999966 42505.48999999991 59093.16749999997 L 42505.48999999991 59093.16749999997 C 41084.94499999991 60879.74249999997 39661.49499999991 62666.31749999997 38278.71499999991 64449.98749999997 31605.92999999991 73054.59749999997 25299.17499999991 81147.92749999996 15384.40999999991 84973.81249999997 13159.179999999911 85702.96749999997 10791.60499999991 86286.87249999997 8238.109999999911 86760.38749999997 5504.504999999911 87271.66749999997 2770.8999999999114 87599.93249999997 -0.47000000008847564 87782.94749999997 L -0.47000000008847564 88474.33749999997 C 2770.8999999999114 88329.08749999997 5577.129999999911 88000.82249999997 8348.49999999991 87489.54249999997 10864.22999999991 87016.02749999997 13269.56999999991 86397.26249999997 15529.65999999991 85668.10749999997 25592.57999999991 81804.45749999996 31971.959999999908 73638.50249999997 38679.60499999991 64961.267499999965 41157.569999999905 61754.14749999997 43708.15999999991 58471.49749999997 46517.29499999991 55374.767499999965 50235.694999999905 52057.25749999997 54099.34499999991 48995.38749999997 58401.64999999991 46770.15749999997 64051.874999999905 43853.53749999997 70210.4749999999 42395.22749999997 76482.36999999991 41340.71249999997 79178.2099999999 41085.07249999997 81914.7199999999 40939.82249999997 84648.32499999991 40829.432499999966 90115.5349999999 40536.02749999997 95803.5249999999 40245.52749999997 101343.3599999999 39153.24749999997 104259.97999999991 38676.82749999997 106630.4599999999 38241.07749999997 108745.2999999999 37767.56249999997 117530.0199999999 35797.97249999997 123618.8999999999 32773.86749999997 128574.8299999999 27925.42249999997 134698.5699999999 21946.93249999997 138890.4849999999 12650.932499999972 140386.5599999999 1751.372499999972 140459.1849999999 1202.327499999972 140569.5749999999 621.327499999972 140642.1999999999 -0.3425000000279397 L 140058.2949999999 -0.3425000000279397 C 139985.6699999999 583.562499999972 139913.0449999999 1129.702499999972 139840.4199999999 1640.9824999999719 138382.1099999999 12322.66749999997 134262.8199999999 21470.51249999997 128246.5649999999 27341.51749999997 123363.25999999991 32117.33749999997 117347.0049999999 35106.58249999997 108634.9099999999 37038.40749999997 106557.8349999999 37511.92249999997 104187.35499999991 37947.67249999997 101270.7349999999 38424.09249999997 95730.8999999999 39516.37249999997 90080.6749999999 39806.87249999997 84648.32499999991 40100.27749999997 L 84503.07499999991 40100.27749999997 C 95693.13499999991 38458.95249999997 106592.6949999999 36564.89249999997 114903.8999999999 28288.54749999997 121538.9199999999 21726.15249999997 125295.0849999999 11921.777499999971 126643.0049999999 2004.1074999999719 126715.6299999999 1347.577499999972 126788.2549999999 693.952499999972 126898.6449999999 -0.3425000000279397 Z">
                </path>
              </g>
            </g>
          </g>
        </g>
      </g>
    </g>
  </g>
</svg>