<svg xmlns="http://www.w3.org/2000/svg" xmlns:xlink="http://www.w3.org/1999/xlink" version="1.1" fill-rule="evenodd"
  fill="none" stroke="none" stroke-linecap="square" stroke-miterlimit="10" overflow="hidden" preserveAspectRatio="none" width="776px" height="417px" viewBox="0 0 360000 200000">
  <rect fill="#ffffff" fill-opacity="0" width="100%" height="100%"></rect>
  <g>
    <defs cursor="default"></defs>
    <g id="editor-p2">
      <path fill="#fff" fill-opacity="1" d="M 0 0 L 365760 0 365760 205740 0 205740 Z"></path>
      <g id="editor-p2-bg">
        <g>
          <g>
            <path fill="#FAF2DD" fill-opacity="1" d="M 0 0 L 365760 0 365760 205740 0 205740 Z"></path>
          </g>
        </g>
      </g>
      <g id="editor-p53_i35">
        <g id="editor-p53_i36">
          <g id="editor-p53_i37">
            <g>
              <g>
                <path fill="#FDD592" fill-opacity="1"
                  d="M 353618.0096 53439.23110000003 L 353618.0096 53439.23110000003 C 356814.93439999997 54557.659900000035 359982.1664 55552.368700000035 363057.8456 56453.05030000003 363956.05279999995 56732.65750000003 364856.73439999996 56980.09750000003 365757.41599999997 57227.537500000035 L 365757.41599999997 62446.04710000003 C 361627.64239999995 59649.97510000003 357591.89599999995 56638.63030000003 353618.0096 53439.23110000003 Z">
                </path>
              </g>
            </g>
          </g>
          <g id="editor-p53_i38">
            <g>
              <g>
                <path fill="#FDD592" fill-opacity="1"
                  d="M 244130.4491 2.0122386764909144 C 243232.2419 7418.768178759805 243355.9619 16278.773444271892 246025.8395 22358.800631425518 241896.0659 18611.782845869486 238728.8339 13342.147465179483 236182.6763 7943.016486549417 235034.5547 5453.359184217874 233945.8187 2752.7493755646137 233324.7443 2.0122386764909144 Z">
                </path>
              </g>
            </g>
          </g>
          <g id="editor-p53_i39">
            <g>
              <g>
                <path fill="#FDD592" fill-opacity="1"
                  d="M 365757.41599999997 2.0887000000156464 L 365757.41599999997 19997.715100000016 C 361845.3896 13136.203900000017 357559.7288 6304.385500000016 353026.62799999997 2.0887000000156464 Z">
                </path>
              </g>
            </g>
          </g>
          <g id="editor-p53_i40">
            <g>
              <g>
                <path fill="#FDD592" fill-opacity="1"
                  d="M 352281.93025624997 2.012241921177041 C 357032.77825624996 5532.736049096623 361536.18625624996 11612.772681531564 365757.51265625 17903.76214800152 L 365757.51265625 47861.153222894805 C 364921.16545624996 47652.28903078093 364082.34385625 47441.33619674591 363243.52225624997 47232.472004632036 359702.65585624997 46340.621904305786 356040.54385625 45371.492052897396 352375.95745625 44270.77776045727 340887.31825625 36381.97722431616 329925.72625625 27313.094002731646 318498.94705625 17876.609803026713 L 314804.66785624996 14810.48346279501 C 312599.97745625 13081.087952092113 310207.23265625 11873.852921673908 307693.24225625 11220.108000357475 306178.90945624997 10827.443319183389 304582.92145625 10635.288262438622 302927.54785624996 10635.288262438622 302039.23825625 10635.288262438622 301131.13345624995 10689.59295238823 300210.65665625 10800.290974208585 292354.43665625 12032.589707680454 285428.59105625 16120.061947349015 278722.96705624997 20078.03838790697 273786.53905625 23014.668929028074 268662.05665625 26001.426876256504 263260.44145625 27810.190779962675 262325.11825625 27900.00238257164 261394.74385624996 27950.129788678973 260471.79265624998 27950.129788678973 257376.31825624997 27950.129788678973 254347.65265625 27400.816963419475 251427.86065624998 26028.57922123131 249908.57905625 25293.377264990464 248478.37585624997 24376.463461610547 247112.50705624997 23275.74916917042 243883.41505624997 17327.29697776722 243727.52785624997 7863.6604330874825 244690.06945625 2.012241921177041 Z">
                </path>
              </g>
            </g>
          </g>
          <g id="editor-p53_i41">
            <g>
              <g>
                <path fill="#FDD592" fill-opacity="1"
                  d="M 231400.06705624997 2.0122405938054437 C 229103.82385624998 8730.441281946794 234072.41905625 19633.1451814114 240560.29585624998 24716.896386640685 244257.04945624998 27601.30904663314 248510.54305624997 29514.503830523867 252858.06385624997 30195.40066409196 254253.62545624998 30412.619285843746 255641.76385624998 30510.785393750804 257020.00465624998 30510.785393750804 265672.98145624995 30510.785393750804 273910.25905625 26617.559326968807 280742.07745625 23407.31873434867 281425.01185625 23066.870317564622 282169.80625625 22726.421900780577 282914.60065624997 22331.66882855858 L 282914.60065624997 22331.66882855858 C 281734.31185625 22726.421900780577 280586.19025625 23144.15001953401 279438.06865624996 23538.903091756005 275090.54785624996 25084.497131143708 270525.27985625 26657.243498250384 266021.87185625 27442.57236150684 270525.27985625 25608.745920179266 274810.94065625 23091.93400468983 279002.57425625 20629.426744638342 285646.33825624996 16696.516506574768 292540.01665625 12634.110551697628 300302.20945624996 11403.901241968766 301168.24945625 11295.291931092874 302021.91745625 11243.075916248696 302863.21345624997 11243.075916248696 304493.84305625 11243.075916248696 306072.51025625 11441.496772656576 307569.52225624997 11821.6293607222 310021.65265625 12452.398820039884 312350.06305625 13630.392114924565 314463.20065625 15307.570511719601 L 318157.47985625 18375.783543963567 C 329057.21185624995 27365.292659537452 339551.14225624996 36039.417045452494 350480.56705625 43667.13249389019 350883.89425625 43955.364895830055 351289.69585625 44243.59729776992 351722.71585624997 44531.82969970979 356287.98385625 47704.474761642115 360944.80465625 50666.16712360396 365757.51265625 53391.84309847011 L 365757.51265625 79942.64232643833 C 360232.17745625 74620.7860935196 353865.54625625 70481.10043667306 347625.10945625 66287.1101243886 340110.35665624996 61253.486293409725 332533.74385624996 55881.50268624057 326914.38145625 48228.72355067768 320424.03025625 39395.86247963633 316356.11665625 27390.35634666266 307351.77505625 22227.236798870224 304088.04145625 20366.25802982368 300576.86785624997 19645.677024974004 296974.14145625 19645.677024974004 293277.38785625 19645.677024974004 289484.13265625 20405.942201105252 285770.05825625 21466.971622738973 285119.29105625 21807.420039523022 284436.35665624996 22122.804769181865 283783.11505625 22438.189498840708 282820.57345625 22910.222273032086 281890.19905625 23380.166406629698 281021.68465625 23799.9831659769 274157.69905625 27024.844242753403 265846.18945625 30945.222637254374 257074.44145624997 30945.222637254374 255649.18705625 30945.222637254374 254211.56065625 30842.879248159785 252764.03665624998 30615.217423439164 248292.79585624998 29934.320589871066 243915.58225624997 27993.97347826137 240156.96865624998 25032.281116299528 233604.75745624996 19869.161568507094 228544.60945624998 8859.936998760359 230811.15985625 2.0122405938054437 Z">
                </path>
              </g>
            </g>
          </g>
          <g id="editor-p53_i42">
            <g>
              <g>
                <path fill="#FDD592" fill-opacity="1"
                  d="M 352375.86079999997 52446.99670000001 L 352375.86079999997 52446.99670000001 C 356040.4472 53751.005500000014 359702.55919999996 54899.12710000001 363243.42559999996 55955.69590000001 364082.2472 56203.13590000001 364921.06879999995 56453.05030000001 365757.41599999997 56700.49030000001 L 365757.41599999997 57227.53750000001 C 364856.73439999996 56980.09750000001 363956.05279999995 56732.657500000016 363057.8456 56453.05030000001 359982.1664 55552.36870000001 356814.93439999997 54557.65990000001 353618.0096 53439.23110000001 353214.6824 53097.76390000001 352779.18799999997 52788.46390000001 352375.86079999997 52446.99670000001 Z">
                </path>
              </g>
            </g>
          </g>
        </g>
        <g id="editor-p53_i43">
          <g>
            <g>
              <path fill="#EA8C6D" fill-opacity="1"
                d="M 82599.1081006527 205822.5924756527 C 79042.07190346718 200634.525046587 70805.94256234169 198601.51980543137 63402.68023324013 196788.29891467094 60207.13145446777 195990.13469481468 57196.66423392296 195264.26795864105 54619.98191547394 194318.61687207222 41736.570323228836 189674.2265202999 32048.70750975609 182996.83092737198 21776.68102812767 175957.94791603088 20617.029389858246 175194.48648834229 19454.485852241516 174396.32226848602 18291.942314624786 173598.15804862976 15353.772577762604 171602.7474989891 12450.305633068085 170006.41905927658 9546.838688373566 168843.87552165985 6643.371743679047 166050.30075216293 3450.714864253998 163728.10557627678 3.5708422660827637 162131.77713656425 L 3.5708422660827637 166484.08565425873 3.5708422660827637 167065.3574230671 3.5708422660827637 205822.5924756527 60100.13117861748 205822.5924756527 C 54654.6847076416 201869.36606788635 46308.66319131851 199327.386541605 40756.21644449234 196062.4321784973 28092.58920264244 188731.46733307838 19963.46013736725 179621.9843890667 10709.382225990295 170006.41905927658 10671.787534475327 170006.41905927658 10671.787534475327 169968.8243677616 10671.787534475327 169968.8243677616 13031.57740187645 171021.47573018074 15426.070061445236 172363.3170273304 17820.562721014023 173997.2401585579 18983.106258630753 174795.40437841415 20142.757896900177 175593.56859827042 21270.598642349243 176391.73281812668 31612.03070831299 183468.21052098274 41337.488213300705 190110.903321743 54293.19728922844 194789.99646568298 56942.17709136009 195770.35034441948 59955.53621125221 196496.2170805931 63148.19309067726 197294.38130044937 70661.34759497643 199145.19688272476 78316.20516729355 201068.30994868279 81800.94388079643 205822.5924756527 Z">
              </path>
            </g>
          </g>
        </g>
      </g>
    </g>
  </g>
</svg>