<svg xmlns="http://www.w3.org/2000/svg" xmlns:xlink="http://www.w3.org/1999/xlink" version="1.1" fill-rule="evenodd"
  fill="none" stroke="none" stroke-linecap="square" stroke-miterlimit="10" overflow="hidden" preserveAspectRatio="none"
  viewBox="0 0 28000 28000">
  <g>
    <defs cursor="default"></defs>
    <g id="editor-p2">
      <g id="editor-p31_i9150">
        <g></g>
        <g id="editor-p31_i9151">
          <g>
            <g>
              <path fill="#0A7C7F" fill-opacity="1"
                d="M 4216.3046 4119.0093999999945 C 3542.420400000001 4119.0093999999945 2864.0536000000006 4389.459599999995 2214.076600000001 5066.332199999994 987.3384000000009 6331.919599999994 386.67000000000087 8319.205599999994 174.49360000000087 10012.134199999993 1.1664000000008847 11397.257599999994 386.67000000000087 12916.858999999995 1493.872200000001 13756.599399999994 2329.130000000001 14400.599599999994 3415.413400000001 14557.490599999994 4489.743200000001 14557.490599999994 4682.495000000001 14557.490599999994 4875.246800000001 14551.513799999993 5066.504400000001 14544.042799999994 6838.625600000001 14463.355999999994 9330.951200000001 14570.938399999994 10465.049 12891.457599999994 11291.341600000002 11664.719399999994 10917.7916 10025.581999999995 10170.6916 8851.140799999994 9584.9652 7932.207799999995 8810.9696 7132.810799999994 8038.468200000001 6358.815199999995 6962.644200000001 5257.589799999994 5598.439600000001 4119.0093999999945 4216.3046 4119.0093999999945 Z">
              </path>
            </g>
            <g>
              <path fill="#000" fill-opacity="0" stroke="#000" stroke-opacity="0" stroke-width="5371.801566579635"
                stroke-linecap="round" stroke-linejoin="round" stroke-miterlimit="10" pointer-events="visiblePainted"
                d="M 4216.3046 4119.0093999999945 C 3542.420400000001 4119.0093999999945 2864.0536000000006 4389.459599999995 2214.076600000001 5066.332199999994 987.3384000000009 6331.919599999994 386.67000000000087 8319.205599999994 174.49360000000087 10012.134199999993 1.1664000000008847 11397.257599999994 386.67000000000087 12916.858999999995 1493.872200000001 13756.599399999994 2329.130000000001 14400.599599999994 3415.413400000001 14557.490599999994 4489.743200000001 14557.490599999994 4682.495000000001 14557.490599999994 4875.246800000001 14551.513799999993 5066.504400000001 14544.042799999994 6838.625600000001 14463.355999999994 9330.951200000001 14570.938399999994 10465.049 12891.457599999994 11291.341600000002 11664.719399999994 10917.7916 10025.581999999995 10170.6916 8851.140799999994 9584.9652 7932.207799999995 8810.9696 7132.810799999994 8038.468200000001 6358.815199999995 6962.644200000001 5257.589799999994 5598.439600000001 4119.0093999999945 4216.3046 4119.0093999999945 Z">
              </path>
            </g>
          </g>
        </g>
        <g id="editor-p31_i9152">
          <g>
            <g>
              <path fill="#2EA19D" fill-opacity="1"
                d="M 3960.796400000006 8111.511799999992 C 3739.654800000006 8111.511799999992 3521.501600000006 8136.913199999992 3306.336800000006 8198.175399999993 3106.114000000006 8265.414399999992 2919.3390000000063 8344.606999999993 2772.9074000000064 8505.980599999992 1093.4266000000061 10237.758399999992 6318.644000000006 11637.823799999991 7252.519000000006 11691.614999999993 7433.317200000006 11702.074399999992 7875.600400000006 11757.359799999991 8320.872000000007 11757.359799999991 8927.517200000006 11757.359799999991 9541.633400000006 11655.754199999992 9517.726200000006 11211.976799999991 9517.726200000006 11131.289999999992 9478.877000000006 11038.649599999992 9425.085800000006 10971.410599999992 8585.345400000006 9652.031999999992 7065.744000000006 8945.275399999991 5598.439600000006 8452.189399999992 5067.998600000006 8271.391199999993 4507.6736000000055 8111.511799999992 3960.796400000006 8111.511799999992 Z">
              </path>
            </g>
            <g>
              <path fill="#000" fill-opacity="0" stroke="#000" stroke-opacity="0" stroke-width="5371.801566579635"
                stroke-linecap="round" stroke-linejoin="round" stroke-miterlimit="10" pointer-events="visiblePainted"
                d="M 3960.796400000006 8111.511799999992 C 3739.654800000006 8111.511799999992 3521.501600000006 8136.913199999992 3306.336800000006 8198.175399999993 3106.114000000006 8265.414399999992 2919.3390000000063 8344.606999999993 2772.9074000000064 8505.980599999992 1093.4266000000061 10237.758399999992 6318.644000000006 11637.823799999991 7252.519000000006 11691.614999999993 7433.317200000006 11702.074399999992 7875.600400000006 11757.359799999991 8320.872000000007 11757.359799999991 8927.517200000006 11757.359799999991 9541.633400000006 11655.754199999992 9517.726200000006 11211.976799999991 9517.726200000006 11131.289999999992 9478.877000000006 11038.649599999992 9425.085800000006 10971.410599999992 8585.345400000006 9652.031999999992 7065.744000000006 8945.275399999991 5598.439600000006 8452.189399999992 5067.998600000006 8271.391199999993 4507.6736000000055 8111.511799999992 3960.796400000006 8111.511799999992 Z">
              </path>
            </g>
          </g>
        </g>
        <g id="editor-p31_i9153">
          <g>
            <g>
              <path fill="#095E72" fill-opacity="1"
                d="M 7239.071200000005 5586.313799999988 C 7865.141000000005 6732.365199999987 8731.777000000006 8452.189399999988 8905.104200000005 9332.273199999989 9278.654200000004 11250.825999999988 8425.466000000004 13357.647999999986 7959.2756000000045 14330.372199999987 8958.895400000005 14143.597199999987 9891.276200000004 13744.645799999988 10465.049000000005 12891.457599999987 11291.341600000005 11664.719399999987 10917.791600000004 10025.581999999988 10170.691600000006 8851.140799999988 9584.965200000004 7932.207799999987 8810.969600000004 7132.810799999988 8038.468200000005 6358.815199999988 7797.902000000005 6092.847599999988 7518.486600000005 5838.833599999988 7239.071200000005 5586.313799999988 Z">
              </path>
            </g>
            <g>
              <path fill="#000" fill-opacity="0" stroke="#000" stroke-opacity="0" stroke-width="5371.801566579635"
                stroke-linecap="round" stroke-linejoin="round" stroke-miterlimit="10" pointer-events="visiblePainted"
                d="M 7239.071200000005 5586.313799999988 C 7865.141000000005 6732.365199999987 8731.777000000006 8452.189399999988 8905.104200000005 9332.273199999989 9278.654200000004 11250.825999999988 8425.466000000004 13357.647999999986 7959.2756000000045 14330.372199999987 8958.895400000005 14143.597199999987 9891.276200000004 13744.645799999988 10465.049000000005 12891.457599999987 11291.341600000005 11664.719399999987 10917.791600000004 10025.581999999988 10170.691600000006 8851.140799999988 9584.965200000004 7932.207799999987 8810.969600000004 7132.810799999988 8038.468200000005 6358.815199999988 7797.902000000005 6092.847599999988 7518.486600000005 5838.833599999988 7239.071200000005 5586.313799999988 Z">
              </path>
            </g>
          </g>
        </g>
        <g id="editor-p31_i9154">
          <g>
            <g>
              <path fill="#0A7C7F" fill-opacity="1"
                d="M 8846.830400000004 14751.736600000004 C 8438.913800000004 14751.736600000004 8032.491400000004 14801.045200000004 7651.470400000004 14890.697200000004 6572.658000000004 15143.217000000004 5546.142600000005 15622.855200000004 4546.522800000004 16103.987600000004 2439.700800000004 17090.159600000003 26.567800000004354 18675.505800000003 1360.8884000000044 21275.413800000002 2173.733200000004 22874.207800000004 3866.6618000000044 24114.393800000005 5438.560200000004 24886.895200000006 6093.019800000005 25214.125000000004 6840.119800000004 25406.876800000005 7573.7720000000045 25406.876800000005 8247.656200000005 25406.876800000005 8909.586800000005 25244.009000000005 9478.877000000004 24874.941600000006 10530.793800000005 24181.632800000003 11050.775400000004 22914.5512 11410.877600000003 21701.260800000004 11930.859200000004 19969.483000000004 12863.240000000003 17610.141200000005 11637.996000000005 15956.061800000003 10982.042200000004 15089.425800000005 9909.206600000005 14751.736600000004 8846.830400000004 14751.736600000004 Z">
              </path>
            </g>
            <g>
              <path fill="#000" fill-opacity="0" stroke="#000" stroke-opacity="0" stroke-width="5371.801566579635"
                stroke-linecap="round" stroke-linejoin="round" stroke-miterlimit="10" pointer-events="visiblePainted"
                d="M 8846.830400000004 14751.736600000004 C 8438.913800000004 14751.736600000004 8032.491400000004 14801.045200000004 7651.470400000004 14890.697200000004 6572.658000000004 15143.217000000004 5546.142600000005 15622.855200000004 4546.522800000004 16103.987600000004 2439.700800000004 17090.159600000003 26.567800000004354 18675.505800000003 1360.8884000000044 21275.413800000002 2173.733200000004 22874.207800000004 3866.6618000000044 24114.393800000005 5438.560200000004 24886.895200000006 6093.019800000005 25214.125000000004 6840.119800000004 25406.876800000005 7573.7720000000045 25406.876800000005 8247.656200000005 25406.876800000005 8909.586800000005 25244.009000000005 9478.877000000004 24874.941600000006 10530.793800000005 24181.632800000003 11050.775400000004 22914.5512 11410.877600000003 21701.260800000004 11930.859200000004 19969.483000000004 12863.240000000003 17610.141200000005 11637.996000000005 15956.061800000003 10982.042200000004 15089.425800000005 9909.206600000005 14751.736600000004 8846.830400000004 14751.736600000004 Z">
              </path>
            </g>
          </g>
        </g>
        <g id="editor-p31_i9155">
          <g>
            <g>
              <path fill="#2EA19D" fill-opacity="1"
                d="M 9691.053400000012 16302.716199999995 C 9347.38740000001 16302.716199999995 8866.255000000012 16597.073599999996 8637.642400000012 16716.609599999996 7651.470400000011 17236.591199999995 6825.177800000011 17995.644799999995 5998.8852000000115 18742.744799999997 5692.574200000011 19022.160199999995 5372.815400000011 19328.471199999996 5226.383800000011 19715.468999999994 5145.697000000011 19942.587399999997 5132.249200000011 20195.107199999995 5132.249200000011 20435.673399999996 5118.801400000011 20741.984399999994 5145.697000000011 21088.638799999993 5345.9198000000115 21341.158599999995 5522.235400000011 21578.736399999994 5825.558000000011 21689.307199999996 6127.386400000011 21689.307199999996 6214.050000000011 21689.307199999996 6302.207800000011 21680.341999999997 6385.883000000011 21662.411599999996 6759.433000000011 21581.724799999996 7079.191800000011 21354.606399999997 7385.502800000011 21115.534399999997 8504.658600000012 20222.002799999995 9384.74240000001 19022.160199999995 9918.171800000011 17675.885999999995 10037.707800000011 17369.574999999997 10278.274000000012 16597.073599999996 9904.724000000011 16356.507399999995 9844.956000000011 16319.152399999995 9771.740200000011 16302.716199999995 9691.053400000012 16302.716199999995 Z">
              </path>
            </g>
            <g>
              <path fill="#000" fill-opacity="0" stroke="#000" stroke-opacity="0" stroke-width="5371.801566579635"
                stroke-linecap="round" stroke-linejoin="round" stroke-miterlimit="10" pointer-events="visiblePainted"
                d="M 9691.053400000012 16302.716199999995 C 9347.38740000001 16302.716199999995 8866.255000000012 16597.073599999996 8637.642400000012 16716.609599999996 7651.470400000011 17236.591199999995 6825.177800000011 17995.644799999995 5998.8852000000115 18742.744799999997 5692.574200000011 19022.160199999995 5372.815400000011 19328.471199999996 5226.383800000011 19715.468999999994 5145.697000000011 19942.587399999997 5132.249200000011 20195.107199999995 5132.249200000011 20435.673399999996 5118.801400000011 20741.984399999994 5145.697000000011 21088.638799999993 5345.9198000000115 21341.158599999995 5522.235400000011 21578.736399999994 5825.558000000011 21689.307199999996 6127.386400000011 21689.307199999996 6214.050000000011 21689.307199999996 6302.207800000011 21680.341999999997 6385.883000000011 21662.411599999996 6759.433000000011 21581.724799999996 7079.191800000011 21354.606399999997 7385.502800000011 21115.534399999997 8504.658600000012 20222.002799999995 9384.74240000001 19022.160199999995 9918.171800000011 17675.885999999995 10037.707800000011 17369.574999999997 10278.274000000012 16597.073599999996 9904.724000000011 16356.507399999995 9844.956000000011 16319.152399999995 9771.740200000011 16302.716199999995 9691.053400000012 16302.716199999995 Z">
              </path>
            </g>
          </g>
        </g>
        <g id="editor-p31_i9156">
          <g>
            <g>
              <path fill="#095E72" fill-opacity="1"
                d="M 8846.830400000003 14751.736600000004 C 8438.913800000002 14751.736600000004 8032.491400000002 14801.045200000004 7651.470400000002 14890.697200000004 6572.658000000002 15143.217000000004 5546.142600000002 15622.855200000004 4546.5228000000025 16103.987600000004 4026.5412000000024 16343.059600000004 3493.111800000002 16622.475000000002 3000.025800000002 16943.728000000003 3000.025800000002 16943.728000000003 4924.555400000002 16241.454000000003 7050.8020000000015 16241.454000000003 7394.468000000002 16241.454000000003 7744.110800000002 16260.878600000004 8092.259400000002 16302.716200000004 9958.515200000002 16543.282400000004 11505.012200000001 18076.331600000005 12171.425400000002 18821.937400000003 12331.304800000002 17795.422000000002 12264.065800000002 16782.354400000004 11637.996000000003 15956.061800000003 10982.042200000002 15089.425800000005 9909.206600000001 14751.736600000004 8846.830400000003 14751.736600000004 Z">
              </path>
            </g>
            <g>
              <path fill="#000" fill-opacity="0" stroke="#000" stroke-opacity="0" stroke-width="5371.801566579635"
                stroke-linecap="round" stroke-linejoin="round" stroke-miterlimit="10" pointer-events="visiblePainted"
                d="M 8846.830400000003 14751.736600000004 C 8438.913800000002 14751.736600000004 8032.491400000002 14801.045200000004 7651.470400000002 14890.697200000004 6572.658000000002 15143.217000000004 5546.142600000002 15622.855200000004 4546.5228000000025 16103.987600000004 4026.5412000000024 16343.059600000004 3493.111800000002 16622.475000000002 3000.025800000002 16943.728000000003 3000.025800000002 16943.728000000003 4924.555400000002 16241.454000000003 7050.8020000000015 16241.454000000003 7394.468000000002 16241.454000000003 7744.110800000002 16260.878600000004 8092.259400000002 16302.716200000004 9958.515200000002 16543.282400000004 11505.012200000001 18076.331600000005 12171.425400000002 18821.937400000003 12331.304800000002 17795.422000000002 12264.065800000002 16782.354400000004 11637.996000000003 15956.061800000003 10982.042200000002 15089.425800000005 9909.206600000001 14751.736600000004 8846.830400000003 14751.736600000004 Z">
              </path>
            </g>
          </g>
        </g>
        <g id="editor-p31_i9157">
          <g>
            <g>
              <path fill="#0A7C7F" fill-opacity="1"
                d="M 15691.76060000001 16089.045599999996 C 15404.87420000001 16089.045599999996 15113.50520000001 16130.883199999997 14823.63040000001 16223.523599999997 13410.11720000001 16676.2662 12689.91280000001 18209.315399999996 12556.92900000001 19582.485199999996 12437.39300000001 20674.745399999996 12556.92900000001 21781.947599999996 12677.95920000001 22860.759999999995 12925.996400000009 24985.512399999996 13544.59520000001 27515.192999999996 15926.35000000001 27515.192999999996 16099.67720000001 27515.192999999996 16283.46380000001 27501.745199999998 16476.21560000001 27473.355399999997 18222.93540000001 27234.283399999997 19929.31180000001 26047.8886 21141.108000000007 24848.045999999995 22115.32640000001 23861.873999999996 22754.844000000012 22421.4652 22408.189600000012 21075.190999999995 22101.87860000001 19875.348399999995 21102.25880000001 18995.264599999995 20089.19120000001 18263.106599999996 18856.476200000012 17391.987999999998 17305.49660000001 16089.045599999996 15691.76060000001 16089.045599999996 Z">
              </path>
            </g>
            <g>
              <path fill="#000" fill-opacity="0" stroke="#000" stroke-opacity="0" stroke-width="5371.801566579635"
                stroke-linecap="round" stroke-linejoin="round" stroke-miterlimit="10" pointer-events="visiblePainted"
                d="M 15691.76060000001 16089.045599999996 C 15404.87420000001 16089.045599999996 15113.50520000001 16130.883199999997 14823.63040000001 16223.523599999997 13410.11720000001 16676.2662 12689.91280000001 18209.315399999996 12556.92900000001 19582.485199999996 12437.39300000001 20674.745399999996 12556.92900000001 21781.947599999996 12677.95920000001 22860.759999999995 12925.996400000009 24985.512399999996 13544.59520000001 27515.192999999996 15926.35000000001 27515.192999999996 16099.67720000001 27515.192999999996 16283.46380000001 27501.745199999998 16476.21560000001 27473.355399999997 18222.93540000001 27234.283399999997 19929.31180000001 26047.8886 21141.108000000007 24848.045999999995 22115.32640000001 23861.873999999996 22754.844000000012 22421.4652 22408.189600000012 21075.190999999995 22101.87860000001 19875.348399999995 21102.25880000001 18995.264599999995 20089.19120000001 18263.106599999996 18856.476200000012 17391.987999999998 17305.49660000001 16089.045599999996 15691.76060000001 16089.045599999996 Z">
              </path>
            </g>
          </g>
        </g>
        <g id="editor-p31_i9158">
          <g>
            <g>
              <path fill="#2EA19D" fill-opacity="1"
                d="M 15258.442600000006 17696.804799999998 C 15086.609600000007 17696.804799999998 14941.672200000006 17770.020599999996 14837.078200000007 17943.347799999996 14517.319400000006 18488.730799999998 14983.509800000007 19515.246199999998 15183.732600000007 20048.675599999995 15422.804600000007 20728.536599999996 15742.563400000006 21394.9498 16089.217800000006 22034.467399999998 16422.424400000007 22675.479199999998 16822.870000000006 23341.892399999997 17448.939800000007 23700.500399999997 17704.448000000008 23845.437799999996 18007.770600000007 23920.1478 18303.622200000005 23920.1478 18747.399600000004 23920.1478 19176.235000000008 23749.808999999997 19409.330200000008 23380.741599999998 19729.089000000007 22874.207799999996 19582.657400000007 22194.346799999996 19315.195600000006 21648.963799999998 18968.541200000007 20955.655 18448.559600000008 20354.986599999997 17916.624400000008 19796.155799999997 17540.086000000007 19419.617399999996 16092.206200000006 17696.804799999998 15258.442600000006 17696.804799999998 Z">
              </path>
            </g>
            <g>
              <path fill="#000" fill-opacity="0" stroke="#000" stroke-opacity="0" stroke-width="5371.801566579635"
                stroke-linecap="round" stroke-linejoin="round" stroke-miterlimit="10" pointer-events="visiblePainted"
                d="M 15258.442600000006 17696.804799999998 C 15086.609600000007 17696.804799999998 14941.672200000006 17770.020599999996 14837.078200000007 17943.347799999996 14517.319400000006 18488.730799999998 14983.509800000007 19515.246199999998 15183.732600000007 20048.675599999995 15422.804600000007 20728.536599999996 15742.563400000006 21394.9498 16089.217800000006 22034.467399999998 16422.424400000007 22675.479199999998 16822.870000000006 23341.892399999997 17448.939800000007 23700.500399999997 17704.448000000008 23845.437799999996 18007.770600000007 23920.1478 18303.622200000005 23920.1478 18747.399600000004 23920.1478 19176.235000000008 23749.808999999997 19409.330200000008 23380.741599999998 19729.089000000007 22874.207799999996 19582.657400000007 22194.346799999996 19315.195600000006 21648.963799999998 18968.541200000007 20955.655 18448.559600000008 20354.986599999997 17916.624400000008 19796.155799999997 17540.086000000007 19419.617399999996 16092.206200000006 17696.804799999998 15258.442600000006 17696.804799999998 Z">
              </path>
            </g>
          </g>
        </g>
        <g id="editor-p31_i9159">
          <g>
            <g>
              <path fill="#095E72" fill-opacity="1"
                d="M 15688.77220000001 16086.057199999981 C 15401.885800000011 16086.057199999981 15112.01100000001 16127.894799999982 14823.63040000001 16223.52359999998 13410.11720000001 16676.26619999998 12689.91280000001 18209.31539999998 12556.92900000001 19582.48519999998 12437.39300000001 20674.74539999998 12556.92900000001 21781.94759999998 12677.95920000001 22860.75999999998 12689.91280000001 22927.99899999998 12689.91280000001 22981.79019999998 12703.360600000009 23034.08719999998 13531.147400000009 19315.02339999998 16516.55900000001 17315.783799999983 17689.50600000001 16649.37059999998 17042.51740000001 16322.140799999981 16370.12740000001 16086.057199999981 15688.77220000001 16086.057199999981 Z">
              </path>
            </g>
            <g>
              <path fill="#000" fill-opacity="0" stroke="#000" stroke-opacity="0" stroke-width="5371.801566579635"
                stroke-linecap="round" stroke-linejoin="round" stroke-miterlimit="10" pointer-events="visiblePainted"
                d="M 15688.77220000001 16086.057199999981 C 15401.885800000011 16086.057199999981 15112.01100000001 16127.894799999982 14823.63040000001 16223.52359999998 13410.11720000001 16676.26619999998 12689.91280000001 18209.31539999998 12556.92900000001 19582.48519999998 12437.39300000001 20674.74539999998 12556.92900000001 21781.94759999998 12677.95920000001 22860.75999999998 12689.91280000001 22927.99899999998 12689.91280000001 22981.79019999998 12703.360600000009 23034.08719999998 13531.147400000009 19315.02339999998 16516.55900000001 17315.783799999983 17689.50600000001 16649.37059999998 17042.51740000001 16322.140799999981 16370.12740000001 16086.057199999981 15688.77220000001 16086.057199999981 Z">
              </path>
            </g>
          </g>
        </g>
        <g id="editor-p31_i9160">
          <g>
            <g>
              <path fill="#0A7C7F" fill-opacity="1"
                d="M 14998.45179999999 -0.5 C 14182.61859999999 -0.5 13371.26799999999 93.63459999999999 12637.615799999989 241.5604 11210.65479999999 520.9757999999999 9837.48499999999 1401.0596 9357.84679999999 2760.7816 8931.999799999989 3986.0256 9305.54979999999 5332.2998 9758.29239999999 6545.5902 10424.70559999999 8265.4144 11131.462199999989 10771.1878 13157.59739999999 11344.9606 13404.14039999999 11413.6938 13652.177599999988 11445.072 13897.226399999989 11445.072 15119.481999999989 11445.072 16283.46379999999 10653.146 17049.988399999987 9731.2246 17768.69859999999 8851.1408 18302.12799999999 7826.1196 18822.10959999999 6813.052 19902.41619999999 4692.7822 20875.14039999999 1921.0412 18182.59199999999 627.064 17229.29239999999 174.32139999999998 16108.64239999999 -0.5 14998.45179999999 -0.5 Z">
              </path>
            </g>
            <g>
              <path fill="#000" fill-opacity="0" stroke="#000" stroke-opacity="0" stroke-width="5371.801566579635"
                stroke-linecap="round" stroke-linejoin="round" stroke-miterlimit="10" pointer-events="visiblePainted"
                d="M 14998.45179999999 -0.5 C 14182.61859999999 -0.5 13371.26799999999 93.63459999999999 12637.615799999989 241.5604 11210.65479999999 520.9757999999999 9837.48499999999 1401.0596 9357.84679999999 2760.7816 8931.999799999989 3986.0256 9305.54979999999 5332.2998 9758.29239999999 6545.5902 10424.70559999999 8265.4144 11131.462199999989 10771.1878 13157.59739999999 11344.9606 13404.14039999999 11413.6938 13652.177599999988 11445.072 13897.226399999989 11445.072 15119.481999999989 11445.072 16283.46379999999 10653.146 17049.988399999987 9731.2246 17768.69859999999 8851.1408 18302.12799999999 7826.1196 18822.10959999999 6813.052 19902.41619999999 4692.7822 20875.14039999999 1921.0412 18182.59199999999 627.064 17229.29239999999 174.32139999999998 16108.64239999999 -0.5 14998.45179999999 -0.5 Z">
              </path>
            </g>
          </g>
        </g>
        <g id="editor-p31_i9161">
          <g>
            <g>
              <path fill="#2EA19D" fill-opacity="1"
                d="M 14562.145399999989 1761.1618000000017 C 14511.342599999989 1761.1618000000017 14460.539799999988 1765.6444000000017 14409.736999999988 1773.1154000000017 14076.530399999989 1826.9066000000016 13783.667199999989 2027.1294000000016 13569.996599999988 2267.695600000002 12930.478999999988 2986.4058000000014 12903.583399999989 4039.8168000000014 12943.926799999988 4999.093200000001 12997.717999999988 6185.488000000001 13130.701799999988 7371.882800000001 13330.92459999999 8544.829800000001 13393.680999999988 8895.966800000002 13384.715799999989 9741.684000000001 13804.585999999988 9741.684000000001 13831.481599999988 9741.684000000001 13859.871399999989 9738.695600000003 13889.75539999999 9731.224600000001 14236.409799999989 9638.584200000001 14463.528199999988 8945.275400000002 14569.616399999988 8665.86 15236.029599999989 6786.156400000002 15836.69799999999 4786.916800000002 15557.282599999988 2813.0786000000016 15516.939199999988 2560.5588000000016 15463.147999999988 2293.0970000000016 15303.268599999989 2094.3684000000017 15123.964599999988 1880.6978000000017 14838.572399999988 1761.1618000000017 14562.145399999989 1761.1618000000017 Z">
              </path>
            </g>
            <g>
              <path fill="#000" fill-opacity="0" stroke="#000" stroke-opacity="0" stroke-width="5371.801566579635"
                stroke-linecap="round" stroke-linejoin="round" stroke-miterlimit="10" pointer-events="visiblePainted"
                d="M 14562.145399999989 1761.1618000000017 C 14511.342599999989 1761.1618000000017 14460.539799999988 1765.6444000000017 14409.736999999988 1773.1154000000017 14076.530399999989 1826.9066000000016 13783.667199999989 2027.1294000000016 13569.996599999988 2267.695600000002 12930.478999999988 2986.4058000000014 12903.583399999989 4039.8168000000014 12943.926799999988 4999.093200000001 12997.717999999988 6185.488000000001 13130.701799999988 7371.882800000001 13330.92459999999 8544.829800000001 13393.680999999988 8895.966800000002 13384.715799999989 9741.684000000001 13804.585999999988 9741.684000000001 13831.481599999988 9741.684000000001 13859.871399999989 9738.695600000003 13889.75539999999 9731.224600000001 14236.409799999989 9638.584200000001 14463.528199999988 8945.275400000002 14569.616399999988 8665.86 15236.029599999989 6786.156400000002 15836.69799999999 4786.916800000002 15557.282599999988 2813.0786000000016 15516.939199999988 2560.5588000000016 15463.147999999988 2293.0970000000016 15303.268599999989 2094.3684000000017 15123.964599999988 1880.6978000000017 14838.572399999988 1761.1618000000017 14562.145399999989 1761.1618000000017 Z">
              </path>
            </g>
          </g>
        </g>
        <g id="editor-p31_i9162">
          <g>
            <g>
              <path fill="#095E72" fill-opacity="1"
                d="M 19755.98460000001 4453.7102 L 19755.98460000001 4453.7102 C 17067.91880000001 8381.962 14019.750800000013 9126.0736 12095.22120000001 9126.0736 11539.378800000011 9126.0736 11076.176800000012 9064.8114 10744.464400000012 8999.0666 L 10744.464400000012 8999.0666 C 11277.893800000013 10077.879 12011.546000000011 11011.754 13157.597400000011 11344.9606 13404.140400000011 11413.693800000001 13652.177600000012 11445.072 13897.22640000001 11445.072 15119.48200000001 11445.072 16283.463800000012 10653.146 17049.98840000001 9731.224600000001 17768.69860000001 8851.140800000001 18302.12800000001 7826.1196 18822.10960000001 6813.052 19195.659600000014 6079.3998 19555.76180000001 5266.555 19755.98460000001 4453.7102 Z">
              </path>
            </g>
            <g>
              <path fill="#000" fill-opacity="0" stroke="#000" stroke-opacity="0" stroke-width="5371.801566579635"
                stroke-linecap="round" stroke-linejoin="round" stroke-miterlimit="10" pointer-events="visiblePainted"
                d="M 19755.98460000001 4453.7102 L 19755.98460000001 4453.7102 C 17067.91880000001 8381.962 14019.750800000013 9126.0736 12095.22120000001 9126.0736 11539.378800000011 9126.0736 11076.176800000012 9064.8114 10744.464400000012 8999.0666 L 10744.464400000012 8999.0666 C 11277.893800000013 10077.879 12011.546000000011 11011.754 13157.597400000011 11344.9606 13404.140400000011 11413.693800000001 13652.177600000012 11445.072 13897.22640000001 11445.072 15119.48200000001 11445.072 16283.463800000012 10653.146 17049.98840000001 9731.224600000001 17768.69860000001 8851.140800000001 18302.12800000001 7826.1196 18822.10960000001 6813.052 19195.659600000014 6079.3998 19555.76180000001 5266.555 19755.98460000001 4453.7102 Z">
              </path>
            </g>
          </g>
        </g>
        <g id="editor-p31_i9163">
          <g>
            <g>
              <path fill="#0A7C7F" fill-opacity="1"
                d="M 22638.296400000014 7255.335199999986 C 21456.38420000001 7255.335199999986 20350.676200000013 7903.817999999986 19382.43460000001 8598.620999999986 17876.28100000001 9665.479799999986 15663.370800000012 10984.858399999986 15623.027400000012 13076.738399999986 15609.579600000012 14596.339799999987 16863.21340000001 15809.630199999985 18155.69640000001 16410.298599999987 19182.211800000012 16876.488999999987 20301.367600000012 17129.008799999985 21408.569800000012 17369.574999999986 22184.05960000001 17538.419599999987 23025.29420000001 17677.380199999985 23823.19700000001 17677.380199999985 25410.037400000012 17677.380199999985 26820.56220000001 17130.502999999986 27194.11220000001 15197.008199999986 27527.318800000012 13409.944999999985 26940.09820000001 11344.960599999986 26154.149000000012 9758.120199999987 25526.585000000014 8479.084999999986 24328.23660000001 7371.882799999986 22901.27560000001 7265.794599999986 22813.11780000001 7258.323599999986 22724.960000000014 7255.335199999986 22638.296400000014 7255.335199999986 Z">
              </path>
            </g>
            <g>
              <path fill="#000" fill-opacity="0" stroke="#000" stroke-opacity="0" stroke-width="5371.801566579635"
                stroke-linecap="round" stroke-linejoin="round" stroke-miterlimit="10" pointer-events="visiblePainted"
                d="M 22638.296400000014 7255.335199999986 C 21456.38420000001 7255.335199999986 20350.676200000013 7903.817999999986 19382.43460000001 8598.620999999986 17876.28100000001 9665.479799999986 15663.370800000012 10984.858399999986 15623.027400000012 13076.738399999986 15609.579600000012 14596.339799999987 16863.21340000001 15809.630199999985 18155.69640000001 16410.298599999987 19182.211800000012 16876.488999999987 20301.367600000012 17129.008799999985 21408.569800000012 17369.574999999986 22184.05960000001 17538.419599999987 23025.29420000001 17677.380199999985 23823.19700000001 17677.380199999985 25410.037400000012 17677.380199999985 26820.56220000001 17130.502999999986 27194.11220000001 15197.008199999986 27527.318800000012 13409.944999999985 26940.09820000001 11344.960599999986 26154.149000000012 9758.120199999987 25526.585000000014 8479.084999999986 24328.23660000001 7371.882799999986 22901.27560000001 7265.794599999986 22813.11780000001 7258.323599999986 22724.960000000014 7255.335199999986 22638.296400000014 7255.335199999986 Z">
              </path>
            </g>
          </g>
        </g>
        <g id="editor-p31_i9164">
          <g>
            <g>
              <path fill="#2EA19D" fill-opacity="1"
                d="M 23909.86060000001 10769.693599999999 C 23625.96260000001 10769.693599999999 23340.57040000001 10819.002199999999 23061.15500000001 10877.275999999998 21807.52120000001 11131.289999999999 20609.17280000001 11570.584799999999 19501.97060000001 12171.2532 19103.01920000001 12384.923799999999 18155.69640000001 12770.427399999999 17982.36920000001 13197.7686 17756.74500000001 13765.564599999998 18479.93780000001 13882.1122 18943.13980000001 13882.1122 19001.41360000001 13882.1122 19055.20480000001 13880.617999999999 19103.01920000001 13877.629599999998 20648.02200000001 13783.494999999999 22207.96680000001 13677.406799999999 23700.67260000001 13290.409 24114.56600000001 13184.320799999998 24540.413000000008 13037.889199999998 24873.61960000001 12770.427399999999 25206.82620000001 12491.011999999999 25433.94460000001 12063.670799999998 25341.30420000001 11651.271599999998 25233.72180000001 11223.9304 24834.77040000001 10931.0672 24393.98140000001 10824.979 24234.10200000001 10786.129799999999 24072.72840000001 10769.693599999999 23909.86060000001 10769.693599999999 Z">
              </path>
            </g>
            <g>
              <path fill="#000" fill-opacity="0" stroke="#000" stroke-opacity="0" stroke-width="5371.801566579635"
                stroke-linecap="round" stroke-linejoin="round" stroke-miterlimit="10" pointer-events="visiblePainted"
                d="M 23909.86060000001 10769.693599999999 C 23625.96260000001 10769.693599999999 23340.57040000001 10819.002199999999 23061.15500000001 10877.275999999998 21807.52120000001 11131.289999999999 20609.17280000001 11570.584799999999 19501.97060000001 12171.2532 19103.01920000001 12384.923799999999 18155.69640000001 12770.427399999999 17982.36920000001 13197.7686 17756.74500000001 13765.564599999998 18479.93780000001 13882.1122 18943.13980000001 13882.1122 19001.41360000001 13882.1122 19055.20480000001 13880.617999999999 19103.01920000001 13877.629599999998 20648.02200000001 13783.494999999999 22207.96680000001 13677.406799999999 23700.67260000001 13290.409 24114.56600000001 13184.320799999998 24540.413000000008 13037.889199999998 24873.61960000001 12770.427399999999 25206.82620000001 12491.011999999999 25433.94460000001 12063.670799999998 25341.30420000001 11651.271599999998 25233.72180000001 11223.9304 24834.77040000001 10931.0672 24393.98140000001 10824.979 24234.10200000001 10786.129799999999 24072.72840000001 10769.693599999999 23909.86060000001 10769.693599999999 Z">
              </path>
            </g>
          </g>
        </g>
        <g id="editor-p31_i9165">
          <g>
            <g>
              <path fill="#095E72" fill-opacity="1"
                d="M 17755.250800000013 9758.120200000005 C 16649.54280000001 10624.756200000005 15649.923000000012 11678.167200000005 15623.027400000012 13076.738400000006 15609.579600000012 14596.339800000005 16863.21340000001 15809.630200000005 18155.69640000001 16410.298600000006 19182.211800000012 16876.489000000005 20301.367600000012 17129.008800000003 21408.569800000012 17369.575000000004 22182.56540000001 17541.408000000003 23022.305800000013 17681.862800000003 23817.22020000001 17681.862800000003 24377.54520000001 17681.862800000003 24915.45720000001 17613.129600000004 25393.601200000012 17436.814000000006 23887.447600000014 17302.336000000003 22021.19180000001 16662.818400000004 20355.158800000012 15703.542000000005 18302.12800000001 14544.042800000005 17862.833200000012 10984.858400000005 17755.250800000013 9758.120200000005 Z">
              </path>
            </g>
            <g>
              <path fill="#000" fill-opacity="0" stroke="#000" stroke-opacity="0" stroke-width="5371.801566579635"
                stroke-linecap="round" stroke-linejoin="round" stroke-miterlimit="10" pointer-events="visiblePainted"
                d="M 17755.250800000013 9758.120200000005 C 16649.54280000001 10624.756200000005 15649.923000000012 11678.167200000005 15623.027400000012 13076.738400000006 15609.579600000012 14596.339800000005 16863.21340000001 15809.630200000005 18155.69640000001 16410.298600000006 19182.211800000012 16876.489000000005 20301.367600000012 17129.008800000003 21408.569800000012 17369.575000000004 22182.56540000001 17541.408000000003 23022.305800000013 17681.862800000003 23817.22020000001 17681.862800000003 24377.54520000001 17681.862800000003 24915.45720000001 17613.129600000004 25393.601200000012 17436.814000000006 23887.447600000014 17302.336000000003 22021.19180000001 16662.818400000004 20355.158800000012 15703.542000000005 18302.12800000001 14544.042800000005 17862.833200000012 10984.858400000005 17755.250800000013 9758.120200000005 Z">
              </path>
            </g>
          </g>
        </g>
        <g id="editor-p31_i9166">
          <g>
            <g>
              <path fill="#FFA43C" fill-opacity="1"
                d="M 13121.736600000004 9684.9044 C 12376.130800000003 9684.9044 11637.996000000003 9846.278 11010.432000000004 10172.0136 9038.088000000003 11198.528999999999 9105.327000000003 14183.940599999998 10264.826200000003 16090.539799999999 10953.652400000003 17220.155 12066.831400000003 17698.299 13226.330600000003 17698.299 14556.168600000005 17698.299 15947.268800000003 17067.7466 16822.870000000003 16063.644199999999 18049.608200000002 14650.131 17635.7148 12477.564199999999 16530.006800000003 11131.289999999999 15742.563400000003 10173.5078 14421.690600000004 9684.9044 13121.736600000004 9684.9044 Z">
              </path>
            </g>
            <g>
              <path fill="#000" fill-opacity="0" stroke="#000" stroke-opacity="0" stroke-width="5371.801566579635"
                stroke-linecap="round" stroke-linejoin="round" stroke-miterlimit="10" pointer-events="visiblePainted"
                d="M 13121.736600000004 9684.9044 C 12376.130800000003 9684.9044 11637.996000000003 9846.278 11010.432000000004 10172.0136 9038.088000000003 11198.528999999999 9105.327000000003 14183.940599999998 10264.826200000003 16090.539799999999 10953.652400000003 17220.155 12066.831400000003 17698.299 13226.330600000003 17698.299 14556.168600000005 17698.299 15947.268800000003 17067.7466 16822.870000000003 16063.644199999999 18049.608200000002 14650.131 17635.7148 12477.564199999999 16530.006800000003 11131.289999999999 15742.563400000003 10173.5078 14421.690600000004 9684.9044 13121.736600000004 9684.9044 Z">
              </path>
            </g>
          </g>
        </g>
        <g id="editor-p31_i9167">
          <g>
            <g>
              <path fill="#FFA43C" fill-opacity="1"
                d="M 21850.85299999999 3983.0371999999916 C 21710.39819999999 3983.0371999999916 21568.44919999999 4006.9443999999917 21435.46539999999 4053.264599999992 21021.57199999999 4199.696199999991 20688.36539999999 4532.902799999992 20422.39779999999 4893.004999999992 20141.48819999999 5266.554999999991 19422.77799999999 6306.518199999991 19634.95439999999 6813.0519999999915 19714.14699999999 7004.309599999991 19880.003199999992 7074.536999999991 20083.21439999999 7074.536999999991 20525.49759999999 7074.536999999991 21142.60219999999 6736.847799999991 21408.56979999999 6599.381399999991 21847.86459999999 6358.815199999992 22302.10139999999 6119.743199999992 22581.51679999999 5719.297599999992 22874.37999999999 5318.851999999992 22968.51459999999 4733.125599999991 22660.70939999999 4346.127799999991 22469.45179999999 4098.090599999991 22163.14079999999 3983.0371999999916 21850.85299999999 3983.0371999999916 Z">
              </path>
            </g>
            <g>
              <path fill="#000" fill-opacity="0" stroke="#000" stroke-opacity="0" stroke-width="5371.801566579635"
                stroke-linecap="round" stroke-linejoin="round" stroke-miterlimit="10" pointer-events="visiblePainted"
                d="M 21850.85299999999 3983.0371999999916 C 21710.39819999999 3983.0371999999916 21568.44919999999 4006.9443999999917 21435.46539999999 4053.264599999992 21021.57199999999 4199.696199999991 20688.36539999999 4532.902799999992 20422.39779999999 4893.004999999992 20141.48819999999 5266.554999999991 19422.77799999999 6306.518199999991 19634.95439999999 6813.0519999999915 19714.14699999999 7004.309599999991 19880.003199999992 7074.536999999991 20083.21439999999 7074.536999999991 20525.49759999999 7074.536999999991 21142.60219999999 6736.847799999991 21408.56979999999 6599.381399999991 21847.86459999999 6358.815199999992 22302.10139999999 6119.743199999992 22581.51679999999 5719.297599999992 22874.37999999999 5318.851999999992 22968.51459999999 4733.125599999991 22660.70939999999 4346.127799999991 22469.45179999999 4098.090599999991 22163.14079999999 3983.0371999999916 21850.85299999999 3983.0371999999916 Z">
              </path>
            </g>
          </g>
        </g>
        <g id="editor-p31_i9168">
          <g>
            <g>
              <path fill="#FFA43C" fill-opacity="1"
                d="M 21129.15439999999 4199.696199999991 C 20848.24479999999 4373.023399999991 20622.62059999999 4627.037399999991 20422.39779999999 4893.004999999991 20141.48819999999 5266.554999999991 19422.77799999999 6306.518199999991 19634.95439999999 6813.051999999991 19714.14699999999 7004.309599999991 19880.003199999992 7074.536999999991 20083.21439999999 7074.536999999991 20525.49759999999 7074.536999999991 21142.60219999999 6736.847799999991 21408.56979999999 6599.381399999991 21847.86459999999 6358.815199999992 22302.10139999999 6119.743199999992 22581.51679999999 5719.297599999991 22594.964599999992 5705.849799999991 22608.41239999999 5692.401999999991 22608.41239999999 5678.954199999991 L 22608.41239999999 5678.954199999991 C 22435.08519999999 5799.984399999991 22234.86239999999 5906.072599999991 22048.08739999999 5998.712999999991 21780.625599999992 6137.673599999991 21157.54419999999 6485.822199999991 20710.77839999999 6485.822199999991 20509.06139999999 6485.822199999991 20344.69939999999 6415.594799999992 20262.51839999999 6225.831399999991 20048.84779999999 5719.297599999991 20782.49999999999 4679.334399999992 21048.46759999999 4293.8307999999915 21075.36319999999 4266.935199999991 21102.25879999999 4240.039599999991 21129.15439999999 4199.696199999991 Z">
              </path>
            </g>
            <g>
              <path fill="#000" fill-opacity="0" stroke="#000" stroke-opacity="0" stroke-width="5371.801566579635"
                stroke-linecap="round" stroke-linejoin="round" stroke-miterlimit="10" pointer-events="visiblePainted"
                d="M 21129.15439999999 4199.696199999991 C 20848.24479999999 4373.023399999991 20622.62059999999 4627.037399999991 20422.39779999999 4893.004999999991 20141.48819999999 5266.554999999991 19422.77799999999 6306.518199999991 19634.95439999999 6813.051999999991 19714.14699999999 7004.309599999991 19880.003199999992 7074.536999999991 20083.21439999999 7074.536999999991 20525.49759999999 7074.536999999991 21142.60219999999 6736.847799999991 21408.56979999999 6599.381399999991 21847.86459999999 6358.815199999992 22302.10139999999 6119.743199999992 22581.51679999999 5719.297599999991 22594.964599999992 5705.849799999991 22608.41239999999 5692.401999999991 22608.41239999999 5678.954199999991 L 22608.41239999999 5678.954199999991 C 22435.08519999999 5799.984399999991 22234.86239999999 5906.072599999991 22048.08739999999 5998.712999999991 21780.625599999992 6137.673599999991 21157.54419999999 6485.822199999991 20710.77839999999 6485.822199999991 20509.06139999999 6485.822199999991 20344.69939999999 6415.594799999992 20262.51839999999 6225.831399999991 20048.84779999999 5719.297599999991 20782.49999999999 4679.334399999992 21048.46759999999 4293.8307999999915 21075.36319999999 4266.935199999991 21102.25879999999 4240.039599999991 21129.15439999999 4199.696199999991 Z">
              </path>
            </g>
          </g>
        </g>
        <g id="editor-p31_i9169">
          <g>
            <g>
              <path fill="#FFA43C" fill-opacity="1"
                d="M 7153.9018000000115 2098.850999999995 C 7088.157000000012 2098.850999999995 7022.412200000012 2109.3103999999953 6958.161600000012 2133.217599999995 6759.433000000012 2187.008799999995 6611.507200000012 2360.3359999999952 6532.3146000000115 2547.1109999999953 6358.987400000012 2934.108799999995 6439.674200000011 3400.299199999995 6611.507200000012 3773.849199999995 6798.2822000000115 4159.352799999995 7092.639600000011 4465.663799999995 7372.055000000011 4786.916799999995 7594.690800000011 5023.000399999995 7912.955400000012 5220.234799999995 8175.934600000011 5220.234799999995 8403.05300000001 5220.234799999995 8588.333800000011 5073.803199999995 8637.642400000012 4679.334399999995 8704.881400000011 4107.055799999995 8279.034400000011 3253.867599999995 8011.572600000012 2774.229399999995 7892.036600000012 2587.454399999995 7772.500600000012 2387.231599999995 7585.725600000012 2254.247799999995 7463.201200000012 2160.1131999999952 7309.298600000012 2098.850999999995 7153.9018000000115 2098.850999999995 Z">
              </path>
            </g>
            <g>
              <path fill="#000" fill-opacity="0" stroke="#000" stroke-opacity="0" stroke-width="5371.801566579635"
                stroke-linecap="round" stroke-linejoin="round" stroke-miterlimit="10" pointer-events="visiblePainted"
                d="M 7153.9018000000115 2098.850999999995 C 7088.157000000012 2098.850999999995 7022.412200000012 2109.3103999999953 6958.161600000012 2133.217599999995 6759.433000000012 2187.008799999995 6611.507200000012 2360.3359999999952 6532.3146000000115 2547.1109999999953 6358.987400000012 2934.108799999995 6439.674200000011 3400.299199999995 6611.507200000012 3773.849199999995 6798.2822000000115 4159.352799999995 7092.639600000011 4465.663799999995 7372.055000000011 4786.916799999995 7594.690800000011 5023.000399999995 7912.955400000012 5220.234799999995 8175.934600000011 5220.234799999995 8403.05300000001 5220.234799999995 8588.333800000011 5073.803199999995 8637.642400000012 4679.334399999995 8704.881400000011 4107.055799999995 8279.034400000011 3253.867599999995 8011.572600000012 2774.229399999995 7892.036600000012 2587.454399999995 7772.500600000012 2387.231599999995 7585.725600000012 2254.247799999995 7463.201200000012 2160.1131999999952 7309.298600000012 2098.850999999995 7153.9018000000115 2098.850999999995 Z">
              </path>
            </g>
          </g>
        </g>
        <g id="editor-p31_i9170">
          <g>
            <g>
              <path fill="#FFA43C" fill-opacity="1"
                d="M 8051.916000000003 2839.974199999997 L 8051.916000000003 2839.974199999997 C 8238.691000000003 3253.867599999997 8385.122600000002 3733.505799999997 8344.779200000003 4093.607999999997 8295.470600000004 4486.582599999997 8108.695600000004 4633.014199999997 7881.577200000003 4633.014199999997 7615.609600000003 4633.014199999997 7294.356600000004 4431.297199999997 7079.191800000003 4186.248399999997 6878.969000000004 3972.577799999997 6678.746200000003 3760.401399999997 6518.866800000003 3519.835199999997 L 6518.866800000003 3519.835199999997 C 6545.762400000003 3613.969799999997 6572.658000000003 3693.162399999997 6611.507200000004 3773.849199999997 6798.282200000003 4159.352799999997 7092.639600000003 4465.663799999997 7372.055000000003 4786.916799999997 7594.690800000004 5023.000399999997 7912.9554000000035 5220.2347999999965 8175.934600000003 5220.2347999999965 8403.053000000004 5220.2347999999965 8588.333800000004 5073.803199999997 8637.642400000004 4679.334399999997 8704.881400000004 4132.457199999997 8317.883600000003 3333.060199999997 8051.916000000003 2839.974199999997 Z">
              </path>
            </g>
            <g>
              <path fill="#000" fill-opacity="0" stroke="#000" stroke-opacity="0" stroke-width="5371.801566579635"
                stroke-linecap="round" stroke-linejoin="round" stroke-miterlimit="10" pointer-events="visiblePainted"
                d="M 8051.916000000003 2839.974199999997 L 8051.916000000003 2839.974199999997 C 8238.691000000003 3253.867599999997 8385.122600000002 3733.505799999997 8344.779200000003 4093.607999999997 8295.470600000004 4486.582599999997 8108.695600000004 4633.014199999997 7881.577200000003 4633.014199999997 7615.609600000003 4633.014199999997 7294.356600000004 4431.297199999997 7079.191800000003 4186.248399999997 6878.969000000004 3972.577799999997 6678.746200000003 3760.401399999997 6518.866800000003 3519.835199999997 L 6518.866800000003 3519.835199999997 C 6545.762400000003 3613.969799999997 6572.658000000003 3693.162399999997 6611.507200000004 3773.849199999997 6798.282200000003 4159.352799999997 7092.639600000003 4465.663799999997 7372.055000000003 4786.916799999997 7594.690800000004 5023.000399999997 7912.9554000000035 5220.2347999999965 8175.934600000003 5220.2347999999965 8403.053000000004 5220.2347999999965 8588.333800000004 5073.803199999997 8637.642400000004 4679.334399999997 8704.881400000004 4132.457199999997 8317.883600000003 3333.060199999997 8051.916000000003 2839.974199999997 Z">
              </path>
            </g>
          </g>
        </g>
        <g id="editor-p31_i9171">
          <g>
            <g>
              <path fill="#FFA43C" fill-opacity="1"
                d="M 2668.313400000004 15205.9734 C 2330.6242000000043 15205.9734 2015.3480000000043 15234.363200000002 1853.9744000000044 15250.799400000002 1374.3362000000043 15289.648600000002 879.7560000000043 15383.783200000002 521.1480000000043 15703.542000000001 174.49360000000436 16009.853000000001 26.567800000004354 16610.5214 347.82080000000434 16969.1294 453.90900000000437 17076.7118 600.3406000000043 17155.904400000003 746.7722000000043 17209.695600000003 860.3314000000044 17241.073800000002 973.8906000000044 17254.5216 1090.4382000000044 17254.5216 1468.4708000000044 17254.5216 1856.9628000000043 17109.5842 2214.0766000000044 16955.6816 2439.700800000004 16863.0412 2666.8192000000045 16770.400800000003 2880.4898000000044 16676.266200000002 3186.800800000004 16556.7302 3506.559600000004 16423.7464 3720.230200000004 16156.2846 4343.311600000005 15356.887600000002 3446.791600000004 15205.9734 2668.313400000004 15205.9734 Z">
              </path>
            </g>
            <g>
              <path fill="#000" fill-opacity="0" stroke="#000" stroke-opacity="0" stroke-width="5371.801566579635"
                stroke-linecap="round" stroke-linejoin="round" stroke-miterlimit="10" pointer-events="visiblePainted"
                d="M 2668.313400000004 15205.9734 C 2330.6242000000043 15205.9734 2015.3480000000043 15234.363200000002 1853.9744000000044 15250.799400000002 1374.3362000000043 15289.648600000002 879.7560000000043 15383.783200000002 521.1480000000043 15703.542000000001 174.49360000000436 16009.853000000001 26.567800000004354 16610.5214 347.82080000000434 16969.1294 453.90900000000437 17076.7118 600.3406000000043 17155.904400000003 746.7722000000043 17209.695600000003 860.3314000000044 17241.073800000002 973.8906000000044 17254.5216 1090.4382000000044 17254.5216 1468.4708000000044 17254.5216 1856.9628000000043 17109.5842 2214.0766000000044 16955.6816 2439.700800000004 16863.0412 2666.8192000000045 16770.400800000003 2880.4898000000044 16676.266200000002 3186.800800000004 16556.7302 3506.559600000004 16423.7464 3720.230200000004 16156.2846 4343.311600000005 15356.887600000002 3446.791600000004 15205.9734 2668.313400000004 15205.9734 Z">
              </path>
            </g>
          </g>
        </g>
        <g id="editor-p31_i9172">
          <g>
            <g>
              <path fill="#FFA43C" fill-opacity="1"
                d="M 2668.313399999996 15205.9734 C 2330.6241999999957 15205.9734 2015.347999999996 15234.363200000002 1853.974399999996 15250.799400000002 1746.391999999996 15250.799400000002 1640.303799999996 15262.753000000002 1534.215599999996 15289.648600000002 1628.350199999996 15285.166000000001 1728.461599999996 15282.1776 1828.572999999996 15282.1776 2599.580199999996 15282.1776 3466.2161999999958 15446.539600000002 2853.594199999996 16236.971400000002 2653.371399999996 16502.939000000002 2333.612599999996 16635.9228 2027.301599999996 16756.953 L 1347.440599999996 17036.368400000003 C 1187.561199999996 17103.6074 1014.2339999999961 17169.3522 840.906799999996 17223.1434 927.570399999996 17241.073800000002 1015.728199999996 17248.544800000003 1105.380199999996 17248.544800000003 1477.435999999996 17248.544800000003 1858.456999999996 17106.595800000003 2214.076599999996 16955.6816 2439.700799999996 16863.0412 2666.8191999999963 16770.400800000003 2880.4897999999957 16676.266200000002 3186.800799999996 16556.7302 3506.559599999996 16423.7464 3720.230199999996 16156.2846 4343.311599999995 15356.887600000002 3446.791599999996 15205.9734 2668.313399999996 15205.9734 Z">
              </path>
            </g>
            <g>
              <path fill="#000" fill-opacity="0" stroke="#000" stroke-opacity="0" stroke-width="5371.801566579635"
                stroke-linecap="round" stroke-linejoin="round" stroke-miterlimit="10" pointer-events="visiblePainted"
                d="M 2668.313399999996 15205.9734 C 2330.6241999999957 15205.9734 2015.347999999996 15234.363200000002 1853.974399999996 15250.799400000002 1746.391999999996 15250.799400000002 1640.303799999996 15262.753000000002 1534.215599999996 15289.648600000002 1628.350199999996 15285.166000000001 1728.461599999996 15282.1776 1828.572999999996 15282.1776 2599.580199999996 15282.1776 3466.2161999999958 15446.539600000002 2853.594199999996 16236.971400000002 2653.371399999996 16502.939000000002 2333.612599999996 16635.9228 2027.301599999996 16756.953 L 1347.440599999996 17036.368400000003 C 1187.561199999996 17103.6074 1014.2339999999961 17169.3522 840.906799999996 17223.1434 927.570399999996 17241.073800000002 1015.728199999996 17248.544800000003 1105.380199999996 17248.544800000003 1477.435999999996 17248.544800000003 1858.456999999996 17106.595800000003 2214.076599999996 16955.6816 2439.700799999996 16863.0412 2666.8191999999963 16770.400800000003 2880.4897999999957 16676.266200000002 3186.800799999996 16556.7302 3506.559599999996 16423.7464 3720.230199999996 16156.2846 4343.311599999995 15356.887600000002 3446.791599999996 15205.9734 2668.313399999996 15205.9734 Z">
              </path>
            </g>
          </g>
        </g>
        <g id="editor-p31_i9173">
          <g>
            <g>
              <path fill="#FFA43C" fill-opacity="1"
                d="M 22176.58860000001 18041.964999999997 C 21916.59780000001 18041.964999999997 21713.38660000001 18127.134399999995 21661.08960000001 18369.194799999997 21514.65800000001 19049.055799999995 23155.28960000001 20262.346199999996 23714.12040000001 20422.225599999998 23788.83040000001 20441.650199999996 23860.55200000001 20450.615399999995 23927.791000000012 20450.615399999995 24562.826000000012 20450.615399999995 24827.29940000001 19646.735799999995 24513.51740000001 19116.294799999996 24314.78880000001 18783.0882 23968.13440000001 18569.417599999997 23608.03220000001 18436.433799999995 23339.07620000001 18331.839799999998 22659.21520000001 18041.964999999997 22176.58860000001 18041.964999999997 Z">
              </path>
            </g>
            <g>
              <path fill="#000" fill-opacity="0" stroke="#000" stroke-opacity="0" stroke-width="5371.801566579635"
                stroke-linecap="round" stroke-linejoin="round" stroke-miterlimit="10" pointer-events="visiblePainted"
                d="M 22176.58860000001 18041.964999999997 C 21916.59780000001 18041.964999999997 21713.38660000001 18127.134399999995 21661.08960000001 18369.194799999997 21514.65800000001 19049.055799999995 23155.28960000001 20262.346199999996 23714.12040000001 20422.225599999998 23788.83040000001 20441.650199999996 23860.55200000001 20450.615399999995 23927.791000000012 20450.615399999995 24562.826000000012 20450.615399999995 24827.29940000001 19646.735799999995 24513.51740000001 19116.294799999996 24314.78880000001 18783.0882 23968.13440000001 18569.417599999997 23608.03220000001 18436.433799999995 23339.07620000001 18331.839799999998 22659.21520000001 18041.964999999997 22176.58860000001 18041.964999999997 Z">
              </path>
            </g>
          </g>
        </g>
        <g id="editor-p31_i9174">
          <g>
            <g>
              <path fill="#FFA43C" fill-opacity="1"
                d="M 22176.58860000001 18041.964999999997 C 21916.59780000001 18041.964999999997 21713.38660000001 18127.134399999995 21661.08960000001 18369.194799999997 21514.65800000001 19035.607999999997 23088.05060000001 20222.002799999995 23687.22480000001 20408.777799999996 23007.36380000001 19956.035199999995 22167.62340000001 19182.039599999996 22261.75800000001 18688.953599999997 22315.54920000001 18443.904799999997 22521.74880000001 18360.229599999995 22784.72800000001 18360.229599999995 23238.96480000001 18360.229599999995 23859.05780000001 18611.255199999996 24154.90940000001 18729.296999999995 23995.03000000001 18609.760999999995 23794.80720000001 18502.178599999996 23608.03220000001 18436.433799999995 23339.07620000001 18331.839799999998 22659.21520000001 18041.964999999997 22176.58860000001 18041.964999999997 Z">
              </path>
            </g>
            <g>
              <path fill="#000" fill-opacity="0" stroke="#000" stroke-opacity="0" stroke-width="5371.801566579635"
                stroke-linecap="round" stroke-linejoin="round" stroke-miterlimit="10" pointer-events="visiblePainted"
                d="M 22176.58860000001 18041.964999999997 C 21916.59780000001 18041.964999999997 21713.38660000001 18127.134399999995 21661.08960000001 18369.194799999997 21514.65800000001 19035.607999999997 23088.05060000001 20222.002799999995 23687.22480000001 20408.777799999996 23007.36380000001 19956.035199999995 22167.62340000001 19182.039599999996 22261.75800000001 18688.953599999997 22315.54920000001 18443.904799999997 22521.74880000001 18360.229599999995 22784.72800000001 18360.229599999995 23238.96480000001 18360.229599999995 23859.05780000001 18611.255199999996 24154.90940000001 18729.296999999995 23995.03000000001 18609.760999999995 23794.80720000001 18502.178599999996 23608.03220000001 18436.433799999995 23339.07620000001 18331.839799999998 22659.21520000001 18041.964999999997 22176.58860000001 18041.964999999997 Z">
              </path>
            </g>
          </g>
        </g>
        <g id="editor-p31_i9175">
          <g>
            <g>
              <path fill="#FFA43C" fill-opacity="1"
                d="M 11570.75700000001 22972.824999999983 C 11470.64560000001 22972.824999999983 11360.074800000011 23035.58139999998 11237.550400000011 23182.01299999998 11144.91000000001 23301.54899999998 11104.566600000011 23434.532799999983 11050.775400000011 23567.51659999998 10784.807800000011 24380.361399999983 10503.89820000001 25220.101799999982 10598.03280000001 26073.289999999983 10624.92840000001 26327.303999999982 10690.67320000001 26593.271599999982 10890.89600000001 26753.150999999983 11010.43200000001 26859.23919999998 11161.34620000001 26905.559399999984 11315.24880000001 26905.559399999984 11573.74540000001 26905.559399999984 11844.19560000001 26775.563999999984 12011.546000000011 26566.375999999982 12277.513600000011 26233.169399999984 12344.75260000001 25793.87459999998 12356.706200000011 25368.027599999983 12356.706200000011 25128.955599999983 12153.49500000001 22972.824999999983 11570.75700000001 22972.824999999983 Z">
              </path>
            </g>
            <g>
              <path fill="#000" fill-opacity="0" stroke="#000" stroke-opacity="0" stroke-width="5371.801566579635"
                stroke-linecap="round" stroke-linejoin="round" stroke-miterlimit="10" pointer-events="visiblePainted"
                d="M 11570.75700000001 22972.824999999983 C 11470.64560000001 22972.824999999983 11360.074800000011 23035.58139999998 11237.550400000011 23182.01299999998 11144.91000000001 23301.54899999998 11104.566600000011 23434.532799999983 11050.775400000011 23567.51659999998 10784.807800000011 24380.361399999983 10503.89820000001 25220.101799999982 10598.03280000001 26073.289999999983 10624.92840000001 26327.303999999982 10690.67320000001 26593.271599999982 10890.89600000001 26753.150999999983 11010.43200000001 26859.23919999998 11161.34620000001 26905.559399999984 11315.24880000001 26905.559399999984 11573.74540000001 26905.559399999984 11844.19560000001 26775.563999999984 12011.546000000011 26566.375999999982 12277.513600000011 26233.169399999984 12344.75260000001 25793.87459999998 12356.706200000011 25368.027599999983 12356.706200000011 25128.955599999983 12153.49500000001 22972.824999999983 11570.75700000001 22972.824999999983 Z">
              </path>
            </g>
          </g>
        </g>
        <g id="editor-p31_i9176">
          <g>
            <g>
              <path fill="#FFA43C" fill-opacity="1"
                d="M 11570.75700000001 22972.824999999983 C 11470.64560000001 22972.824999999983 11360.074800000011 23035.58139999998 11237.550400000011 23182.01299999998 11144.91000000001 23288.101199999983 11104.566600000011 23434.532799999983 11050.775400000011 23567.51659999998 10784.807800000011 24380.361399999983 10503.89820000001 25220.101799999982 10598.03280000001 26073.289999999983 10598.03280000001 26086.73779999998 10598.03280000001 26100.185599999983 10598.03280000001 26100.185599999983 10663.77760000001 25514.459199999983 10864.00040000001 24927.238599999982 11050.775400000011 24368.407799999983 11104.566600000011 24233.929799999984 11144.91000000001 24100.94599999998 11237.550400000011 23994.857799999983 11361.56900000001 23843.943599999984 11473.634000000011 23779.69299999998 11573.74540000001 23779.69299999998 12026.48800000001 23779.69299999998 12255.10060000001 25081.141199999984 12331.30480000001 25766.97899999998 12344.75260000001 25633.995199999983 12356.706200000011 25501.01139999998 12356.706200000011 25368.027599999983 12356.706200000011 25128.955599999983 12153.49500000001 22972.824999999983 11570.75700000001 22972.824999999983 Z">
              </path>
            </g>
            <g>
              <path fill="#000" fill-opacity="0" stroke="#000" stroke-opacity="0" stroke-width="5371.801566579635"
                stroke-linecap="round" stroke-linejoin="round" stroke-miterlimit="10" pointer-events="visiblePainted"
                d="M 11570.75700000001 22972.824999999983 C 11470.64560000001 22972.824999999983 11360.074800000011 23035.58139999998 11237.550400000011 23182.01299999998 11144.91000000001 23288.101199999983 11104.566600000011 23434.532799999983 11050.775400000011 23567.51659999998 10784.807800000011 24380.361399999983 10503.89820000001 25220.101799999982 10598.03280000001 26073.289999999983 10598.03280000001 26086.73779999998 10598.03280000001 26100.185599999983 10598.03280000001 26100.185599999983 10663.77760000001 25514.459199999983 10864.00040000001 24927.238599999982 11050.775400000011 24368.407799999983 11104.566600000011 24233.929799999984 11144.91000000001 24100.94599999998 11237.550400000011 23994.857799999983 11361.56900000001 23843.943599999984 11473.634000000011 23779.69299999998 11573.74540000001 23779.69299999998 12026.48800000001 23779.69299999998 12255.10060000001 25081.141199999984 12331.30480000001 25766.97899999998 12344.75260000001 25633.995199999983 12356.706200000011 25501.01139999998 12356.706200000011 25368.027599999983 12356.706200000011 25128.955599999983 12153.49500000001 22972.824999999983 11570.75700000001 22972.824999999983 Z">
              </path>
            </g>
          </g>
        </g>
        <g id="editor-p31_i9177">
          <g>
            <g>
              <path fill="#FFDA7D" fill-opacity="1"
                d="M 11703.740799999996 10944.514999999998 C 11189.735999999995 10944.514999999998 10786.301999999994 11681.155599999998 10985.030599999995 12130.909799999998 11091.118799999995 12344.580399999999 11331.684999999996 12491.011999999999 11570.756999999994 12544.803199999998 11645.466999999995 12564.227799999999 11724.659599999995 12574.687199999998 11805.346399999995 12574.687199999998 11939.824399999994 12574.687199999998 12075.796599999994 12544.803199999998 12183.378999999995 12477.564199999999 12290.961399999995 12410.3252 12370.153999999995 12317.684799999999 12423.945199999995 12225.044399999999 12716.808399999994 11691.614999999998 12331.304799999994 10957.962799999998 11717.188599999996 10944.514999999998 11712.705999999995 10944.514999999998 11708.223399999995 10944.514999999998 11703.740799999996 10944.514999999998 Z">
              </path>
            </g>
            <g>
              <path fill="#000" fill-opacity="0" stroke="#000" stroke-opacity="0" stroke-width="5371.801566579635"
                stroke-linecap="round" stroke-linejoin="round" stroke-miterlimit="10" pointer-events="visiblePainted"
                d="M 11703.740799999996 10944.514999999998 C 11189.735999999995 10944.514999999998 10786.301999999994 11681.155599999998 10985.030599999995 12130.909799999998 11091.118799999995 12344.580399999999 11331.684999999996 12491.011999999999 11570.756999999994 12544.803199999998 11645.466999999995 12564.227799999999 11724.659599999995 12574.687199999998 11805.346399999995 12574.687199999998 11939.824399999994 12574.687199999998 12075.796599999994 12544.803199999998 12183.378999999995 12477.564199999999 12290.961399999995 12410.3252 12370.153999999995 12317.684799999999 12423.945199999995 12225.044399999999 12716.808399999994 11691.614999999998 12331.304799999994 10957.962799999998 11717.188599999996 10944.514999999998 11712.705999999995 10944.514999999998 11708.223399999995 10944.514999999998 11703.740799999996 10944.514999999998 Z">
              </path>
            </g>
          </g>
        </g>
        <g id="editor-p31_i9178">
          <g>
            <g>
              <path fill="#FFDA7D" fill-opacity="1"
                d="M 13475.861999999988 12464.116399999983 C 12790.024199999989 12464.116399999983 12252.112199999989 13427.875399999983 12530.03339999999 14024.061199999984 12664.511399999988 14330.372199999983 12984.270199999988 14503.699399999983 13304.028999999988 14584.386199999983 13411.611399999989 14609.787599999983 13525.170599999989 14626.223799999983 13638.729799999988 14626.223799999983 13809.068599999988 14626.223799999983 13979.40739999999 14591.857199999984 14130.321599999988 14503.699399999983 14263.305399999988 14411.058999999983 14370.88779999999 14290.028799999984 14436.632599999988 14157.044999999984 14823.63039999999 13450.288399999983 14317.096599999988 12491.011999999984 13490.80399999999 12464.116399999983 13486.321399999988 12464.116399999983 13480.34459999999 12464.116399999983 13475.861999999988 12464.116399999983 Z">
              </path>
            </g>
            <g>
              <path fill="#000" fill-opacity="0" stroke="#000" stroke-opacity="0" stroke-width="5371.801566579635"
                stroke-linecap="round" stroke-linejoin="round" stroke-miterlimit="10" pointer-events="visiblePainted"
                d="M 13475.861999999988 12464.116399999983 C 12790.024199999989 12464.116399999983 12252.112199999989 13427.875399999983 12530.03339999999 14024.061199999984 12664.511399999988 14330.372199999983 12984.270199999988 14503.699399999983 13304.028999999988 14584.386199999983 13411.611399999989 14609.787599999983 13525.170599999989 14626.223799999983 13638.729799999988 14626.223799999983 13809.068599999988 14626.223799999983 13979.40739999999 14591.857199999984 14130.321599999988 14503.699399999983 14263.305399999988 14411.058999999983 14370.88779999999 14290.028799999984 14436.632599999988 14157.044999999984 14823.63039999999 13450.288399999983 14317.096599999988 12491.011999999984 13490.80399999999 12464.116399999983 13486.321399999988 12464.116399999983 13480.34459999999 12464.116399999983 13475.861999999988 12464.116399999983 Z">
              </path>
            </g>
          </g>
        </g>
        <g id="editor-p31_i9179">
          <g>
            <g>
              <path fill="#FFDA7D" fill-opacity="1"
                d="M 15395.908999999996 14357.267799999985 C 14883.398399999996 14357.267799999985 14478.470199999996 15080.460599999986 14677.198799999996 15530.214799999985 14783.286999999997 15757.333199999986 15023.853199999996 15890.316999999986 15262.925199999996 15956.061799999985 15339.129399999996 15972.497999999985 15421.310399999997 15981.463199999986 15501.997199999996 15981.463199999986 15636.475199999995 15981.463199999986 15769.458999999995 15956.061799999985 15877.041399999996 15890.316999999986 15983.129599999997 15823.077999999987 16063.816399999996 15730.437599999987 16116.113399999997 15622.855199999985 16408.976599999995 15102.873599999986 16023.472999999996 14370.715599999985 15409.356799999996 14357.267799999985 15404.874199999997 14357.267799999985 15400.391599999995 14357.267799999985 15395.908999999996 14357.267799999985 Z">
              </path>
            </g>
            <g>
              <path fill="#000" fill-opacity="0" stroke="#000" stroke-opacity="0" stroke-width="5371.801566579635"
                stroke-linecap="round" stroke-linejoin="round" stroke-miterlimit="10" pointer-events="visiblePainted"
                d="M 15395.908999999996 14357.267799999985 C 14883.398399999996 14357.267799999985 14478.470199999996 15080.460599999986 14677.198799999996 15530.214799999985 14783.286999999997 15757.333199999986 15023.853199999996 15890.316999999986 15262.925199999996 15956.061799999985 15339.129399999996 15972.497999999985 15421.310399999997 15981.463199999986 15501.997199999996 15981.463199999986 15636.475199999995 15981.463199999986 15769.458999999995 15956.061799999985 15877.041399999996 15890.316999999986 15983.129599999997 15823.077999999987 16063.816399999996 15730.437599999987 16116.113399999997 15622.855199999985 16408.976599999995 15102.873599999986 16023.472999999996 14370.715599999985 15409.356799999996 14357.267799999985 15404.874199999997 14357.267799999985 15400.391599999995 14357.267799999985 15395.908999999996 14357.267799999985 Z">
              </path>
            </g>
          </g>
        </g>
        <g id="editor-p31_i9180">
          <g>
            <g>
              <path fill="#FFDA7D" fill-opacity="1"
                d="M 15442.229200000014 11165.656599999988 C 15077.644400000014 11165.656599999988 14716.048000000013 11439.095199999987 14623.407600000013 11851.494399999987 14569.616400000014 12104.014199999987 14636.855400000013 12384.923799999988 14783.287000000013 12597.100199999988 14902.823000000013 12783.875199999988 15089.598000000013 12930.306799999988 15289.820800000014 12984.097999999987 15363.036600000014 13006.510999999988 15437.746600000013 13018.464599999988 15513.950800000013 13018.464599999988 15658.888200000014 13018.464599999988 15802.331400000014 12973.638599999987 15915.890600000013 12878.009799999987 16075.770000000013 12756.979599999988 16156.456800000014 12570.204599999988 16196.800200000014 12384.923799999988 16275.992800000013 12063.670799999987 16235.649400000013 11730.464199999988 16036.920800000014 11477.944399999988 15874.053000000014 11261.285399999988 15657.394000000013 11165.656599999988 15442.229200000014 11165.656599999988 Z">
              </path>
            </g>
            <g>
              <path fill="#000" fill-opacity="0" stroke="#000" stroke-opacity="0" stroke-width="5371.801566579635"
                stroke-linecap="round" stroke-linejoin="round" stroke-miterlimit="10" pointer-events="visiblePainted"
                d="M 15442.229200000014 11165.656599999988 C 15077.644400000014 11165.656599999988 14716.048000000013 11439.095199999987 14623.407600000013 11851.494399999987 14569.616400000014 12104.014199999987 14636.855400000013 12384.923799999988 14783.287000000013 12597.100199999988 14902.823000000013 12783.875199999988 15089.598000000013 12930.306799999988 15289.820800000014 12984.097999999987 15363.036600000014 13006.510999999988 15437.746600000013 13018.464599999988 15513.950800000013 13018.464599999988 15658.888200000014 13018.464599999988 15802.331400000014 12973.638599999987 15915.890600000013 12878.009799999987 16075.770000000013 12756.979599999988 16156.456800000014 12570.204599999988 16196.800200000014 12384.923799999988 16275.992800000013 12063.670799999987 16235.649400000013 11730.464199999988 16036.920800000014 11477.944399999988 15874.053000000014 11261.285399999988 15657.394000000013 11165.656599999988 15442.229200000014 11165.656599999988 Z">
              </path>
            </g>
          </g>
        </g>
        <g id="editor-p31_i9181">
          <g>
            <g>
              <path fill="#FFDA7D" fill-opacity="1"
                d="M 11881.550599999993 14496.228400000005 C 11407.889199999992 14496.228400000005 10977.559599999993 14886.214600000007 11050.775399999993 15489.871400000005 11064.223199999993 15622.855200000005 11104.566599999993 15757.333200000006 11170.311399999993 15863.421400000007 11318.237199999992 16090.539800000006 11584.204799999994 16223.523600000006 11863.620199999994 16223.523600000006 12131.081999999993 16223.523600000006 12397.049599999993 16090.539800000006 12583.824599999993 15903.764800000006 12757.151799999992 15743.885400000006 12876.687799999992 15503.319200000005 12851.286399999994 15276.200800000006 12824.390799999994 15064.024400000006 12677.959199999994 14890.697200000006 12518.079799999992 14756.219200000007 12325.327999999994 14576.915200000007 12098.209599999993 14496.228400000005 11881.550599999993 14496.228400000005 Z">
              </path>
            </g>
            <g>
              <path fill="#000" fill-opacity="0" stroke="#000" stroke-opacity="0" stroke-width="5371.801566579635"
                stroke-linecap="round" stroke-linejoin="round" stroke-miterlimit="10" pointer-events="visiblePainted"
                d="M 11881.550599999993 14496.228400000005 C 11407.889199999992 14496.228400000005 10977.559599999993 14886.214600000007 11050.775399999993 15489.871400000005 11064.223199999993 15622.855200000005 11104.566599999993 15757.333200000006 11170.311399999993 15863.421400000007 11318.237199999992 16090.539800000006 11584.204799999994 16223.523600000006 11863.620199999994 16223.523600000006 12131.081999999993 16223.523600000006 12397.049599999993 16090.539800000006 12583.824599999993 15903.764800000006 12757.151799999992 15743.885400000006 12876.687799999992 15503.319200000005 12851.286399999994 15276.200800000006 12824.390799999994 15064.024400000006 12677.959199999994 14890.697200000006 12518.079799999992 14756.219200000007 12325.327999999994 14576.915200000007 12098.209599999993 14496.228400000005 11881.550599999993 14496.228400000005 Z">
              </path>
            </g>
          </g>
        </g>
        <g id="editor-p31_i9182">
          <g>
            <g>
              <path fill="#FFA43C" fill-opacity="1"
                d="M 17156.07659999999 12144.357600000001 C 17142.628799999988 12864.562000000002 16915.51039999999 13557.870800000002 16408.976599999987 14130.149400000002 15533.37539999999 15134.251800000002 14143.769399999988 15766.298400000001 12815.425599999988 15766.298400000001 11657.420599999989 15766.298400000001 10547.229999999989 15286.660200000002 9864.38059999999 14157.045000000002 9704.501199999988 13904.525200000002 9571.517399999988 13637.063400000003 9451.981399999988 13344.200200000003 L 9451.981399999988 13344.200200000003 C 9490.830599999988 14303.476600000002 9785.18799999999 15289.648600000002 10264.826199999989 16090.539800000002 10953.652399999988 17220.155000000002 12066.831399999988 17698.299000000003 13226.330599999988 17698.299000000003 14556.168599999988 17698.299000000003 15947.268799999989 17067.746600000002 16822.869999999988 16063.644200000002 17768.69859999999 14969.8898 17743.297199999986 13423.392800000001 17156.07659999999 12144.357600000001 Z">
              </path>
            </g>
            <g>
              <path fill="#000" fill-opacity="0" stroke="#000" stroke-opacity="0" stroke-width="5371.801566579635"
                stroke-linecap="round" stroke-linejoin="round" stroke-miterlimit="10" pointer-events="visiblePainted"
                d="M 17156.07659999999 12144.357600000001 C 17142.628799999988 12864.562000000002 16915.51039999999 13557.870800000002 16408.976599999987 14130.149400000002 15533.37539999999 15134.251800000002 14143.769399999988 15766.298400000001 12815.425599999988 15766.298400000001 11657.420599999989 15766.298400000001 10547.229999999989 15286.660200000002 9864.38059999999 14157.045000000002 9704.501199999988 13904.525200000002 9571.517399999988 13637.063400000003 9451.981399999988 13344.200200000003 L 9451.981399999988 13344.200200000003 C 9490.830599999988 14303.476600000002 9785.18799999999 15289.648600000002 10264.826199999989 16090.539800000002 10953.652399999988 17220.155000000002 12066.831399999988 17698.299000000003 13226.330599999988 17698.299000000003 14556.168599999988 17698.299000000003 15947.268799999989 17067.746600000002 16822.869999999988 16063.644200000002 17768.69859999999 14969.8898 17743.297199999986 13423.392800000001 17156.07659999999 12144.357600000001 Z">
              </path>
            </g>
          </g>
        </g>
      </g>
    </g>
  </g>
</svg>