<svg xmlns="http://www.w3.org/2000/svg" xmlns:xlink="http://www.w3.org/1999/xlink" version="1.1" fill-rule="evenodd"
  fill="none" stroke="none" stroke-linecap="square" stroke-miterlimit="10" overflow="hidden" preserveAspectRatio="none"
  viewBox="0 0 21000 35000">
  <g>
    <defs cursor="default"></defs>
    <g id="editor-p2">
      <g id="editor-p31_i9594">
        <g></g>
        <g id="editor-p31_i9595">
          <g>
            <g>
              <path fill="#0A7C7F" fill-opacity="1"
                d="M 1293.4473240375519 22679.3828125 C 2252.7231061458588 24572.53374826908 3772.3235273361206 26184.775152921677 5598.234751224518 27251.633691310883 6488.777377605438 27773.1093634367 7386.790999174118 28037.582698583603 8281.816222667694 28037.582698583603 9238.103606700897 28037.582698583603 10188.414194583893 27737.24857223034 11116.31179690361 27132.097720623016 12129.378744363785 26465.684684038162 11170.102962255478 25558.705506443977 10530.585774183273 25011.82844054699 9943.365552425385 24518.74256145954 9224.65581536293 24198.9838398695 8491.004087924957 23998.761088967323 7304.610052108765 23679.00236737728 6050.977059602737 23679.00236737728 4825.733848810196 23586.361990094185 3612.4442303180695 23492.22741317749 2345.3634464740753 23305.4524589777 1293.4473240375519 22679.3828125 Z">
              </path>
            </g>
            <g>
              <path fill="#000" fill-opacity="0" stroke="#000" stroke-opacity="0" stroke-width="5371.801566579635"
                stroke-linecap="round" stroke-linejoin="round" stroke-miterlimit="10" pointer-events="visiblePainted"
                d="M 1293.4473240375519 22679.3828125 C 2252.7231061458588 24572.53374826908 3772.3235273361206 26184.775152921677 5598.234751224518 27251.633691310883 6488.777377605438 27773.1093634367 7386.790999174118 28037.582698583603 8281.816222667694 28037.582698583603 9238.103606700897 28037.582698583603 10188.414194583893 27737.24857223034 11116.31179690361 27132.097720623016 12129.378744363785 26465.684684038162 11170.102962255478 25558.705506443977 10530.585774183273 25011.82844054699 9943.365552425385 24518.74256145954 9224.65581536293 24198.9838398695 8491.004087924957 23998.761088967323 7304.610052108765 23679.00236737728 6050.977059602737 23679.00236737728 4825.733848810196 23586.361990094185 3612.4442303180695 23492.22741317749 2345.3634464740753 23305.4524589777 1293.4473240375519 22679.3828125 Z">
              </path>
            </g>
          </g>
        </g>
        <g id="editor-p31_i9596">
          <g>
            <g>
              <path fill="#095E72" fill-opacity="1"
                d="M 2817.455880880356 24001.703125 C 2812.97327375412 24001.703125 2805.50226187706 24006.185716748238 2799.525452375412 24012.162505745888 2799.525452375412 24012.162505745888 2799.525452375412 24025.6102809906 2799.525452375412 24039.058056235313 3344.9093194007874 24532.14314854145 3932.1308529376984 24984.88491511345 4544.753826856613 25398.77755320072 5172.318824529648 25811.175994038582 5811.837441205978 26171.277531147003 6505.1473433971405 26465.634389281273 7185.009424209595 26758.49705016613 7903.720766782761 27011.01638531685 8664.269775867462 27078.255261540413 8788.288573026657 27087.220445036888 8913.801572561264 27091.703036785126 9040.808774471283 27091.703036785126 9293.328975915909 27091.703036785126 9548.837582111359 27073.772669792175 9796.875176429749 27037.911935806274 10170.425770282745 26972.167256832123 10530.528542757034 26864.58505487442 10877.183493852615 26704.70594918728 10877.183493852615 26704.70594918728 10890.631315231323 26691.258173942566 10877.183493852615 26677.810398697853 10877.183493852615 26677.810398697853 10871.206684350967 26671.833609700203 10866.724077224731 26671.833609700203 10865.22987484932 26671.833609700203 10863.735672473907 26673.327806949615 10863.735672473907 26677.810398697853 10490.18507862091 26731.601499676704 10130.082306146622 26771.944825410843 9769.979533672333 26785.392600655556 9411.370963573456 26785.392600655556 9064.716012477875 26758.49705016613 8704.613240003586 26718.15372443199 7997.855516433716 26612.0657197237 7291.097792863846 26452.18661403656 6611.235712051392 26198.17308163643 5931.373631238937 25945.65374648571 5278.407193183899 25625.895535111427 4638.888576507568 25252.346222758293 4012.8177812099457 24878.79691040516 3398.700604915619 24464.904272317886 2826.4210951328278 24012.162505745888 2826.4210951328278 24006.185716748238 2821.938488006592 24001.703125 2817.455880880356 24001.703125 Z">
              </path>
            </g>
            <g>
              <path fill="#000" fill-opacity="0" stroke="#000" stroke-opacity="0" stroke-width="5371.801566579635"
                stroke-linecap="round" stroke-linejoin="round" stroke-miterlimit="10" pointer-events="visiblePainted"
                d="M 2817.455880880356 24001.703125 C 2812.97327375412 24001.703125 2805.50226187706 24006.185716748238 2799.525452375412 24012.162505745888 2799.525452375412 24012.162505745888 2799.525452375412 24025.6102809906 2799.525452375412 24039.058056235313 3344.9093194007874 24532.14314854145 3932.1308529376984 24984.88491511345 4544.753826856613 25398.77755320072 5172.318824529648 25811.175994038582 5811.837441205978 26171.277531147003 6505.1473433971405 26465.634389281273 7185.009424209595 26758.49705016613 7903.720766782761 27011.01638531685 8664.269775867462 27078.255261540413 8788.288573026657 27087.220445036888 8913.801572561264 27091.703036785126 9040.808774471283 27091.703036785126 9293.328975915909 27091.703036785126 9548.837582111359 27073.772669792175 9796.875176429749 27037.911935806274 10170.425770282745 26972.167256832123 10530.528542757034 26864.58505487442 10877.183493852615 26704.70594918728 10877.183493852615 26704.70594918728 10890.631315231323 26691.258173942566 10877.183493852615 26677.810398697853 10877.183493852615 26677.810398697853 10871.206684350967 26671.833609700203 10866.724077224731 26671.833609700203 10865.22987484932 26671.833609700203 10863.735672473907 26673.327806949615 10863.735672473907 26677.810398697853 10490.18507862091 26731.601499676704 10130.082306146622 26771.944825410843 9769.979533672333 26785.392600655556 9411.370963573456 26785.392600655556 9064.716012477875 26758.49705016613 8704.613240003586 26718.15372443199 7997.855516433716 26612.0657197237 7291.097792863846 26452.18661403656 6611.235712051392 26198.17308163643 5931.373631238937 25945.65374648571 5278.407193183899 25625.895535111427 4638.888576507568 25252.346222758293 4012.8177812099457 24878.79691040516 3398.700604915619 24464.904272317886 2826.4210951328278 24012.162505745888 2826.4210951328278 24006.185716748238 2821.938488006592 24001.703125 2817.455880880356 24001.703125 Z">
              </path>
            </g>
          </g>
        </g>
        <g id="editor-p31_i9597">
          <g>
            <g>
              <path fill="#FFDA7D" fill-opacity="1"
                d="M 10410.754086256027 393.0625 C 10116.396006941795 926.4913436174393 9582.965375900269 1300.0409539937973 9051.028948307037 1592.903848528862 8517.59831726551 1885.7667430639267 7943.824193120003 2139.78047811985 7491.080548286438 2552.1792479753494 7024.889072418213 2952.6244302988052 6691.681703448296 3565.2457913160324 6797.770148277283 4165.913564801216 7074.1977862119675 5757.234905004501 8568.40123450756 6265.262375116348 10022.261189699173 6265.262375116348 10603.506331086159 6265.262375116348 11175.786251783371 6184.575659275055 11662.896575927734 6059.062990188599 12263.566362142563 5899.183756947517 13155.605820775032 5552.529718518257 13475.365358710289 4978.757516980171 13515.70885181427 4911.518587112427 13542.60451388359 4832.326069712639 13569.500175952911 4751.6393538713455 13742.8277759552 4152.465778827667 13382.724744915962 3445.709915995598 12982.278220772743 3033.3111461400986 12542.982406973839 2579.074819922447 11982.656113862991 2272.7641394138336 11489.568975925446 1885.7667430639267 10983.03400695324 1500.2635451555252 10516.842531085014 1007.1780594587326 10410.754086256027 393.0625 Z">
              </path>
            </g>
            <g>
              <path fill="#000" fill-opacity="0" stroke="#000" stroke-opacity="0" stroke-width="5371.801566579635"
                stroke-linecap="round" stroke-linejoin="round" stroke-miterlimit="10" pointer-events="visiblePainted"
                d="M 10410.754086256027 393.0625 C 10116.396006941795 926.4913436174393 9582.965375900269 1300.0409539937973 9051.028948307037 1592.903848528862 8517.59831726551 1885.7667430639267 7943.824193120003 2139.78047811985 7491.080548286438 2552.1792479753494 7024.889072418213 2952.6244302988052 6691.681703448296 3565.2457913160324 6797.770148277283 4165.913564801216 7074.1977862119675 5757.234905004501 8568.40123450756 6265.262375116348 10022.261189699173 6265.262375116348 10603.506331086159 6265.262375116348 11175.786251783371 6184.575659275055 11662.896575927734 6059.062990188599 12263.566362142563 5899.183756947517 13155.605820775032 5552.529718518257 13475.365358710289 4978.757516980171 13515.70885181427 4911.518587112427 13542.60451388359 4832.326069712639 13569.500175952911 4751.6393538713455 13742.8277759552 4152.465778827667 13382.724744915962 3445.709915995598 12982.278220772743 3033.3111461400986 12542.982406973839 2579.074819922447 11982.656113862991 2272.7641394138336 11489.568975925446 1885.7667430639267 10983.03400695324 1500.2635451555252 10516.842531085014 1007.1780594587326 10410.754086256027 393.0625 Z">
              </path>
            </g>
          </g>
        </g>
        <g id="editor-p31_i9598">
          <g>
            <g>
              <path fill="#FFA43C" fill-opacity="1"
                d="M 4972.026588320732 1525.578125 C 4972.026588320732 1527.0723247528076 4972.026588320732 1527.0723247528076 4972.026588320732 1527.0723247528076 L 4972.026588320732 1527.0723247528076 C 4972.026588320732 1527.0723247528076 4972.026588320732 1527.0723247528076 4972.026588320732 1525.578125 Z M 4972.026588320732 1527.0723247528076 C 5073.632357954979 1697.411096572876 4132.2847863435745 4140.42769241333 4065.045674085617 4539.379026412964 3851.3747173547745 5658.534641265869 3812.5254524946213 6818.03364944458 3999.300764322281 7950.637062072754 4319.060098171234 9843.788148880005 5197.651165008545 12110.48917388916 6597.718902468681 13310.331575393677 7244.708582639694 13870.656482696533 8081.461979627609 14194.897829055786 8888.331326723099 14194.897829055786 9578.652879238129 14194.897829055786 10246.56139433384 13957.320068359375 10757.578647494316 13429.867555618286 11210.322003364563 12950.229434967041 11489.737869858742 12297.264142990112 11703.408826589584 11630.851053237915 12383.270961642265 9497.133806228638 11770.647938847542 6298.052135467529 10077.716512441635 4886.033369064331 9276.82397532463 4218.126079559326 8304.09815132618 3859.518138885498 7397.117237091064 3418.729211807251 6478.182702898979 2979.4344844818115 5545.800346255302 2432.5573749542236 4972.026588320732 1527.0723247528076 Z">
              </path>
            </g>
            <g>
              <path fill="#000" fill-opacity="0" stroke="#000" stroke-opacity="0" stroke-width="5371.801566579635"
                stroke-linecap="round" stroke-linejoin="round" stroke-miterlimit="10" pointer-events="visiblePainted"
                d="M 4972.026588320732 1525.578125 C 4972.026588320732 1527.0723247528076 4972.026588320732 1527.0723247528076 4972.026588320732 1527.0723247528076 L 4972.026588320732 1527.0723247528076 C 4972.026588320732 1527.0723247528076 4972.026588320732 1527.0723247528076 4972.026588320732 1525.578125 Z M 4972.026588320732 1527.0723247528076 C 5073.632357954979 1697.411096572876 4132.2847863435745 4140.42769241333 4065.045674085617 4539.379026412964 3851.3747173547745 5658.534641265869 3812.5254524946213 6818.03364944458 3999.300764322281 7950.637062072754 4319.060098171234 9843.788148880005 5197.651165008545 12110.48917388916 6597.718902468681 13310.331575393677 7244.708582639694 13870.656482696533 8081.461979627609 14194.897829055786 8888.331326723099 14194.897829055786 9578.652879238129 14194.897829055786 10246.56139433384 13957.320068359375 10757.578647494316 13429.867555618286 11210.322003364563 12950.229434967041 11489.737869858742 12297.264142990112 11703.408826589584 11630.851053237915 12383.270961642265 9497.133806228638 11770.647938847542 6298.052135467529 10077.716512441635 4886.033369064331 9276.82397532463 4218.126079559326 8304.09815132618 3859.518138885498 7397.117237091064 3418.729211807251 6478.182702898979 2979.4344844818115 5545.800346255302 2432.5573749542236 4972.026588320732 1527.0723247528076 Z">
              </path>
            </g>
          </g>
        </g>
        <g id="editor-p31_i9599">
          <g>
            <g>
              <path fill="#FF8D34" fill-opacity="1"
                d="M 4558.143330812454 3019.7129529714584 C 4398.263676643372 3472.4564533233643 4238.384022474289 3938.647780418396 4145.743475198746 4244.959389567375 4051.6087255477905 5005.508702039719 3945.5203568935394 5924.443529486656 3878.28125 6604.305881500244 3878.28125 6991.304451107979 3918.6247141361237 7391.750847458839 3972.415999650955 7777.255214095116 4398.263676643372 8364.47698187828 5438.228529930115 9616.61907196045 5798.331302404404 9870.633577108383 6251.074622154236 10190.393013000488 8743.40418434143 12043.204697608948 8743.40418434143 12043.204697608948 L 10623.11077260971 11190.014800906181 C 10623.11077260971 11190.014800906181 11410.555424451828 10430.959691405296 11969.387112855911 9751.097339391708 11969.387112855911 7950.582758784294 11343.316317558289 6005.130489945412 10143.471810102463 4951.717395067215 9557.744478940964 5444.8043756484985 8997.418588161469 6124.6667276620865 8743.40418434143 6604.305881500244 7797.574080705643 4445.1825877428055 5359.035804033279 3326.0245621204376 4558.143330812454 3019.7129529714584 Z">
              </path>
            </g>
            <g>
              <path fill="#000" fill-opacity="0" stroke="#000" stroke-opacity="0" stroke-width="5371.801566579635"
                stroke-linecap="round" stroke-linejoin="round" stroke-miterlimit="10" pointer-events="visiblePainted"
                d="M 4558.143330812454 3019.7129529714584 C 4398.263676643372 3472.4564533233643 4238.384022474289 3938.647780418396 4145.743475198746 4244.959389567375 4051.6087255477905 5005.508702039719 3945.5203568935394 5924.443529486656 3878.28125 6604.305881500244 3878.28125 6991.304451107979 3918.6247141361237 7391.750847458839 3972.415999650955 7777.255214095116 4398.263676643372 8364.47698187828 5438.228529930115 9616.61907196045 5798.331302404404 9870.633577108383 6251.074622154236 10190.393013000488 8743.40418434143 12043.204697608948 8743.40418434143 12043.204697608948 L 10623.11077260971 11190.014800906181 C 10623.11077260971 11190.014800906181 11410.555424451828 10430.959691405296 11969.387112855911 9751.097339391708 11969.387112855911 7950.582758784294 11343.316317558289 6005.130489945412 10143.471810102463 4951.717395067215 9557.744478940964 5444.8043756484985 8997.418588161469 6124.6667276620865 8743.40418434143 6604.305881500244 7797.574080705643 4445.1825877428055 5359.035804033279 3326.0245621204376 4558.143330812454 3019.7129529714584 Z">
              </path>
            </g>
          </g>
        </g>
        <g id="editor-p31_i9600">
          <g>
            <g>
              <path fill="#FFA43C" fill-opacity="1"
                d="M 15741.997696876526 1525.578125 L 15741.997696876526 1525.578125 C 15168.2248544693 2432.5573749542236 14249.291786551476 2979.4344844818115 13328.864518523216 3418.729211807251 12409.931450605392 3859.518138885498 11449.160779595375 4218.126079559326 10649.76372051239 4886.033369064331 8956.834995388985 6298.052135467529 8344.212950110435 9497.133806228638 9024.074000358582 11630.851053237915 9224.296815156937 12297.264142990112 9503.712235808372 12950.229434967041 9969.902670264244 13429.867555618286 10479.424907922745 13957.320068359375 11148.826557397842 14194.897829055786 11836.158608198166 14194.897829055786 12643.026667833328 14194.897829055786 13476.79032945633 13870.656482696533 14116.307976722717 13310.331575393677 15514.879280090332 12110.48917388916 16408.410946130753 9843.788148880005 16728.169769763947 7950.637062072754 16914.944783568382 6818.03364944458 16874.601380586624 5658.534641265869 16662.424964904785 4539.379026412964 16581.73815894127 4138.9334926605225 15649.357290029526 1685.457498550415 15741.997696876526 1525.578125 Z">
              </path>
            </g>
            <g>
              <path fill="#000" fill-opacity="0" stroke="#000" stroke-opacity="0" stroke-width="5371.801566579635"
                stroke-linecap="round" stroke-linejoin="round" stroke-miterlimit="10" pointer-events="visiblePainted"
                d="M 15741.997696876526 1525.578125 L 15741.997696876526 1525.578125 C 15168.2248544693 2432.5573749542236 14249.291786551476 2979.4344844818115 13328.864518523216 3418.729211807251 12409.931450605392 3859.518138885498 11449.160779595375 4218.126079559326 10649.76372051239 4886.033369064331 8956.834995388985 6298.052135467529 8344.212950110435 9497.133806228638 9024.074000358582 11630.851053237915 9224.296815156937 12297.264142990112 9503.712235808372 12950.229434967041 9969.902670264244 13429.867555618286 10479.424907922745 13957.320068359375 11148.826557397842 14194.897829055786 11836.158608198166 14194.897829055786 12643.026667833328 14194.897829055786 13476.79032945633 13870.656482696533 14116.307976722717 13310.331575393677 15514.879280090332 12110.48917388916 16408.410946130753 9843.788148880005 16728.169769763947 7950.637062072754 16914.944783568382 6818.03364944458 16874.601380586624 5658.534641265869 16662.424964904785 4539.379026412964 16581.73815894127 4138.9334926605225 15649.357290029526 1685.457498550415 15741.997696876526 1525.578125 Z">
              </path>
            </g>
          </g>
        </g>
        <g id="editor-p31_i9601">
          <g>
            <g>
              <path fill="#FFA43C" fill-opacity="1"
                d="M 17446.411236047745 1169.9942138195038 C 17407.562367916107 1169.9942138195038 17368.71349978447 1172.9826414585114 17328.370444417 1178.9594967365265 16887.585209846497 1259.6470429897308 16661.962937235832 1885.7226333618164 16874.137524724007 2259.2760882377625 17001.143439769745 2462.489167690277 17238.719210267067 2593.97998380661 17467.329857349396 2593.97998380661 17479.283355236053 2593.97998380661 17489.74266588688 2593.97998380661 17501.696163773537 2592.4857699871063 17713.87075126171 2592.4857699871063 17900.644155740738 2486.3965888023376 18008.225636720657 2313.0677857398987 18073.969875097275 2205.484390735626 18114.312930464745 2099.3952095508575 18127.760615587234 1979.8581039905548 18177.068794369698 1562.972448348999 17876.737159967422 1169.9942138195038 17446.411236047745 1169.9942138195038 Z">
              </path>
            </g>
            <g>
              <path fill="#000" fill-opacity="0" stroke="#000" stroke-opacity="0" stroke-width="5371.801566579635"
                stroke-linecap="round" stroke-linejoin="round" stroke-miterlimit="10" pointer-events="visiblePainted"
                d="M 17446.411236047745 1169.9942138195038 C 17407.562367916107 1169.9942138195038 17368.71349978447 1172.9826414585114 17328.370444417 1178.9594967365265 16887.585209846497 1259.6470429897308 16661.962937235832 1885.7226333618164 16874.137524724007 2259.2760882377625 17001.143439769745 2462.489167690277 17238.719210267067 2593.97998380661 17467.329857349396 2593.97998380661 17479.283355236053 2593.97998380661 17489.74266588688 2593.97998380661 17501.696163773537 2592.4857699871063 17713.87075126171 2592.4857699871063 17900.644155740738 2486.3965888023376 18008.225636720657 2313.0677857398987 18073.969875097275 2205.484390735626 18114.312930464745 2099.3952095508575 18127.760615587234 1979.8581039905548 18177.068794369698 1562.972448348999 17876.737159967422 1169.9942138195038 17446.411236047745 1169.9942138195038 Z">
              </path>
            </g>
          </g>
        </g>
        <g id="editor-p31_i9602">
          <g>
            <g>
              <path fill="#FFA43C" fill-opacity="1"
                d="M 13276.335758447647 0.1015625 C 12769.802648425102 0.1015625 12364.875 497.6717871427536 12702.56374001503 1046.0449776649475 12822.099577188492 1232.820587515831 12995.426541090012 1406.1483534574509 13209.096850037575 1486.8354169130325 13286.795144200325 1515.2253096103668 13370.470230221748 1530.1673583984375 13454.145316243172 1530.1673583984375 13599.082518815994 1530.1673583984375 13744.019721388817 1485.3412120342255 13862.06136059761 1392.7005095481873 14035.38832449913 1246.2684314250946 14116.075014591217 993.7478069067001 14089.179451227188 766.6286653280258 14062.28388786316 500.66019690036774 13915.852487325668 246.6453675031662 13688.73439669609 113.66113328933716 13552.762381911278 35.96247959136963 13410.813575267792 0.1015625 13276.335758447647 0.1015625 Z">
              </path>
            </g>
            <g>
              <path fill="#000" fill-opacity="0" stroke="#000" stroke-opacity="0" stroke-width="5371.801566579635"
                stroke-linecap="round" stroke-linejoin="round" stroke-miterlimit="10" pointer-events="visiblePainted"
                d="M 13276.335758447647 0.1015625 C 12769.802648425102 0.1015625 12364.875 497.6717871427536 12702.56374001503 1046.0449776649475 12822.099577188492 1232.820587515831 12995.426541090012 1406.1483534574509 13209.096850037575 1486.8354169130325 13286.795144200325 1515.2253096103668 13370.470230221748 1530.1673583984375 13454.145316243172 1530.1673583984375 13599.082518815994 1530.1673583984375 13744.019721388817 1485.3412120342255 13862.06136059761 1392.7005095481873 14035.38832449913 1246.2684314250946 14116.075014591217 993.7478069067001 14089.179451227188 766.6286653280258 14062.28388786316 500.66019690036774 13915.852487325668 246.6453675031662 13688.73439669609 113.66113328933716 13552.762381911278 35.96247959136963 13410.813575267792 0.1015625 13276.335758447647 0.1015625 Z">
              </path>
            </g>
          </g>
        </g>
        <g id="editor-p31_i9603">
          <g>
            <g>
              <path fill="#FFA43C" fill-opacity="1"
                d="M 3619.8237912654877 303.3828125 C 3573.503828048706 303.3828125 3525.689672470093 306.3711886405945 3479.369709253311 313.8421289920807 3238.804738998413 339.2433261871338 3119.26935005188 539.4645276069641 3065.47842502594 753.1334216594696 3011.6875 966.8023157119751 3038.58296251297 1273.1108701229095 3146.16481256485 1539.0763466358185 3244.7815084457397 1822.9720799922943 3446.4974772930145 2050.088666677475 3730.394026041031 2050.088666677475 3752.806911468506 2050.088666677475 3775.219796895981 2048.5944786071777 3799.1268746852875 2045.6061024665833 4278.762622833252 1993.3095200061798 4611.967519521713 1500.2274568080902 4544.728863239288 1032.5465908050537 4473.007629871368 576.8192293643951 4053.1395761966705 303.3828125 3619.8237912654877 303.3828125 Z">
              </path>
            </g>
            <g>
              <path fill="#000" fill-opacity="0" stroke="#000" stroke-opacity="0" stroke-width="5371.801566579635"
                stroke-linecap="round" stroke-linejoin="round" stroke-miterlimit="10" pointer-events="visiblePainted"
                d="M 3619.8237912654877 303.3828125 C 3573.503828048706 303.3828125 3525.689672470093 306.3711886405945 3479.369709253311 313.8421289920807 3238.804738998413 339.2433261871338 3119.26935005188 539.4645276069641 3065.47842502594 753.1334216594696 3011.6875 966.8023157119751 3038.58296251297 1273.1108701229095 3146.16481256485 1539.0763466358185 3244.7815084457397 1822.9720799922943 3446.4974772930145 2050.088666677475 3730.394026041031 2050.088666677475 3752.806911468506 2050.088666677475 3775.219796895981 2048.5944786071777 3799.1268746852875 2045.6061024665833 4278.762622833252 1993.3095200061798 4611.967519521713 1500.2274568080902 4544.728863239288 1032.5465908050537 4473.007629871368 576.8192293643951 4053.1395761966705 303.3828125 3619.8237912654877 303.3828125 Z">
              </path>
            </g>
          </g>
        </g>
        <g id="editor-p31_i9604">
          <g>
            <g>
              <path fill="#FF8D34" fill-opacity="1"
                d="M 16394.97021174431 3686.0723230838776 C 13382.660145521164 4445.12494969368 10782.749671697617 8204.52732872963 10197.02271437645 9257.936977863312 9157.05852484703 7617.307481765747 10064.038787841797 5791.3974232673645 10730.452621936798 4818.674470663071 L 10730.452621936798 4818.674470663071 C 10703.55699634552 4845.570036172867 10676.661370754242 4859.017818927765 10649.765745162964 4885.913384437561 8956.835534334183 6297.9305737018585 8344.212951421738 9497.008671283722 9024.074598312378 11630.723535060883 9224.297588825226 12297.135880470276 9503.71325469017 12950.100443124771 9969.904098272324 13429.738028049469 L 13889.194427490234 13056.188507080078 C 13889.194427490234 13056.188507080078 15635.915889501572 10190.316582202911 16781.968379974365 7603.859699010849 16901.50449371338 6590.793398141861 16847.713242530823 5552.325729846954 16662.43226623535 4539.259428977966 16635.536640644073 4418.229384183884 16527.95413827896 4085.023211479187 16394.97021174431 3686.0723230838776 Z">
              </path>
            </g>
            <g>
              <path fill="#000" fill-opacity="0" stroke="#000" stroke-opacity="0" stroke-width="5371.801566579635"
                stroke-linecap="round" stroke-linejoin="round" stroke-miterlimit="10" pointer-events="visiblePainted"
                d="M 16394.97021174431 3686.0723230838776 C 13382.660145521164 4445.12494969368 10782.749671697617 8204.52732872963 10197.02271437645 9257.936977863312 9157.05852484703 7617.307481765747 10064.038787841797 5791.3974232673645 10730.452621936798 4818.674470663071 L 10730.452621936798 4818.674470663071 C 10703.55699634552 4845.570036172867 10676.661370754242 4859.017818927765 10649.765745162964 4885.913384437561 8956.835534334183 6297.9305737018585 8344.212951421738 9497.008671283722 9024.074598312378 11630.723535060883 9224.297588825226 12297.135880470276 9503.71325469017 12950.100443124771 9969.904098272324 13429.738028049469 L 13889.194427490234 13056.188507080078 C 13889.194427490234 13056.188507080078 15635.915889501572 10190.316582202911 16781.968379974365 7603.859699010849 16901.50449371338 6590.793398141861 16847.713242530823 5552.325729846954 16662.43226623535 4539.259428977966 16635.536640644073 4418.229384183884 16527.95413827896 4085.023211479187 16394.97021174431 3686.0723230838776 Z">
              </path>
            </g>
          </g>
        </g>
        <g id="editor-p31_i9605">
          <g>
            <g>
              <path fill="#FFA43C" fill-opacity="1"
                d="M 2336.4218994379044 2791.1015625 C 2308.032092809677 2791.1015625 2281.136486530304 2792.595764040947 2252.7466799020767 2792.595764040947 1692.4215490818024 2806.0435779094696 1133.590618610382 2925.5797011852264 627.0567003488541 3204.995389342308 1505.6465054750443 5231.132678866386 1946.4356083869934 6991.302094101906 1879.1965926885605 9244.558017849922 1825.4053801298141 11349.88798904419 1599.7811274528503 13495.561401844025 2172.059861063957 15509.745079040527 3119.3828822374344 18801.47107374668 6372.257041692734 21266.903616309166 9796.96424126625 21307.247057914734 9816.388845801353 21307.247057914734 9834.319249987602 21307.247057914734 9853.743854522705 21307.247057914734 13245.578646421432 21307.247057914734 16520.865811109543 18903.076778531075 17527.956846237183 15656.17683005333 18128.625386476517 13695.784408330917 17955.298146009445 11590.45443713665 17955.298146009445 9523.973706007004 17955.298146009445 7470.94078874588 18182.416599035263 5284.923934340477 19421.108688235283 3645.7848439216614 19222.380041837692 3623.371820807457 19023.6513954401 3612.9124100208282 18824.92274904251 3612.9124100208282 16934.75930774212 3612.9124100208282 15090.916077256203 4558.741985440254 13716.251756310463 5885.592953801155 12196.650001525879 7337.956851601601 11156.68655872345 9231.1102039814 10237.7533441782 11124.263556361198 9557.8921854496 9177.318948507309 8851.135420441628 7204.972914457321 7570.605721473694 5591.235250234604 6454.438060879707 4185.191600203514 4325.202563762665 2791.1015625 2336.4218994379044 2791.1015625 Z">
              </path>
            </g>
            <g>
              <path fill="#000" fill-opacity="0" stroke="#000" stroke-opacity="0" stroke-width="5371.801566579635"
                stroke-linecap="round" stroke-linejoin="round" stroke-miterlimit="10" pointer-events="visiblePainted"
                d="M 2336.4218994379044 2791.1015625 C 2308.032092809677 2791.1015625 2281.136486530304 2792.595764040947 2252.7466799020767 2792.595764040947 1692.4215490818024 2806.0435779094696 1133.590618610382 2925.5797011852264 627.0567003488541 3204.995389342308 1505.6465054750443 5231.132678866386 1946.4356083869934 6991.302094101906 1879.1965926885605 9244.558017849922 1825.4053801298141 11349.88798904419 1599.7811274528503 13495.561401844025 2172.059861063957 15509.745079040527 3119.3828822374344 18801.47107374668 6372.257041692734 21266.903616309166 9796.96424126625 21307.247057914734 9816.388845801353 21307.247057914734 9834.319249987602 21307.247057914734 9853.743854522705 21307.247057914734 13245.578646421432 21307.247057914734 16520.865811109543 18903.076778531075 17527.956846237183 15656.17683005333 18128.625386476517 13695.784408330917 17955.298146009445 11590.45443713665 17955.298146009445 9523.973706007004 17955.298146009445 7470.94078874588 18182.416599035263 5284.923934340477 19421.108688235283 3645.7848439216614 19222.380041837692 3623.371820807457 19023.6513954401 3612.9124100208282 18824.92274904251 3612.9124100208282 16934.75930774212 3612.9124100208282 15090.916077256203 4558.741985440254 13716.251756310463 5885.592953801155 12196.650001525879 7337.956851601601 11156.68655872345 9231.1102039814 10237.7533441782 11124.263556361198 9557.8921854496 9177.318948507309 8851.135420441628 7204.972914457321 7570.605721473694 5591.235250234604 6454.438060879707 4185.191600203514 4325.202563762665 2791.1015625 2336.4218994379044 2791.1015625 Z">
              </path>
            </g>
          </g>
        </g>
        <g id="editor-p31_i9606">
          <g>
            <g>
              <path fill="#FF8D34" fill-opacity="1"
                d="M 17968.70453286171 10016.703125 C 16755.414623975754 11709.633335828781 15942.57015299797 15708.116340398788 13342.663205385208 16027.87544465065 13199.220063447952 16045.805861711502 13061.753719091415 16054.771070241928 12930.264172315598 16054.771070241928 10330.357224702835 16054.771070241928 10197.373478531837 12709.254086971283 10197.373478531837 12709.254086971283 10197.373478531837 12709.254086971283 9867.155412197113 15597.5454351902 7232.881878495216 15597.5454351902 7014.728766798973 15597.5454351902 6781.633661150932 15578.120816707611 6532.102362155914 15534.788975477219 4452.176804065704 15176.180634260178 2772.696683883667 12655.462835788727 1825.3742673397064 10883.33994960785 L 1825.3742673397064 10883.33994960785 C 1759.6294939517975 12443.286233901978 1746.1816993951797 14015.186129570007 2172.028527021408 15509.387551307678 3119.3509435653687 18801.113283395767 6372.223026871681 21266.545629262924 9796.928040623665 21306.88906764984 9816.352632761002 21306.88906764984 9834.283025503159 21306.88906764984 9853.707617640495 21306.88906764984 13245.540244698524 21306.88906764984 16520.825318932533 18902.71898007393 17527.915711283684 15655.81929063797 18074.79268991947 13855.306577444077 17982.152327418327 11923.304139137268 17968.70453286171 10016.703125 Z">
              </path>
            </g>
            <g>
              <path fill="#000" fill-opacity="0" stroke="#000" stroke-opacity="0" stroke-width="5371.801566579635"
                stroke-linecap="round" stroke-linejoin="round" stroke-miterlimit="10" pointer-events="visiblePainted"
                d="M 17968.70453286171 10016.703125 C 16755.414623975754 11709.633335828781 15942.57015299797 15708.116340398788 13342.663205385208 16027.87544465065 13199.220063447952 16045.805861711502 13061.753719091415 16054.771070241928 12930.264172315598 16054.771070241928 10330.357224702835 16054.771070241928 10197.373478531837 12709.254086971283 10197.373478531837 12709.254086971283 10197.373478531837 12709.254086971283 9867.155412197113 15597.5454351902 7232.881878495216 15597.5454351902 7014.728766798973 15597.5454351902 6781.633661150932 15578.120816707611 6532.102362155914 15534.788975477219 4452.176804065704 15176.180634260178 2772.696683883667 12655.462835788727 1825.3742673397064 10883.33994960785 L 1825.3742673397064 10883.33994960785 C 1759.6294939517975 12443.286233901978 1746.1816993951797 14015.186129570007 2172.028527021408 15509.387551307678 3119.3509435653687 18801.113283395767 6372.223026871681 21266.545629262924 9796.928040623665 21306.88906764984 9816.352632761002 21306.88906764984 9834.283025503159 21306.88906764984 9853.707617640495 21306.88906764984 13245.540244698524 21306.88906764984 16520.825318932533 18902.71898007393 17527.915711283684 15655.81929063797 18074.79268991947 13855.306577444077 17982.152327418327 11923.304139137268 17968.70453286171 10016.703125 Z">
              </path>
            </g>
          </g>
        </g>
        <g id="editor-p31_i9607">
          <g>
            <g>
              <path fill="#0A7C7F" fill-opacity="1"
                d="M 9984.775896787643 19586.556698918343 C 9796.507298707962 19586.556698918343 9650.07616686821 19728.50559616089 9636.628409862518 19906.315267443657 9490.197278022766 21466.25893819332 9436.40625 22706.44404041767 9877.193840742111 24252.939920902252 10343.38275027275 25851.732763528824 11036.689333677292 27398.228644013405 11342.999354362488 29050.81264770031 11556.669271230698 30171.461836457253 11608.96610403061 31304.064616560936 11516.326000213623 32423.219606399536 11449.087215185165 33170.31906557083 10809.57165980339 34543.48787152767 11982.514909744263 34716.81494605541 12045.271109104156 34724.285940647125 12103.544722795486 34728.76853740215 12160.324141263962 34728.76853740215 14105.76632142067 34728.76853740215 13028.451565742493 29729.178956627846 12769.955792188644 28731.054079174995 12515.94260430336 27771.778373599052 12155.841555595398 26878.247420430183 11782.292749881744 26011.61204779148 10930.601472854614 24025.82168531418 10289.591722249985 22146.1194460392 10316.487236261368 19946.658638238907 10316.487236261368 19759.883773446083 10183.503861427307 19613.45227944851 10010.177215576172 19586.556698918343 10001.212044239044 19586.556698918343 9993.741068124771 19586.556698918343 9984.775896787643 19586.556698918343 Z">
              </path>
            </g>
            <g>
              <path fill="#000" fill-opacity="0" stroke="#000" stroke-opacity="0" stroke-width="5371.801566579635"
                stroke-linecap="round" stroke-linejoin="round" stroke-miterlimit="10" pointer-events="visiblePainted"
                d="M 9984.775896787643 19586.556698918343 C 9796.507298707962 19586.556698918343 9650.07616686821 19728.50559616089 9636.628409862518 19906.315267443657 9490.197278022766 21466.25893819332 9436.40625 22706.44404041767 9877.193840742111 24252.939920902252 10343.38275027275 25851.732763528824 11036.689333677292 27398.228644013405 11342.999354362488 29050.81264770031 11556.669271230698 30171.461836457253 11608.96610403061 31304.064616560936 11516.326000213623 32423.219606399536 11449.087215185165 33170.31906557083 10809.57165980339 34543.48787152767 11982.514909744263 34716.81494605541 12045.271109104156 34724.285940647125 12103.544722795486 34728.76853740215 12160.324141263962 34728.76853740215 14105.76632142067 34728.76853740215 13028.451565742493 29729.178956627846 12769.955792188644 28731.054079174995 12515.94260430336 27771.778373599052 12155.841555595398 26878.247420430183 11782.292749881744 26011.61204779148 10930.601472854614 24025.82168531418 10289.591722249985 22146.1194460392 10316.487236261368 19946.658638238907 10316.487236261368 19759.883773446083 10183.503861427307 19613.45227944851 10010.177215576172 19586.556698918343 10001.212044239044 19586.556698918343 9993.741068124771 19586.556698918343 9984.775896787643 19586.556698918343 Z">
              </path>
            </g>
          </g>
        </g>
        <g id="editor-p31_i9608">
          <g>
            <g>
              <path fill="#0A7C7F" fill-opacity="1"
                d="M 20154.18598508835 22105.65625 L 20154.18598508835 22105.65625 C 19341.34255170822 23026.08109474182 18193.798881053925 23586.40466094017 17047.74940788746 24039.146102428436 15915.147712111473 24491.887543916702 14728.754906773567 24878.884353637695 13688.79345524311 25531.848082780838 13049.276930451393 25945.74042367935 12462.057317733765 26465.72069311142 12049.658811092377 27118.684422254562 11596.916972279549 27825.439213752747 10955.90625 28984.935446739197 12115.403500556946 29318.14119410515 12650.326201200485 29466.066615581512 13168.812729477882 29539.28222823143 13666.380492925644 29539.28222823143 15094.83329129219 29539.28222823143 16364.901155948639 28937.12116909027 17421.298779845238 27771.648151397705 18848.257380723953 26198.25957751274 19807.53216791153 24212.472858905792 20154.18598508835 22105.65625 Z">
              </path>
            </g>
            <g>
              <path fill="#000" fill-opacity="0" stroke="#000" stroke-opacity="0" stroke-width="5371.801566579635"
                stroke-linecap="round" stroke-linejoin="round" stroke-miterlimit="10" pointer-events="visiblePainted"
                d="M 20154.18598508835 22105.65625 L 20154.18598508835 22105.65625 C 19341.34255170822 23026.08109474182 18193.798881053925 23586.40466094017 17047.74940788746 24039.146102428436 15915.147712111473 24491.887543916702 14728.754906773567 24878.884353637695 13688.79345524311 25531.848082780838 13049.276930451393 25945.74042367935 12462.057317733765 26465.72069311142 12049.658811092377 27118.684422254562 11596.916972279549 27825.439213752747 10955.90625 28984.935446739197 12115.403500556946 29318.14119410515 12650.326201200485 29466.066615581512 13168.812729477882 29539.28222823143 13666.380492925644 29539.28222823143 15094.83329129219 29539.28222823143 16364.901155948639 28937.12116909027 17421.298779845238 27771.648151397705 18848.257380723953 26198.25957751274 19807.53216791153 24212.472858905792 20154.18598508835 22105.65625 Z">
              </path>
            </g>
          </g>
        </g>
        <g id="editor-p31_i9609">
          <g>
            <g>
              <path fill="#2EA19D" fill-opacity="1"
                d="M 293.8734929561615 14455.712950825691 C 145.94745779037476 15721.301050186157 -0.484375 17028.726772665977 293.8734929561615 18267.419257164 919.9442882537842 20933.073530197144 3518.36221909523 22785.88255405426 6198.961280584335 23359.65567111969 6603.890124320984 23444.82511818409 7085.023289203644 23503.098950386047 7582.592680215836 23503.098950386047 8866.112520694733 23503.098950386047 10246.755515575409 23119.089338183403 10650.190156936646 21840.053431391716 11210.51604771614 19987.2444075346 8930.363222837448 18427.298745512962 7504.894156694412 17828.124214410782 5825.4106867313385 17107.919416427612 3986.047562599182 16828.503862023354 2345.41335439682 16041.060026884079 1559.4629049301147 15655.556213855743 812.3617172241211 15149.022133946419 293.8734929561615 14455.712950825691 Z">
              </path>
            </g>
            <g>
              <path fill="#000" fill-opacity="0" stroke="#000" stroke-opacity="0" stroke-width="5371.801566579635"
                stroke-linecap="round" stroke-linejoin="round" stroke-miterlimit="10" pointer-events="visiblePainted"
                d="M 293.8734929561615 14455.712950825691 C 145.94745779037476 15721.301050186157 -0.484375 17028.726772665977 293.8734929561615 18267.419257164 919.9442882537842 20933.073530197144 3518.36221909523 22785.88255405426 6198.961280584335 23359.65567111969 6603.890124320984 23444.82511818409 7085.023289203644 23503.098950386047 7582.592680215836 23503.098950386047 8866.112520694733 23503.098950386047 10246.755515575409 23119.089338183403 10650.190156936646 21840.053431391716 11210.51604771614 19987.2444075346 8930.363222837448 18427.298745512962 7504.894156694412 17828.124214410782 5825.4106867313385 17107.919416427612 3986.047562599182 16828.503862023354 2345.41335439682 16041.060026884079 1559.4629049301147 15655.556213855743 812.3617172241211 15149.022133946419 293.8734929561615 14455.712950825691 Z">
              </path>
            </g>
          </g>
        </g>
        <g id="editor-p31_i9610">
          <g>
            <g>
              <path fill="#0A7C7F" fill-opacity="1"
                d="M 559.8067010641098 19106.9375 L 559.8067010641098 19106.9375 C 1480.234556555748 21319.83938920498 3812.6824176311493 22839.43508219719 6198.9215170145035 23359.414729356766 6603.85000538826 23444.583809494972 7084.982748031616 23502.857390642166 7582.55170238018 23502.857390642166 8866.0704164505 23502.857390642166 10246.712199687958 23118.849432826042 10650.146486997604 21839.819036364555 10890.712858319283 21026.97728908062 10584.401640176773 20252.984595894814 10050.971860289574 19613.46939766407 L 10050.971860289574 19613.46939766407 C 10143.612326264381 19973.57024526596 10143.612326264381 20347.118842363358 10024.076241135597 20734.11518895626 9629.60716021061 22011.651391029358 8251.953779101372 22395.659348845482 6968.435065031052 22395.659348845482 6472.360311746597 22395.659348845482 5989.733368039131 22338.879962086678 5584.804879665375 22253.71088194847 3612.459475040436 21826.37128686905 1692.41110765934 20720.667439460754 559.8067010641098 19106.9375 Z">
              </path>
            </g>
            <g>
              <path fill="#000" fill-opacity="0" stroke="#000" stroke-opacity="0" stroke-width="5371.801566579635"
                stroke-linecap="round" stroke-linejoin="round" stroke-miterlimit="10" pointer-events="visiblePainted"
                d="M 559.8067010641098 19106.9375 L 559.8067010641098 19106.9375 C 1480.234556555748 21319.83938920498 3812.6824176311493 22839.43508219719 6198.9215170145035 23359.414729356766 6603.85000538826 23444.583809494972 7084.982748031616 23502.857390642166 7582.55170238018 23502.857390642166 8866.0704164505 23502.857390642166 10246.712199687958 23118.849432826042 10650.146486997604 21839.819036364555 10890.712858319283 21026.97728908062 10584.401640176773 20252.984595894814 10050.971860289574 19613.46939766407 L 10050.971860289574 19613.46939766407 C 10143.612326264381 19973.57024526596 10143.612326264381 20347.118842363358 10024.076241135597 20734.11518895626 9629.60716021061 22011.651391029358 8251.953779101372 22395.659348845482 6968.435065031052 22395.659348845482 6472.360311746597 22395.659348845482 5989.733368039131 22338.879962086678 5584.804879665375 22253.71088194847 3612.459475040436 21826.37128686905 1692.41110765934 20720.667439460754 559.8067010641098 19106.9375 Z">
              </path>
            </g>
          </g>
        </g>
        <g id="editor-p31_i9611">
          <g>
            <g>
              <path fill="#FF8D34" fill-opacity="1"
                d="M 17799.26843047142 5408.791077256203 C 17794.78583085537 5408.791077256203 17787.314831495285 5411.779481768608 17781.338032007217 5417.756290793419 17101.477090239525 6018.425597786903 16488.855142712593 6684.839804053307 15915.0823918581 7391.597471237183 15341.309641003609 8096.860936164856 14821.328085541725 8857.40988457203 14368.585524320602 9643.360271334648 13902.395164251328 10430.80486035347 13515.397397398949 11270.546528339386 13262.877619028091 12149.137454986572 L 13089.55043387413 12817.045863509178 C 13035.759238481522 13042.670404195786 13008.863640785217 13269.789147138596 12968.52024424076 13495.413687825203 L 12929.671047568321 13830.114993214607 C 12916.223248720169 13949.651173710823 12916.223248720169 14055.739533901215 12916.223248720169 14175.27571439743 12902.775449872017 14402.39445734024 12902.775449872017 14629.51320028305 12902.775449872017 14855.137740969658 12902.775449872017 14868.585561275482 12902.775449872017 14868.585561275482 12916.223248720169 14868.585561275482 12920.70584833622 14873.06816804409 12923.694248080254 14874.562370300293 12925.18844795227 14874.562370300293 12929.671047568321 14874.562370300293 12929.671047568321 14868.585561275482 12929.671047568321 14868.585561275482 L 12929.671047568321 14855.137740969658 C 12981.968043088913 14642.961020588875 13022.31143963337 14415.842277646065 13062.654836177826 14188.723534703255 13089.55043387413 14082.635174512863 13102.998232722282 13976.546814322472 13128.39963054657 13868.964251875877 L 13209.086423635483 13535.757148742676 C 13262.877619028091 13323.580428361893 13301.726815700531 13096.461685419083 13368.965809941292 12882.790762782097 L 13582.63639163971 12243.272197127342 C 13634.933387160301 12029.601274490356 13729.067979097366 11829.378172159195 13808.260572314262 11617.201451778412 13888.947365403175 11403.530529141426 13942.738560795784 11189.85960650444 14048.826751708984 10989.636504173279 L 14302.840729951859 10377.013579130173 14609.151703715324 9777.838474392891 C 15021.55086839199 8976.946065068245 15501.189027309418 8217.891318917274 16048.066180467606 7497.685831427574 16581.49553477764 6764.03252363205 17168.716084480286 6070.722676753998 17808.23362970352 5444.651931405067 17821.681428551674 5431.204111099243 17821.681428551674 5417.756290793419 17808.23362970352 5417.756290793419 17808.23362970352 5411.779481768608 17805.245229959488 5408.791077256203 17799.26843047142 5408.791077256203 Z">
              </path>
            </g>
            <g>
              <path fill="#000" fill-opacity="0" stroke="#000" stroke-opacity="0" stroke-width="5371.801566579635"
                stroke-linecap="round" stroke-linejoin="round" stroke-miterlimit="10" pointer-events="visiblePainted"
                d="M 17799.26843047142 5408.791077256203 C 17794.78583085537 5408.791077256203 17787.314831495285 5411.779481768608 17781.338032007217 5417.756290793419 17101.477090239525 6018.425597786903 16488.855142712593 6684.839804053307 15915.0823918581 7391.597471237183 15341.309641003609 8096.860936164856 14821.328085541725 8857.40988457203 14368.585524320602 9643.360271334648 13902.395164251328 10430.80486035347 13515.397397398949 11270.546528339386 13262.877619028091 12149.137454986572 L 13089.55043387413 12817.045863509178 C 13035.759238481522 13042.670404195786 13008.863640785217 13269.789147138596 12968.52024424076 13495.413687825203 L 12929.671047568321 13830.114993214607 C 12916.223248720169 13949.651173710823 12916.223248720169 14055.739533901215 12916.223248720169 14175.27571439743 12902.775449872017 14402.39445734024 12902.775449872017 14629.51320028305 12902.775449872017 14855.137740969658 12902.775449872017 14868.585561275482 12902.775449872017 14868.585561275482 12916.223248720169 14868.585561275482 12920.70584833622 14873.06816804409 12923.694248080254 14874.562370300293 12925.18844795227 14874.562370300293 12929.671047568321 14874.562370300293 12929.671047568321 14868.585561275482 12929.671047568321 14868.585561275482 L 12929.671047568321 14855.137740969658 C 12981.968043088913 14642.961020588875 13022.31143963337 14415.842277646065 13062.654836177826 14188.723534703255 13089.55043387413 14082.635174512863 13102.998232722282 13976.546814322472 13128.39963054657 13868.964251875877 L 13209.086423635483 13535.757148742676 C 13262.877619028091 13323.580428361893 13301.726815700531 13096.461685419083 13368.965809941292 12882.790762782097 L 13582.63639163971 12243.272197127342 C 13634.933387160301 12029.601274490356 13729.067979097366 11829.378172159195 13808.260572314262 11617.201451778412 13888.947365403175 11403.530529141426 13942.738560795784 11189.85960650444 14048.826751708984 10989.636504173279 L 14302.840729951859 10377.013579130173 14609.151703715324 9777.838474392891 C 15021.55086839199 8976.946065068245 15501.189027309418 8217.891318917274 16048.066180467606 7497.685831427574 16581.49553477764 6764.03252363205 17168.716084480286 6070.722676753998 17808.23362970352 5444.651931405067 17821.681428551674 5431.204111099243 17821.681428551674 5417.756290793419 17808.23362970352 5417.756290793419 17808.23362970352 5411.779481768608 17805.245229959488 5408.791077256203 17799.26843047142 5408.791077256203 Z">
              </path>
            </g>
          </g>
        </g>
        <g id="editor-p31_i9612">
          <g>
            <g>
              <path fill="#FF8D34" fill-opacity="1"
                d="M 16923.601966023445 9753.712944865227 C 16917.625116944313 9753.712944865227 16914.636692404747 9756.70133459568 16914.636692404747 9764.172308921814 16635.218997955322 10070.482256293297 16394.650822520256 10390.23995745182 16142.128948926926 10723.445412397385 15901.56077349186 11070.09862112999 15674.44050848484 11416.751829862595 15462.262366175652 11763.4050385952 15262.037922024727 12123.506001114845 15034.917657017708 12482.112768769264 14901.932765007019 12882.556992650032 14768.94787299633 13269.55346274376 14674.8125 13681.951245546341 14674.8125 14109.29097700119 14674.8125 14109.29097700119 14674.8125 14122.73873078823 14674.8125 14122.73873078823 L 14701.708320856094 14122.73873078823 C 14888.484854578972 13735.742260694504 15048.365567445755 13375.641298174858 15208.246280312538 13002.092581868172 15395.022814035416 12643.485814213753 15528.007706046104 12256.489344120026 15701.336329340935 11896.38838160038 15888.112863063812 11522.839665293694 16074.88939678669 11176.186456561089 16288.561751365662 10816.085494041443 16488.786195516586 10469.432285308838 16714.412248253822 10122.779076576233 16941.53251326084 9777.620062708855 16941.53251326084 9777.620062708855 16941.53251326084 9764.172308921814 16941.53251326084 9764.172308921814 16934.061451911926 9756.70133459568 16928.084602832794 9753.712944865227 16923.601966023445 9753.712944865227 Z">
              </path>
            </g>
            <g>
              <path fill="#000" fill-opacity="0" stroke="#000" stroke-opacity="0" stroke-width="5371.801566579635"
                stroke-linecap="round" stroke-linejoin="round" stroke-miterlimit="10" pointer-events="visiblePainted"
                d="M 16923.601966023445 9753.712944865227 C 16917.625116944313 9753.712944865227 16914.636692404747 9756.70133459568 16914.636692404747 9764.172308921814 16635.218997955322 10070.482256293297 16394.650822520256 10390.23995745182 16142.128948926926 10723.445412397385 15901.56077349186 11070.09862112999 15674.44050848484 11416.751829862595 15462.262366175652 11763.4050385952 15262.037922024727 12123.506001114845 15034.917657017708 12482.112768769264 14901.932765007019 12882.556992650032 14768.94787299633 13269.55346274376 14674.8125 13681.951245546341 14674.8125 14109.29097700119 14674.8125 14109.29097700119 14674.8125 14122.73873078823 14674.8125 14122.73873078823 L 14701.708320856094 14122.73873078823 C 14888.484854578972 13735.742260694504 15048.365567445755 13375.641298174858 15208.246280312538 13002.092581868172 15395.022814035416 12643.485814213753 15528.007706046104 12256.489344120026 15701.336329340935 11896.38838160038 15888.112863063812 11522.839665293694 16074.88939678669 11176.186456561089 16288.561751365662 10816.085494041443 16488.786195516586 10469.432285308838 16714.412248253822 10122.779076576233 16941.53251326084 9777.620062708855 16941.53251326084 9777.620062708855 16941.53251326084 9764.172308921814 16941.53251326084 9764.172308921814 16934.061451911926 9756.70133459568 16928.084602832794 9753.712944865227 16923.601966023445 9753.712944865227 Z">
              </path>
            </g>
          </g>
        </g>
        <g id="editor-p31_i9613">
          <g>
            <g>
              <path fill="#FF8D34" fill-opacity="1"
                d="M 13661.911703586578 8190.877013206482 C 13355.601291894913 8564.427189826965 13089.634202718735 8976.826584815979 12822.172916412354 9390.720180511475 12583.101375579834 9803.119575500488 12355.98341178894 10243.908783912659 12155.760996341705 10696.651597976685 11955.53858089447 11135.946605682373 11795.659487962723 11603.631426811218 11689.571491718292 12083.269853591919 11596.931269645691 12562.90828037262 11556.587947130203 13069.442319869995 11608.884846687317 13549.080746650696 11608.884846687317 13562.528553009033 11622.332620859146 13562.528553009033 11622.332620859146 13562.528553009033 11622.332620859146 13562.528553009033 11635.780395030975 13562.528553009033 11635.780395030975 13549.080746650696 11676.123717546463 13069.442319869995 11729.91481423378 12589.803893089294 11849.45058465004 12123.613272666931 11968.9863550663 11655.928451538086 12103.464096784592 11189.737831115723 12276.790963888168 10736.995017051697 12462.071408033371 10296.205808639526 12662.293823480606 9856.910800933838 12902.859561443329 9431.063599586487 13128.48332810402 9003.722197532654 13395.9446144104 8591.32280254364 13675.359477758408 8204.32481956482 13675.359477758408 8204.32481956482 13675.359477758408 8190.877013206482 13675.359477758408 8190.877013206482 Z">
              </path>
            </g>
            <g>
              <path fill="#000" fill-opacity="0" stroke="#000" stroke-opacity="0" stroke-width="5371.801566579635"
                stroke-linecap="round" stroke-linejoin="round" stroke-miterlimit="10" pointer-events="visiblePainted"
                d="M 13661.911703586578 8190.877013206482 C 13355.601291894913 8564.427189826965 13089.634202718735 8976.826584815979 12822.172916412354 9390.720180511475 12583.101375579834 9803.119575500488 12355.98341178894 10243.908783912659 12155.760996341705 10696.651597976685 11955.53858089447 11135.946605682373 11795.659487962723 11603.631426811218 11689.571491718292 12083.269853591919 11596.931269645691 12562.90828037262 11556.587947130203 13069.442319869995 11608.884846687317 13549.080746650696 11608.884846687317 13562.528553009033 11622.332620859146 13562.528553009033 11622.332620859146 13562.528553009033 11622.332620859146 13562.528553009033 11635.780395030975 13562.528553009033 11635.780395030975 13549.080746650696 11676.123717546463 13069.442319869995 11729.91481423378 12589.803893089294 11849.45058465004 12123.613272666931 11968.9863550663 11655.928451538086 12103.464096784592 11189.737831115723 12276.790963888168 10736.995017051697 12462.071408033371 10296.205808639526 12662.293823480606 9856.910800933838 12902.859561443329 9431.063599586487 13128.48332810402 9003.722197532654 13395.9446144104 8591.32280254364 13675.359477758408 8204.32481956482 13675.359477758408 8204.32481956482 13675.359477758408 8190.877013206482 13675.359477758408 8190.877013206482 Z">
              </path>
            </g>
          </g>
        </g>
        <g id="editor-p31_i9614">
          <g>
            <g>
              <path fill="#FF8D34" fill-opacity="1"
                d="M 2293.025449872017 4911.2578125 C 2293.025449872017 4924.70561671257 2293.025449872017 4924.70561671257 2293.025449872017 4938.15342092514 2945.990793943405 5564.223417043686 3531.7171437740326 6270.980238437653 4065.1464980840683 6991.184864044189 4598.575852394104 7711.389489650726 5078.214011311531 8470.44332742691 5505.555174708366 9271.334778308868 L 5798.41834962368 9870.509166002274 6064.3859268426895 10483.131357908249 C 6158.520518779755 10696.802024841309 6224.2653131484985 10910.472691774368 6304.9521062374115 11110.695554494858 6384.144699454308 11322.872020959854 6478.279291391373 11523.094883680344 6532.070486783981 11750.213354825974 L 6730.79906976223 12376.283350944519 C 6798.038064002991 12603.401822090149 6838.381460547447 12817.072489023209 6904.126254916191 13029.248955488205 L 6984.813048005104 13362.455659866333 C 7011.708645701408 13470.038093566895 7025.156444549561 13576.126326799393 7038.604243397713 13695.662364244461 7090.901238918304 13909.33303117752 7117.796836614609 14136.45150232315 7171.588032007217 14362.075773000717 7171.588032007217 14362.075773000717 7185.03583085537 14375.523577213287 7198.483629703522 14375.523577213287 7198.483629703522 14375.523577213287 7211.931428551674 14362.075773000717 7211.931428551674 14348.627968788147 7211.931428551674 14123.00369811058 7198.483629703522 13895.88522696495 7198.483629703522 13668.76675581932 7198.483629703522 13562.678522586823 7185.03583085537 13443.142485141754 7185.03583085537 13323.606447696686 L 7131.244635462761 12988.905542850494 C 7104.349037766457 12763.281272172928 7064.005641222 12536.162801027298 7025.156444549561 12310.538530349731 L 6851.829259395599 11642.630921125412 C 6584.367482304573 10764.04104590416 6198.863915324211 9924.300382852554 5731.179355382919 9136.856736183167 5278.436794161797 8350.907289981842 4758.455238699913 7590.359251737595 4198.130286693573 6885.096630811691 3612.4039368629456 6178.339809417725 2999.781989336014 5511.9264006614685 2319.9210475683212 4911.2578125 Z">
              </path>
            </g>
            <g>
              <path fill="#000" fill-opacity="0" stroke="#000" stroke-opacity="0" stroke-width="5371.801566579635"
                stroke-linecap="round" stroke-linejoin="round" stroke-miterlimit="10" pointer-events="visiblePainted"
                d="M 2293.025449872017 4911.2578125 C 2293.025449872017 4924.70561671257 2293.025449872017 4924.70561671257 2293.025449872017 4938.15342092514 2945.990793943405 5564.223417043686 3531.7171437740326 6270.980238437653 4065.1464980840683 6991.184864044189 4598.575852394104 7711.389489650726 5078.214011311531 8470.44332742691 5505.555174708366 9271.334778308868 L 5798.41834962368 9870.509166002274 6064.3859268426895 10483.131357908249 C 6158.520518779755 10696.802024841309 6224.2653131484985 10910.472691774368 6304.9521062374115 11110.695554494858 6384.144699454308 11322.872020959854 6478.279291391373 11523.094883680344 6532.070486783981 11750.213354825974 L 6730.79906976223 12376.283350944519 C 6798.038064002991 12603.401822090149 6838.381460547447 12817.072489023209 6904.126254916191 13029.248955488205 L 6984.813048005104 13362.455659866333 C 7011.708645701408 13470.038093566895 7025.156444549561 13576.126326799393 7038.604243397713 13695.662364244461 7090.901238918304 13909.33303117752 7117.796836614609 14136.45150232315 7171.588032007217 14362.075773000717 7171.588032007217 14362.075773000717 7185.03583085537 14375.523577213287 7198.483629703522 14375.523577213287 7198.483629703522 14375.523577213287 7211.931428551674 14362.075773000717 7211.931428551674 14348.627968788147 7211.931428551674 14123.00369811058 7198.483629703522 13895.88522696495 7198.483629703522 13668.76675581932 7198.483629703522 13562.678522586823 7185.03583085537 13443.142485141754 7185.03583085537 13323.606447696686 L 7131.244635462761 12988.905542850494 C 7104.349037766457 12763.281272172928 7064.005641222 12536.162801027298 7025.156444549561 12310.538530349731 L 6851.829259395599 11642.630921125412 C 6584.367482304573 10764.04104590416 6198.863915324211 9924.300382852554 5731.179355382919 9136.856736183167 5278.436794161797 8350.907289981842 4758.455238699913 7590.359251737595 4198.130286693573 6885.096630811691 3612.4039368629456 6178.339809417725 2999.781989336014 5511.9264006614685 2319.9210475683212 4911.2578125 Z">
              </path>
            </g>
          </g>
        </g>
        <g id="editor-p31_i9615">
          <g>
            <g>
              <path fill="#FF8D34" fill-opacity="1"
                d="M 3180.5379658937454 9247.23639035225 C 3176.0553727149963 9247.23639035225 3171.5727795362473 9250.224796056747 3171.5727795362473 9257.695810317993 3159.6191977262497 9257.695810317993 3159.6191977262497 9271.143635988235 3171.5727795362473 9283.097258806229 3398.690833926201 9616.304494857788 3612.361108779907 9962.95955657959 3826.0313836336136 10309.614618301392 4024.759681224823 10669.717505693436 4224.982176542282 11029.82039308548 4398.309112787247 11389.923280477524 4585.083828568459 11750.026167869568 4718.067426204681 12137.024706602097 4891.394362449646 12495.633391141891 5064.721298694611 12869.184104204178 5224.600455403328 13229.286991596222 5397.9273916482925 13616.28553032875 5406.892578005791 13616.28553032875 5409.88097345829 13622.262341737747 5415.857764363289 13622.262341737747 5417.351962089539 13622.262341737747 5420.340357542038 13620.768138885498 5424.822950720787 13616.28553032875 5438.270730257034 13616.28553032875 5438.270730257034 13616.28553032875 5438.270730257034 13602.837704658508 5438.270730257034 13188.943514585495 5345.630471229553 12763.095701694489 5197.704896330833 12376.09716296196 5064.721298694611 11975.650798559189 4852.545221567154 11617.042114019394 4638.874946713448 11256.93922662735 4425.204671859741 10910.284164905548 4198.086617469788 10563.629103183746 3959.0149812698364 10230.421867132187 3718.4491473436356 9897.214631080627 3465.929731607437 9564.007395029068 3198.4683386087418 9257.695810317993 3192.491547703743 9250.224796056747 3185.0205590724945 9247.23639035225 3180.5379658937454 9247.23639035225 Z">
              </path>
            </g>
            <g>
              <path fill="#000" fill-opacity="0" stroke="#000" stroke-opacity="0" stroke-width="5371.801566579635"
                stroke-linecap="round" stroke-linejoin="round" stroke-miterlimit="10" pointer-events="visiblePainted"
                d="M 3180.5379658937454 9247.23639035225 C 3176.0553727149963 9247.23639035225 3171.5727795362473 9250.224796056747 3171.5727795362473 9257.695810317993 3159.6191977262497 9257.695810317993 3159.6191977262497 9271.143635988235 3171.5727795362473 9283.097258806229 3398.690833926201 9616.304494857788 3612.361108779907 9962.95955657959 3826.0313836336136 10309.614618301392 4024.759681224823 10669.717505693436 4224.982176542282 11029.82039308548 4398.309112787247 11389.923280477524 4585.083828568459 11750.026167869568 4718.067426204681 12137.024706602097 4891.394362449646 12495.633391141891 5064.721298694611 12869.184104204178 5224.600455403328 13229.286991596222 5397.9273916482925 13616.28553032875 5406.892578005791 13616.28553032875 5409.88097345829 13622.262341737747 5415.857764363289 13622.262341737747 5417.351962089539 13622.262341737747 5420.340357542038 13620.768138885498 5424.822950720787 13616.28553032875 5438.270730257034 13616.28553032875 5438.270730257034 13616.28553032875 5438.270730257034 13602.837704658508 5438.270730257034 13188.943514585495 5345.630471229553 12763.095701694489 5197.704896330833 12376.09716296196 5064.721298694611 11975.650798559189 4852.545221567154 11617.042114019394 4638.874946713448 11256.93922662735 4425.204671859741 10910.284164905548 4198.086617469788 10563.629103183746 3959.0149812698364 10230.421867132187 3718.4491473436356 9897.214631080627 3465.929731607437 9564.007395029068 3198.4683386087418 9257.695810317993 3192.491547703743 9250.224796056747 3185.0205590724945 9247.23639035225 3180.5379658937454 9247.23639035225 Z">
              </path>
            </g>
          </g>
        </g>
        <g id="editor-p31_i9616">
          <g>
            <g>
              <path fill="#FF8D34" fill-opacity="1"
                d="M 6424.28125 7684.353575706482 C 6424.28125 7684.353575706482 6424.28125 7697.801382064819 6424.28125 7697.801382064819 6717.14585018158 8084.79936504364 6971.161064624786 8497.198760032654 7211.728414773941 8924.540162086487 7437.35369348526 9350.387363433838 7651.02531504631 9789.682371139526 7824.3533437252045 10243.919385910034 8011.129236698151 10683.214393615723 8130.665808200836 11149.405014038086 8250.202379703522 11617.089835166931 8371.23315834999 12083.280455589294 8436.978272676468 12562.918882369995 8477.321865558624 13042.557309150696 8477.321865558624 13056.005115509033 8477.321865558624 13056.005115509033 8490.769729852676 13056.005115509033 8490.769729852676 13056.005115509033 8490.769729852676 13056.005115509033 8490.769729852676 13042.557309150696 8544.561187028885 12562.918882369995 8504.217594146729 12069.832649230957 8410.082544088364 11576.746416091919 8317.441701173782 11097.107989311218 8144.113672494888 10629.423168182373 7957.337779521942 10190.128160476685 7757.114022254944 9737.385346412659 7531.488743543625 9310.043944358826 7277.473529100418 8884.196743011475 7024.952521800995 8470.303147315979 6744.041578769684 8071.351558685303 6437.729114294052 7684.353575706482 Z">
              </path>
            </g>
            <g>
              <path fill="#000" fill-opacity="0" stroke="#000" stroke-opacity="0" stroke-width="5371.801566579635"
                stroke-linecap="round" stroke-linejoin="round" stroke-miterlimit="10" pointer-events="visiblePainted"
                d="M 6424.28125 7684.353575706482 C 6424.28125 7684.353575706482 6424.28125 7697.801382064819 6424.28125 7697.801382064819 6717.14585018158 8084.79936504364 6971.161064624786 8497.198760032654 7211.728414773941 8924.540162086487 7437.35369348526 9350.387363433838 7651.02531504631 9789.682371139526 7824.3533437252045 10243.919385910034 8011.129236698151 10683.214393615723 8130.665808200836 11149.405014038086 8250.202379703522 11617.089835166931 8371.23315834999 12083.280455589294 8436.978272676468 12562.918882369995 8477.321865558624 13042.557309150696 8477.321865558624 13056.005115509033 8477.321865558624 13056.005115509033 8490.769729852676 13056.005115509033 8490.769729852676 13056.005115509033 8490.769729852676 13056.005115509033 8490.769729852676 13042.557309150696 8544.561187028885 12562.918882369995 8504.217594146729 12069.832649230957 8410.082544088364 11576.746416091919 8317.441701173782 11097.107989311218 8144.113672494888 10629.423168182373 7957.337779521942 10190.128160476685 7757.114022254944 9737.385346412659 7531.488743543625 9310.043944358826 7277.473529100418 8884.196743011475 7024.952521800995 8470.303147315979 6744.041578769684 8071.351558685303 6437.729114294052 7684.353575706482 Z">
              </path>
            </g>
          </g>
        </g>
        <g id="editor-p31_i9617">
          <g>
            <g>
              <path fill="#2EA19D" fill-opacity="1"
                d="M 19821.114980578423 14455.712950825691 C 19301.13359105587 15149.022133946419 18554.033893465996 15655.556213855743 17781.532806158066 16041.060026884079 16128.948275089264 16828.503862023354 14289.588819622993 17107.919416427612 12610.108699440956 17828.124214410782 11196.596071600914 18427.298745512962 8904.49419939518 19987.2444075346 9476.772567749023 21840.053431391716 9871.241208076477 23119.089338183403 11248.893050432205 23503.098950386047 12536.892929077148 23503.098950386047 13035.955527067184 23503.098950386047 13520.076131105423 23444.82511818409 13929.486765384674 23359.65567111969 16608.586280941963 22785.88255405426 19206.999029159546 20933.073530197144 19834.56277513504 18267.419257164 20127.42585659027 17028.726772665977 19980.994315862656 15721.301050186157 19821.114980578423 14455.712950825691 Z">
              </path>
            </g>
            <g>
              <path fill="#000" fill-opacity="0" stroke="#000" stroke-opacity="0" stroke-width="5371.801566579635"
                stroke-linecap="round" stroke-linejoin="round" stroke-miterlimit="10" pointer-events="visiblePainted"
                d="M 19821.114980578423 14455.712950825691 C 19301.13359105587 15149.022133946419 18554.033893465996 15655.556213855743 17781.532806158066 16041.060026884079 16128.948275089264 16828.503862023354 14289.588819622993 17107.919416427612 12610.108699440956 17828.124214410782 11196.596071600914 18427.298745512962 8904.49419939518 19987.2444075346 9476.772567749023 21840.053431391716 9871.241208076477 23119.089338183403 11248.893050432205 23503.098950386047 12536.892929077148 23503.098950386047 13035.955527067184 23503.098950386047 13520.076131105423 23444.82511818409 13929.486765384674 23359.65567111969 16608.586280941963 22785.88255405426 19206.999029159546 20933.073530197144 19834.56277513504 18267.419257164 20127.42585659027 17028.726772665977 19980.994315862656 15721.301050186157 19821.114980578423 14455.712950825691 Z">
              </path>
            </g>
          </g>
        </g>
        <g id="editor-p31_i9618">
          <g>
            <g>
              <path fill="#0A7C7F" fill-opacity="1"
                d="M 19713.53843832016 18694.556703209877 L 19713.53843832016 18694.556703209877 C 18580.934844970703 20360.593282222748 16635.486456394196 21493.199315309525 14636.246868133545 21920.54143333435 14226.836070537567 22005.71101629734 13741.221073389053 22062.490738272667 13243.65247631073 22062.490738272667 11955.652083873749 22062.490738272667 10577.999691963196 21678.480513334274 10183.53089427948 20400.936768889427 10089.39629483223 20120.02656543255 10077.44269490242 19840.610565185547 10102.844094753265 19573.14819061756 L 10102.844094753265 19573.14819061756 C 9544.013298034668 20227.609196543694 9210.806699991226 21000.11225605011 9476.77429842949 21839.854460000992 9871.243096113205 23118.892407655716 11248.895488023758 23502.90263259411 12536.89588046074 23502.90263259411 13035.958677530289 23502.90263259411 13520.079474687576 23444.628707408905 13929.490272283554 23359.459124445915 16462.159257411957 22812.580749630928 18914.141443014145 21133.096341729164 19713.53843832016 18694.556703209877 Z">
              </path>
            </g>
            <g>
              <path fill="#000" fill-opacity="0" stroke="#000" stroke-opacity="0" stroke-width="5371.801566579635"
                stroke-linecap="round" stroke-linejoin="round" stroke-miterlimit="10" pointer-events="visiblePainted"
                d="M 19713.53843832016 18694.556703209877 L 19713.53843832016 18694.556703209877 C 18580.934844970703 20360.593282222748 16635.486456394196 21493.199315309525 14636.246868133545 21920.54143333435 14226.836070537567 22005.71101629734 13741.221073389053 22062.490738272667 13243.65247631073 22062.490738272667 11955.652083873749 22062.490738272667 10577.999691963196 21678.480513334274 10183.53089427948 20400.936768889427 10089.39629483223 20120.02656543255 10077.44269490242 19840.610565185547 10102.844094753265 19573.14819061756 L 10102.844094753265 19573.14819061756 C 9544.013298034668 20227.609196543694 9210.806699991226 21000.11225605011 9476.77429842949 21839.854460000992 9871.243096113205 23118.892407655716 11248.895488023758 23502.90263259411 12536.89588046074 23502.90263259411 13035.958677530289 23502.90263259411 13520.079474687576 23444.628707408905 13929.490272283554 23359.459124445915 16462.159257411957 22812.580749630928 18914.141443014145 21133.096341729164 19713.53843832016 18694.556703209877 Z">
              </path>
            </g>
          </g>
        </g>
        <g id="editor-p31_i9619">
          <g>
            <g>
              <path fill="#095E72" fill-opacity="1"
                d="M 19046.979409456253 23773.072322368622 C 19046.979409456253 23773.072322368622 19035.025809526443 23773.072322368622 19035.025809526443 23785.025901317596 18621.132411956787 24385.69324350357 18154.942014694214 24971.418612003326 17675.303817510605 25504.84707260132 17180.723620414734 26051.723309516907 16648.788423538208 26558.256217479706 16075.015626907349 26997.550243854523 15501.24283027649 27451.786243915558 14875.173033952713 27811.887809753418 14235.655437707901 28118.198270320892 13902.44883966446 28278.077388763428 13569.242241621017 28397.613178253174 13236.035643577576 28505.195388793945 12889.381245613098 28611.283401966095 12529.279047727585 28677.028086185455 12169.176849842072 28730.81919145584 12155.729049921036 28730.81919145584 12142.28125 28730.81919145584 12142.28125 28744.266967773438 12142.28125 28757.714744091034 12155.729049921036 28757.714744091034 12155.729049921036 28757.714744091034 12342.50404882431 28784.610296726227 12532.267447710037 28798.058073043823 12722.030846595764 28798.058073043823 12913.288445472717 28798.058073043823 13103.051844358444 28784.610296726227 13289.826843261719 28757.714744091034 13661.882641077042 28703.92363882065 14021.984838962555 28597.8356256485 14382.087036848068 28451.40428352356 15088.843632698059 28170.495178222656 15701.4656291008 27717.753375530243 16261.790625810623 27224.66824388504 16835.563422441483 26745.030888557434 17342.097219467163 26198.154651641846 17808.287616729736 25625.877059459686 18274.47801399231 25052.105269908905 18688.371411561966 24439.484348773956 19060.42720937729 23798.473677635193 19060.42720937729 23785.025901317596 19060.42720937729 23773.072322368622 19046.979409456253 23773.072322368622 Z">
              </path>
            </g>
            <g>
              <path fill="#000" fill-opacity="0" stroke="#000" stroke-opacity="0" stroke-width="5371.801566579635"
                stroke-linecap="round" stroke-linejoin="round" stroke-miterlimit="10" pointer-events="visiblePainted"
                d="M 19046.979409456253 23773.072322368622 C 19046.979409456253 23773.072322368622 19035.025809526443 23773.072322368622 19035.025809526443 23785.025901317596 18621.132411956787 24385.69324350357 18154.942014694214 24971.418612003326 17675.303817510605 25504.84707260132 17180.723620414734 26051.723309516907 16648.788423538208 26558.256217479706 16075.015626907349 26997.550243854523 15501.24283027649 27451.786243915558 14875.173033952713 27811.887809753418 14235.655437707901 28118.198270320892 13902.44883966446 28278.077388763428 13569.242241621017 28397.613178253174 13236.035643577576 28505.195388793945 12889.381245613098 28611.283401966095 12529.279047727585 28677.028086185455 12169.176849842072 28730.81919145584 12155.729049921036 28730.81919145584 12142.28125 28730.81919145584 12142.28125 28744.266967773438 12142.28125 28757.714744091034 12155.729049921036 28757.714744091034 12155.729049921036 28757.714744091034 12342.50404882431 28784.610296726227 12532.267447710037 28798.058073043823 12722.030846595764 28798.058073043823 12913.288445472717 28798.058073043823 13103.051844358444 28784.610296726227 13289.826843261719 28757.714744091034 13661.882641077042 28703.92363882065 14021.984838962555 28597.8356256485 14382.087036848068 28451.40428352356 15088.843632698059 28170.495178222656 15701.4656291008 27717.753375530243 16261.790625810623 27224.66824388504 16835.563422441483 26745.030888557434 17342.097219467163 26198.154651641846 17808.287616729736 25625.877059459686 18274.47801399231 25052.105269908905 18688.371411561966 24439.484348773956 19060.42720937729 23798.473677635193 19060.42720937729 23785.025901317596 19060.42720937729 23773.072322368622 19046.979409456253 23773.072322368622 Z">
              </path>
            </g>
          </g>
        </g>
      </g>
    </g>
  </g>
</svg>