<?xml version="1.0" encoding="utf-8"?>
<!-- Generator: Adobe Illustrator 18.1.1, SVG Export Plug-In . SVG Version: 6.00 Build 0)  -->
<!DOCTYPE svg PUBLIC "-//W3C//DTD SVG 1.1//EN" "http://www.w3.org/Graphics/SVG/1.1/DTD/svg11.dtd">
<svg version="1.1" id="Layer_1" xmlns="http://www.w3.org/2000/svg" xmlns:xlink="http://www.w3.org/1999/xlink" x="0px" y="0px"
	 viewBox="0 0 327.75 327" enable-background="new 0 0 327.75 327" xml:space="preserve">
<g id="Layer_X_2_">
	<g id="change1_2_">
		<path id="path" fill="#FFBC50" d="M160.062,307.82l-0.13-0.002l0.024-1l0.105,0.002c1.472,0,2.667-1.153,2.72-2.625
			c0.055-1.5-1.122-2.766-2.623-2.82l-0.179-0.004c-1.516,0-2.714,1.222-2.714,2.724c0,1.501,0.733,2.723,2.733,2.723v1
			c-2,0-3.733-1.67-3.733-3.723s1.664-3.724,3.731-3.724l0.201,0.004c2.058,0.076,3.662,1.806,3.586,3.857
			C163.713,306.244,162.075,307.82,160.062,307.82z M176.36,307.352l-0.08-0.996c-1.476,0.113-2.814-1.005-2.949-2.461
			c-0.14-1.5,0.912-2.799,2.397-2.958l0.164-0.015c1.501-0.111,2.81,1.024,2.92,2.515c0.11,1.497-1.018,2.807-2.515,2.917
			l0.074,0.998c2.047-0.152,3.589-1.941,3.438-3.989c-0.152-2.038-1.941-3.576-3.994-3.438l-0.196,0.018
			c-2.033,0.218-3.476,1.994-3.285,4.044c0.175,1.894,1.812,3.377,3.729,3.377C176.161,307.364,176.261,307.36,176.36,307.352z
			 M147.759,303.296c0.301-2.031-1.107-3.929-3.136-4.229l-0.218-0.029c-2.046-0.221-3.909,1.256-4.135,3.286
			c-0.11,0.989,0.167,1.96,0.779,2.734c0.614,0.776,1.495,1.264,2.482,1.374v0.001c0.185,0.026,0.367,0.04,0.548,0.04
			C145.909,306.473,147.491,305.107,147.759,303.296z M144.291,300.031l0.184,0.024c1.485,0.221,2.515,1.608,2.295,3.094
			c-0.216,1.457-1.6,2.518-3.094,2.294l-0.129,0.887l0.099-0.891c-0.721-0.08-1.364-0.436-1.812-1.002
			c-0.448-0.565-0.65-1.276-0.569-2.002c0.154-1.388,1.353-2.42,2.732-2.42C144.094,300.015,144.192,300.02,144.291,300.031z
			 M192.655,305.028L192.655,305.028c0.978-0.181,1.827-0.731,2.391-1.552c0.563-0.819,0.774-1.81,0.593-2.787
			c-0.374-2.013-2.319-3.353-4.342-2.983l-0.234,0.049c-0.97,0.224-1.8,0.812-2.336,1.655c-0.54,0.849-0.715,1.85-0.491,2.817
			c0.394,1.704,1.872,2.895,3.596,2.895C192.104,305.122,192.382,305.091,192.655,305.028z M189.21,302.003
			c-0.163-0.705-0.035-1.436,0.36-2.056c0.395-0.621,1.005-1.054,1.719-1.218l0.191-0.04c1.468-0.274,2.901,0.709,3.176,2.182
			c0.132,0.715-0.022,1.439-0.435,2.039s-1.033,1.003-1.748,1.136l0.142,0.764l-0.175-0.758
			C190.971,304.391,189.545,303.451,189.21,302.003z M131.908,300.539c0.528-1.979-0.669-4.027-2.667-4.564
			c-0.319-0.087-0.648-0.131-0.976-0.131c-1.676,0-3.151,1.134-3.588,2.758c-0.258,0.96-0.127,1.964,0.369,2.825
			c0.496,0.862,1.298,1.479,2.202,1.719l0.151,0.044c0.312,0.082,0.629,0.124,0.945,0.124
			C130.006,303.313,131.472,302.173,131.908,300.539z M128.979,296.939c1.468,0.396,2.348,1.895,1.962,3.342
			c-0.319,1.196-1.388,2.032-2.599,2.032c-0.229,0-0.461-0.03-0.779-0.114c-0.703-0.189-1.289-0.641-1.652-1.271
			c-0.363-0.63-0.459-1.364-0.27-2.066c0.32-1.188,1.398-2.018,2.623-2.018C128.504,296.843,128.744,296.876,128.979,296.939z
			 M208.577,300.854l-0.299-0.955c-0.267,0.084-0.542,0.126-0.82,0.126c-1.189,0-2.236-0.75-2.604-1.865
			c-0.47-1.429,0.264-2.93,1.678-3.419l0.159-0.052c1.434-0.44,2.963,0.369,3.405,1.801c0.441,1.437-0.367,2.963-1.803,3.405
			l0.295,0.955c1.962-0.604,3.066-2.691,2.463-4.654c-0.604-1.958-2.689-3.062-4.653-2.464c-0.039,0.013-0.166,0.054-0.2,0.065
			c-1.929,0.668-2.937,2.722-2.293,4.675c0.502,1.527,1.931,2.553,3.553,2.553C207.838,301.025,208.214,300.967,208.577,300.854z
			 M116.508,295.988c0.75-1.911-0.212-4.082-2.144-4.841c-0.436-0.171-0.893-0.258-1.358-0.258c-1.543,0-2.904,0.929-3.467,2.365
			c-0.75,1.911,0.196,4.076,2.182,4.855c0.433,0.17,0.885,0.256,1.344,0.256C114.59,298.366,115.942,297.432,116.508,295.988z
			 M113.999,292.079c1.418,0.557,2.126,2.146,1.579,3.544c-0.415,1.059-1.402,1.743-2.514,1.743c-0.333,0-0.662-0.062-1.053-0.217
			c-1.398-0.548-2.089-2.132-1.542-3.529c0.413-1.051,1.408-1.73,2.537-1.73C113.346,291.889,113.68,291.953,113.999,292.079z
			 M223.941,294.868c0.909-0.4,1.608-1.131,1.968-2.057c0.36-0.927,0.339-1.938-0.062-2.849c-0.827-1.88-3.027-2.735-4.907-1.909
			c-0.054,0.024-0.187,0.086-0.238,0.111c-0.891,0.445-1.561,1.211-1.886,2.157c-0.328,0.954-0.264,1.969,0.181,2.857
			c0.64,1.279,1.909,2.074,3.315,2.074C222.879,295.254,223.427,295.124,223.941,294.868z M219.892,292.732
			c-0.323-0.646-0.37-1.387-0.13-2.084s0.732-1.262,1.388-1.589c0.042-0.021,0.149-0.071,0.193-0.09
			c1.371-0.606,2.983,0.021,3.589,1.396c0.293,0.666,0.31,1.406,0.046,2.084s-0.775,1.212-1.441,1.505l0.278,0.634l-0.31-0.619
			C222.191,294.627,220.55,294.049,219.892,292.732z M101.755,289.75c0.978-1.806,0.305-4.069-1.496-5.044
			c-0.043-0.024-0.166-0.088-0.211-0.11c-0.894-0.438-1.909-0.505-2.855-0.188c-0.953,0.319-1.718,0.986-2.155,1.879
			c-0.438,0.894-0.507,1.899-0.194,2.834c0.313,0.936,0.975,1.691,1.864,2.129l0,0c0.542,0.295,1.155,0.45,1.771,0.45
			C99.848,291.7,101.104,290.953,101.755,289.75z M99.607,285.493l0.171,0.089c0.64,0.347,1.106,0.921,1.313,1.618
			c0.208,0.697,0.131,1.434-0.215,2.073c-0.477,0.88-1.396,1.427-2.398,1.427c-0.45,0-0.897-0.114-1.294-0.329l-0.377,0.695
			l0.348-0.711c-0.65-0.318-1.134-0.869-1.363-1.553c-0.229-0.683-0.178-1.42,0.144-2.076c0.318-0.65,0.877-1.137,1.574-1.37
			c0.29-0.097,0.588-0.146,0.886-0.146C98.812,285.211,99.225,285.305,99.607,285.493z M238.413,287.225
			c0.021-0.013,0.128-0.077,0.137-0.083c1.749-1.063,2.288-3.288,1.229-5.065c-0.661-1.111-1.892-1.802-3.209-1.802
			c-0.668,0-1.325,0.177-1.899,0.513c-0.859,0.501-1.472,1.307-1.725,2.269c-0.254,0.962-0.117,1.965,0.385,2.823
			c0.664,1.14,1.897,1.848,3.219,1.848C237.205,287.727,237.853,287.551,238.413,287.225z M238.919,282.589
			c0.775,1.3,0.385,2.925-0.898,3.706l-0.103,0.062c-1.257,0.732-2.997,0.267-3.725-0.98c-0.366-0.628-0.467-1.361-0.281-2.065
			c0.186-0.703,0.633-1.293,1.262-1.659c0.422-0.246,0.904-0.376,1.396-0.376C237.536,281.275,238.437,281.778,238.919,282.589z
			 M87.774,281.774c1.147-1.665,0.725-3.983-0.941-5.168c-0.634-0.451-1.378-0.689-2.154-0.689c-1.204,0-2.34,0.585-3.039,1.565
			c-0.576,0.811-0.802,1.798-0.637,2.778s0.703,1.838,1.515,2.416l0.157,0.106c0.607,0.405,1.31,0.619,2.032,0.619
			C85.927,283.402,87.073,282.794,87.774,281.774z M86.254,277.421c1.223,0.87,1.536,2.569,0.697,3.787
			c-0.817,1.188-2.521,1.543-3.724,0.741l-0.13-0.089c-0.593-0.422-0.986-1.049-1.107-1.766c-0.121-0.718,0.044-1.439,0.466-2.032
			c0.511-0.717,1.342-1.146,2.224-1.146C85.246,276.917,85.79,277.091,86.254,277.421z M252.036,277.906l0.084-0.064
			c1.602-1.237,1.892-3.565,0.646-5.188c-0.702-0.917-1.778-1.442-2.953-1.442c-0.836,0-1.627,0.267-2.288,0.771
			c-1.633,1.244-1.95,3.585-0.706,5.218c0.71,0.933,1.791,1.468,2.964,1.468C250.604,278.668,251.383,278.404,252.036,277.906z
			 M251.973,273.262c0.927,1.207,0.723,2.871-0.436,3.768c-0.009,0.006-0.107,0.081-0.107,0.081s0,0,0.001,0
			c-1.162,0.885-2.934,0.643-3.817-0.517c-0.909-1.194-0.678-2.907,0.517-3.817c0.486-0.37,1.067-0.565,1.683-0.565
			C250.674,272.212,251.461,272.594,251.973,273.262z M74.833,272.343c0.656-0.748,0.981-1.706,0.917-2.698
			c-0.064-0.993-0.511-1.9-1.254-2.553l-0.099-0.086c-0.755-0.647-1.721-0.969-2.709-0.886c-0.992,0.076-1.895,0.534-2.541,1.29
			c-0.647,0.755-0.962,1.717-0.886,2.709c0.076,0.991,0.534,1.894,1.29,2.541l0.65-0.76c-0.552-0.473-0.887-1.133-0.943-1.858
			s0.174-1.429,0.648-1.981c0.473-0.553,1.133-0.888,1.858-0.943c0.725-0.058,1.429,0.175,1.988,0.654l0.079,0.068
			c0.546,0.479,0.873,1.144,0.92,1.869c0.047,0.727-0.191,1.427-0.671,1.974c-0.953,1.084-2.756,1.206-3.844,0.249l-0.66,0.752
			c0.68,0.597,1.552,0.926,2.456,0.926C73.105,273.61,74.126,273.148,74.833,272.343z M264.514,267.094l-0.693-0.721
			c-1.044,1.004-2.836,0.987-3.846-0.041c-1.041-1.062-1.039-2.776,0.004-3.819l0.108-0.104c0.525-0.501,1.19-0.788,1.944-0.748
			c0.728,0.019,1.403,0.32,1.905,0.848c0.501,0.526,0.767,1.218,0.748,1.944c-0.019,0.728-0.319,1.404-0.848,1.905l0.689,0.725
			c0.721-0.685,1.132-1.61,1.158-2.604c0.025-0.995-0.338-1.939-1.023-2.66s-1.61-1.132-2.604-1.158
			c-1.001-0.001-1.939,0.337-2.651,1.015l-0.135,0.131c-1.43,1.43-1.435,3.773-0.011,5.227c0.701,0.715,1.644,1.108,2.651,1.108
			C262.889,268.141,263.812,267.769,264.514,267.094z M63.023,261.417c0.73-0.675,1.148-1.601,1.179-2.607
			c0.03-1-0.325-1.953-1.001-2.683c-1.34-1.452-3.812-1.55-5.262-0.206c-0.73,0.676-1.153,1.595-1.192,2.589
			c-0.039,0.993,0.312,1.942,1.042,2.73c0.703,0.762,1.659,1.181,2.691,1.181C61.421,262.421,62.325,262.064,63.023,261.417z
			 M62.467,256.805c0.497,0.536,0.758,1.237,0.736,1.974s-0.327,1.412-0.859,1.903c-1.074,0.995-2.79,0.995-3.875-0.18
			c-0.494-0.533-0.75-1.228-0.722-1.955c0.028-0.727,0.338-1.398,0.872-1.893c0.504-0.468,1.161-0.725,1.848-0.725
			C61.225,255.93,61.954,256.249,62.467,256.805z M275.585,255.052l0.121-0.145c1.28-1.582,1.045-3.854-0.537-5.174
			c-0.658-0.547-1.497-0.849-2.362-0.849c-1.107,0-2.155,0.48-2.873,1.318c-0.646,0.755-0.961,1.717-0.885,2.709
			c0.076,0.991,0.534,1.894,1.288,2.54c0.674,0.579,1.534,0.897,2.422,0.897C273.849,256.35,274.879,255.877,275.585,255.052z
			 M274.529,250.503c1.156,0.965,1.332,2.623,0.385,3.793l-0.086,0.104c-0.939,1.096-2.741,1.238-3.84,0.295
			c-0.552-0.473-0.887-1.133-0.942-1.858s0.174-1.429,0.647-1.981c0.527-0.615,1.298-0.969,2.113-0.969
			C273.438,249.885,274.051,250.105,274.529,250.503z M52.52,249.284c0.804-0.584,1.328-1.454,1.477-2.45
			c0.148-0.989-0.093-1.978-0.679-2.782c-0.698-0.961-1.825-1.535-3.014-1.535c-0.791,0-1.547,0.247-2.188,0.714
			c-0.804,0.585-1.333,1.448-1.488,2.43c-0.155,0.982,0.082,1.967,0.713,2.835c0.699,0.962,1.781,1.514,2.968,1.514
			C51.104,250.008,51.868,249.758,52.52,249.284z M52.509,244.639c0.43,0.592,0.607,1.318,0.499,2.047
			c-0.109,0.729-0.491,1.363-1.076,1.789c-1.191,0.866-2.897,0.646-3.828-0.633c-0.428-0.588-0.601-1.308-0.487-2.026
			s0.5-1.35,1.088-1.777c0.468-0.342,1.021-0.522,1.599-0.522C51.173,243.516,51.998,243.936,52.509,244.639z M285.364,241.635
			l-0.84-0.543c-0.511,0.791-1.378,1.263-2.319,1.263c-0.506,0-1-0.143-1.429-0.411c-1.277-0.801-1.67-2.427-0.889-3.71l0.084-0.132
			c0.397-0.61,1.009-1.028,1.721-1.178c0.713-0.149,1.439-0.013,2.048,0.384c1.259,0.82,1.614,2.511,0.794,3.769l0.838,0.547
			c1.121-1.72,0.635-4.031-1.085-5.153c-0.832-0.543-1.824-0.727-2.801-0.525c-0.974,0.205-1.81,0.777-2.387,1.665l-0.069,0.111
			c-1.065,1.748-0.531,3.976,1.215,5.07c0.588,0.368,1.266,0.563,1.96,0.563C283.487,243.355,284.669,242.713,285.364,241.635z
			 M293.449,227.359l0.062-0.127c0.886-1.847,0.123-4.007-1.737-4.918c-0.506-0.247-1.049-0.373-1.611-0.373
			c-1.417,0-2.741,0.819-3.374,2.088c-0.445,0.89-0.517,1.898-0.202,2.843c0.314,0.943,0.978,1.708,1.867,2.152
			c0.522,0.261,1.082,0.394,1.662,0.394C291.538,229.418,292.814,228.629,293.449,227.359z M291.335,223.213
			c1.36,0.666,1.921,2.242,1.274,3.588l0.451,0.216l-0.506-0.104c-0.464,0.929-1.398,1.506-2.438,1.506
			c-0.424,0-0.833-0.097-1.215-0.288c-0.651-0.325-1.136-0.885-1.366-1.574c-0.229-0.69-0.178-1.429,0.148-2.079
			c0.466-0.933,1.438-1.535,2.479-1.535C290.572,222.941,290.967,223.033,291.335,223.213z M36.003,221.883
			c1.893-0.795,2.786-2.981,1.992-4.871l-0.058-0.134c-0.592-1.347-1.926-2.217-3.398-2.217c-0.514,0-1.016,0.104-1.491,0.312
			c-1.875,0.816-2.741,3.013-1.92,4.919c0.583,1.387,1.931,2.283,3.434,2.283C35.059,222.174,35.544,222.076,36.003,221.883z
			 M37.023,217.281l0.049,0.114c0.582,1.385-0.072,2.984-1.457,3.565c-0.336,0.142-0.69,0.214-1.052,0.214
			c-1.1,0-2.086-0.655-2.525-1.7c-0.594-1.38,0.038-2.988,1.41-3.585c0.349-0.151,0.716-0.229,1.092-0.229
			C35.616,215.661,36.59,216.297,37.023,217.281z M299.838,212.297c0.021-0.051,0.069-0.186,0.088-0.238
			c0.678-1.958-0.349-4.099-2.288-4.771c-0.402-0.139-0.819-0.209-1.239-0.209c-1.571,0-2.972,0.995-3.476,2.454
			c-0.763,1.906,0.168,4.077,2.074,4.84c0.442,0.178,0.907,0.268,1.382,0.268C297.91,214.64,299.268,213.721,299.838,212.297z
			 M297.311,208.233c1.418,0.491,2.167,2.061,1.67,3.498l-0.071,0.196c-0.417,1.04-1.41,1.713-2.53,1.713
			c-0.347,0-0.687-0.065-1.011-0.195c-1.395-0.559-2.075-2.146-1.509-3.563c0.373-1.078,1.394-1.803,2.539-1.803
			C296.707,208.079,297.015,208.131,297.311,208.233z M30.188,206.923c1.972-0.568,3.114-2.637,2.545-4.609l-0.041-0.14
			c-0.483-1.566-1.908-2.619-3.545-2.619c-0.368,0-0.735,0.055-1.089,0.163c-1.956,0.592-3.072,2.672-2.48,4.66
			c0.457,1.585,1.928,2.692,3.576,2.692C29.504,207.07,29.853,207.02,30.188,206.923z M31.737,202.468l0.478-0.147l-0.442,0.27
			c0.416,1.442-0.419,2.955-1.863,3.371c-1.409,0.413-2.964-0.449-3.38-1.892c-0.428-1.439,0.387-2.963,1.819-3.396
			c0.261-0.08,0.53-0.12,0.799-0.12C30.344,200.554,31.384,201.323,31.737,202.468z M304.532,196.351l0.024-0.107
			c0.438-1.975-0.827-3.949-2.821-4.399c-0.266-0.061-0.537-0.091-0.808-0.091c-1.726,0-3.261,1.229-3.651,2.924
			c-0.224,0.969-0.057,1.967,0.471,2.811c0.527,0.843,1.352,1.431,2.319,1.654c0.274,0.063,0.558,0.096,0.841,0.096
			C302.649,199.238,304.141,198.05,304.532,196.351z M301.515,192.819c1.483,0.336,2.391,1.745,2.065,3.208l0.488,0.108
			l-0.511-0.009c-0.286,1.243-1.376,2.111-2.65,2.111c-0.207,0-0.414-0.023-0.615-0.07c-0.709-0.163-1.312-0.594-1.697-1.21
			c-0.385-0.617-0.508-1.347-0.344-2.056c0.287-1.245,1.412-2.148,2.677-2.148C301.124,192.754,301.321,192.776,301.515,192.819z
			 M26.132,191.393c2.025-0.338,3.398-2.26,3.061-4.285l-0.025-0.145c-0.366-1.976-2.277-3.342-4.32-2.975
			c-2.011,0.363-3.359,2.302-3,4.344c0.301,1.803,1.844,3.111,3.669,3.111C25.718,191.444,25.924,191.427,26.132,191.393z
			 M28.184,187.145l0.492-0.091l-0.469,0.218c0.247,1.481-0.758,2.888-2.237,3.135c-1.511,0.243-2.89-0.769-3.141-2.271
			c-0.26-1.479,0.726-2.897,2.197-3.163c0.165-0.03,0.329-0.045,0.491-0.045C26.824,184.928,27.946,185.861,28.184,187.145z
			 M307.339,180.038c0.224-2.019-1.254-3.846-3.296-4.072c-2.081-0.225-3.889,1.288-4.115,3.33
			c-0.227,2.039,1.249,3.884,3.293,4.111c0.139,0.015,0.275,0.022,0.412,0.022C305.53,183.429,307.119,182.006,307.339,180.038z
			 M303.935,176.96c1.518,0.168,2.576,1.472,2.401,3.047c-0.153,1.382-1.315,2.423-2.703,2.423c-0.102,0-0.205-0.006-0.305-0.017
			c-1.492-0.166-2.572-1.516-2.406-3.008c0.153-1.38,1.35-2.461,2.725-2.461C303.742,176.944,303.839,176.949,303.935,176.96z
			 M23.895,175.461c2.048-0.111,3.624-1.887,3.513-3.958c-0.11-2.041-1.826-3.638-3.917-3.518c-2.05,0.11-3.628,1.867-3.52,3.891
			l0.006,0.113c0.108,1.95,1.737,3.478,3.708,3.478L23.895,175.461z M26.409,171.556c0.082,1.521-1.071,2.824-2.565,2.906
			l-0.159,0.004c-1.44,0-2.63-1.112-2.714-2.617c-0.081-1.5,1.074-2.785,2.573-2.866l0.146-0.004
			C25.136,168.979,26.331,170.112,26.409,171.556z M308,163.612l-0.002-0.096l0.002-0.203c0-2.065-1.581-3.683-3.6-3.683
			c-2.023,0-3.608,1.632-3.607,3.692l-0.017,0.126c-0.016,0.104-0.026,0.208-0.026,0.244c0,2.087,1.606,3.723,3.658,3.723
			C306.422,167.415,308,165.779,308,163.612z M307,163.313v0.379c0,1.552-1.114,2.723-2.592,2.723c-1.49,0-2.658-1.196-2.659-2.7
			l0.017-0.126c0.016-0.104,0.026-0.208,0.026-0.244c0-1.522,1.146-2.715,2.608-2.715C305.883,160.63,307,161.783,307,163.313z
			 M304.023,151.079c2.041-0.227,3.517-2.071,3.281-4.191c-0.224-2.003-2.045-3.479-4.107-3.25c-0.988,0.11-1.875,0.606-2.497,1.397
			c-0.618,0.787-0.898,1.765-0.789,2.754c0.211,1.889,1.8,3.312,3.697,3.312C303.746,151.102,303.885,151.095,304.023,151.079z
			 M306.319,147.078c0.166,1.493-0.913,2.842-2.406,3.007c-1.517,0.172-2.843-0.924-3.008-2.406
			c-0.081-0.727,0.125-1.446,0.581-2.025c0.455-0.579,1.102-0.942,1.82-1.021c0.104-0.012,0.207-0.017,0.31-0.017
			C305.001,144.615,306.159,145.64,306.319,147.078z M29.142,140.412c0.381-2.018-0.951-3.969-2.968-4.349
			c-2.055-0.39-3.976,0.984-4.349,2.965l-0.028,0.16c-0.336,2.015,0.994,3.877,3.028,4.238c0.216,0.039,0.43,0.057,0.642,0.057
			C27.26,143.483,28.806,142.192,29.142,140.412z M25.988,137.045c1.476,0.278,2.45,1.706,2.171,3.181
			c-0.276,1.46-1.668,2.478-3.16,2.216c-1.488-0.265-2.461-1.622-2.217-3.088l0.024-0.138c0.242-1.286,1.365-2.22,2.669-2.22
			C25.645,136.997,25.815,137.012,25.988,137.045z M301.829,135.196c0.962-0.254,1.768-0.862,2.269-1.713
			c0.503-0.854,0.64-1.853,0.387-2.811c-0.38-1.682-1.905-2.903-3.626-2.903c-0.277,0-0.556,0.032-0.827,0.093
			c-0.97,0.22-1.797,0.804-2.327,1.646s-0.701,1.839-0.483,2.801c0.009,0.042,0.041,0.171,0.052,0.214
			c0.435,1.646,1.921,2.795,3.615,2.795C301.205,135.319,301.521,135.278,301.829,135.196z M303.517,130.924
			c0.186,0.701,0.086,1.429-0.28,2.051s-0.957,1.067-1.663,1.253c-1.428,0.377-2.955-0.529-3.334-1.961l-0.042-0.172
			c-0.16-0.709-0.035-1.439,0.353-2.054c0.389-0.616,0.993-1.043,1.703-1.204c0.199-0.045,0.403-0.068,0.605-0.068
			C302.116,128.77,303.231,129.663,303.517,130.924z M32.658,125.167c0.593-1.965-0.523-4.047-2.488-4.641
			c-0.351-0.106-0.713-0.16-1.076-0.16c-1.627,0-3.093,1.089-3.564,2.648l-0.036,0.121c-0.569,1.972,0.544,3.977,2.535,4.565
			c0.336,0.1,0.685,0.15,1.036,0.15C30.703,127.85,32.181,126.746,32.658,125.167z M26.486,123.303
			c0.422-1.395,1.987-2.243,3.395-1.82c1.438,0.434,2.254,1.957,1.82,3.395c-0.425,1.407-1.991,2.275-3.39,1.863
			c-1.456-0.43-2.271-1.892-1.857-3.329l-0.48-0.139L26.486,123.303z M297.626,119.654c1.904-0.708,2.891-2.847,2.199-4.77
			l-0.941,0.338c0.507,1.409-0.214,2.977-1.605,3.494c-1.389,0.516-2.963-0.2-3.483-1.554l-0.467,0.18l0.413-0.326
			c-0.499-1.417,0.246-2.976,1.662-3.475c0.684-0.243,1.426-0.205,2.082,0.11c0.656,0.314,1.15,0.865,1.393,1.552l0.943-0.333
			c-0.331-0.938-1.008-1.691-1.903-2.121c-0.896-0.429-1.908-0.483-2.848-0.151c-1.936,0.683-2.955,2.814-2.244,4.827l0.035,0.097
			c0.554,1.439,1.909,2.369,3.455,2.369C296.762,119.89,297.203,119.811,297.626,119.654z M37.896,110.446
			c0.813-1.885-0.059-4.081-1.944-4.895c-0.469-0.202-0.964-0.304-1.472-0.304c-1.489,0-2.833,0.883-3.426,2.259l0.462,0.19
			l-0.503-0.093c-0.796,1.895,0.078,4.017,1.99,4.831c0.456,0.194,0.938,0.292,1.433,0.292
			C35.94,112.726,37.299,111.831,37.896,110.446z M31.977,107.892c0.431-1,1.414-1.645,2.504-1.645c0.371,0,0.733,0.075,1.076,0.223
			c1.379,0.595,2.017,2.201,1.422,3.58c-0.439,1.019-1.438,1.677-2.542,1.677c-0.359,0-0.71-0.072-1.042-0.212
			c-1.398-0.596-2.039-2.144-1.457-3.529l-0.462-0.19L31.977,107.892z M291.729,104.749c0.89-0.445,1.553-1.209,1.867-2.153
			c0.314-0.944,0.243-1.953-0.224-2.887c-0.63-1.287-1.913-2.086-3.348-2.086c-0.57,0-1.119,0.128-1.634,0.379
			c-1.844,0.903-2.609,3.138-1.706,4.982l0.049,0.099c0.635,1.27,1.912,2.059,3.333,2.059
			C290.646,105.142,291.206,105.01,291.729,104.749z M287.182,102.86l0.402-0.314c-0.661-1.349-0.102-2.983,1.247-3.644
			c0.376-0.185,0.778-0.278,1.194-0.278c1.05,0,1.988,0.584,2.475,1.577c0.326,0.651,0.378,1.389,0.148,2.079
			c-0.23,0.69-0.715,1.25-1.366,1.575c-0.383,0.191-0.792,0.288-1.215,0.288c-1.04,0-1.975-0.577-2.438-1.506L287.182,102.86z
			 M44.789,96.424c0.496-0.862,0.625-1.866,0.366-2.826c-0.259-0.96-0.877-1.761-1.74-2.257c-0.564-0.324-1.204-0.496-1.852-0.496
			c-1.331,0-2.569,0.716-3.229,1.865l-0.059,0.104c-0.991,1.762-0.351,4.017,1.425,5.027c0.551,0.313,1.178,0.479,1.812,0.479
			C42.861,98.32,44.117,97.593,44.789,96.424z M42.917,92.208c0.631,0.362,1.083,0.949,1.272,1.651
			c0.19,0.702,0.095,1.436-0.268,2.067c-0.494,0.86-1.417,1.394-2.409,1.394c-0.462,0-0.918-0.121-1.318-0.348
			c-1.321-0.751-1.782-2.362-1.047-3.667l0.052-0.091c0.484-0.844,1.39-1.368,2.364-1.368C42.036,91.845,42.504,91.97,42.917,92.208
			z M284.115,90.633c1.744-1.084,2.279-3.385,1.195-5.128l-0.086-0.134c-0.683-1.043-1.833-1.667-3.077-1.667
			c-0.713,0-1.412,0.206-2.021,0.594c-1.712,1.091-2.223,3.397-1.14,5.141c0.686,1.1,1.868,1.756,3.165,1.756
			C282.845,91.196,283.523,91.001,284.115,90.633z M284.387,85.918l0.419-0.273l-0.345,0.389c0.794,1.275,0.401,2.958-0.873,3.751
			c-0.434,0.27-0.93,0.412-1.437,0.412c-0.949,0-1.814-0.48-2.315-1.285c-0.796-1.28-0.425-2.971,0.827-3.77
			c0.449-0.286,0.962-0.437,1.484-0.437C283.054,84.704,283.891,85.158,284.387,85.918z M53.204,83.327l0.07-0.097
			c1.189-1.673,0.796-4.002-0.877-5.192c-0.634-0.45-1.379-0.688-2.154-0.688c-1.204,0-2.34,0.585-3.062,1.598
			c-1.207,1.66-0.839,3.994,0.821,5.201c0.641,0.466,1.397,0.712,2.188,0.712C51.378,84.861,52.505,84.287,53.204,83.327z
			 M51.818,78.852c1.224,0.871,1.511,2.574,0.641,3.798l0.408,0.29l-0.471-0.201c-0.851,1.168-2.629,1.455-3.805,0.601
			c-1.214-0.883-1.483-2.59-0.571-3.846c0.511-0.717,1.342-1.145,2.223-1.145C50.81,78.349,51.354,78.523,51.818,78.852z
			 M275.071,77.351c1.556-1.304,1.769-3.65,0.475-5.23l-0.773,0.634c0.948,1.159,0.795,2.877-0.344,3.83
			c-1.104,0.925-2.875,0.786-3.801-0.297l-0.101-0.121c-0.458-0.566-0.668-1.275-0.592-1.999s0.429-1.374,0.994-1.832
			s1.271-0.668,1.999-0.591c0.724,0.076,1.374,0.429,1.831,0.994l0.777-0.629c-0.625-0.773-1.515-1.256-2.504-1.36
			c-0.987-0.105-1.959,0.183-2.732,0.809c-0.773,0.626-1.256,1.515-1.36,2.504c-0.104,0.989,0.184,1.959,0.807,2.729l0.12,0.146
			c0.702,0.82,1.725,1.291,2.803,1.291C273.543,78.227,274.396,77.916,275.071,77.351z M63.075,71.237l0.085-0.093
			c1.375-1.524,1.254-3.883-0.27-5.259c-1.467-1.324-3.917-1.218-5.282,0.295c-1.394,1.507-1.302,3.867,0.205,5.262
			c0.69,0.639,1.588,0.99,2.527,0.99C61.375,72.432,62.372,71.997,63.075,71.237z M62.22,66.628
			c1.115,1.006,1.203,2.732,0.197,3.847l0.371,0.335l-0.448-0.251c-0.98,1.059-2.787,1.131-3.849,0.149
			c-1.102-1.02-1.169-2.746-0.118-3.883c0.515-0.571,1.252-0.898,2.022-0.898C61.071,65.927,61.719,66.176,62.22,66.628z
			 M264.463,65.343c1.452-1.452,1.452-3.814,0-5.266l-0.126-0.122c-1.425-1.354-3.82-1.29-5.202,0.128
			c-1.414,1.451-1.387,3.811,0.062,5.26c0.704,0.703,1.639,1.09,2.633,1.09S263.759,66.047,264.463,65.343z M263.652,60.684
			l0.104,0.101c1.062,1.062,1.062,2.79,0,3.852c-1.029,1.028-2.822,1.028-3.852,0c-1.063-1.064-1.088-2.793-0.053-3.855
			c0.525-0.54,1.222-0.837,1.962-0.837C262.497,59.945,263.148,60.206,263.652,60.684z M74.31,60.292
			c1.562-1.333,1.748-3.688,0.415-5.25c-0.709-0.83-1.742-1.306-2.834-1.306c-0.884,0-1.742,0.317-2.416,0.892l-0.1,0.086
			c-1.541,1.353-1.685,3.642-0.328,5.209c0.699,0.808,1.723,1.271,2.808,1.271C72.756,61.195,73.627,60.874,74.31,60.292z
			 M70.124,55.389c1.101-0.941,2.902-0.795,3.839,0.303c0.975,1.142,0.839,2.864-0.303,3.839c-1.102,0.939-2.923,0.817-3.857-0.262
			c-0.993-1.147-0.891-2.817,0.232-3.804l-0.33-0.375L70.124,55.389z M252.589,54.555c0.626-0.773,0.913-1.743,0.81-2.732
			c-0.104-0.989-0.587-1.878-1.363-2.507l-0.17-0.131c-0.653-0.49-1.431-0.749-2.248-0.749c-1.187,0-2.271,0.54-2.979,1.481
			c-1.231,1.642-0.904,3.975,0.715,5.189c0.661,0.535,1.492,0.83,2.341,0.83C250.823,55.936,251.879,55.433,252.589,54.555z
			 M251.268,49.987l0.142,0.109c1.167,0.945,1.348,2.663,0.402,3.831c-0.915,1.129-2.678,1.335-3.845,0.392
			c-1.192-0.895-1.43-2.6-0.529-3.8c0.517-0.688,1.312-1.082,2.18-1.082C250.217,49.436,250.786,49.626,251.268,49.987z
			 M86.646,50.746c1.708-1.139,2.171-3.456,1.033-5.164c-0.692-1.038-1.851-1.658-3.101-1.658c-0.735,0-1.449,0.216-2.063,0.625
			l-0.113,0.077c-1.688,1.163-2.1,3.417-0.937,5.133c0.688,1.014,1.841,1.619,3.087,1.619C85.301,51.379,86.025,51.16,86.646,50.746
			z M83.07,45.382c1.213-0.807,2.973-0.45,3.777,0.755c0.833,1.25,0.494,2.944-0.755,3.777c-1.215,0.809-2.996,0.468-3.798-0.716
			c-0.851-1.254-0.554-2.901,0.676-3.748l-0.284-0.412L83.07,45.382z M99.95,42.681l0.124-0.065
			c1.794-0.972,2.467-3.229,1.498-5.032c-0.649-1.208-1.908-1.958-3.286-1.958c-0.609,0-1.215,0.152-1.776,0.451
			c-0.882,0.459-1.533,1.235-1.832,2.183c-0.299,0.949-0.21,1.957,0.249,2.839c0.644,1.236,1.91,2.004,3.305,2.004
			C98.826,43.103,99.419,42.957,99.95,42.681z M95.814,40.637c-0.336-0.645-0.4-1.382-0.182-2.076
			c0.219-0.694,0.695-1.261,1.371-1.613c0.395-0.21,0.838-0.322,1.283-0.322c1.009,0,1.93,0.549,2.405,1.432
			c0.708,1.318,0.218,2.968-1.094,3.679l0.238,0.439l-0.348-0.382C98.18,42.475,96.489,41.93,95.814,40.637z M225.644,37.182
			c0.83-1.869-0.017-4.073-1.91-4.923c-0.493-0.227-1.016-0.342-1.555-0.342c-1.45,0-2.779,0.851-3.385,2.168
			c-0.416,0.903-0.455,1.915-0.109,2.848c0.345,0.933,1.033,1.676,1.922,2.084c0.02,0.01,0.134,0.062,0.144,0.065
			c0.476,0.209,0.979,0.316,1.494,0.316C223.711,39.398,225.045,38.529,225.644,37.182z M223.347,33.181
			c1.37,0.615,1.99,2.228,1.383,3.595c-0.591,1.332-2.211,1.993-3.584,1.387l-0.106-0.048c-0.661-0.304-1.164-0.847-1.417-1.529
			c-0.252-0.683-0.224-1.422,0.08-2.083c0.443-0.964,1.415-1.586,2.477-1.586C222.572,32.917,222.954,33.001,223.347,33.181z
			 M114.169,36.152l0.098-0.039c0.923-0.37,1.648-1.076,2.04-1.991c0.392-0.914,0.404-1.926,0.035-2.849
			c-0.744-1.862-2.799-2.89-4.891-2.054c-1.911,0.75-2.856,2.914-2.107,4.826c0.563,1.437,1.924,2.365,3.467,2.365
			C113.276,36.409,113.733,36.322,114.169,36.152z M115.413,31.644c0.558,1.395-0.123,2.982-1.608,3.577
			c-0.319,0.125-0.653,0.188-0.993,0.188c-1.128,0-2.125-0.679-2.537-1.73c-0.266-0.677-0.251-1.417,0.04-2.084
			c0.291-0.667,0.824-1.18,1.558-1.468c0.325-0.13,0.665-0.196,1.011-0.196C114.004,29.932,114.997,30.604,115.413,31.644z
			 M210.832,30.972c0.609-1.951-0.485-4.043-2.463-4.671c-0.375-0.122-0.764-0.184-1.156-0.184c-1.615,0-3.037,1.032-3.539,2.566
			c-0.309,0.945-0.231,1.955,0.219,2.842c0.449,0.887,1.218,1.545,2.168,1.856l0.134,0.043c0.357,0.109,0.725,0.165,1.093,0.165
			C208.918,33.589,210.343,32.537,210.832,30.972z M208.09,27.262c1.432,0.454,2.233,1.984,1.787,3.412
			c-0.357,1.146-1.398,1.915-2.59,1.915c-0.269,0-0.537-0.041-0.788-0.117l-0.133-0.042c-0.691-0.226-1.253-0.708-1.582-1.357
			s-0.386-1.387-0.159-2.078c0.366-1.123,1.407-1.877,2.588-1.877C207.5,27.117,207.784,27.162,208.09,27.262z M195.413,26.516
			c0.188-0.977-0.016-1.968-0.574-2.792c-0.558-0.823-1.402-1.38-2.418-1.576c-1.989-0.4-3.99,0.937-4.391,2.906
			c-0.409,2.012,0.894,3.982,2.918,4.394l0.105,0.021c0.232,0.045,0.471,0.068,0.707,0.068
			C193.541,29.536,195.077,28.266,195.413,26.516z M192.271,23.138c0.715,0.137,1.333,0.545,1.741,1.147s0.557,1.327,0.419,2.042
			c-0.245,1.28-1.368,2.209-2.67,2.209c-0.171,0-0.345-0.016-0.51-0.048l-0.116-0.023c-1.471-0.3-2.424-1.741-2.124-3.213
			c0.257-1.263,1.379-2.179,2.67-2.179C191.859,23.073,192.041,23.091,192.271,23.138z M144.341,28.196
			c2.036-0.264,3.477-2.135,3.213-4.171c-0.26-2.004-2.104-3.475-4.17-3.214l-0.146,0.021c-2.024,0.3-3.388,2.14-3.103,4.19
			c0.253,1.828,1.854,3.206,3.721,3.206C144.016,28.227,144.177,28.217,144.341,28.196z M146.562,24.153
			c0.193,1.49-0.861,2.858-2.35,3.051c-1.513,0.193-2.887-0.87-3.088-2.32c-0.208-1.499,0.784-2.845,2.262-3.063l0.124-0.018
			c0.117-0.015,0.234-0.022,0.349-0.022C145.225,21.78,146.387,22.8,146.562,24.153z M179.572,23.86
			c0.161-2.037-1.37-3.833-3.431-4.007c-2.051-0.202-3.868,1.346-4.055,3.364c-0.092,0.99,0.208,1.957,0.844,2.722
			c0.635,0.765,1.53,1.237,2.518,1.328l0.148,0.013c0.094,0.007,0.188,0.011,0.28,0.011C177.797,27.29,179.42,25.783,179.572,23.86z
			 M176.076,20.851c1.496,0.126,2.617,1.44,2.5,2.93c-0.118,1.475-1.373,2.61-2.903,2.502l-0.129-0.011
			c-0.725-0.067-1.38-0.412-1.845-0.972s-0.684-1.267-0.616-1.991c0.128-1.387,1.311-2.474,2.692-2.474
			C175.863,20.835,175.952,20.839,176.076,20.851z M162.454,25.912c0.722-0.735,1.125-1.74,1.106-2.762
			c-0.037-2.054-1.688-3.724-3.681-3.724l-0.1,0.002c-0.024,0-0.1,0.008-0.159,0.024c-2.011,0.074-3.601,1.801-3.544,3.856
			c0.056,2.039,1.743,3.692,3.76,3.692h0.06C160.854,27,161.762,26.618,162.454,25.912z M162.561,23.171
			c0.014,0.755-0.285,1.496-0.82,2.041c-0.502,0.512-1.157,0.788-1.844,0.788h-0.06c-1.456,0-2.72-1.242-2.76-2.719
			c-0.042-1.509,1.116-2.778,2.587-2.832c0.02-0.001,0.075-0.007,0.116-0.022l0.1-0.001
			C161.331,20.427,162.534,21.658,162.561,23.171z M129.169,31.152l0.098-0.039c0.923-0.37,1.648-1.076,2.04-1.991
			c0.392-0.914,0.404-1.926,0.035-2.849c-0.744-1.862-2.798-2.89-4.891-2.054c-1.911,0.75-2.856,2.914-2.107,4.826
			c0.563,1.437,1.924,2.365,3.467,2.365C128.276,31.409,128.733,31.322,129.169,31.152z M130.413,26.644
			c0.558,1.395-0.123,2.982-1.608,3.577c-0.319,0.125-0.653,0.188-0.993,0.188c-1.128,0-2.125-0.679-2.537-1.73
			c-0.266-0.677-0.251-1.417,0.04-2.084c0.291-0.667,0.824-1.18,1.558-1.468c0.325-0.13,0.665-0.196,1.011-0.196
			C129.004,24.932,129.997,25.604,130.413,26.644z M25.169,159.152l0.098-0.039c0.923-0.37,1.648-1.076,2.04-1.991
			c0.392-0.914,0.404-1.926,0.035-2.849c-0.744-1.862-2.797-2.889-4.891-2.054c-1.911,0.75-2.856,2.914-2.107,4.826
			c0.563,1.437,1.924,2.365,3.467,2.365C24.276,159.409,24.733,159.322,25.169,159.152z M26.413,154.644
			c0.558,1.395-0.123,2.982-1.608,3.577c-0.319,0.125-0.653,0.188-0.993,0.188c-1.128,0-2.125-0.679-2.537-1.73
			c-0.266-0.677-0.251-1.417,0.04-2.084c0.291-0.667,0.824-1.18,1.558-1.468c0.325-0.13,0.665-0.196,1.011-0.196
			C25.004,152.932,25.997,153.604,26.413,154.644z M43.169,236.152l0.098-0.04c0.923-0.368,1.647-1.075,2.04-1.989
			c0.392-0.915,0.404-1.927,0.035-2.85c-0.745-1.861-2.799-2.886-4.891-2.055c-0.926,0.363-1.655,1.065-2.053,1.977
			c-0.398,0.912-0.417,1.924-0.054,2.85c0.563,1.437,1.925,2.365,3.467,2.365C42.275,236.41,42.732,236.323,43.169,236.152z
			 M44.413,231.644c0.271,0.676,0.261,1.416-0.025,2.084c-0.286,0.669-0.816,1.186-1.583,1.492c-0.32,0.126-0.654,0.189-0.993,0.189
			c-1.128,0-2.124-0.68-2.537-1.73c-0.266-0.677-0.251-1.417,0.04-2.084c0.291-0.667,0.824-1.181,1.559-1.468
			c0.325-0.13,0.665-0.195,1.011-0.195C43.004,229.932,43.997,230.604,44.413,231.644z M237.836,46.818l0.098-0.039
			c0.924-0.37,1.648-1.076,2.04-1.991c0.392-0.914,0.404-1.926,0.034-2.849c-0.744-1.862-2.799-2.89-4.891-2.054
			c-1.911,0.749-2.856,2.914-2.107,4.826c0.564,1.437,1.926,2.365,3.468,2.365C236.943,47.076,237.4,46.989,237.836,46.818z
			 M239.08,42.311c0.27,0.676,0.261,1.416-0.025,2.084c-0.287,0.668-0.816,1.186-1.584,1.492c-0.319,0.125-0.653,0.188-0.993,0.188
			c-1.128,0-2.124-0.679-2.536-1.73c-0.548-1.398,0.144-2.981,1.598-3.552c0.325-0.13,0.665-0.196,1.011-0.196
			C237.671,40.598,238.664,41.271,239.08,42.311z M291.426,163.612c0-70.814-57.611-128.426-128.426-128.426
			S34.574,92.797,34.574,163.612c0,70.815,57.612,128.426,128.426,128.426S291.426,234.426,291.426,163.612z M289.426,163.612
			c0,69.711-56.715,126.426-126.426,126.426c-69.711,0-126.426-56.715-126.426-126.426S93.289,37.185,163,37.185
			C232.711,37.185,289.426,93.9,289.426,163.612z M165.333,325.082c0.011-1.148-0.948-1.931-2.096-1.96
			c-1.184-0.054-2.125,0.777-2.154,1.939c-0.029,1.161,0.888,1.938,2.049,1.938c0.022,0,0.136,0,0.158,0
			C164.438,327,165.322,326.231,165.333,325.082z M205.584,322.113c0.005-0.001,0.1-0.026,0.105-0.027
			c1.12-0.296,1.744-1.43,1.453-2.55c-0.292-1.121-1.475-1.779-2.601-1.495c-1.124,0.288-1.802,1.433-1.515,2.558
			c0.244,0.954,1.105,1.586,2.047,1.58C205.241,322.178,205.413,322.157,205.584,322.113z M123.477,320.246
			c0.312-1.118-0.341-2.279-1.458-2.591c-0.018-0.005-0.125-0.034-0.142-0.038c-1.124-0.285-2.256,0.397-2.543,1.519
			c-0.287,1.122,0.394,2.266,1.515,2.558l0.039,0.01c0.193,0.054,0.388,0.079,0.579,0.078
			C122.381,321.777,123.219,321.17,123.477,320.246z M245.181,305.942l0.08-0.046c1.004-0.582,1.308-1.845,0.725-2.849
			c-0.581-1.003-1.907-1.325-2.912-0.742c-1.004,0.582-1.348,1.868-0.765,2.872c0.392,0.677,1.104,1.053,1.833,1.049
			C244.495,306.224,244.853,306.133,245.181,305.942z M84.335,304.426c0.597-0.996,0.273-2.287-0.722-2.884
			c-0.016-0.009-0.112-0.066-0.129-0.075c-1.008-0.569-2.279-0.21-2.852,0.794c-0.572,1.006-0.218,2.29,0.786,2.866l0.033,0.021
			c0.343,0.205,0.719,0.301,1.091,0.299C83.252,305.444,83.943,305.08,84.335,304.426z M279.199,280.097
			c0.011-0.011,0.088-0.086,0.099-0.098c0.81-0.819,0.777-2.105-0.033-2.924c-0.81-0.818-2.161-0.801-2.989,0.001
			c-0.834,0.807-0.856,2.138-0.049,2.972c0.415,0.43,0.97,0.644,1.523,0.641C278.272,280.686,278.794,280.489,279.199,280.097z
			 M50.641,278.974c0.825-0.816,0.832-2.147,0.015-2.973c-0.005-0.006-0.076-0.076-0.082-0.082
			c-0.826-0.817-2.157-0.809-2.973,0.017c-0.816,0.826-0.808,2.157,0.017,2.973l0.049,0.049c0.414,0.418,0.96,0.627,1.506,0.623
			C49.705,279.579,50.234,279.377,50.641,278.974z M305.471,246.28l0.021-0.034c0.597-0.996,0.273-2.287-0.723-2.884
			c-0.994-0.595-2.286-0.274-2.884,0.723c-0.009,0.015-0.066,0.112-0.075,0.128c-0.569,1.008-0.211,2.28,0.794,2.852
			c0.33,0.189,0.69,0.276,1.046,0.274C304.376,247.335,305.083,246.953,305.471,246.28z M24.604,245.687
			c1.004-0.572,1.335-1.888,0.769-2.895c-0.568-1.012-1.849-1.372-2.862-0.804c-1.013,0.568-1.373,1.849-0.804,2.862
			c0.005,0.009,0.055,0.096,0.06,0.105c0.386,0.666,1.07,1.024,1.782,1.019C23.905,245.971,24.268,245.878,24.604,245.687z
			 M322.059,206.855l0.007-0.026c0.318-1.117-0.331-2.28-1.447-2.596c-1.118-0.318-2.28,0.33-2.596,1.447
			c-0.007,0.026-0.038,0.14-0.045,0.166c-0.273,1.118,0.409,2.229,1.524,2.516c0.177,0.045,0.353,0.066,0.528,0.065
			C320.957,208.421,321.806,207.79,322.059,206.855z M8.103,206.845c1.121-0.292,1.783-1.48,1.495-2.601
			c-0.288-1.124-1.433-1.802-2.558-1.515c-1.124,0.288-1.803,1.433-1.515,2.558c0.001,0.005,0.026,0.1,0.027,0.105
			c0.248,0.939,1.085,1.53,2.009,1.524C7.74,206.916,7.921,206.892,8.103,206.845z M4.36,162.96c0-0.011-0.021-0.076-0.021-0.087
			c-0.007-1.161-0.998-2.098-2.159-2.091C1.019,160.789,0,161.732,0,162.893v0.033C0,164.087,1.098,165,2.259,165
			c0.011,0,0.022,0,0.033,0C3.438,165,4.349,164.11,4.36,162.96z M9.958,121.632c0.312-1.118-0.341-2.278-1.459-2.59
			c-1.115-0.313-2.278,0.341-2.59,1.459c-0.002,0.007-0.028,0.104-0.03,0.111c-0.299,1.117,0.372,2.222,1.488,2.527
			c0.182,0.05,0.366,0.073,0.546,0.072C8.84,123.205,9.698,122.565,9.958,121.632z M305.409,85.063
			c1.009-0.574,1.362-1.858,0.788-2.867c-0.003-0.004-0.052-0.089-0.055-0.094c-0.58-1.002-1.836-1.308-2.843-0.729
			c-1.004,0.576-1.33,1.896-0.757,2.903c0.39,0.685,1.106,1.067,1.841,1.063C304.732,85.337,305.085,85.248,305.409,85.063z
			 M26.083,83.201c0.584-1.004,0.243-2.291-0.76-2.874c-1.004-0.582-2.29-0.243-2.874,0.76l-0.047,0.08
			c-0.584,1.004-0.22,2.25,0.784,2.834c0.326,0.19,0.683,0.277,1.038,0.275C24.963,84.273,25.689,83.879,26.083,83.201z
			 M280.217,51.198c0.843-0.798,0.879-2.129,0.081-2.972c-0.016-0.017-0.098-0.099-0.114-0.115
			c-0.815-0.806-2.096-0.778-2.915,0.025c-0.82,0.803-0.812,2.148-0.024,2.981c0.416,0.44,0.978,0.66,1.539,0.657
			C279.299,51.771,279.814,51.58,280.217,51.198z M247.204,24.884c0.583-1.004,0.243-2.291-0.761-2.874l-0.08-0.047
			c-1.004-0.586-2.25-0.221-2.834,0.784c-0.583,1.004-0.203,2.314,0.801,2.897c0.336,0.195,0.703,0.287,1.067,0.285
			C246.117,25.925,246.815,25.551,247.204,24.884z M84.75,25.024c1.009-0.574,1.362-1.858,0.787-2.867
			c-0.574-1.009-1.857-1.361-2.867-0.787c-0.004,0.002-0.089,0.052-0.094,0.054c-1.002,0.58-1.306,1.839-0.73,2.843
			c0.387,0.675,1.11,1.043,1.848,1.039C84.055,25.303,84.419,25.212,84.75,25.024z M208.482,8.076
			c0.307-1.12-0.351-2.277-1.47-2.584c-0.005-0.001-0.098-0.027-0.103-0.028c-1.118-0.299-2.224,0.374-2.528,1.492
			c-0.304,1.118,0.399,2.283,1.516,2.59c0.191,0.052,0.383,0.077,0.571,0.076C207.386,9.616,208.226,9.005,208.482,8.076z
			 M123.195,9.253c0.013-0.003,0.115-0.031,0.128-0.034c1.118-0.313,1.77-1.474,1.457-2.592c-0.313-1.118-1.475-1.769-2.592-1.457
			l-0.051,0.014c-1.123,0.292-1.798,1.44-1.505,2.564c0.247,0.95,1.106,1.579,2.045,1.573C122.848,9.32,123.021,9.298,123.195,9.253
			z M52.252,49.855c0.584-1.004,0.243-2.291-0.76-2.874c-1.004-0.582-2.29-0.243-2.874,0.76l-0.047,0.08
			c-0.584,1.004-0.22,2.25,0.784,2.834c0.326,0.19,0.683,0.277,1.038,0.275C51.132,50.927,51.857,50.533,52.252,49.855z
			 M164.959,277.187c0.018-0.802-0.641-1.472-1.442-1.508c-0.828-0.034-1.504,0.596-1.54,1.409c-0.036,0.814,0.595,1.504,1.409,1.54
			c0.021,0.001,0.108,0.002,0.13,0.002C164.319,278.631,164.942,277.989,164.959,277.187z M155.928,278.351
			c0.046,0.004,0.091,0.006,0.136,0.006c0.754,0,1.398-0.575,1.468-1.342c0.074-0.812-0.524-1.53-1.336-1.604
			c-0.023-0.002-0.11-0.009-0.133-0.01c-0.781-0.035-1.471,0.581-1.521,1.384c-0.05,0.804,0.57,1.5,1.372,1.564 M185.891,276.551
			l-0.25-1.455l0.264,1.452c0.803-0.146,1.334-0.914,1.188-1.716c-0.146-0.803-0.921-1.337-1.716-1.188
			c-0.026,0.005-0.116,0.022-0.142,0.029c-0.78,0.186-1.251,0.957-1.083,1.741c0.148,0.69,0.772,1.163,1.458,1.163
			C185.703,276.578,185.797,276.569,185.891,276.551z M193.18,274.897c0.026-0.006,0.115-0.029,0.141-0.037
			c0.769-0.22,1.191-1.003,0.993-1.777c-0.198-0.773-1.008-1.245-1.788-1.064c-0.795,0.181-1.293,0.972-1.112,1.767
			c0.156,0.685,0.765,1.149,1.438,1.149C192.96,274.934,193.069,274.922,193.18,274.897z M133.754,274.613
			c0.133,0.037,0.267,0.055,0.398,0.055c0.646,0,1.239-0.428,1.42-1.08c0.219-0.785-0.24-1.599-1.024-1.818
			c-0.021-0.006-0.104-0.027-0.125-0.032c-0.785-0.185-1.556,0.303-1.751,1.084s0.288,1.579,1.067,1.787 M128.382,271.478
			c0.268-0.76-0.153-1.604-0.908-1.885c-0.761-0.284-1.613,0.104-1.898,0.868c-0.284,0.764,0.104,1.613,0.869,1.897
			c0.016,0.007,0.094,0.033,0.11,0.039c0.153,0.051,0.307,0.075,0.457,0.075C127.615,272.473,128.167,272.086,128.382,271.478z
			 M214.293,267.08c0.019-0.008,0.096-0.045,0.113-0.054c0.719-0.359,0.988-1.214,0.644-1.939c-0.344-0.726-1.233-1.028-1.968-0.698
			c-0.743,0.334-1.075,1.208-0.74,1.951c0.246,0.547,0.783,0.871,1.347,0.871C213.891,267.211,214.097,267.169,214.293,267.08z
			 M220.986,263.543c0.01-0.005,0.076-0.042,0.085-0.048c0.7-0.405,0.915-1.282,0.518-1.986c-0.397-0.706-1.317-0.942-2.024-0.552
			c-0.715,0.393-0.976,1.29-0.582,2.004c0.269,0.489,0.773,0.766,1.294,0.766C220.518,263.726,220.761,263.667,220.986,263.543z
			 M108.062,262.471c0.414-0.693,0.166-1.607-0.522-2.03c-0.695-0.428-1.604-0.211-2.03,0.483c-0.427,0.694-0.211,1.604,0.483,2.03
			c0.011,0.007,0.079,0.047,0.09,0.054c0.228,0.132,0.474,0.194,0.717,0.194C107.3,263.203,107.784,262.938,108.062,262.471z
			 M101.699,258.563c0.451-0.666,0.257-1.589-0.401-2.052c-0.668-0.468-1.588-0.308-2.056,0.359
			c-0.469,0.667-0.308,1.588,0.359,2.057c0.015,0.01,0.084,0.057,0.1,0.066c0.243,0.157,0.512,0.232,0.777,0.232
			C100.949,259.226,101.411,258.99,101.699,258.563z M239.37,250.499c0.002-0.001,0.052-0.045,0.054-0.047
			c0.61-0.538,0.645-1.447,0.107-2.06c-0.536-0.611-1.493-0.651-2.104-0.114c-0.613,0.536-0.676,1.469-0.139,2.082
			c0.291,0.334,0.7,0.504,1.111,0.504C238.744,250.864,239.091,250.744,239.37,250.499z M244.914,245.36l0.046-0.046
			c0.576-0.577,0.553-1.488-0.023-2.064c-0.575-0.575-1.533-0.555-2.11,0.022c-0.576,0.577-0.576,1.511,0,2.088
			c0.288,0.288,0.666,0.432,1.044,0.432S244.626,245.648,244.914,245.36z M82.33,244.604c0.29,0.299,0.675,0.448,1.06,0.448
			c0.37,0,0.74-0.138,1.027-0.415c0.585-0.567,0.601-1.502,0.033-2.088c-0.017-0.017-0.079-0.079-0.097-0.096
			c-0.587-0.55-1.494-0.518-2.054,0.06c-0.561,0.576-0.545,1.508,0.02,2.079 M77.188,239.069c0.292,0.342,0.707,0.518,1.124,0.518
			c0.339,0,0.679-0.115,0.958-0.353c0.62-0.529,0.694-1.461,0.165-2.081c-0.01-0.011-0.062-0.071-0.072-0.082
			c-0.545-0.601-1.467-0.642-2.071-0.104c-0.605,0.541-0.655,1.475-0.119,2.083 M259.286,228.052
			c0.004-0.005,0.043-0.063,0.047-0.068c0.45-0.675,0.252-1.561-0.421-2.015c-0.671-0.454-1.604-0.255-2.062,0.417
			c-0.461,0.672-0.288,1.591,0.385,2.051c0.255,0.175,0.545,0.259,0.832,0.259C258.538,228.696,259.001,228.47,259.286,228.052z
			 M263.316,221.664c0.004-0.007,0.041-0.07,0.045-0.077c0.406-0.701,0.154-1.571-0.545-1.982c-0.699-0.412-1.615-0.154-2.031,0.54
			c-0.419,0.699-0.192,1.606,0.506,2.025c0.238,0.143,0.5,0.211,0.759,0.211C262.551,222.381,263.04,222.125,263.316,221.664z
			 M66.137,221.259c0.704-0.397,0.941-1.316,0.552-2.024c-0.394-0.715-1.29-0.975-2.005-0.582c-0.714,0.393-0.975,1.29-0.582,2.004
			c0.005,0.01,0.043,0.076,0.048,0.085c0.269,0.465,0.746,0.716,1.242,0.716C65.644,221.458,65.9,221.393,66.137,221.259z
			 M272.722,201.242c0.008-0.02,0.036-0.101,0.043-0.12c0.254-0.762-0.158-1.556-0.915-1.826c-0.757-0.268-1.602,0.145-1.886,0.896
			c-0.29,0.762,0.092,1.614,0.854,1.904c0.173,0.066,0.351,0.098,0.525,0.098C271.938,202.193,272.498,201.831,272.722,201.242z
			 M51.076,185.584c0.129,0.713,0.751,1.213,1.45,1.213c0.088,0,0.177-0.008,0.266-0.024c0.802-0.146,1.334-0.914,1.188-1.716
			c-0.003-0.016-0.018-0.094-0.021-0.109c-0.17-0.791-0.945-1.286-1.739-1.127c-0.794,0.164-1.306,0.946-1.149,1.741
			 M278.735,171.752c0.074-0.812-0.524-1.53-1.336-1.604c-0.817-0.067-1.53,0.524-1.604,1.336c-0.002,0.022-0.009,0.109-0.01,0.131
			c-0.036,0.805,0.579,1.474,1.383,1.523c0.031,0.002,0.062,0.003,0.092,0.003c0.765,0,1.411-0.603,1.474-1.374 M276.897,141.505
			c-0.146-0.802-0.921-1.333-1.716-1.188c-0.803,0.146-1.334,0.914-1.188,1.716c0.004,0.023,0.021,0.111,0.027,0.134
			c0.157,0.678,0.757,1.125,1.425,1.125c0.104,0,0.21-0.011,0.315-0.033c0.787-0.167,1.291-0.95,1.14-1.74 M274.127,135.998
			c0.794-0.185,1.288-0.978,1.104-1.772c-0.005-0.021-0.026-0.104-0.032-0.125c-0.217-0.773-1.003-1.201-1.779-1.002
			c-0.777,0.199-1.245,1.014-1.063,1.796c0.158,0.681,0.766,1.142,1.437,1.142C273.902,136.037,274.015,136.025,274.127,135.998z
			 M55.202,126.201c-0.274,0.768,0.126,1.612,0.894,1.887c0.164,0.059,0.332,0.086,0.497,0.086c0.606,0,1.174-0.376,1.39-0.98
			c0.004-0.013,0.03-0.088,0.035-0.102c0.251-0.772-0.17-1.596-0.941-1.852c-0.768-0.255-1.605,0.166-1.865,0.936 M266.651,115.079
			c0.74-0.342,1.063-1.219,0.722-1.959c-0.006-0.014-0.041-0.086-0.048-0.1c-0.361-0.722-1.221-0.991-1.945-0.641
			c-0.727,0.349-1.024,1.246-0.687,1.978c0.249,0.54,0.783,0.857,1.341,0.857C266.241,115.215,266.451,115.172,266.651,115.079z
			 M263.261,108.443c0.71-0.4,0.96-1.301,0.56-2.011c-0.002-0.005-0.037-0.066-0.04-0.071c-0.407-0.702-1.288-0.915-1.993-0.514
			c-0.705,0.403-0.937,1.328-0.537,2.035c0.271,0.481,0.771,0.751,1.286,0.751C262.782,108.633,263.031,108.571,263.261,108.443z
			 M67.15,107.187c0.414-0.702,0.18-1.607-0.521-2.021c-0.705-0.414-1.607-0.181-2.021,0.522c-0.002,0.003-0.037,0.062-0.039,0.066
			c-0.407,0.703-0.153,1.576,0.549,1.985c0.227,0.133,0.476,0.195,0.723,0.195C66.36,107.935,66.871,107.661,67.15,107.187z
			 M71.077,100.944c0.456-0.675,0.279-1.593-0.397-2.049c-0.676-0.456-1.593-0.278-2.049,0.397l-0.037,0.054
			c-0.456,0.675-0.26,1.565,0.415,2.022c0.246,0.167,0.527,0.245,0.806,0.245C70.303,101.612,70.787,101.373,71.077,100.944z
			 M250.58,90.197c0.629-0.518,0.719-1.448,0.201-2.078c-0.016-0.019-0.074-0.085-0.091-0.103c-0.539-0.592-1.431-0.623-2.036-0.099
			c-0.605,0.524-0.661,1.46-0.152,2.079c0.292,0.354,0.715,0.538,1.141,0.538C249.973,90.534,250.305,90.424,250.58,90.197z
			 M245.586,84.657c0.586-0.567,0.602-1.501,0.034-2.087c-0.006-0.006-0.057-0.058-0.062-0.063
			c-0.573-0.574-1.479-0.553-2.056,0.015c-0.578,0.568-0.566,1.519-0.003,2.102c0.289,0.299,0.675,0.45,1.061,0.45
			C244.93,85.072,245.3,84.934,245.586,84.657z M82.96,81.99c-0.585,0.567-0.601,1.501-0.033,2.087
			c0.29,0.299,0.675,0.449,1.06,0.449c0.37,0,0.74-0.138,1.027-0.416c0.011-0.011,0.069-0.068,0.08-0.079
			c0.564-0.582,0.546-1.503-0.031-2.071c-0.578-0.569-1.513-0.558-2.086,0.014 M228.226,68.178c-0.669-0.464-1.589-0.3-2.054,0.371
			c-0.465,0.669-0.3,1.589,0.37,2.054c0.01,0.007,0.074,0.05,0.084,0.057c0.25,0.164,0.53,0.243,0.809,0.243
			c0.479,0,0.948-0.233,1.232-0.664c0.448-0.679,0.26-1.595-0.418-2.045 M108.33,66.327c0.71-0.401,0.961-1.301,0.561-2.011
			c-0.401-0.71-1.299-0.959-2.011-0.561c-0.005,0.003-0.066,0.038-0.07,0.041c-0.703,0.407-0.917,1.289-0.514,1.994
			c0.27,0.472,0.774,0.732,1.29,0.732C107.839,66.522,108.096,66.458,108.33,66.327z M113.498,60.244
			c-0.736,0.35-1.05,1.23-0.7,1.966c0.252,0.532,0.782,0.843,1.334,0.843c0.212,0,0.428-0.046,0.632-0.143
			c0.014-0.006,0.085-0.041,0.098-0.048c0.722-0.37,1.001-1.249,0.637-1.973c-0.365-0.725-1.253-1.015-1.98-0.655 M202.301,56.698
			c0.274-0.768-0.126-1.612-0.894-1.887c-0.01-0.003-0.081-0.028-0.091-0.031c-0.769-0.257-1.568,0.165-1.831,0.929
			c-0.264,0.765,0.168,1.61,0.93,1.882c0.164,0.059,0.331,0.086,0.496,0.086C201.518,57.678,202.086,57.301,202.301,56.698z
			 M194.121,52.577c-0.78-0.225-1.601,0.229-1.824,1.014c-0.225,0.784,0.229,1.601,1.014,1.824c0.016,0.005,0.094,0.026,0.109,0.03
			c0.12,0.03,0.239,0.044,0.357,0.044c0.654,0,1.246-0.443,1.419-1.107c0.203-0.784-0.273-1.588-1.056-1.799 M141.961,50.7
			c-0.802,0.146-1.334,0.914-1.188,1.716c0.129,0.712,0.751,1.212,1.451,1.212c0.087,0,0.176-0.008,0.266-0.024
			c0.013-0.002,0.089-0.017,0.102-0.02c0.795-0.167,1.301-0.944,1.138-1.74c-0.163-0.796-0.943-1.308-1.742-1.15 M157.845,270.964
			c0.054-0.757-0.537-1.421-1.292-1.493c-0.769-0.063-1.45,0.492-1.523,1.259c-0.073,0.769,0.49,1.451,1.259,1.524
			c0.022,0.002,0.105,0.007,0.127,0.008c0.022,0.002,0.045,0.002,0.067,0.002C157.21,272.263,157.793,271.698,157.845,270.964z
			 M191.719,268.964c0.749-0.187,1.204-0.945,1.017-1.694c-0.187-0.748-0.948-1.202-1.694-1.017
			c-0.016,0.003-0.09,0.023-0.104,0.027c-0.737,0.211-1.157,0.974-0.953,1.713c0.171,0.618,0.739,1.023,1.354,1.023
			c0.12,0,0.241-0.016,0.362-0.048 M135.343,268.712c0.131,0.039,0.263,0.057,0.393,0.057c0.605,0,1.162-0.396,1.341-1.005
			c0.217-0.741-0.208-1.517-0.949-1.733c-0.018-0.006-0.095-0.027-0.113-0.031c-0.741-0.185-1.481,0.262-1.677,1.001
			c-0.195,0.739,0.252,1.502,0.988,1.707 M130.273,265.745c0.255-0.729-0.158-1.536-0.887-1.791
			c-0.728-0.257-1.526,0.13-1.781,0.857c-0.255,0.729,0.128,1.526,0.857,1.781l0.059,0.021c0.151,0.053,0.303,0.077,0.452,0.077
			C129.546,266.69,130.071,266.323,130.273,265.745z M211.702,261.547c0.697-0.33,0.995-1.163,0.664-1.861
			c-0.329-0.696-1.163-0.995-1.861-0.664c-0.018,0.008-0.091,0.044-0.108,0.054c-0.675,0.355-0.927,1.181-0.582,1.861
			c0.245,0.483,0.74,0.761,1.253,0.761c0.209,0,0.421-0.046,0.62-0.144 M109.13,257.712c0.227,0.139,0.479,0.205,0.727,0.205
			c0.471,0,0.931-0.237,1.194-0.669c0.403-0.658,0.195-1.519-0.464-1.921c-0.021-0.013-0.096-0.057-0.117-0.068
			c-0.667-0.358-1.487-0.113-1.864,0.547c-0.375,0.661-0.139,1.51,0.513,1.899 M103.083,253.907
			c0.242,0.166,0.517,0.245,0.789,0.245c0.445,0,0.883-0.212,1.154-0.607c0.436-0.637,0.274-1.506-0.362-1.942
			c-0.016-0.011-0.083-0.055-0.098-0.065c-0.649-0.406-1.49-0.21-1.905,0.431c-0.416,0.642-0.228,1.505,0.408,1.93 M235.327,245.917
			c0.014-0.011,0.073-0.062,0.086-0.073c0.574-0.502,0.616-1.351,0.125-1.933c-0.49-0.581-1.382-0.645-1.973-0.164
			c-0.6,0.487-0.69,1.367-0.204,1.966c0.276,0.341,0.68,0.517,1.086,0.517C234.757,246.229,235.068,246.127,235.327,245.917z
			 M240.58,241.05c0.012-0.011,0.067-0.064,0.079-0.076c0.539-0.539,0.524-1.39-0.005-1.938c-0.53-0.549-1.425-0.551-1.98-0.029
			c-0.564,0.526-0.596,1.411-0.068,1.975c0.275,0.295,0.647,0.444,1.021,0.444C239.969,241.426,240.312,241.302,240.58,241.05z
			 M88.628,240.302c0.547-0.538,0.537-1.438,0.003-1.99c-0.537-0.554-1.421-0.568-1.976-0.033c-0.555,0.536-0.57,1.421-0.034,1.977
			c0.005,0.005,0.055,0.055,0.06,0.061c0.268,0.268,0.611,0.398,0.956,0.398C87.993,240.715,88.351,240.575,88.628,240.302z
			 M83.752,235.189c0.582-0.499,0.631-1.398,0.137-1.984c-0.499-0.589-1.38-0.664-1.97-0.167c-0.59,0.498-0.665,1.38-0.167,1.97
			c0.005,0.006,0.052,0.06,0.057,0.065c0.271,0.31,0.642,0.465,1.018,0.465C83.153,235.538,83.482,235.422,83.752,235.189z
			 M254.248,224.596c0.445-0.63,0.295-1.502-0.336-1.947c-0.629-0.445-1.502-0.295-1.947,0.336
			c-0.018,0.024-0.069,0.102-0.085,0.128c-0.395,0.645-0.192,1.469,0.44,1.882c0.23,0.15,0.491,0.222,0.75,0.222
			c0.451,0,0.897-0.217,1.172-0.611 M258.067,218.537c0.402-0.658,0.195-1.519-0.464-1.921c-0.658-0.401-1.518-0.196-1.921,0.464
			c-0.016,0.025-0.062,0.104-0.075,0.131c-0.353,0.67-0.099,1.48,0.561,1.852c0.212,0.119,0.443,0.176,0.672,0.176
			c0.483-0.001,0.958-0.252,1.223-0.692 M71.337,218.197c0.666-0.378,0.888-1.248,0.518-1.918c-0.374-0.676-1.225-0.922-1.899-0.548
			c-0.676,0.374-0.921,1.224-0.547,1.899c0.005,0.01,0.042,0.073,0.047,0.082c0.255,0.438,0.705,0.674,1.173,0.674
			C70.868,218.386,71.112,218.325,71.337,218.197z M66.091,211.372c0.239,0.504,0.741,0.799,1.264,0.799
			c0.201,0,0.404-0.043,0.597-0.135c0.698-0.33,0.995-1.163,0.665-1.861c-0.009-0.018-0.044-0.091-0.054-0.108
			c-0.356-0.676-1.183-0.926-1.862-0.581c-0.68,0.346-0.951,1.186-0.617,1.872 M266.961,199.209l0.021-0.059
			c0.255-0.729-0.14-1.497-0.868-1.752c-0.731-0.253-1.536,0.159-1.791,0.887c-0.255,0.729,0.129,1.526,0.857,1.781
			c0.153,0.054,0.309,0.078,0.462,0.078C266.219,200.144,266.759,199.784,266.961,199.209z M269.081,192.339
			c0.222-0.739-0.198-1.519-0.938-1.74c-0.733-0.22-1.519,0.197-1.74,0.938c-0.008,0.025-0.031,0.111-0.037,0.138
			c-0.176,0.737,0.274,1.462,1.007,1.655c0.117,0.031,0.233,0.046,0.349,0.046c0.612,0,1.178-0.412,1.355-1.025 M60.358,192.377
			c0.739-0.189,1.181-0.966,1.004-1.707c-0.179-0.751-0.933-1.22-1.683-1.036c-0.751,0.179-1.214,0.933-1.036,1.683
			c0.003,0.017,0.023,0.092,0.027,0.106c0.169,0.614,0.717,1,1.324,1C60.114,192.423,60.236,192.408,60.358,192.377z
			 M272.638,171.388c0.002-0.022,0.007-0.105,0.008-0.128c0.036-0.758-0.541-1.376-1.298-1.43c-0.754-0.054-1.421,0.536-1.493,1.292
			c-0.073,0.769,0.491,1.451,1.259,1.524c0.045,0.004,0.09,0.006,0.135,0.006C271.96,172.653,272.568,172.111,272.638,171.388z
			 M58.139,156.197c0.055-0.77-0.524-1.438-1.294-1.494c-0.759-0.06-1.438,0.524-1.494,1.294l-0.004,0.062
			c-0.055,0.77,0.527,1.408,1.297,1.463c0.032,0.002,0.064,0.003,0.096,0.003C57.468,157.526,58.086,156.935,58.139,156.197z
			 M269.801,144.364c0.758-0.145,1.256-0.876,1.111-1.635c-0.001-0.002-0.013-0.064-0.013-0.066
			c-0.148-0.756-0.871-1.219-1.631-1.074c-0.757,0.146-1.246,0.907-1.103,1.664c0.128,0.67,0.714,1.136,1.371,1.136
			C269.624,144.389,269.712,144.381,269.801,144.364z M269.305,135.714c-0.183-0.749-0.938-1.21-1.688-1.027
			c-0.75,0.183-1.21,0.939-1.026,1.689c0.006,0.024,0.027,0.107,0.034,0.13c0.181,0.602,0.728,0.981,1.324,0.981
			c0.127,0,0.255-0.017,0.383-0.052c0.732-0.203,1.164-0.971,0.978-1.708 M61.587,135.721c0.205-0.744-0.233-1.514-0.977-1.718
			c-0.74-0.203-1.513,0.232-1.718,0.977c0,0.003-0.018,0.065-0.018,0.068c-0.2,0.744,0.248,1.479,0.991,1.681
			c0.118,0.032,0.236,0.047,0.353,0.047C60.839,136.777,61.415,136.346,61.587,135.721z M261.85,115.735
			c-0.33-0.697-1.162-0.995-1.861-0.665c-0.697,0.331-0.995,1.164-0.664,1.861c0.011,0.022,0.049,0.1,0.061,0.122
			c0.25,0.463,0.721,0.721,1.211,0.721c0.218,0,0.439-0.051,0.647-0.158c0.677-0.346,0.943-1.186,0.612-1.87 M258.495,109.424
			c-0.375-0.676-1.226-0.919-1.9-0.543c-0.675,0.375-0.918,1.226-0.543,1.9c0.007,0.012,0.044,0.077,0.051,0.089
			c0.26,0.438,0.721,0.679,1.194,0.679c0.241,0,0.486-0.063,0.71-0.194c0.663-0.389,0.884-1.247,0.499-1.912 M72.292,110.188
			c0.395-0.664,0.177-1.521-0.487-1.916c-0.665-0.396-1.521-0.176-1.916,0.487c-0.002,0.003-0.035,0.06-0.037,0.063
			c-0.388,0.665-0.15,1.491,0.513,1.882c0.216,0.127,0.454,0.187,0.689,0.187C71.544,110.891,72.026,110.634,72.292,110.188z
			 M245.991,94.088c0.591-0.497,0.668-1.377,0.172-1.968c-0.006-0.008-0.052-0.062-0.059-0.069
			c-0.504-0.576-1.359-0.616-1.942-0.118c-0.581,0.499-0.634,1.396-0.14,1.982c0.276,0.329,0.672,0.499,1.071,0.499
			C245.41,94.415,245.729,94.308,245.991,94.088z M241.234,88.868c0.564-0.526,0.595-1.411,0.068-1.975
			c-0.011-0.012-0.064-0.067-0.076-0.079c-0.539-0.538-1.389-0.525-1.938,0.005c-0.549,0.53-0.55,1.423-0.029,1.98
			c0.275,0.295,0.647,0.444,1.021,0.444C240.623,89.244,240.966,89.119,241.234,88.868z M89.252,88.289
			c0.555-0.537,0.57-1.421,0.034-1.976c-0.536-0.555-1.421-0.57-1.976-0.034c-0.006,0.005-0.055,0.055-0.061,0.06
			c-0.542,0.542-0.524,1.399,0.014,1.946c0.268,0.273,0.626,0.407,0.986,0.407C88.611,88.693,88.976,88.557,89.252,88.289z
			 M94.374,83.529c0.582-0.507,0.643-1.39,0.136-1.972s-1.39-0.643-1.972-0.136c0,0-0.048,0.042-0.049,0.042
			c-0.58,0.508-0.616,1.37-0.109,1.951c0.272,0.311,0.657,0.467,1.046,0.467C93.763,83.882,94.104,83.765,94.374,83.529z
			 M224.824,73.254c-0.628-0.445-1.502-0.295-1.947,0.335s-0.295,1.503,0.336,1.948c0.018,0.013,0.086,0.059,0.104,0.071
			c0.229,0.147,0.485,0.217,0.738,0.217c0.452,0,0.894-0.224,1.164-0.631c0.422-0.635,0.243-1.5-0.384-1.933 M111.29,71.491
			c0.671-0.381,0.906-1.234,0.525-1.905c-0.381-0.67-1.234-0.908-1.905-0.525c-0.005,0.002-0.062,0.036-0.067,0.039
			c-0.664,0.387-0.864,1.223-0.48,1.889c0.256,0.445,0.732,0.689,1.219,0.689C110.823,71.677,111.068,71.617,111.29,71.491z
			 M116.182,65.733c-0.698,0.331-0.995,1.164-0.665,1.861c0.239,0.504,0.741,0.8,1.264,0.8c0.2,0,0.404-0.043,0.597-0.135
			c0.014-0.006,0.082-0.04,0.095-0.047c0.683-0.351,0.946-1.181,0.602-1.867c-0.345-0.686-1.184-0.961-1.875-0.622 M136.895,60.987
			c0.749-0.188,1.204-0.946,1.017-1.695c-0.188-0.75-0.946-1.204-1.695-1.017c-0.008,0.002-0.075,0.02-0.083,0.022
			c-0.741,0.199-1.153,0.95-0.961,1.692c0.163,0.628,0.749,1.04,1.376,1.04C136.664,61.03,136.78,61.016,136.895,60.987z
			 M143.704,59.433c0.758-0.145,1.255-0.876,1.111-1.635c-0.145-0.757-0.873-1.254-1.635-1.111c-0.002,0-0.064,0.013-0.066,0.013
			c-0.756,0.147-1.22,0.874-1.074,1.63c0.128,0.667,0.736,1.127,1.397,1.127C143.525,59.458,143.614,59.45,143.704,59.433z
			 M172.843,56.452c0.056-0.77-0.524-1.438-1.294-1.494l-0.062-0.004c-0.783-0.061-1.408,0.527-1.463,1.297
			c-0.055,0.77,0.556,1.44,1.325,1.496c0.034,0.002,0.067,0.003,0.101,0.003C172.177,57.75,172.791,57.188,172.843,56.452z
			 M170.451,260.017l-0.758-9.971l-0.473,0.035l0.699,9.975L170.451,260.017z M155.368,249.968l-0.47-0.042l-0.935,9.957
			l0.533,0.048L155.368,249.968z M186.212,257.495l-2.385-9.711l-0.456,0.11l2.316,9.729L186.212,257.495z M141.261,247.552
			l-0.461-0.12l-2.555,9.668l0.515,0.134L141.261,247.552z M201.353,252.394l-3.975-9.176l-0.426,0.183l3.904,9.207L201.353,252.394
			z M127.741,242.831l-0.438-0.196l-4.109,9.117l0.485,0.218L127.741,242.831z M215.421,244.87l-5.426-8.4l-0.389,0.25l5.357,8.443
			L215.421,244.87z M115.194,235.94l-0.393-0.262l-5.574,8.303l0.447,0.297L115.194,235.94z M228.074,235.125l-6.744-7.383
			l-0.343,0.31l6.684,7.439L228.074,235.125z M103.942,227.072l-0.338-0.316l-6.864,7.271l0.397,0.373L103.942,227.072z
			 M238.943,223.462l-7.837-6.211l-0.303,0.38l7.814,6.24L238.943,223.462z M94.3,216.489l-0.281-0.367l-7.965,6.047l0.331,0.432
			L94.3,216.489z M247.776,210.143l-8.764-4.816l-0.225,0.406l8.725,4.887L247.776,210.143z M86.526,204.474l-0.224-0.42
			l-8.837,4.68l0.249,0.467L86.526,204.474z M254.288,195.551l-9.439-3.301l-0.155,0.441l9.414,3.371L254.288,195.551z
			 M80.845,191.358l-0.148-0.443l-9.498,3.127l0.171,0.514L80.845,191.358z M258.29,180.086l-9.857-1.682l-0.086,0.497l9.857,1.682
			L258.29,180.086z M77.41,177.462l-0.073-0.459l-9.884,1.521l0.084,0.535L77.41,177.462z M259.688,164h-10l-0.005,0.679l10,0.041
			L259.688,164z M76.315,162.716l-9.999-0.11l-0.004,0.449l4.999,0.11l-5-0.068l9.999,0.137L76.315,162.716z M258.526,148.57
			l-0.08-0.5l-9.875,1.573l0.078,0.495L258.526,148.57z M77.631,148.459l-9.847-1.743l-0.091,0.525l9.856,1.687L77.631,148.459z
			 M254.757,133.044l-0.161-0.478l-9.475,3.197l0.161,0.478L254.757,133.044z M81.28,134.609l-9.431-3.327l-0.172,0.491l9.439,3.301
			L81.28,134.609z M248.487,118.398l-0.252-0.471l-8.812,4.727l0.221,0.414L248.487,118.398z M87.176,121.555l-8.757-4.829
			l-0.247,0.448l8.764,4.817L87.176,121.555z M239.875,104.962l-0.326-0.424l-7.916,6.111l0.287,0.374L239.875,104.962z
			 M95.134,109.668l-7.826-6.226l-0.326,0.411l7.851,6.193L95.134,109.668z M229.174,93.115l-0.391-0.365l-6.805,7.328l0.346,0.323
			L229.174,93.115z M104.94,99.236l-6.697-7.426l-0.396,0.359l6.744,7.384L104.94,99.236z M216.674,83.176l-0.444-0.295
			l-5.507,8.348l0.397,0.264L216.674,83.176z M116.321,90.55l-5.392-8.422l-0.45,0.29l5.445,8.387L116.321,90.55z M202.714,75.43
			l-0.496-0.222l-4.051,9.143l0.426,0.191L202.714,75.43z M128.973,83.855l-3.95-9.187l-0.473,0.204l3.975,9.176L128.973,83.855z
			 M187.64,70.091l-0.508-0.132l-2.494,9.685l0.467,0.122L187.64,70.091z M142.53,79.351l-2.329-9.725l-0.531,0.129l2.412,9.705
			L142.53,79.351z M171.926,67.33l-0.528-0.047l-0.873,9.962L171,77.287L171.926,67.33z M156.673,77.149l-0.698-9.976l-0.546,0.041
			l0.785,9.969L156.673,77.149z M158.995,317.395l-0.066,1.999L158.995,317.395z M131.083,313.97
			c0.255-1.075-0.409-2.153-1.484-2.408c-0.019-0.004-0.124-0.028-0.143-0.032c-1.076-0.216-2.121,0.468-2.351,1.544
			c-0.229,1.075,0.462,2.137,1.536,2.373l0.033,0.008c0.155,0.036,0.311,0.054,0.463,0.054
			C130.045,315.508,130.866,314.889,131.083,313.97z M199.267,315.459c0.025-0.005,0.137-0.03,0.163-0.036
			c1.059-0.256,1.675-1.302,1.44-2.365s-1.319-1.737-2.389-1.521c-1.083,0.217-1.785,1.271-1.568,2.354
			c0.189,0.95,1.025,1.607,1.959,1.607C199.002,315.498,199.134,315.485,199.267,315.459z M121.28,311.493
			c0.327-1.055-0.262-2.176-1.317-2.503c-0.02-0.006-0.125-0.037-0.146-0.043c-1.058-0.291-2.142,0.328-2.442,1.384
			c-0.301,1.057,0.319,2.161,1.373,2.471l0.03,0.009c0.197,0.062,0.397,0.091,0.593,0.091
			C120.224,312.901,121.014,312.35,121.28,311.493z M209.192,312.816c0.014-0.004,0.112-0.033,0.127-0.038
			c1.047-0.325,1.595-1.419,1.282-2.469s-1.454-1.642-2.509-1.339c-1.062,0.304-1.677,1.41-1.373,2.473
			c0.251,0.878,1.052,1.451,1.922,1.451C208.823,312.894,209.009,312.869,209.192,312.816z M237.386,301.153
			c0.009-0.005,0.096-0.051,0.104-0.056c0.967-0.521,1.295-1.703,0.781-2.675c-0.513-0.971-1.753-1.324-2.728-0.82
			c-0.98,0.509-1.363,1.716-0.854,2.696c0.355,0.687,1.054,1.079,1.777,1.079C236.776,301.378,237.091,301.305,237.386,301.153z
			 M93.269,300.306c0.522-0.964,0.132-2.189-0.826-2.722c-0.966-0.537-2.183-0.188-2.72,0.776c-0.536,0.966-0.188,2.184,0.777,2.72
			c0.012,0.007,0.103,0.056,0.115,0.062c0.292,0.154,0.602,0.228,0.907,0.228C92.227,301.371,92.904,300.98,93.269,300.306z
			 M246.258,296.028c0.011-0.006,0.095-0.06,0.104-0.065c0.925-0.592,1.162-1.795,0.579-2.725c-0.584-0.931-1.846-1.19-2.779-0.616
			c-0.941,0.579-1.234,1.811-0.655,2.751c0.378,0.614,1.033,0.952,1.705,0.952C245.569,296.325,245.932,296.229,246.258,296.028z
			 M84.484,295.375c0.587-0.936,0.304-2.17-0.631-2.757c-0.005-0.003-0.085-0.053-0.09-0.056c-0.943-0.579-2.174-0.286-2.751,0.655
			c-0.579,0.94-0.286,2.172,0.655,2.751l0.061,0.038c0.331,0.207,0.698,0.306,1.061,0.306
			C83.453,296.312,84.104,295.98,84.484,295.375z M270.44,277.468c0.012-0.011,0.088-0.082,0.1-0.094
			c0.792-0.756,0.797-1.978,0.051-2.779c-0.747-0.802-2.03-0.822-2.842-0.086c-0.817,0.742-0.877,2.008-0.134,2.825
			c0.395,0.434,0.937,0.654,1.48,0.654C269.575,277.989,270.057,277.817,270.44,277.468z M60.344,277.36
			c0.763-0.799,0.733-2.064-0.066-2.827c-0.012-0.012-0.088-0.083-0.1-0.094c-0.815-0.741-2.073-0.681-2.818,0.134
			c-0.744,0.813-0.685,2.079,0.127,2.825l0.029,0.027c0.387,0.37,0.884,0.554,1.38,0.554
			C59.425,277.979,59.951,277.772,60.344,277.36z M277.727,270.188l0.027-0.029c0.763-0.799,0.733-2.064-0.065-2.827
			s-2.064-0.733-2.827,0.065c-0.012,0.012-0.083,0.088-0.094,0.1c-0.742,0.816-0.681,2.074,0.134,2.818
			c0.383,0.35,0.865,0.522,1.347,0.522C276.79,270.838,277.331,270.619,277.727,270.188z M53.077,270.266
			c0.808-0.753,0.823-2.051,0.07-2.858c-0.752-0.809-2.019-0.853-2.827-0.1s-0.853,2.019-0.1,2.826l0.06,0.064
			c0.386,0.415,0.899,0.62,1.417,0.62C52.188,270.819,52.684,270.633,53.077,270.266z M296.292,246.05
			c0.006-0.01,0.06-0.095,0.065-0.105c0.575-0.935,0.267-2.121-0.663-2.704c-0.93-0.585-2.181-0.272-2.771,0.653
			c-0.596,0.931-0.324,2.167,0.606,2.763c0.334,0.214,0.707,0.315,1.076,0.315C295.265,246.972,295.91,246.647,296.292,246.05z
			 M34.408,246.635c0.929-0.574,1.203-1.824,0.644-2.763c-0.565-0.949-1.793-1.259-2.742-0.693c-0.949,0.565-1.26,1.793-0.694,2.742
			c0.011,0.018,0.068,0.11,0.08,0.128c0.375,0.586,0.995,0.896,1.636,0.896C33.698,246.945,34.071,246.844,34.408,246.635z
			 M301.412,237.216c0.015-0.025,0.071-0.13,0.085-0.156c0.501-0.965,0.117-2.114-0.836-2.637c-0.956-0.518-2.17-0.146-2.714,0.795
			c-0.552,0.956-0.224,2.18,0.733,2.731c0.314,0.182,0.658,0.268,0.997,0.268C300.369,238.217,301.042,237.859,301.412,237.216z
			 M29.243,237.954c0.973-0.522,1.316-1.773,0.794-2.746c-0.523-0.974-1.735-1.341-2.708-0.815
			c-0.973,0.522-1.338,1.734-0.816,2.708c0,0.001,0.042,0.078,0.043,0.079c0.355,0.661,1.02,1.022,1.714,1.022
			C28.597,238.202,28.931,238.122,29.243,237.954z M17.332,210.341c1.06-0.311,1.667-1.422,1.357-2.481
			c-0.005-0.017-0.036-0.117-0.041-0.134c-0.337-1.049-1.458-1.62-2.506-1.287c-1.05,0.333-1.631,1.459-1.303,2.51l0.011,0.036
			c0.256,0.872,1.053,1.438,1.918,1.438C16.955,210.423,17.145,210.396,17.332,210.341z M313.165,208.948l0.009-0.03
			c0.327-1.055-0.263-2.176-1.317-2.503c-1.055-0.33-2.175,0.263-2.503,1.317c-0.006,0.021-0.037,0.125-0.043,0.146
			c-0.292,1.059,0.327,2.143,1.384,2.443c0.181,0.051,0.362,0.075,0.542,0.075C312.105,210.396,312.908,209.821,313.165,208.948z
			 M315.815,199.051l-1.938-0.492l1.944,0.47c0.259-1.074-0.401-2.154-1.475-2.414c-1.077-0.261-2.154,0.4-2.414,1.475
			c-0.006,0.026-0.031,0.138-0.036,0.163c-0.215,1.073,0.477,2.1,1.546,2.329c0.139,0.029,0.276,0.044,0.413,0.044
			C314.772,200.626,315.604,199.98,315.815,199.051z M14.592,200.565c1.068-0.245,1.73-1.346,1.497-2.417
			c-0.234-1.078-1.297-1.757-2.379-1.53c-1.079,0.234-1.764,1.299-1.53,2.378c0.003,0.015,0.027,0.116,0.03,0.132
			c0.219,0.908,1.02,1.491,1.913,1.491C14.277,200.619,14.435,200.601,14.592,200.565z M319.776,169.028l0.003-0.134
			c0.037-1.104-0.83-1.894-1.934-1.894c-0.021,0-0.043,0-0.065,0c-1.074,0-1.966,0.874-2.002,1.956
			c-0.037,1.104,0.828,2.044,1.933,2.044c0.022,0,0.045,0,0.067,0C318.853,171,319.74,170.109,319.776,169.028z M10.292,171
			c1.104,0,1.968-1.11,1.931-2.214c-0.037-1.104-0.981-2.079-2.065-2.04c-1.104,0.037-1.969,0.995-1.933,2.098l0.003,0.145
			c0.036,1.08,0.921,2.01,1.993,2.01C10.245,171,10.269,171,10.292,171z M16.028,129.298c0.002-0.008,0.024-0.102,0.026-0.11
			c0.242-1.078-0.437-2.147-1.514-2.389c-1.079-0.238-2.148,0.436-2.389,1.514l-0.014,0.062c-0.255,1.075,0.409,2.153,1.484,2.408
			c0.155,0.037,0.311,0.055,0.464,0.055C14.99,130.836,15.81,130.217,16.028,129.298z M18.595,119.659
			c0.003-0.01,0.032-0.105,0.035-0.115c0.311-1.06-0.297-2.171-1.357-2.482c-1.061-0.307-2.171,0.297-2.482,1.357l-0.017,0.055
			c-0.327,1.055,0.262,2.175,1.317,2.503c0.197,0.061,0.397,0.09,0.593,0.09C17.539,121.067,18.329,120.517,18.595,119.659z
			 M311.744,120.642c1.063-0.299,1.684-1.403,1.386-2.466c-0.005-0.018-0.036-0.119-0.041-0.137
			c-0.325-1.045-1.416-1.591-2.464-1.283c-1.05,0.31-1.643,1.448-1.347,2.501c0.248,0.883,1.051,1.46,1.925,1.46
			C311.382,120.716,311.563,120.692,311.744,120.642z M29.999,92.107c0.522-0.973,0.157-2.186-0.816-2.708
			c-0.974-0.523-2.186-0.157-2.708,0.816c-0.002,0.004-0.045,0.086-0.048,0.09c-0.515,0.974-0.124,2.142,0.849,2.66
			c0.29,0.154,0.602,0.227,0.911,0.227C28.917,93.191,29.632,92.788,29.999,92.107z M300.61,92.651
			c0.96-0.536,1.303-1.756,0.772-2.72l-0.016-0.029c-0.515-0.976-1.726-1.351-2.703-0.834c-0.977,0.516-1.35,1.726-0.834,2.703
			c0.009,0.017,0.061,0.112,0.07,0.129c0.366,0.647,1.037,1.008,1.73,1.008C299.963,92.907,300.3,92.824,300.61,92.651z
			 M34.946,83.539c0.003-0.005,0.053-0.085,0.056-0.09c0.579-0.941,0.286-2.173-0.655-2.751c-0.942-0.58-2.173-0.286-2.751,0.655
			l-0.038,0.061c-0.587,0.936-0.304,2.17,0.631,2.757c0.331,0.207,0.698,0.306,1.061,0.306
			C33.916,84.476,34.566,84.144,34.946,83.539z M295.635,83.871c0.937-0.587,1.219-1.822,0.632-2.757l-0.047-0.075
			c-0.588-0.935-1.799-1.181-2.733-0.594c-0.937,0.587-1.195,1.859-0.608,2.794c0.38,0.605,1.03,0.938,1.696,0.938
			C294.938,84.177,295.305,84.078,295.635,83.871z M53.096,59.873c0.753-0.808,0.708-2.073-0.1-2.827
			c-0.808-0.753-2.073-0.708-2.827,0.1l-0.06,0.064c-0.753,0.808-0.678,2.041,0.13,2.794c0.377,0.351,0.86,0.522,1.345,0.522
			C52.138,60.527,52.694,60.304,53.096,59.873z M277.542,59.802c0.817-0.743,0.877-2.008,0.134-2.825
			c-0.011-0.012-0.082-0.088-0.094-0.1c-0.756-0.792-1.978-0.798-2.779-0.05c-0.801,0.747-0.823,2.031-0.086,2.841
			c0.395,0.434,0.937,0.655,1.48,0.655C276.677,60.322,277.158,60.151,277.542,59.802z M60.075,52.879
			c0.006-0.006,0.076-0.072,0.082-0.077c0.799-0.763,0.829-2.029,0.066-2.828s-2.028-0.829-2.828-0.066l-0.047,0.044
			c-0.808,0.753-0.853,2.019-0.1,2.827c0.394,0.423,0.928,0.637,1.464,0.637C59.2,53.415,59.689,53.237,60.075,52.879z
			 M270.501,52.546c0.753-0.808,0.709-2.074-0.1-2.827l-0.064-0.06c-0.808-0.751-2.042-0.68-2.794,0.13
			c-0.753,0.808-0.677,2.104,0.132,2.857c0.385,0.359,0.875,0.537,1.363,0.537C269.573,53.183,270.107,52.969,270.501,52.546z
			 M83.679,34.701c0.944-0.574,1.244-1.804,0.67-2.748c-0.574-0.943-1.804-1.243-2.748-0.67c-0.008,0.005-0.091,0.056-0.099,0.061
			c-0.931,0.584-1.179,1.787-0.601,2.722c0.374,0.605,1.035,0.933,1.709,0.933C82.978,34.999,83.348,34.902,83.679,34.701z
			 M246.836,33.917c0.582-0.938,0.292-2.171-0.646-2.753c-0.002-0.001-0.079-0.049-0.081-0.05c-0.937-0.579-2.132-0.264-2.712,0.675
			c-0.58,0.938-0.252,2.193,0.686,2.774c0.328,0.204,0.692,0.301,1.052,0.301C245.803,34.863,246.457,34.528,246.836,33.917z
			 M92.237,29.739c0.009-0.005,0.095-0.051,0.104-0.056c0.969-0.53,1.325-1.746,0.794-2.714c-0.529-0.969-1.743-1.325-2.714-0.794
			l-0.052,0.027c-0.977,0.516-1.35,1.726-0.834,2.703c0.359,0.679,1.053,1.066,1.771,1.066
			C91.62,29.971,91.939,29.896,92.237,29.739z M238.12,28.78c0.538-0.965,0.191-2.183-0.772-2.721
			c-0.019-0.01-0.114-0.061-0.132-0.07c-0.97-0.503-2.125-0.115-2.644,0.849c-0.518,0.962-0.128,2.183,0.826,2.715
			c0.309,0.172,0.643,0.254,0.973,0.254C237.073,29.806,237.754,29.436,238.12,28.78z M119.761,18.298
			c1.058-0.315,1.661-1.43,1.345-2.488c-0.316-1.059-1.431-1.662-2.488-1.345c-0.007,0.002-0.099,0.03-0.105,0.032
			c-1.051,0.326-1.599,1.427-1.278,2.479c0.262,0.86,1.079,1.406,1.944,1.406C119.372,18.383,119.568,18.356,119.761,18.298z
			 M210.456,16.889c0.327-1.055-0.263-2.175-1.317-2.503c-0.01-0.003-0.105-0.032-0.115-0.035c-1.06-0.309-2.117,0.303-2.435,1.354
			s0.315,2.175,1.364,2.5c0.197,0.061,0.397,0.09,0.594,0.09C209.399,18.297,210.189,17.746,210.456,16.889z M129.392,15.717
			c1.078-0.242,1.756-1.311,1.514-2.389s-1.311-1.753-2.389-1.514c-0.008,0.002-0.102,0.024-0.11,0.026
			c-1.07,0.254-1.691,1.314-1.444,2.385c0.213,0.923,1.065,1.542,1.983,1.542C129.093,15.766,129.243,15.75,129.392,15.717z
			 M170.917,9.954c0.019-1.104-0.862-2.106-1.967-2.124l-0.055,0.016c-1.1-0.01-2.028,0.852-2.065,1.956
			c-0.037,1.104,0.815,2.157,1.92,2.194c0.011,0,0.156,0.016,0.168,0.016C170.007,12.011,170.898,11.047,170.917,9.954z
			 M153.411,241.859c0.089,0.012,0.179,0.018,0.267,0.018c0.987,0,1.846-0.73,1.98-1.735c0.146-1.095-0.623-2.102-1.718-2.247
			c-0.042-0.006-0.127-0.015-0.17-0.018c-1.096-0.065-2.101,0.752-2.177,1.854c-0.076,1.102,0.712,2.053,1.814,2.129
			 M173.945,241.681l0.044-0.006c1.095-0.146,1.842-1.149,1.696-2.244c-0.146-1.095-1.175-1.856-2.27-1.715
			c-1.095,0.146-1.864,1.152-1.718,2.247c0.134,1.005,0.993,1.735,1.979,1.735C173.767,241.699,173.855,241.693,173.945,241.681z
			 M143.271,239.946c0.178,0.05,0.357,0.073,0.533,0.073c0.877,0,1.683-0.582,1.927-1.469c0.293-1.065-0.332-2.166-1.396-2.46
			c-0.042-0.012-0.126-0.033-0.169-0.042c-1.083-0.22-2.184,0.462-2.408,1.543c-0.224,1.082,0.428,2.13,1.509,2.354
			 M184.035,239.597c0.011-0.003,0.064-0.018,0.076-0.021c1.055-0.302,1.649-1.392,1.357-2.449
			c-0.294-1.059-1.404-1.676-2.465-1.395c-1.067,0.285-1.701,1.381-1.417,2.448c0.238,0.895,1.047,1.485,1.932,1.485
			C183.688,239.666,183.862,239.643,184.035,239.597z M133.465,236.715c0.257,0.11,0.524,0.163,0.787,0.163
			c0.776,0,1.514-0.455,1.839-1.213c0.435-1.016-0.035-2.191-1.051-2.626c-0.038-0.017-0.117-0.048-0.156-0.062
			c-1.041-0.368-2.223,0.157-2.595,1.196c-0.372,1.04,0.131,2.169,1.172,2.541 M126.921,231.482
			c0.536-0.948,0.196-2.161-0.741-2.716c-0.951-0.562-2.177-0.25-2.74,0.701c-0.563,0.95-0.249,2.177,0.701,2.74
			c0.023,0.014,0.086,0.049,0.11,0.062c0.299,0.161,0.618,0.237,0.933,0.237C125.88,232.507,126.553,232.134,126.921,231.482z
			 M202.918,231.595c0.034-0.018,0.105-0.06,0.138-0.08c0.941-0.579,1.266-1.828,0.687-2.769c-0.579-0.941-1.779-1.252-2.721-0.673
			c-0.973,0.523-1.336,1.736-0.812,2.709c0.361,0.671,1.051,1.052,1.763,1.052C202.292,231.835,202.616,231.758,202.918,231.595z
			 M118.379,226.182c0.663-0.884,0.466-2.15-0.417-2.812c-0.884-0.664-2.137-0.483-2.8,0.399c-0.663,0.884-0.483,2.138,0.4,2.8
			l0.035,0.026c0.356,0.268,0.77,0.396,1.18,0.396C117.384,226.991,117.984,226.71,118.379,226.182z M211.537,225.725
			c0.854-0.669,1.021-1.902,0.366-2.774c-0.661-0.882-1.913-1.064-2.8-0.399c-0.05,0.037-0.133,0.104-0.18,0.147
			c-0.817,0.742-0.877,2.008-0.134,2.825c0.395,0.434,0.937,0.654,1.48,0.654C210.719,226.178,211.168,226.029,211.537,225.725z
			 M110.565,219.883c0.799-0.763,0.829-2.028,0.066-2.827c-0.033-0.034-0.098-0.099-0.133-0.13
			c-0.818-0.744-2.083-0.682-2.825,0.134c-0.727,0.8-0.685,2.028,0.083,2.776c0.391,0.399,0.91,0.601,1.429,0.601
			C109.681,220.437,110.178,220.254,110.565,219.883z M219.179,218.904l0.031-0.031c0.781-0.781,0.766-2.031-0.016-2.812
			c-0.781-0.78-2.062-0.767-2.844,0.016c-0.781,0.781-0.781,2.047,0,2.828c0.391,0.391,0.902,0.586,1.414,0.586
			S218.788,219.295,219.179,218.904z M100.887,212.15c0.393,0.523,0.994,0.8,1.602,0.8c0.417,0,0.839-0.13,1.199-0.4
			c0.883-0.662,1.062-1.916,0.4-2.8c-0.028-0.036-0.083-0.106-0.113-0.142c-0.723-0.836-2.017-0.966-2.852-0.244
			c-0.836,0.722-0.959,1.947-0.237,2.783 M225.931,211.085l0.026-0.035c0.663-0.884,0.471-2.12-0.413-2.782
			c-0.881-0.662-2.149-0.467-2.812,0.417s-0.484,2.138,0.399,2.8c0.36,0.271,0.781,0.4,1.198,0.4
			C224.938,211.884,225.538,211.608,225.931,211.085z M95.089,203.655c0.371,0.643,1.043,1.001,1.734,1.001
			c0.339,0,0.683-0.086,0.998-0.268c0.957-0.552,1.285-1.775,0.733-2.731c-0.009-0.017-0.042-0.071-0.052-0.087
			c-0.574-0.933-1.785-1.22-2.724-0.656c-0.939,0.562-1.245,1.788-0.693,2.734 M231.557,202.536
			c0.021-0.032,0.062-0.104,0.079-0.138c0.523-0.973,0.178-2.217-0.795-2.74c-0.972-0.523-2.168-0.191-2.69,0.782
			c-0.579,0.94-0.286,2.172,0.655,2.751c0.326,0.201,0.688,0.297,1.046,0.297C230.523,203.488,231.179,203.15,231.557,202.536z
			 M93.064,195.518c1.015-0.433,1.479-1.624,1.05-2.64c-0.431-1.017-1.604-1.492-2.621-1.062c-1.017,0.431-1.493,1.604-1.062,2.621
			c0.001,0.003,0.02,0.046,0.021,0.049c0.323,0.753,1.049,1.195,1.817,1.195C92.534,195.681,92.804,195.629,93.064,195.518z
			 M236.086,193.187c0.436-1.016-0.035-2.191-1.05-2.626c-1.017-0.438-2.192,0.035-2.626,1.05c-0.017,0.038-0.048,0.117-0.062,0.156
			c-0.371,1.04,0.156,2.224,1.196,2.596c0.23,0.082,0.466,0.121,0.696,0.121c0.808,0,1.556-0.484,1.845-1.293 M89.496,186.123
			c1.058-0.293,1.677-1.404,1.395-2.465c-0.285-1.067-1.386-1.7-2.448-1.417c-1.067,0.285-1.702,1.381-1.417,2.448
			c0.003,0.011,0.018,0.064,0.021,0.076c0.25,0.874,1.04,1.432,1.905,1.432C89.131,186.197,89.314,186.173,89.496,186.123z
			 M239.328,183.367c0.284-1.067-0.35-2.163-1.417-2.448c-1.072-0.284-2.164,0.351-2.448,1.417c-0.009,0.032-0.026,0.107-0.034,0.14
			c-0.228,1.062,0.438,2.096,1.495,2.348c0.153,0.037,0.308,0.055,0.459,0.055c0.892,0,1.707-0.607,1.943-1.506 M84.943,174.643
			c0.134,1.005,0.993,1.735,1.98,1.735c0.088,0,0.177-0.006,0.267-0.018c1.095-0.146,1.864-1.152,1.718-2.247
			c-0.003-0.021-0.012-0.087-0.016-0.108c-0.18-1.079-1.188-1.794-2.271-1.634c-1.081,0.164-1.827,1.181-1.679,2.264
			 M241.242,173.244c0.146-1.095-0.623-2.102-1.718-2.247c-1.085-0.142-2.101,0.622-2.247,1.718
			c-0.006,0.044-0.015,0.132-0.018,0.176c-0.074,1.102,0.756,2.101,1.857,2.174c0.048,0.003,0.096,0.005,0.143,0.005
			c1.04,0,1.912-0.768,1.982-1.822 M84.747,154.065c-0.146,1.095,0.623,2.101,1.718,2.247c0.089,0.012,0.179,0.018,0.267,0.018
			c0.987,0,1.846-0.73,1.98-1.736c0.002-0.02,0.01-0.083,0.012-0.102c0.113-1.089-0.672-2.053-1.76-2.179
			c-1.098-0.136-2.076,0.658-2.216,1.744 M90.521,144.945c0.294-1.064-0.331-2.166-1.396-2.459c-1.067-0.298-2.167,0.332-2.46,1.396
			c-0.005,0.021-0.021,0.084-0.027,0.105c-0.256,1.062,0.392,2.111,1.449,2.384c0.164,0.042,0.329,0.063,0.492,0.063
			C89.462,146.434,90.275,145.834,90.521,144.945z M237.551,144.896c1.064-0.294,1.689-1.396,1.396-2.46l-0.012-0.042
			c-0.293-1.064-1.379-1.67-2.454-1.375c-1.064,0.294-1.684,1.417-1.39,2.481c0.244,0.887,1.049,1.469,1.927,1.469
			C237.193,144.968,237.372,144.945,237.551,144.896z M93.574,135.651c0.435-1.015-0.035-2.191-1.051-2.626
			c-1.014-0.434-2.19,0.036-2.626,1.051c-0.008,0.019-0.032,0.078-0.04,0.097c-0.4,1.017,0.099,2.146,1.11,2.561
			c0.244,0.1,0.497,0.147,0.746,0.147C92.497,136.881,93.247,136.413,93.574,135.651z M234.482,135.324
			c1.015-0.435,1.485-1.611,1.05-2.626c-0.003-0.008-0.024-0.057-0.028-0.065c-0.445-1.004-1.614-1.439-2.618-1
			c-1.008,0.44-1.463,1.63-1.029,2.641c0.324,0.759,1.062,1.213,1.839,1.213C233.958,135.487,234.226,135.434,234.482,135.324z
			 M94.35,124.849c-0.552,0.957-0.224,2.18,0.733,2.732c0.315,0.182,0.659,0.268,0.998,0.268c0.691,0,1.364-0.359,1.734-1.001
			c0.015-0.026,0.051-0.091,0.064-0.118c0.501-0.966,0.129-2.14-0.826-2.662s-2.16-0.168-2.701,0.776 M230.135,126.275
			c0.964-0.54,1.308-1.759,0.768-2.722c-0.014-0.024-0.05-0.085-0.064-0.109c-0.571-0.928-1.767-1.208-2.705-0.657
			c-0.938,0.551-1.253,1.771-0.721,2.72c0.367,0.655,1.047,1.023,1.747,1.023C229.49,126.53,229.825,126.448,230.135,126.275z
			 M103.217,118.608c0.663-0.884,0.483-2.137-0.4-2.8c-0.883-0.661-2.137-0.483-2.8,0.4l-0.026,0.035
			c-0.663,0.884-0.47,2.12,0.413,2.783c0.355,0.266,0.772,0.394,1.187,0.394C102.208,119.419,102.82,119.136,103.217,118.608z
			 M224.8,117.75c0.815-0.709,0.917-1.933,0.243-2.766c-0.665-0.863-1.904-1.034-2.783-0.378c-0.884,0.663-1.062,1.917-0.399,2.8
			c0.028,0.039,0.086,0.11,0.118,0.147c0.396,0.455,0.951,0.688,1.51,0.688C223.953,118.241,224.421,118.079,224.8,117.75z
			 M218.165,110.204c0.8-0.762,0.831-2.028,0.069-2.828c-0.021-0.023-0.075-0.076-0.099-0.098c-0.786-0.75-2.012-0.72-2.778,0.047
			c-0.769,0.767-0.769,2.023-0.02,2.81c0.393,0.413,0.92,0.621,1.448,0.621C217.282,110.756,217.778,110.573,218.165,110.204z
			 M210.769,103.402c0.663-0.884,0.484-2.138-0.399-2.8l-0.035-0.026c-0.884-0.662-2.12-0.47-2.782,0.413
			c-0.663,0.884-0.467,2.151,0.417,2.813c0.36,0.27,0.781,0.4,1.198,0.4C209.775,104.202,210.376,103.925,210.769,103.402z
			 M122.919,95.723c-0.957,0.552-1.285,1.775-0.733,2.732c0.371,0.642,1.043,1.001,1.734,1.001c0.339,0,0.683-0.086,0.998-0.268
			c0.026-0.016,0.09-0.054,0.116-0.07c0.916-0.586,1.182-1.789,0.615-2.717c-0.567-0.929-1.784-1.226-2.726-0.68 M201.725,94.94
			c-0.957-0.554-2.181-0.224-2.731,0.733c-0.552,0.957-0.224,2.18,0.733,2.732c0.017,0.01,0.071,0.041,0.089,0.05
			c0.3,0.162,0.621,0.238,0.938,0.238c0.702,0,1.381-0.375,1.747-1.035c0.531-0.958,0.182-2.17-0.769-2.713 M133.646,94.762
			c1.028-0.404,1.534-1.564,1.13-2.593c-0.404-1.028-1.565-1.536-2.593-1.13c-0.027,0.011-0.094,0.039-0.121,0.051
			c-0.994,0.442-1.432,1.588-1.013,2.591c0.32,0.763,1.07,1.221,1.857,1.221C133.153,94.903,133.404,94.857,133.646,94.762z
			 M193.546,93.118c0.436-1.015-0.035-2.191-1.05-2.626c-0.019-0.008-0.079-0.032-0.098-0.04c-1.017-0.401-2.146,0.099-2.562,1.11
			c-0.415,1.011,0.079,2.176,1.083,2.606c0.257,0.11,0.524,0.162,0.787,0.162C192.483,94.331,193.222,93.877,193.546,93.118z
			 M142.929,91.509c1.065-0.294,1.69-1.396,1.396-2.46c-0.294-1.064-1.396-1.688-2.46-1.396l-0.042,0.012
			c-1.065,0.294-1.669,1.39-1.375,2.454c0.244,0.886,1.062,1.463,1.943,1.463C142.569,91.582,142.75,91.558,142.929,91.509z
			 M184.08,89.743c0.304-1.062-0.312-2.169-1.373-2.472c-0.032-0.009-0.106-0.028-0.139-0.036c-1.051-0.246-2.096,0.399-2.368,1.451
			c-0.272,1.051,0.364,2.132,1.407,2.43c0.184,0.053,0.369,0.078,0.551,0.078C183.028,91.194,183.829,90.621,184.08,89.743z
			 M151.925,85.559c-1.095,0.146-1.864,1.152-1.718,2.247c0.134,1.005,0.993,1.736,1.98,1.736c0.088,0,0.177-0.005,0.267-0.018
			c0.025-0.003,0.094-0.014,0.119-0.018c1.075-0.185,1.788-1.196,1.622-2.274c-0.167-1.079-1.192-1.827-2.263-1.674 M172.504,85.354
			c-1.087-0.147-2.102,0.623-2.247,1.718c-0.146,1.095,0.623,2.101,1.718,2.247c0.022,0.003,0.088,0.011,0.109,0.013
			c0.067,0.006,0.135,0.01,0.201,0.01c1.003,0,1.854-0.755,1.971-1.774c0.124-1.086-0.661-2.072-1.745-2.213 M169.35,319.25
			c0.025-0.005,0.137-0.03,0.163-0.036c1.059-0.256,1.675-1.302,1.44-2.365s-1.319-1.737-2.389-1.521
			c-1.083,0.217-1.785,1.271-1.568,2.354c0.189,0.95,1.025,1.607,1.959,1.607C169.085,319.289,169.217,319.277,169.35,319.25z
			 M159.308,319.375c0.025-0.005,0.137-0.03,0.163-0.036c1.059-0.256,1.675-1.302,1.44-2.365s-1.319-1.737-2.389-1.521
			c-1.083,0.217-1.785,1.271-1.568,2.354c0.189,0.95,1.025,1.607,1.959,1.607C159.044,319.414,159.175,319.402,159.308,319.375z
			 M10.6,160.542c0.025-0.005,0.137-0.03,0.163-0.036c1.059-0.256,1.675-1.302,1.44-2.365s-1.319-1.737-2.389-1.521
			c-1.083,0.217-1.785,1.271-1.568,2.354c0.189,0.95,1.025,1.607,1.959,1.607C10.335,160.581,10.467,160.568,10.6,160.542z
			 M164.881,3.962c0.025-0.005,0.137-0.03,0.163-0.036c1.059-0.256,1.675-1.302,1.44-2.365s-1.319-1.737-2.389-1.521
			c-1.083,0.217-1.785,1.271-1.568,2.354c0.189,0.95,1.025,1.607,1.959,1.607C164.617,4.001,164.748,3.989,164.881,3.962z
			 M159.162,11.9c0.025-0.005,0.137-0.03,0.163-0.036c1.059-0.256,1.675-1.302,1.44-2.365s-1.319-1.737-2.389-1.521
			c-1.083,0.217-1.785,1.271-1.568,2.354c0.189,0.95,1.025,1.607,1.959,1.607C158.898,11.939,159.03,11.926,159.162,11.9z
			 M199.079,15.567c0.025-0.005,0.137-0.03,0.163-0.036c1.059-0.256,1.675-1.302,1.44-2.365s-1.319-1.737-2.389-1.521
			c-1.083,0.217-1.785,1.271-1.568,2.354c0.189,0.95,1.025,1.607,1.959,1.607C198.814,15.606,198.946,15.593,199.079,15.567z
			 M314.204,130.442c0.025-0.005,0.137-0.03,0.163-0.036c1.059-0.256,1.675-1.302,1.44-2.365s-1.319-1.737-2.389-1.521
			c-1.083,0.217-1.785,1.271-1.568,2.354c0.189,0.95,1.025,1.607,1.959,1.607C313.939,130.481,314.071,130.468,314.204,130.442z
			 M320.829,124.108c0.025-0.005,0.137-0.03,0.163-0.036c1.059-0.256,1.675-1.302,1.44-2.365s-1.319-1.737-2.389-1.521
			c-1.083,0.217-1.785,1.271-1.568,2.354c0.189,0.95,1.025,1.607,1.959,1.607C320.564,124.147,320.696,124.135,320.829,124.108z
			 M318.121,160.608c0.025-0.005,0.137-0.03,0.163-0.036c1.059-0.256,1.675-1.302,1.44-2.365s-1.319-1.737-2.389-1.521
			c-1.083,0.217-1.785,1.271-1.568,2.354c0.189,0.95,1.025,1.607,1.959,1.607C317.856,160.647,317.988,160.635,318.121,160.608z
			 M326.097,166.525c0.025-0.005,0.137-0.03,0.163-0.036c1.059-0.256,1.675-1.302,1.44-2.365s-1.319-1.737-2.389-1.521
			c-1.083,0.217-1.785,1.271-1.568,2.354c0.189,0.95,1.025,1.607,1.959,1.607C325.832,166.564,325.964,166.551,326.097,166.525z
			 M274.722,194.242c0.008-0.02,0.036-0.101,0.043-0.12c0.254-0.762-0.158-1.556-0.915-1.826c-0.757-0.268-1.602,0.145-1.886,0.896
			c-0.29,0.762,0.092,1.614,0.854,1.904c0.173,0.066,0.351,0.098,0.525,0.098C273.938,195.193,274.498,194.831,274.722,194.242z
			 M222.226,64.178c-0.669-0.464-1.589-0.3-2.054,0.371c-0.465,0.669-0.3,1.589,0.37,2.054c0.01,0.007,0.074,0.05,0.084,0.057
			c0.25,0.164,0.53,0.243,0.809,0.243c0.479,0,0.948-0.233,1.232-0.664c0.448-0.679,0.26-1.595-0.418-2.045 M172.632,49.116
			c-0.669-0.464-1.589-0.3-2.054,0.371c-0.465,0.669-0.3,1.589,0.37,2.054c0.01,0.007,0.074,0.05,0.084,0.057
			c0.25,0.164,0.53,0.243,0.809,0.243c0.479,0,0.948-0.233,1.232-0.664c0.448-0.679,0.26-1.595-0.418-2.045 M165.257,48.928
			c-0.669-0.464-1.589-0.3-2.054,0.371c-0.465,0.669-0.3,1.589,0.37,2.054c0.01,0.007,0.074,0.05,0.084,0.057
			c0.25,0.164,0.53,0.243,0.809,0.243c0.479,0,0.948-0.233,1.232-0.664c0.448-0.679,0.26-1.595-0.418-2.045 M135.788,52.585
			c-0.669-0.464-1.589-0.3-2.054,0.371c-0.465,0.669-0.3,1.589,0.37,2.054c0.01,0.007,0.074,0.05,0.084,0.057
			c0.25,0.164,0.53,0.243,0.809,0.243c0.479,0,0.948-0.233,1.232-0.664c0.448-0.679,0.26-1.595-0.418-2.045 M90.257,76.71
			c-0.669-0.464-1.589-0.3-2.054,0.371c-0.465,0.669-0.3,1.589,0.37,2.054c0.01,0.007,0.074,0.05,0.084,0.057
			c0.25,0.164,0.53,0.243,0.809,0.243c0.479,0,0.948-0.233,1.232-0.664c0.448-0.679,0.26-1.595-0.418-2.045 M55.257,132.522
			c-0.669-0.464-1.589-0.3-2.054,0.371c-0.465,0.669-0.3,1.589,0.37,2.054c0.01,0.007,0.074,0.05,0.084,0.057
			c0.25,0.164,0.53,0.243,0.809,0.243c0.479,0,0.948-0.233,1.232-0.664c0.448-0.679,0.26-1.595-0.418-2.045 M51.569,154.46
			c-0.669-0.464-1.589-0.3-2.054,0.371c-0.465,0.669-0.3,1.589,0.37,2.054c0.01,0.007,0.074,0.05,0.084,0.057
			c0.25,0.164,0.53,0.243,0.809,0.243c0.479,0,0.948-0.233,1.232-0.664c0.448-0.679,0.26-1.595-0.418-2.045 M51.257,161.928
			c-0.669-0.464-1.589-0.3-2.054,0.371c-0.465,0.669-0.3,1.589,0.37,2.054c0.01,0.007,0.074,0.05,0.084,0.057
			c0.25,0.164,0.53,0.243,0.809,0.243c0.479,0,0.948-0.233,1.232-0.664c0.448-0.679,0.26-1.595-0.418-2.045 M54.976,191.335
			c-0.669-0.464-1.589-0.3-2.054,0.371c-0.465,0.669-0.3,1.589,0.37,2.054c0.01,0.007,0.074,0.05,0.084,0.057
			c0.25,0.164,0.53,0.243,0.809,0.243c0.479,0,0.948-0.233,1.232-0.664c0.448-0.679,0.26-1.595-0.418-2.045 M62.726,212.147
			c-0.669-0.464-1.589-0.3-2.054,0.371c-0.465,0.669-0.3,1.589,0.37,2.054c0.01,0.007,0.074,0.05,0.084,0.057
			c0.25,0.164,0.53,0.243,0.809,0.243c0.479,0,0.948-0.233,1.232-0.664c0.448-0.679,0.26-1.595-0.418-2.045 M272.919,164.076
			c0.002-0.022,0.007-0.105,0.008-0.128c0.036-0.758-0.541-1.376-1.298-1.43c-0.754-0.054-1.421,0.536-1.493,1.292
			c-0.073,0.769,0.491,1.451,1.259,1.524c0.045,0.004,0.09,0.006,0.135,0.006C272.241,165.341,272.85,164.799,272.919,164.076z
			 M278.919,164.013c0.002-0.022,0.007-0.105,0.008-0.128c0.036-0.758-0.541-1.376-1.298-1.43c-0.754-0.054-1.421,0.536-1.493,1.292
			c-0.073,0.769,0.491,1.451,1.259,1.524c0.045,0.004,0.09,0.006,0.135,0.006C278.241,165.278,278.85,164.736,278.919,164.013z
			 M217.702,258.547c0.697-0.33,0.995-1.163,0.664-1.861c-0.329-0.696-1.163-0.995-1.861-0.664
			c-0.018,0.008-0.091,0.044-0.108,0.054c-0.675,0.355-0.927,1.181-0.582,1.861c0.245,0.483,0.74,0.761,1.253,0.761
			c0.209,0,0.421-0.046,0.62-0.144 M184.781,270.557c0.749-0.187,1.204-0.945,1.017-1.694c-0.187-0.748-0.948-1.202-1.694-1.017
			c-0.016,0.003-0.09,0.023-0.104,0.027c-0.737,0.211-1.157,0.974-0.953,1.713c0.171,0.618,0.739,1.023,1.354,1.023
			c0.12,0,0.241-0.016,0.362-0.048 M163.781,272.62c0.749-0.187,1.204-0.945,1.017-1.694c-0.187-0.748-0.948-1.202-1.694-1.017
			c-0.016,0.003-0.09,0.023-0.104,0.027c-0.737,0.211-1.157,0.974-0.953,1.713c0.171,0.618,0.739,1.023,1.354,1.023
			c0.12,0,0.241-0.016,0.362-0.048 M58.702,185.408c0.739-0.189,1.181-0.966,1.004-1.707c-0.179-0.751-0.933-1.22-1.683-1.036
			c-0.751,0.179-1.214,0.933-1.036,1.683c0.003,0.017,0.023,0.092,0.027,0.106c0.169,0.614,0.717,1,1.324,1
			C58.458,185.454,58.58,185.439,58.702,185.408z M56.795,164.564c0.739-0.189,1.181-0.966,1.004-1.707
			c-0.179-0.751-0.933-1.22-1.683-1.036c-0.751,0.179-1.214,0.933-1.036,1.683c0.003,0.017,0.023,0.092,0.027,0.106
			c0.169,0.614,0.717,1,1.324,1C56.552,164.61,56.674,164.595,56.795,164.564z M62.639,130.002c0.739-0.189,1.181-0.966,1.004-1.707
			c-0.179-0.751-0.933-1.22-1.683-1.036c-0.751,0.179-1.214,0.933-1.036,1.683c0.003,0.017,0.023,0.092,0.027,0.106
			c0.169,0.614,0.717,1,1.324,1C62.396,130.048,62.518,130.033,62.639,130.002z M75.233,104.877
			c0.739-0.189,1.181-0.966,1.004-1.707c-0.179-0.751-0.933-1.22-1.683-1.036c-0.751,0.179-1.214,0.933-1.036,1.683
			c0.003,0.017,0.023,0.092,0.027,0.106c0.169,0.614,0.717,1,1.324,1C74.989,104.923,75.111,104.908,75.233,104.877z
			 M164.764,57.533c0.739-0.189,1.181-0.966,1.004-1.707c-0.179-0.751-0.933-1.22-1.683-1.036c-0.751,0.179-1.214,0.933-1.036,1.683
			c0.003,0.017,0.023,0.092,0.027,0.106c0.169,0.614,0.717,1,1.324,1C164.521,57.579,164.643,57.564,164.764,57.533z
			 M192.545,61.189c0.739-0.189,1.181-0.966,1.004-1.707c-0.179-0.751-0.933-1.22-1.683-1.036c-0.751,0.179-1.214,0.933-1.036,1.683
			c0.003,0.017,0.023,0.092,0.027,0.106c0.169,0.614,0.717,1,1.324,1C192.302,61.235,192.424,61.22,192.545,61.189z M199.327,63.314
			c0.739-0.189,1.181-0.966,1.004-1.707c-0.179-0.751-0.933-1.22-1.683-1.036c-0.751,0.179-1.214,0.933-1.036,1.683
			c0.003,0.017,0.023,0.092,0.027,0.106c0.169,0.614,0.717,1,1.324,1C199.083,63.36,199.205,63.345,199.327,63.314z M218.452,72.033
			c0.739-0.189,1.181-0.966,1.004-1.707c-0.179-0.751-0.933-1.22-1.683-1.036c-0.751,0.179-1.214,0.933-1.036,1.683
			c0.003,0.017,0.023,0.092,0.027,0.106c0.169,0.614,0.717,1,1.324,1C218.208,72.079,218.33,72.064,218.452,72.033z
			 M239.551,154.896c1.064-0.294,1.689-1.396,1.396-2.46l-0.012-0.042c-0.293-1.064-1.379-1.67-2.454-1.375
			c-1.064,0.294-1.684,1.417-1.39,2.481c0.244,0.887,1.049,1.469,1.927,1.469C239.193,154.968,239.372,154.945,239.551,154.896z
			 M240.551,164.896c1.064-0.294,1.689-1.396,1.396-2.46l-0.012-0.042c-0.293-1.064-1.379-1.67-2.454-1.375
			c-1.064,0.294-1.684,1.417-1.39,2.481c0.244,0.887,1.049,1.469,1.927,1.469C240.193,164.968,240.372,164.945,240.551,164.896z
			 M193.592,236.312c1.064-0.294,1.689-1.396,1.396-2.46l-0.012-0.042c-0.293-1.064-1.379-1.67-2.454-1.375
			c-1.064,0.294-1.684,1.417-1.39,2.481c0.244,0.887,1.049,1.469,1.927,1.469C193.235,236.385,193.414,236.361,193.592,236.312z
			 M164.217,242.354c1.064-0.294,1.689-1.396,1.396-2.46l-0.012-0.042c-0.293-1.064-1.379-1.67-2.454-1.375
			c-1.064,0.294-1.684,1.417-1.39,2.481c0.244,0.887,1.049,1.469,1.927,1.469C163.86,242.426,164.039,242.403,164.217,242.354z
			 M86.676,166.104c1.064-0.294,1.689-1.396,1.396-2.46l-0.012-0.042c-0.293-1.064-1.379-1.67-2.454-1.375
			c-1.064,0.294-1.684,1.417-1.39,2.481c0.244,0.887,1.049,1.469,1.927,1.469C86.318,166.176,86.497,166.153,86.676,166.104z
			 M108.717,111.771c1.064-0.294,1.689-1.396,1.396-2.46l-0.012-0.042c-0.293-1.064-1.379-1.67-2.454-1.375
			c-1.064,0.294-1.684,1.417-1.39,2.481c0.244,0.887,1.049,1.469,1.927,1.469C108.36,111.843,108.539,111.82,108.717,111.771z
			 M116.176,105.021c1.064-0.294,1.689-1.396,1.396-2.46l-0.012-0.042c-0.293-1.064-1.379-1.67-2.454-1.375
			c-1.064,0.294-1.684,1.417-1.39,2.481c0.244,0.887,1.049,1.469,1.927,1.469C115.818,105.093,115.997,105.07,116.176,105.021z
			 M162.759,88.812c1.064-0.294,1.689-1.396,1.396-2.46l-0.012-0.042c-0.293-1.064-1.379-1.67-2.454-1.375
			c-1.064,0.294-1.684,1.417-1.39,2.481c0.244,0.887,1.049,1.469,1.927,1.469C162.402,88.885,162.58,88.861,162.759,88.812z"/>
	</g>
</g>
</svg>
