<svg xmlns="http://www.w3.org/2000/svg" xmlns:xlink="http://www.w3.org/1999/xlink" version="1.1" fill-rule="evenodd"
  fill="none" stroke="none" stroke-linecap="square" stroke-miterlimit="10" overflow="hidden" preserveAspectRatio="none" viewBox="0 0 10000 20000">
  <rect fill="#ffffff" fill-opacity="0" width="100%" height="100%"></rect>
  <g>
    <defs cursor="default"></defs>
    <g id="editor-p2">
      <g id="editor-p4_i988">
        <g>
          <g></g>
          <g>
            <path fill="#2EA19D" fill-opacity="1"
              d="M 221.48210000000003 0.025700000000000014 L 65.1401 78.12330000000001 13.026100000000001 156.3677 -0.0391 260.5957 26.0913 351.7585 78.20530000000001 547.1493 299.7265 885.9637000000001 768.7525 1276.8921 1107.4201 1485.3481000000002 1459.2997000000003 1732.8529 2123.7165000000005 2319.1721000000002 2410.4169 2657.9865000000004 2710.0357000000004 3283.3545000000004 3270.3713000000002 4573.2861 3517.8761000000004 5224.6377 3283.2897000000003 4794.6605 2736.1661000000004 4026.0157000000004 2267.1401 3556.9897000000005 1928.3257000000003 3322.4033000000004 1576.5929 3166.0613000000003 1211.6481 3113.9473000000003 1029.3225000000002 3127.0125000000003 938.1597000000002 3140.0777000000003 781.6709000000001 3244.3057000000003 742.6221000000002 3335.4685000000004 742.6221000000002 3426.6313000000005 781.6709000000001 3517.7941000000005 859.9153000000001 3713.3317000000006 1107.4201 4012.9505000000004 1615.6417000000001 4338.6997 1967.3745000000001 4495.0417 2384.2865 4703.4977 3166.1433 5263.8333 3504.8109000000004 5602.5009 3556.9249000000004 5680.7453000000005 3595.9737000000005 5745.9245 3752.4625000000005 6006.494500000001 3895.7393 6267.0645 4182.2929 7127.0189 4664.3841 8872.9113 4859.921700000001 9758.8493 4755.693700000001 9576.376900000001 4651.465700000001 9420.0349 4338.7817000000005 8859.8461 3583.0553000000004 7765.4521 2918.4917000000005 7087.8233 2449.4657 6749.1557 1967.3745000000001 6527.6345 1459.2997000000003 6449.3901000000005 1198.7297 6488.5857000000005 1094.5017 6514.5693 912.0293000000001 6657.846100000001 885.8989000000001 6762.074100000001 885.8989000000001 6879.367300000001 925.0945000000002 6996.6605 1029.3225000000002 7218.1817 1355.0717000000002 7543.9309 1967.3745000000001 7895.6637 2397.3517 8065.070900000001 2905.4265000000005 8273.5269 3622.1041000000005 8703.5041 4065.1465000000003 9042.1717 4273.602500000001 9237.7093 4351.7001 9341.937300000001 4429.9445000000005 9433.100100000001 4703.5797 9889.2077 4990.1333 10332.1033 5198.589300000001 11439.5625 5354.9313 12560.0869 5407.045300000001 13016.194500000001 5459.1593 13472.1553 5459.1593 13472.1553 5263.7685 13159.471300000001 5055.312500000001 12859.8525 4703.5797 12208.3541 4052.0813000000003 11218.188100000001 3556.9249000000004 10605.738500000001 3022.7197 10084.5985 2462.5309 9667.6865 1863.1465000000003 9394.051300000001 1263.7621000000001 9302.888500000001 951.0781000000002 9341.937300000001 833.7849000000001 9380.9861 625.3289000000001 9537.3281 599.3453000000001 9654.6213 599.3453000000001 9797.8981 651.4593000000001 9915.1913 768.7525 10175.7613 1133.5505 10553.6245 1837.1629000000003 10944.5529 2332.1725 11139.943700000002 2736.1661000000004 11309.350900000001 3517.8761000000004 11791.4421 4247.472100000001 12377.7613 4898.9705 13055.2433 5185.6709 13420.0413 5342.012900000001 13654.627700000001 5498.3549 13889.0673 5550.468900000001 14527.500500000002 5589.5177 15830.4973 5576.4525 16468.930500000002 5576.4525 16481.8489 5563.3873 16924.891300000003 5537.403700000001 17367.9337 5367.9965 16977.0053 5159.540500000001 16599.1421 4859.921700000001 15843.415700000001 4260.537300000001 14657.858900000001 3778.4461000000006 13915.1977 3257.3061000000002 13250.634100000001 2684.0521000000003 12703.5105 2058.5373000000004 12312.582100000001 1394.1205000000002 12104.126100000001 1055.3061000000002 12104.126100000001 912.0293000000001 12117.1913 677.4429000000001 12247.402900000001 612.4105000000001 12390.6797 612.4105000000001 12521.038100000002 638.3941000000001 12664.314900000001 755.6873000000002 12964.0805 1107.4201 13433.106500000002 1824.0977000000003 13967.3117 2345.2377 14253.865300000001 2788.2801000000004 14514.435300000001 3609.0389000000005 15165.933700000001 4351.7001 15934.725300000002 4990.1333 16794.6797 5263.7685 17237.5753 5381.0617 17472.1617 5498.3549 17706.601300000002 5446.240900000001 18175.774100000002 5381.0617 18644.8001 5381.0617 18696.9141 5472.2245 18722.8977 5498.3549 18683.8489 5563.3873 18292.9205 5615.501300000001 17902.1389 5641.631700000001 17915.0573 5693.7457 17889.0737 5693.7457 17862.943300000003 5667.762100000001 17771.7805 5641.631700000001 17680.617700000003 5706.8109 17029.119300000002 5732.794500000001 16377.620900000002 5863.152900000001 16038.953300000001 5980.446100000001 15687.0737 6149.7065 15400.520100000002 6592.7489000000005 14840.184500000001 7126.954100000001 14319.044500000002 7713.273300000001 13850.0185 8012.892100000001 13641.562500000002 8455.934500000001 13380.9925 9029.1885 12885.8361 9289.758500000002 12455.858900000001 9341.872500000001 12182.2237 9354.9377 12052.012100000002 9328.9541 11921.6537 9263.7749 11804.507300000001 9016.123300000001 11687.214100000001 8885.9117 11674.1489 8560.1625 11674.1489 7947.859700000001 11869.539700000001 7426.572900000001 12221.419300000001 6970.6121 12729.494100000002 6592.7489000000005 13328.8785 6266.9997 13993.295300000002 5915.2669000000005 15035.7221 5758.924900000001 15687.0737 5745.859700000001 15713.2041 5745.859700000001 15608.976100000002 5745.859700000001 15465.699300000002 5719.8761 14762.0869 5680.6805 14045.409300000001 5706.8109 14032.4909 5693.7457 13993.295300000002 5680.6805 13967.3117 5667.762100000001 13928.262900000002 5602.5829 13120.4225 5511.273300000001 12325.6473 5537.403700000001 12012.963300000001 5563.3873 11687.214100000001 5654.696900000001 11348.3997 5941.250500000001 10657.8525 6306.048500000001 9980.3705 6736.025700000001 9341.937300000001 6983.6773 9042.1717 7322.344900000001 8651.3901 7752.3221 7973.908100000001 7882.6805 7465.686500000001 7869.6153 7192.0513 7856.5501 7048.7745 7791.5177 6931.4813 7700.208100000001 6840.3185 7452.703300000001 6801.269700000001 7322.344900000001 6827.2533 7048.856500000001 6918.4161 6566.765300000001 7244.165300000001 6188.9021 7687.207700000001 5876.218100000001 8221.412900000001 5654.696900000001 8833.7157 5498.3549 9498.2793 5354.9313 10527.6409 5342.012900000001 11192.057700000001 5276.8337 10840.324900000001 5211.654500000001 10488.445300000001 5211.654500000001 10475.5269 5029.3289 9537.3281 4807.8077 8612.3413 4859.921700000001 8078.136100000001 4898.9705 7530.8657 4977.0681 7218.1817 5185.6709 6618.7973 5459.1593 6045.5433 5811.0389000000005 5524.4033 6006.429700000001 5276.7517 6306.048500000001 4938.0841 6670.993300000001 4351.7649 6788.139700000001 3895.6573000000003 6788.139700000001 3661.2177000000006 6762.156100000001 3543.9245000000005 6710.042100000001 3439.6965000000005 6631.797700000001 3348.5337000000004 6410.4233 3322.4033000000004 6306.048500000001 3348.5337000000004 6058.5437 3439.6965000000005 5628.566500000001 3739.3153000000007 5302.817300000001 4182.3577000000005 5055.312500000001 4729.6281 4872.8401 5341.9309 4755.693700000001 5993.429300000001 4677.4493 7009.7257 4677.4493 7648.1589 4664.3841 7856.6149000000005 4664.3841 8065.070900000001 4468.9933 7361.458500000001 4025.9509000000003 5967.298900000001 3778.4461000000006 5276.7517 3778.4461000000006 5263.8333 3791.5113000000006 5263.8333 3817.4949000000006 4703.4977 3830.5601000000006 4130.2437 3830.5601000000006 4091.1949000000004 3843.6253000000006 4039.0809000000004 3973.8369000000002 3582.9733000000006 4390.8957 2723.0189000000005 4664.3841 2345.3025000000002 4898.9705 2032.4717 5172.6057 1524.3969000000002 5263.7685 1146.5337 5237.784900000001 938.0777000000002 5224.719700000001 833.8497000000001 5172.6057 755.6053000000002 5094.3613000000005 690.5729000000001 4912.0357 677.5077000000001 4820.726100000001 703.4913000000001 4638.400500000001 781.7357000000001 4325.7165 1029.2405 4078.0649000000003 1368.0549 3895.7393 1771.9017000000001 3713.2669000000005 2475.5141000000003 3635.1693000000005 3517.7941000000005 3648.2345000000005 4026.0157000000004 3648.2345000000005 4078.1297000000004 3635.1693000000005 4130.2437 3609.0389000000005 4481.9765 3622.1041000000005 4859.8397 3270.3713000000002 3973.9017000000003 2879.4429000000005 3100.8821000000003 2853.3125000000005 3048.7681000000002 2827.3289000000004 2996.6541000000007 2749.0845000000004 2840.3121000000006 2670.9869000000003 2670.9049000000005 2488.5145 2201.8789 2019.4885000000002 1276.8921 1576.5929 690.5729000000001 1263.7621000000001 377.88890000000004 898.9641000000001 143.3025 521.1009000000001 12.9441 325.7101 0.025700000000000014 Z">
            </path>
          </g>
          <g>
            <path fill="#000" fill-opacity="0" stroke="#000" stroke-opacity="0" stroke-width="6159.880239520959"
              stroke-linecap="round" stroke-linejoin="round" stroke-miterlimit="10" pointer-events="visiblePainted"
              d="M 221.48210000000003 0.025700000000000014 L 65.1401 78.12330000000001 13.026100000000001 156.3677 -0.0391 260.5957 26.0913 351.7585 78.20530000000001 547.1493 299.7265 885.9637000000001 768.7525 1276.8921 1107.4201 1485.3481000000002 1459.2997000000003 1732.8529 2123.7165000000005 2319.1721000000002 2410.4169 2657.9865000000004 2710.0357000000004 3283.3545000000004 3270.3713000000002 4573.2861 3517.8761000000004 5224.6377 3283.2897000000003 4794.6605 2736.1661000000004 4026.0157000000004 2267.1401 3556.9897000000005 1928.3257000000003 3322.4033000000004 1576.5929 3166.0613000000003 1211.6481 3113.9473000000003 1029.3225000000002 3127.0125000000003 938.1597000000002 3140.0777000000003 781.6709000000001 3244.3057000000003 742.6221000000002 3335.4685000000004 742.6221000000002 3426.6313000000005 781.6709000000001 3517.7941000000005 859.9153000000001 3713.3317000000006 1107.4201 4012.9505000000004 1615.6417000000001 4338.6997 1967.3745000000001 4495.0417 2384.2865 4703.4977 3166.1433 5263.8333 3504.8109000000004 5602.5009 3556.9249000000004 5680.7453000000005 3595.9737000000005 5745.9245 3752.4625000000005 6006.494500000001 3895.7393 6267.0645 4182.2929 7127.0189 4664.3841 8872.9113 4859.921700000001 9758.8493 4755.693700000001 9576.376900000001 4651.465700000001 9420.0349 4338.7817000000005 8859.8461 3583.0553000000004 7765.4521 2918.4917000000005 7087.8233 2449.4657 6749.1557 1967.3745000000001 6527.6345 1459.2997000000003 6449.3901000000005 1198.7297 6488.5857000000005 1094.5017 6514.5693 912.0293000000001 6657.846100000001 885.8989000000001 6762.074100000001 885.8989000000001 6879.367300000001 925.0945000000002 6996.6605 1029.3225000000002 7218.1817 1355.0717000000002 7543.9309 1967.3745000000001 7895.6637 2397.3517 8065.070900000001 2905.4265000000005 8273.5269 3622.1041000000005 8703.5041 4065.1465000000003 9042.1717 4273.602500000001 9237.7093 4351.7001 9341.937300000001 4429.9445000000005 9433.100100000001 4703.5797 9889.2077 4990.1333 10332.1033 5198.589300000001 11439.5625 5354.9313 12560.0869 5407.045300000001 13016.194500000001 5459.1593 13472.1553 5459.1593 13472.1553 5263.7685 13159.471300000001 5055.312500000001 12859.8525 4703.5797 12208.3541 4052.0813000000003 11218.188100000001 3556.9249000000004 10605.738500000001 3022.7197 10084.5985 2462.5309 9667.6865 1863.1465000000003 9394.051300000001 1263.7621000000001 9302.888500000001 951.0781000000002 9341.937300000001 833.7849000000001 9380.9861 625.3289000000001 9537.3281 599.3453000000001 9654.6213 599.3453000000001 9797.8981 651.4593000000001 9915.1913 768.7525 10175.7613 1133.5505 10553.6245 1837.1629000000003 10944.5529 2332.1725 11139.943700000002 2736.1661000000004 11309.350900000001 3517.8761000000004 11791.4421 4247.472100000001 12377.7613 4898.9705 13055.2433 5185.6709 13420.0413 5342.012900000001 13654.627700000001 5498.3549 13889.0673 5550.468900000001 14527.500500000002 5589.5177 15830.4973 5576.4525 16468.930500000002 5576.4525 16481.8489 5563.3873 16924.891300000003 5537.403700000001 17367.9337 5367.9965 16977.0053 5159.540500000001 16599.1421 4859.921700000001 15843.415700000001 4260.537300000001 14657.858900000001 3778.4461000000006 13915.1977 3257.3061000000002 13250.634100000001 2684.0521000000003 12703.5105 2058.5373000000004 12312.582100000001 1394.1205000000002 12104.126100000001 1055.3061000000002 12104.126100000001 912.0293000000001 12117.1913 677.4429000000001 12247.402900000001 612.4105000000001 12390.6797 612.4105000000001 12521.038100000002 638.3941000000001 12664.314900000001 755.6873000000002 12964.0805 1107.4201 13433.106500000002 1824.0977000000003 13967.3117 2345.2377 14253.865300000001 2788.2801000000004 14514.435300000001 3609.0389000000005 15165.933700000001 4351.7001 15934.725300000002 4990.1333 16794.6797 5263.7685 17237.5753 5381.0617 17472.1617 5498.3549 17706.601300000002 5446.240900000001 18175.774100000002 5381.0617 18644.8001 5381.0617 18696.9141 5472.2245 18722.8977 5498.3549 18683.8489 5563.3873 18292.9205 5615.501300000001 17902.1389 5641.631700000001 17915.0573 5693.7457 17889.0737 5693.7457 17862.943300000003 5667.762100000001 17771.7805 5641.631700000001 17680.617700000003 5706.8109 17029.119300000002 5732.794500000001 16377.620900000002 5863.152900000001 16038.953300000001 5980.446100000001 15687.0737 6149.7065 15400.520100000002 6592.7489000000005 14840.184500000001 7126.954100000001 14319.044500000002 7713.273300000001 13850.0185 8012.892100000001 13641.562500000002 8455.934500000001 13380.9925 9029.1885 12885.8361 9289.758500000002 12455.858900000001 9341.872500000001 12182.2237 9354.9377 12052.012100000002 9328.9541 11921.6537 9263.7749 11804.507300000001 9016.123300000001 11687.214100000001 8885.9117 11674.1489 8560.1625 11674.1489 7947.859700000001 11869.539700000001 7426.572900000001 12221.419300000001 6970.6121 12729.494100000002 6592.7489000000005 13328.8785 6266.9997 13993.295300000002 5915.2669000000005 15035.7221 5758.924900000001 15687.0737 5745.859700000001 15713.2041 5745.859700000001 15608.976100000002 5745.859700000001 15465.699300000002 5719.8761 14762.0869 5680.6805 14045.409300000001 5706.8109 14032.4909 5693.7457 13993.295300000002 5680.6805 13967.3117 5667.762100000001 13928.262900000002 5602.5829 13120.4225 5511.273300000001 12325.6473 5537.403700000001 12012.963300000001 5563.3873 11687.214100000001 5654.696900000001 11348.3997 5941.250500000001 10657.8525 6306.048500000001 9980.3705 6736.025700000001 9341.937300000001 6983.6773 9042.1717 7322.344900000001 8651.3901 7752.3221 7973.908100000001 7882.6805 7465.686500000001 7869.6153 7192.0513 7856.5501 7048.7745 7791.5177 6931.4813 7700.208100000001 6840.3185 7452.703300000001 6801.269700000001 7322.344900000001 6827.2533 7048.856500000001 6918.4161 6566.765300000001 7244.165300000001 6188.9021 7687.207700000001 5876.218100000001 8221.412900000001 5654.696900000001 8833.7157 5498.3549 9498.2793 5354.9313 10527.6409 5342.012900000001 11192.057700000001 5276.8337 10840.324900000001 5211.654500000001 10488.445300000001 5211.654500000001 10475.5269 5029.3289 9537.3281 4807.8077 8612.3413 4859.921700000001 8078.136100000001 4898.9705 7530.8657 4977.0681 7218.1817 5185.6709 6618.7973 5459.1593 6045.5433 5811.0389000000005 5524.4033 6006.429700000001 5276.7517 6306.048500000001 4938.0841 6670.993300000001 4351.7649 6788.139700000001 3895.6573000000003 6788.139700000001 3661.2177000000006 6762.156100000001 3543.9245000000005 6710.042100000001 3439.6965000000005 6631.797700000001 3348.5337000000004 6410.4233 3322.4033000000004 6306.048500000001 3348.5337000000004 6058.5437 3439.6965000000005 5628.566500000001 3739.3153000000007 5302.817300000001 4182.3577000000005 5055.312500000001 4729.6281 4872.8401 5341.9309 4755.693700000001 5993.429300000001 4677.4493 7009.7257 4677.4493 7648.1589 4664.3841 7856.6149000000005 4664.3841 8065.070900000001 4468.9933 7361.458500000001 4025.9509000000003 5967.298900000001 3778.4461000000006 5276.7517 3778.4461000000006 5263.8333 3791.5113000000006 5263.8333 3817.4949000000006 4703.4977 3830.5601000000006 4130.2437 3830.5601000000006 4091.1949000000004 3843.6253000000006 4039.0809000000004 3973.8369000000002 3582.9733000000006 4390.8957 2723.0189000000005 4664.3841 2345.3025000000002 4898.9705 2032.4717 5172.6057 1524.3969000000002 5263.7685 1146.5337 5237.784900000001 938.0777000000002 5224.719700000001 833.8497000000001 5172.6057 755.6053000000002 5094.3613000000005 690.5729000000001 4912.0357 677.5077000000001 4820.726100000001 703.4913000000001 4638.400500000001 781.7357000000001 4325.7165 1029.2405 4078.0649000000003 1368.0549 3895.7393 1771.9017000000001 3713.2669000000005 2475.5141000000003 3635.1693000000005 3517.7941000000005 3648.2345000000005 4026.0157000000004 3648.2345000000005 4078.1297000000004 3635.1693000000005 4130.2437 3609.0389000000005 4481.9765 3622.1041000000005 4859.8397 3270.3713000000002 3973.9017000000003 2879.4429000000005 3100.8821000000003 2853.3125000000005 3048.7681000000002 2827.3289000000004 2996.6541000000007 2749.0845000000004 2840.3121000000006 2670.9869000000003 2670.9049000000005 2488.5145 2201.8789 2019.4885000000002 1276.8921 1576.5929 690.5729000000001 1263.7621000000001 377.88890000000004 898.9641000000001 143.3025 521.1009000000001 12.9441 325.7101 0.025700000000000014 Z">
            </path>
          </g>
        </g>
      </g>
    </g>
  </g>
</svg>