<svg height="512pt" viewBox="0 0 512 512" width="512pt" xmlns="http://www.w3.org/2000/svg">
    <path d="m416 512h-320c-53.023438 0-96-42.976562-96-96v-320c0-53.023438 42.976562-96 96-96h320c53.023438 0 96 42.976562 96 96v320c0 53.023438-42.976562 96-96 96zm0 0"
          fill="#fff9dd"/>
    <path d="m354.785156 181.328125h-116.6875l-18.992187-18.992187c-1.503907-1.488282-3.539063-2.335938-5.664063-2.335938h-56c-16.175781 0-29.328125 13.152344-29.328125 29.328125v133.328125c0 16.191406 13.152344 29.34375 29.328125 29.34375h197.328125c16.175781 0 29.328125-13.152344 29.328125-29.328125v-112c.015625-16.175781-13.136718-29.34375-29.3125-29.34375zm-34.671875 120c0 10.289063-8.371093 18.671875-18.671875 18.671875h-90.671875c-10.289062 0-18.671875-8.367188-18.671875-18.671875v-50.671875c0-10.289062 8.367188-18.671875 18.671875-18.671875h8c.832031 0 1.628907-.398437 2.125-1.054687l10.050781-11.34375c3.550782-3.984376 8.640626-6.273438 13.949219-6.273438h22.417969c5.328125 0 10.398438 2.273438 13.953125 6.253906l9.628906 10.832032c.914063 1.1875 1.714844 1.585937 2.5625 1.585937h8c10.285157 0 18.671875 8.367187 18.671875 18.671875v50.671875zm0 0"
          fill="#ffd200"/>
    <path d="m282.785156 272c0 14.730469-11.941406 26.671875-26.671875 26.671875s-26.671875-11.941406-26.671875-26.671875 11.941406-26.671875 26.671875-26.671875 26.671875 11.941406 26.671875 26.671875zm0 0"
          fill="#ffe777"/>
</svg>