<?xml version="1.0" encoding="UTF-8"?>
<!DOCTYPE svg PUBLIC "-//W3C//DTD SVG 1.1//EN" "http://www.w3.org/Graphics/SVG/1.1/DTD/svg11.dtd">
<!-- Creator: CorelDRAW 2020 (64-Bit 评估版) -->
<svg xmlns="http://www.w3.org/2000/svg" xml:space="preserve" version="1.1" style="shape-rendering:geometricPrecision; text-rendering:geometricPrecision; image-rendering:optimizeQuality; fill-rule:evenodd; clip-rule:evenodd"
preserveAspectRatio="none"
viewBox="0 0 10000 6000"
 xmlns:xlink="http://www.w3.org/1999/xlink"
 xmlns:xodm="http://www.corel.com/coreldraw/odm/2003">
 <defs>
  <style type="text/css">
   <![CDATA[
    .fil0 {fill:#D4DDFA}
   ]]>
  </style>
 </defs>
 <g id="图层_x0020_1">
  <metadata id="CorelCorpID_0Corel-Layer"/>
  <path class="fil0" d="M3164.62 3358.15c9.73,-5.1 11.94,-10.95 40.89,-8.11 27.19,2.68 9.56,16.12 -40.89,8.11zm-249.53 -29.17c-72.1,108.58 -133.33,-139.38 -286.23,-49.11 -82.64,48.63 -138.69,174.3 -322.12,68.56 -114.05,-65.72 -318.3,-35.42 -334.3,28.26 -39.4,156.89 132.24,119.37 274.19,126.73 109.07,5.52 196.69,247.39 66.82,227.78 -36.83,-5.51 -76.55,-32.58 -108.16,-24.15 -90.96,23.99 -187.9,-47.96 -273.34,22.12 -113.24,-21.15 -225.5,143.75 -281.72,112.07 -50.6,-28.45 12.81,-95.21 7.22,-212.22 -1.69,-34.59 10.76,-57.36 33.8,-70.01 74.64,-41.32 40.53,-148.67 117.23,-186.77 -146.04,-163.1 106.26,-29.17 305.43,-134.17 24.41,-12.89 152.33,14.9 196.4,0.81 101.63,-32.33 203.58,-52.67 307.73,-24.23 94.78,25.68 423.53,-76.25 297.05,114.33zm-790.88 859.79c-36.05,52.75 -90.72,57.53 -147.06,61.01 -324.81,-38.72 -87.38,-125.92 -74.09,-187.83 8.35,-39.05 296.85,16.3 221.15,126.82zm-150.09 1219.08c56.71,-54.29 136.41,-129.41 154.37,-41.42 17.95,87.6 -220.74,104.69 -154.37,41.42zm-436.69 -1221.59c-32.21,-32.5 -27.54,-121.7 4.53,-123.34 327.3,-15.31 137.19,266.35 -4.53,123.34zm-3.13 1189.98c-17.54,-1.22 -35.03,-2.43 -52.59,-3.56 1.65,-19.86 -4.03,-31.36 26.21,-27.48 33.59,4.14 25.61,13.95 26.38,31.04zm-218.05 -1972.07c-96.53,132.72 -131.95,19.45 -273.19,77.13 -99.59,40.69 -261.34,-62.95 -185.87,-145.27 252.15,-275.17 263.58,-288.86 300.77,-271.61 98.39,45.95 -114.82,166.19 174.81,160.84 279.91,-5.43 253.88,-24.64 316.54,41.33 102.79,108.58 -275.02,57.77 -333.06,137.58zm-13.28 1772.83c5.69,-1.32 16.88,23.16 25.44,35.72 -9.22,105.74 -186.95,0 -25.44,-35.72zm-78.73 -76.99c-74.06,-21.15 -51.55,-89.53 -21.85,-91.31 34.92,-1.96 70.38,4.53 103.28,7.6 9.32,23.35 -58.25,90.27 -81.43,83.71zm-65.04 -519.96c76.97,-53.39 108.3,39.46 67.4,54.93 -29.78,11.11 -49.19,-2.33 -60.59,-29.72 -3.43,-8.27 -9.22,-23.42 -6.81,-25.21zm-97.91 542.82c-19.09,52.81 -79.24,25.75 -111.19,54.36 3.56,13.05 5.11,13.3 -4.99,7.46 -45.51,214.24 -247.18,47.31 -151.03,-8.75 72.94,-42.54 151.68,5.67 151.68,5.67 13.22,-15.49 -22.81,-43.43 -41.16,-52.11 -22.77,-10.76 -56.06,-14.9 -43.47,-52.74 34.54,-103.48 128.63,-46.19 207.5,1.7 4.88,2.84 -2.11,29.82 -7.34,44.41zm233.28 -2453.79c14.16,11.5 21.45,33.07 33.85,47.08 17.11,-0.73 34.07,1.46 50.83,7.86 23.18,-8.84 44.58,-24.32 68.34,-29.01 26.71,-5.51 31.85,34.92 1.52,50.64 -31.23,16.21 -23.69,-4.06 -69.86,-21.63 -20.25,7.78 -35.89,9.15 -50.83,-7.86 -53.56,2.5 -56.27,22.68 -107.43,27.07 -8.9,-12.56 -26.78,-26.67 -24.86,-37.29 9.69,-55.17 56.89,-70.8 98.44,-36.86zm486.44 447.44c-3.72,1.29 -7.91,6.07 1.3,20.73 46.82,73.99 -310.34,28.77 -437.1,19.79 120.79,-105.18 465.53,-39.79 435.8,-40.52zm390.3 27.38c-209.89,1.13 -163.27,2.2 -195.26,-5.66 65.19,-133.7 108.62,-68.79 195.26,5.66zm658.65 -2455.15c53.57,25.12 29.27,64.73 -0.45,69.03 -29.71,4.38 -58.57,-1.69 -234.64,-26.49 181.66,-51.94 193.66,-62.07 235.09,-42.54zm-2067.9 1858.45c-58.84,21.73 -111.98,20.44 -157.35,-7.53 -48.71,-30.13 46.51,-133.45 159.29,-93.91 29.73,10.53 62.14,78.12 -1.94,101.44zm-45.23 215.87c-119.54,-6.08 -44.75,-150.79 65.35,-80.13 6.32,4.13 11.21,12.88 13.36,20.34 11.73,42.77 -28.32,45.7 -78.71,59.79zm6968.84 3054.62c658.89,-5.43 753.8,-107.05 960.98,-66.3 17.54,3.49 38.69,-0.72 55.91,-7.2 644.01,-245.03 100.64,-2.03 639.01,-302.4 160.02,-89.29 341.51,-308.32 213.63,-455.95 -113.71,-131.26 -44.19,-172.91 -81.07,-231.66 -209.98,-334.88 -272.56,-221.61 -330.46,-375.57 -124.08,-330.42 -434.34,-234.57 -451.11,-421.5 -4.47,-49.92 -78.64,-56.32 -96.41,-94.56 -72,-156.38 -203.8,-167.25 -266.65,-241.71 -58.12,-68.95 -124.31,-113.35 -215.62,-119.11 -16.82,-1.06 -40.08,-8.35 -48.38,-20.75 -65.7,-98.44 -188.65,-125.19 -261.83,-215.13 -97.76,-119.92 -312.65,-86.62 -275.41,-204.18 8.57,-26.99 11.99,-65.81 30.98,-77.38 95.63,-58.52 189.42,-124.07 312.38,-52.35 59.96,35.08 132.2,-11.11 143.78,-82.09 25.21,-153.22 141.45,-95.53 246.24,-204.02 148.93,-154.28 218.77,-72.37 287.22,-160.61 99.55,-128.18 244.92,-211.4 336.27,-348.18 29.35,-43.92 139.42,-85.39 200.24,-96.99 124,-23.57 152.85,-131.25 213.09,-175.26 207.69,-151.19 150.87,-257.43 257.24,-327.84 70.34,-46.51 203.49,-129.57 196.41,-155.74 -23.49,-86.29 38.77,-169.51 17.36,-248.1 -22.01,-80.54 -20.16,-145.94 23.08,-216.19 118.68,-192.77 -359.54,-689.55 -1292.98,-773.17 -533.36,-47.48 -1802.08,17.51 -2148.63,73.49 -710.79,114.9 -875.91,190.02 -1601.35,193.74 -569.25,3 -583.63,115.71 -871.3,111.25 -50.01,-0.73 -155.11,1.62 -186.67,41.5 -93.74,118.62 -121.43,-20.67 -392.37,-34.13 -160.88,-7.85 -317.29,60.45 -480.38,31.13 -25.65,-4.55 -54.83,12.95 -82.74,17.66 -610.05,103.15 -771.47,70.16 -761.34,134.33 6.48,41.26 100.04,38.26 111.04,65.16 19.49,47.64 -57.61,58.01 -168.45,116.92 -47.55,25.36 -47.34,84.36 -28.28,88.49 115.7,24.46 214.79,-0.74 178.42,102.58 -24.98,71.05 -81.83,74.14 -100.25,44.4 -38.14,-61.66 -57.44,-141.23 -160.26,-121.46 -198.88,38.17 -284.6,-22.12 -347.56,68.72 -286.49,414.13 -260.99,357.74 -316.24,399.31 -91.38,68.79 -118.38,-137.44 -192.88,-29.42 -39.16,56.8 -50.85,108.81 -15.91,178.91 32.6,65.31 -16.98,126.48 -92.17,144.56 -40.46,9.72 -72.23,-13.53 -108.19,-19.7 -67.71,-11.34 -131.78,48.13 -126.31,113.36 13.12,156.31 4.32,146.5 92.01,166.36 24.27,5.5 39.26,6.47 32.16,29.56 -54.59,177.85 -305.01,87.68 -552.73,209.3 -5.91,2.91 -5.95,38.5 -0.05,41.5 43.1,21.29 78.82,49.17 110.15,86.45 45.11,53.47 137.31,-50.33 141.65,74.06 3.77,108.65 -95.64,77.22 -142.63,70.57 -116.07,-16.44 -120.62,47.09 -171.89,149.09 86.5,84.93 -64.99,61.26 -61.2,124.71 2.3,37.11 41.39,43.1 316.54,56.07 88.45,4.14 153.99,57.04 222.52,102.02 44.72,29.17 36.93,128.83 -10.48,147.54 -121.46,48.22 -226.54,69.21 -217.1,93.92 22.39,58.99 155.95,16.04 232.09,80.61 72.92,62 -196.56,159.64 -82.66,200.39 107.51,38.73 173.98,-80.94 271.43,-32.42 126.02,62.72 154.07,17.11 233.13,184.02 25.11,52.93 -5.04,108.91 -68.14,132.25 -29.7,11.02 -147.43,-1.78 -64.15,147.88 81.58,146.66 -206.07,225.57 -236.98,37.83 -12.07,-73.25 -77.59,-127.22 -80.71,-206.38 -2.85,-70.5 -220,129.97 51.27,337.82 75.19,57.61 -27.77,131.02 -129.91,202.88 -139.83,98.54 -124.45,249.58 -133.38,299.41 -25.45,142.28 -363.73,27.71 -151.76,226.47 92.07,86.21 221.58,-101.7 235.53,-132.48 38.52,-85.07 104.44,62.39 146.18,140.91 11.26,21.15 2.15,40.67 -14.72,47.41 -274.36,106.78 -177.22,28.19 -287.39,7.11 -7.29,-1.36 -20.31,-0.65 -22.64,3.58 -22.36,40.34 -77.74,59.07 -77.3,112.55 0.71,94.96 215.37,45.05 278.34,53.87 88.56,12.4 -50.87,152.41 145.96,146.5 81.04,-2.42 34.61,132.73 55.87,169.11 52.8,90.59 -44.49,97 -53.83,132.24 -4.72,17.9 -14.51,41.89 -6.99,53.81 11.98,19.04 34.03,16.37 44.81,0.48 42.02,-61.66 130.56,-88.72 150.2,-77.22 -13.81,-32.17 40.23,-125.11 124.79,-139.13 45.42,-7.78 177.27,-10.37 219.77,6.72 -55.34,85.97 -90.21,32.42 -147.21,109.97 -44.14,60.13 -101.9,68.63 -175.3,51.77 216.71,319.98 128.52,47.57 217.75,48.63 56.52,0.72 117.75,-7.87 168.15,10.92 131.34,49.12 161.02,-85.72 242.6,44.41 70.32,112.06 132.61,51.05 127.85,21.22 -4.31,-27.29 -18.27,-58.08 13.76,-72.35 112.95,-49.9 128.45,83.3 378.56,196.26 38.36,90.66 118.53,92.12 191.84,73.41 158.69,-40.43 201.12,-10.69 386.09,-5.19 174.49,5.19 94.96,-43.67 92.52,-89.53 -11.86,-216.19 33.55,-71.4 304.44,-152.59 11.77,-3.56 31.93,13.3 45.09,24.4 18.35,15.48 15.02,32.66 -1.17,50.64 -106.82,119.35 -208.85,1.37 -206.87,82.4 0.95,37.85 -29.53,7.39 2.26,28.12 7.93,5.11 14.47,13.05 22.99,16.7 414.33,172.5 345.56,-1.13 518.84,63.76 171.3,64.1 326.99,14.82 449.54,3.74 180.63,-16.3 60.29,46.25 362.25,35.33 0,0 3546.18,-76.18 3546.18,-76.25z"/>
 </g>
</svg>
