<?xml version="1.0" encoding="utf-8"?>
<!-- Generator: Adobe Illustrator 21.0.2, SVG Export Plug-In . SVG Version: 6.00 Build 0)  -->
<svg version="1.1" id="Layer_1" xmlns="http://www.w3.org/2000/svg" xmlns:xlink="http://www.w3.org/1999/xlink" x="0px" y="0px"
	 width="1536px" height="2048px" viewBox="0 0 1536 2048" style="enable-background:new 0 0 1536 2048;" xml:space="preserve">
<style type="text/css">
	.st0{fill:#090909;}
	.st1{fill:none;stroke:#0C0B0D;stroke-width:9;stroke-miterlimit:10;}
	.st2{fill:none;stroke:#0C0B0D;stroke-width:5;stroke-miterlimit:10;}
	.st3{fill:#0C0B0D;}
	.st4{fill:none;stroke:#0C0B0D;stroke-width:3;stroke-miterlimit:10;}
	.st5{fill:none;}
	.st6{fill:#0B0B0B;}
	.st7{font-family:'ArialMT';}
	.st8{font-size:15.4053px;}
</style>
<g id="XMLID_2_">
	<path id="XMLID_3_" class="st0" d="M295.4,1587.6h-448.2v-274.9H244c28.4,0,51.4,23,51.4,51.4L295.4,1587.6L295.4,1587.6z"/>
	<path id="XMLID_8_" class="st0" d="M197.4,1407.4h296.4c14.1,0,25.7,11.6,25.7,25.7v154.6H197.4V1407.4z"/>
	<rect id="XMLID_9_" x="463.5" y="1606.1" class="st0" width="224" height="41.6"/>
	<path id="XMLID_10_" class="st0" d="M684,1421.2h186.8c7.1,0,12.8,5.8,12.8,12.8v139.7H645.5v-114
		C645.5,1438.4,662.7,1421.2,684,1421.2z"/>
	<path id="XMLID_11_" class="st0" d="M994.4,1393.5H1208c14.1,0,25.7,11.6,25.7,25.7v85.2H981.6v-98.1
		C981.6,1399.3,987.4,1393.5,994.4,1393.5z"/>
	<rect id="XMLID_12_" x="1219.7" y="1435.1" class="st0" width="126.1" height="83.2"/>
	<path id="XMLID_13_" class="st0" d="M1516.6,1338h-119.4c-28.4,0-51.4,23-51.4,51.4v128.9h183.6v-167.4
		C1529.4,1343.8,1523.6,1338,1516.6,1338z"/>
	<path id="XMLID_64_" class="st0" d="M-152.7,635.5H76c28.4,0,51.4-23,51.4-51.4V455.3h-280.1L-152.7,635.5L-152.7,635.5z"/>
	<path id="XMLID_7_" class="st0" d="M-446.8,940.6h241.6c21.3,0,38.5-17.2,38.5-38.5V760.3h-280.1V940.6z"/>
	<path id="XMLID_68_" class="st0" d="M-376.9,829.7h228.8c28.4,0,51.4-23,51.4-51.4V649.4h-280.1v180.3H-376.9z"/>
	<path id="XMLID_67_" class="st0" d="M43.3,580.1h228.8c28.4,0,51.4-23,51.4-51.4V399.8H43.3V580.1z"/>
	<path id="XMLID_65_" class="st0" d="M-250.8,688.6H3.6c14.1,0,25.7-11.6,25.7-25.7V508.3h-280.1V688.6z"/>
	<path id="XMLID_14_" class="st0" d="M1933.9,1296.4h-310.5c-14.1,0-25.5,11.4-25.5,25.5v228.5H1934L1933.9,1296.4L1933.9,1296.4z"
		/>
	<rect id="XMLID_15_" x="-165.4" y="1559.9" class="st0" width="2016.7" height="101.7"/>
	<path id="XMLID_16_" class="st0" d="M323.4,1546l3.1-138.6c-17.2,0-31.1-13.7-31.1-30.8l-154.1,3.1V1546H323.4L323.4,1546z"/>
	<path id="XMLID_19_" class="st0" d="M785.6,1532.1l-140.1-3.1c0,17.1-14,30.8-31.1,30.8l3.1,97.1h168L785.6,1532.1L785.6,1532.1z"
		/>
	<path id="XMLID_20_" class="st0" d="M1485.9,1407.4l-140.1-3.1c0,17.1-14,30.8-31.1,30.8l3.1,152.5h168L1485.9,1407.4
		L1485.9,1407.4z"/>
	<path id="XMLID_17_" class="st0" d="M476.1,1627l141.5-66.5l-68.4-1.4c-8.6-0.1-15.4-7.2-15.3-15.7l1,0.4L476.1,1627z"/>
	<path id="XMLID_22_" class="st0" d="M1176.4,1504.8l141.5-66.5l-68.4-1.4c-8.6-0.1-15.4-7.2-15.3-15.7l1,0.4L1176.4,1504.8z"/>
	<path id="XMLID_18_" class="st0" d="M1204.9,1532.1h-12.2c-15.9,0-28.9-13-28.9-28.9v-122.5c0-15.9,13-28.9,28.9-28.9h12.2
		c15.9,0,28.9,13,28.9,28.9v122.5C1233.7,1519.2,1220.8,1532.1,1204.9,1532.1z"/>
	<path id="XMLID_218_" class="st0" d="M1905,1351.9h-12.2c-15.9,0-28.9-13-28.9-28.9v-150.2c0-15.9,13-28.9,28.9-28.9h12.2
		c15.9,0,28.9,13,28.9,28.9V1323C1933.9,1338.9,1921.1,1351.9,1905,1351.9z"/>
	<path id="XMLID_124_" class="st0" d="M1540.9,1573.7h-12.2c-15.9,0-28.9-13-28.9-28.9v-122.5c0-15.9,13-28.9,28.9-28.9h12.2
		c15.9,0,28.9,13,28.9,28.9v122.5C1569.8,1560.8,1556.9,1573.7,1540.9,1573.7z"/>
	<path id="XMLID_23_" class="st0" d="M210.4,1379.6h-12.2c-15.9,0-28.9-13-28.9-28.9v-122.5c0-15.9,13-28.9,28.9-28.9h12.2
		c15.9,0,28.9,13,28.9,28.9v122.5C239.3,1366.7,226.5,1379.6,210.4,1379.6z"/>
	<path id="XMLID_211_" class="st0" d="M-265.7,1143.9h-12.2c-15.9,0-28.9-13-28.9-28.9V881.6c0-15.9,13-28.9,28.9-28.9h12.2
		c15.9,0,28.9,13,28.9,28.9V1115C-236.8,1131-249.7,1143.9-265.7,1143.9z"/>
	<path id="XMLID_66_" class="st0" d="M-30,746.5h-7.3c-9.6,0-17.3-7.7-17.3-17.3V583.6c0-9.6,7.7-17.3,17.3-17.3h7.3
		c9.6,0,17.3,7.7,17.3,17.3v145.6C-12.7,738.8-20.5,746.5-30,746.5z"/>
	<path id="XMLID_69_" class="st0" d="M390.2,649.4h-7.3c-9.6,0-17.3-7.7-17.3-17.3V486.5c0-9.6,7.7-17.3,17.3-17.3h7.3
		c9.6,0,17.3,7.7,17.3,17.3v145.6C407.5,641.7,399.7,649.4,390.2,649.4z"/>
	<path id="XMLID_70_" class="st0" d="M418.2,621.7h-7.4c-9.6,0-17.3-7.7-17.3-17.3V458.8c0-9.6,7.7-17.3,17.3-17.3h7.3
		c9.6,0,17.3,7.7,17.3,17.3v145.6C435.5,614,427.7,621.7,418.2,621.7z"/>
	<path id="XMLID_246_" class="st0" d="M577.9,510.8h-18.6c-14.1,0-25.7-11.6-25.7-25.7V356.2c0-14.1,11.6-25.7,25.7-25.7h18.6
		c14.1,0,25.7,11.6,25.7,25.7v128.9C603.5,499.2,592,510.8,577.9,510.8z"/>
	<path id="XMLID_212_" class="st0" d="M-211.3,1254.8h-36.8c-16.9,0-30.6-13.7-30.6-30.6v-119.1c0-16.9,13.7-30.6,30.6-30.6h36.8
		c16.9,0,30.6,13.7,30.6,30.6v119.1C-180.7,1241.1-194.5,1254.8-211.3,1254.8z"/>
	<path id="XMLID_28_" class="st0" d="M1723,1351.9h-12.2c-15.9,0-28.9-13-28.9-28.9v-122.5c0-15.9,13-28.9,28.9-28.9h12.2
		c15.9,0,28.9,13,28.9,28.9V1323C1751.9,1338.9,1739,1351.9,1723,1351.9z"/>
	<path id="XMLID_26_" class="st0" d="M-83.5,1393.5h-12.2c-15.9,0-28.9-13-28.9-28.9v-122.5c0-15.9,13-28.9,28.9-28.9h12.2
		c15.9,0,28.9,13,28.9,28.9v122.5C-54.7,1380.5-67.6,1393.5-83.5,1393.5z"/>
	<path id="XMLID_25_" class="st0" d="M-134.5,1379.6h-16c-20.8,0-37.7-16.9-37.7-37.7v-160.2c0-20.8,16.9-37.7,37.7-37.7h16
		c20.8,0,37.7,16.9,37.7,37.7v160.2C-96.8,1362.7-113.6,1379.6-134.5,1379.6z"/>
	<path id="XMLID_21_" class="st0" d="M158.7,1414.3h7.3c9.6,0,17.3-7.7,17.3-17.3v-131.7c0-9.6-7.7-17.3-17.3-17.3h-7.3
		c-9.6,0-17.3,7.7-17.3,17.3V1397C141.4,1406.6,149.1,1414.3,158.7,1414.3z"/>
	<path id="XMLID_121_" class="st0" d="M998.9,1490.5h7.3c9.6,0,17.3-7.7,17.3-17.3v-131.7c0-9.6-7.7-17.3-17.3-17.3h-7.3
		c-9.6,0-17.3,7.7-17.3,17.3v131.7C981.6,1482.8,989.4,1490.5,998.9,1490.5z"/>
	<path id="XMLID_145_" class="st0" d="M503.9,1660.9H549c14.6,0,26.4-11.8,26.4-26.4V1544c0-14.1-11.6-25.7-25.7-25.7h-45.8
		c-14.6,0-26.4,11.8-26.4,26.4v89.7C477.5,1649.1,489.3,1660.9,503.9,1660.9z"/>
	<path id="XMLID_125_" class="st0" d="M1503.2,1448.9h7.3c9.6,0,17.3-7.7,17.3-17.3v-131.7c0-9.6-7.7-17.3-17.3-17.3h-7.3
		c-9.6,0-17.3,7.7-17.3,17.3v131.7C1485.9,1441.2,1493.6,1448.9,1503.2,1448.9z"/>
	<path id="XMLID_101_" class="st0" d="M1568.9,718.7h-12.2c-15.9,0-28.9-13-28.9-28.9V567.4c0-15.9,13-28.9,28.9-28.9h12.2
		c15.9,0,28.9,13,28.9,28.9v122.5C1597.8,705.8,1585,718.7,1568.9,718.7z"/>
	<path id="XMLID_102_" class="st0" d="M1723,691h-12.2c-15.9,0-28.9-13-28.9-28.9V539.7c0-15.9,13-28.9,28.9-28.9h12.2
		c15.9,0,28.9,13,28.9,28.9v122.5C1751.9,678,1739,691,1723,691z"/>
	<path id="XMLID_100_" class="st0" d="M1517.2,663.3h7.3c9.6,0,17.3-7.7,17.3-17.3V514.2c0-9.6-7.7-17.3-17.3-17.3h-7.3
		c-9.6,0-17.3,7.7-17.3,17.3v131.7C1499.9,655.6,1507.6,663.3,1517.2,663.3z"/>
	<path id="XMLID_111_" class="st0" d="M1293.1,621.7h7.3c9.6,0,17.3-7.7,17.3-17.3V472.6c0-9.6-7.7-17.3-17.3-17.3h-7.3
		c-9.6,0-17.3,7.7-17.3,17.3v131.7C1275.7,614,1283.6,621.7,1293.1,621.7z"/>
	<path id="XMLID_398_" class="st0" d="M1153,524.6h7.3c9.6,0,17.3-7.7,17.3-17.3V375.6c0-9.6-7.7-17.3-17.3-17.3h-7.3
		c-9.6,0-17.3,7.7-17.3,17.3v131.7C1135.7,516.9,1143.5,524.6,1153,524.6z"/>
	<path id="XMLID_112_" class="st0" d="M1265.1,580.1h7.3c9.6,0,17.3-7.7,17.3-17.3V431c0-9.6-7.7-17.3-17.3-17.3h-7.3
		c-9.6,0-17.3,7.7-17.3,17.3v131.7C1247.7,572.4,1255.4,580.1,1265.1,580.1z"/>
	<path id="XMLID_27_" class="st0" d="M1657.3,1393.5h7.3c9.6,0,17.3-7.7,17.3-17.3v-131.7c0-9.6-7.7-17.3-17.3-17.3h-7.3
		c-9.6,0-17.3,7.7-17.3,17.3v131.7C1639.9,1385.8,1647.6,1393.5,1657.3,1393.5z"/>
	<rect id="XMLID_93_" x="1660.9" y="1227.1" class="st0" width="49" height="55.5"/>
	<path id="XMLID_97_" class="st0" d="M1794,1296.4h-10.9c-17.2,0-31.1-13.7-31.1-30.8v-10.8l-42,83.2L1794,1296.4z"/>
	<path id="XMLID_98_" class="st0" d="M1681.9,1338l-42-69.3v12.3c0,8.5-6.9,15.4-15.5,15.4l1.5,27.7L1681.9,1338z"/>
	<path id="XMLID_99_" class="st0" d="M1905.9,857.4h-87.6c-21.3,0-38.5-17.2-38.5-38.5V538.5h126.1V857.4z"/>
	<rect id="XMLID_103_" x="1723.9" y="607.8" class="st0" width="70" height="41.6"/>
	<path id="XMLID_104_" class="st0" d="M1779.9,677.1l14-41.6l-42,13.9h12.5c8.6,0,15.5,6.9,15.5,15.4V677.1z"/>
	<path id="XMLID_106_" class="st0" d="M1681.9,649.4l14-41.6l-42,13.9h12.5c8.6,0,15.5,6.9,15.5,15.4V649.4z"/>
	<rect id="XMLID_105_" x="1583.8" y="607.8" class="st0" width="126.1" height="13.9"/>
	<path id="XMLID_107_" class="st0" d="M1569.8,594l28,69.3v-10.8c0-17.1,14-30.8,31.1-30.8h10.9L1569.8,594z"/>
	<path id="XMLID_110_" class="st0" d="M1527.9,580.1l-28,69.3v-10.8c0-17.1-14-30.8-31.1-30.8h-10.9L1527.9,580.1z"/>
	<path id="XMLID_113_" class="st0" d="M1289.7,524.6l70,27.7h-10.9c-17.2,0-31.1,13.7-31.1,30.8V594L1289.7,524.6z"/>
	<path id="XMLID_108_" class="st0" d="M1415.8,510.8H1839v97.1h-384.7c-21.3,0-38.5-17.2-38.5-38.5V510.8L1415.8,510.8z"/>
	<path id="XMLID_109_" class="st0" d="M1317.7,524.6h56v14.9c0,7.1-5.8,12.8-12.8,12.8h-43.1L1317.7,524.6L1317.7,524.6z"/>
	<path id="XMLID_114_" class="st0" d="M801.8,1518.3h-18.4c-22.1,0-39.9-17.8-39.9-39.9v-128.2c0-22.1,17.8-39.9,39.9-39.9h18.4
		c22.1,0,39.9,17.8,39.9,39.9v128.2C841.6,1500.4,823.7,1518.3,801.8,1518.3z"/>
	<path id="XMLID_115_" class="st0" d="M771.6,1435.1l-28-55.5v10.8c0,17.1-14,30.8-31.1,30.8h-10.9L771.6,1435.1z"/>
	<path id="XMLID_122_" class="st0" d="M995.6,1407.4l28-55.5v10.8c0,17.1,14,30.8,31.1,30.8h10.9L995.6,1407.4z"/>
	<path id="XMLID_119_" class="st0" d="M1009.6,1546l-28-55.5v10.8c0,17.1-14,30.8-31.1,30.8h-10.9L1009.6,1546z"/>
	<path id="XMLID_120_" class="st0" d="M869.7,1559.9l56-27.7h-10.9c-17.2,0-31.1-13.7-31.1-30.8v-10.8L869.7,1559.9z"/>
	<path id="XMLID_116_" class="st0" d="M813.6,1495.2l28-55.5v12.3c0,8.5,6.9,15.4,15.5,15.4h12.5L813.6,1495.2z"/>
	<path id="XMLID_126_" class="st0" d="M1513.9,1367.3l-28-55.5v12.3c0,8.5-6.9,15.4-15.5,15.4h-12.5L1513.9,1367.3z"/>
	<path id="XMLID_118_" class="st0" d="M1583.8,1462.8L1583.8,1462.8c-7.7,0-14-6.2-14-13.9v69.3h28v-69.3
		C1597.8,1456.7,1591.5,1462.8,1583.8,1462.8z"/>
	<rect id="XMLID_117_" x="883.7" y="1532.1" class="st0" width="112.1" height="55.5"/>
	<rect id="XMLID_140_" x="988.8" y="1489.1" class="st0" width="350.1" height="97.1"/>
	<rect id="XMLID_141_" x="1457.8" y="1490.5" class="st0" width="381.3" height="117.1"/>
	<path id="XMLID_143_" class="st0" d="M491.5,1546l28-55.5l0,0c0,15.3,12.6,27.7,28,27.7l0,0L491.5,1546z"/>
	<path id="XMLID_215_" class="st0" d="M-264.8,1102.3l28-55.5l0,0c0,15.3,12.6,27.7,28,27.7l0,0L-264.8,1102.3z"/>
	<path id="XMLID_216_" class="st0" d="M-264.8,912.8l56,27.7l0,0c-15.4,0-28,12.5-28,27.7l0,0L-264.8,912.8z"/>
	<rect id="XMLID_6_" x="-278.8" y="1102.3" class="st0" width="84.1" height="485.3"/>
	<rect id="XMLID_213_" x="-278.8" y="1254.8" class="st0" width="185.1" height="415.9"/>
	<path id="XMLID_214_" class="st0" d="M1863.9,1296.4v-41.6v10.8c0,17.1-14,30.8-31.1,30.8H1822L1863.9,1296.4L1863.9,1296.4z"/>
	<rect id="XMLID_217_" x="1919.9" y="510.8" class="st0" width="98.1" height="1206.2"/>
	<path id="XMLID_219_" class="st0" d="M1905.9,857.4v55.5v-24.6c0-17.1-14-30.8-31.1-30.8H1850h55.9V857.4z"/>
	<rect id="XMLID_220_" x="1583.8" y="1504.4" class="st0" width="420.2" height="166.4"/>
	<rect id="XMLID_244_" x="365.4" y="344.4" class="st0" width="70" height="152.5"/>
	<rect id="XMLID_247_" x="365.4" y="344.4" class="st0" width="238.1" height="41.6"/>
	<rect id="XMLID_382_" x="-292.8" y="358.3" class="st0" width="658.2" height="69.3"/>
	<path id="XMLID_383_" class="st0" d="M715.6,358.3H589.5v55.5h113.2c7.1,0,12.8-5.8,12.8-12.8L715.6,358.3L715.6,358.3z"/>
	<rect id="XMLID_385_" x="1317.7" y="441.4" class="st0" width="188.5" height="83.2"/>
	<path id="XMLID_386_" class="st0" d="M1093.7,386h168v83.2h-142.4c-14.1,0-25.7-11.6-25.7-25.7L1093.7,386L1093.7,386z"/>
	<rect id="XMLID_387_" x="911.6" y="330.5" class="st0" width="210" height="83.2"/>
	<path id="XMLID_388_" class="st0" d="M882.5,455.3h46.7c21.3,0,38.5-17.2,38.5-38.5v-44.7h-98.1v70.4
		C869.7,449.5,875.3,455.3,882.5,455.3z"/>
	<rect id="XMLID_389_" x="575.6" y="344.4" class="st0" width="364.1" height="41.6"/>
	<path id="XMLID_390_" class="st0" d="M365.4,427.6h-42v20.8c0-11.4,9.4-20.8,21.1-20.8l0,0c11.6,0,21.1,9.4,21.1,20.8v-20.8H365.4z
		"/>
	<path id="XMLID_391_" class="st0" d="M435.5,386v69.3v-23.1c0-25.5,20.9-46.2,46.7-46.2h23.4L435.5,386L435.5,386z"/>
	<path id="XMLID_392_" class="st0" d="M533.4,386v27.7v-12.3c0-8.5-6.9-15.4-15.5-15.4h-12.5L533.4,386L533.4,386z"/>
	<path id="XMLID_393_" class="st0" d="M603.5,413.7v41.6v-10.8c0-17.1,14-30.8,31.1-30.8h10.9L603.5,413.7L603.5,413.7z"/>
	<path id="XMLID_394_" class="st0" d="M1093.7,413.7v27.7v-12.3c0-8.5-6.9-15.4-15.5-15.4h-12.5L1093.7,413.7L1093.7,413.7z"/>
	<path id="XMLID_395_" class="st0" d="M869,483v41.6v-10.8c0-17.1-14-30.8-31.1-30.8H827H869L869,483z"/>
	<path id="XMLID_396_" class="st0" d="M729.6,476.1L729.6,476.1h-14V490l0,0C715.6,482.3,721.8,476.1,729.6,476.1z"/>
	<path id="XMLID_397_" class="st0" d="M1177.8,469.2v27.7l0,0c0-15.3,12.6-27.7,28-27.7l0,0H1177.8z"/>
	<path id="XMLID_399_" class="st0" d="M886.1,552.4h-4.9c-6.4,0-11.6-5.1-11.6-11.6V413.7h28v127.1
		C897.7,547.2,892.4,552.4,886.1,552.4z"/>
	<path id="XMLID_437_" class="st0" d="M1863.3,857.4V899v-10.8c0-17.1-14-30.8-31.1-30.8h-10.9H1863.3z"/>
	<path id="XMLID_436_" class="st0" d="M1937.4,968.3h-47.8c-14.1,0-25.7-11.6-25.7-25.7V788.1h98.1v155.6
		C1962,957.3,1951,968.3,1937.4,968.3z"/>
	<path id="XMLID_400_" class="st0" d="M897.7,455.3V483v-12.3c0-8.5,6.9-15.4,15.5-15.4h12.5L897.7,455.3L897.7,455.3z"/>
	<rect id="XMLID_401_" x="-222.8" y="1227.2" class="st0" width="70" height="110.8"/>
	<rect id="XMLID_402_" x="-446.8" y="852.8" class="st0" width="182" height="818"/>
	<rect id="XMLID_423_" x="-446.8" y="344.4" class="st0" width="210" height="471.4"/>
	<rect id="XMLID_424_" x="-264.8" y="413.7" class="st0" width="336.1" height="138.6"/>
	<rect id="XMLID_425_" x="-432.9" y="330.5" class="st0" width="1344.5" height="41.6"/>
	<rect id="XMLID_426_" x="1499.9" y="330.5" class="st0" width="504.1" height="180.2"/>
	<rect id="XMLID_427_" x="1121.7" y="330.5" class="st0" width="392.2" height="124.8"/>
	<rect id="XMLID_428_" x="1794" y="496.9" class="st0" width="140.1" height="69.3"/>
	<rect id="XMLID_429_" x="1289.7" y="441.4" class="st0" width="84.1" height="41.6"/>
	<rect id="XMLID_430_" x="-446.8" y="330.5" class="st0" width="42" height="41.6"/>
	<path id="XMLID_144_" class="st0" d="M621,635.5h-19.9c-14.1,0-25.7-11.6-25.7-25.7V372.1h84.1V597
		C659.5,618.3,642.3,635.5,621,635.5z"/>
	<rect id="XMLID_431_" x="673.5" y="372.1" class="st0" width="196" height="110.9"/>
	<path id="XMLID_432_" class="st0" d="M674.7,566.2h-29.1V399.8h42v153.5C687.5,560.4,681.8,566.2,674.7,566.2z"/>
	<path id="XMLID_433_" class="st0" d="M687.5,483v55.5v-24.6c0-17.1,14-30.8,31.1-30.8h24.9h-56V483z"/>
	<path id="XMLID_434_" class="st0" d="M659.5,566.2v13.9l0,0c0-7.7,6.3-13.9,14-13.9l0,0H659.5z"/>
	<path id="XMLID_435_" class="st0" d="M1919.9,968.3V996v-12.3c0-8.5-6.9-15.4-15.5-15.4h-12.5H1919.9L1919.9,968.3z"/>
	<rect id="XMLID_438_" x="1899" y="1143.9" class="st0" width="35" height="55.5"/>
	<rect id="XMLID_439_" x="1877.9" y="538.5" class="st0" width="70" height="263.4"/>
	<rect id="XMLID_440_" x="1976" y="330.5" class="st0" width="42" height="208"/>
	<path id="XMLID_441_" class="st0" d="M1919.9,1143.9v-27.7l0,0c0,15.3-12.6,27.7-28,27.7l0,0H1919.9z"/>
</g>
<g>
	<path id="XMLID_508_" class="st1" d="M1292.4,547.5c0,0-3.9,239.8,250.2,269.8s455.7-146.1,455.7-146.1"/>
	<path id="XMLID_510_" class="st1" d="M1338.6,514c0,0,1.9,202.5,34.8,259.6s74.7,4.5,107.5,5.6s42.1,30.7,42.1,71.9s0,579,0,579"/>
</g>
<g>
	<path id="XMLID_481_" class="st2" d="M-12.4,683.9c0,0,28.2-8.9,28.2,17.7S1.7,728.1,1.7,763.4c0,35.3,17.7,238.4,14.1,305.5
		S2,1450.4,2,1450.4"/>
	<path id="XMLID_509_" class="st2" d="M15.7,664.6c0,0,40.4,15.9,45.8,51.2c5.3,35.3-47.1,58.3-59.7,72.4s-19,35.3,3.7,46
		c22.6,10.7,38.6,38.9,28,54.8c-10.6,15.9-38.5,31.5-21,54.7c17.5,23.1,52.9,19.5,42.2,40.7s-17.8,28.2-28.4,56.5
		c-10.5,28.2,17.8,30,23.1,47.6c5.3,17.7-11.3,37.1-4.2,51.2s25.8,15.9,25.8,53s0,215.4,0,215.4"/>
</g>
<g>
	<g id="XMLID_482_">
		<g id="XMLID_495_">
			<path id="XMLID_497_" class="st3" d="M1156.3,669.2c0,0-16.2,1-24.8,13.6c-8.6,12.7-5,16.7,0,19.3S1153.8,697,1156.3,669.2z"/>
			<path id="XMLID_496_" class="st3" d="M1160.6,669.2c0,0,16.2,1,24.8,13.6c8.6,12.7,5,16.7,0,19.3
				C1180.2,704.6,1163,697,1160.6,669.2z"/>
		</g>
		<path id="XMLID_494_" class="st3" d="M1156.3,703.5c0,0-16.2,1-24.8,13.6c-8.6,12.7-5,16.7,0,19.3S1153.8,731.3,1156.3,703.5z"/>
		<path id="XMLID_493_" class="st3" d="M1160.6,703.5c0,0,16.2,1,24.8,13.6c8.6,12.7,5,16.7,0,19.3S1163,731.3,1160.6,703.5z"/>
		<path id="XMLID_492_" class="st3" d="M1156.3,737.6c0,0-16.2,1-24.8,13.6c-8.6,12.7-5,16.7,0,19.3S1153.8,765.5,1156.3,737.6z"/>
		<path id="XMLID_491_" class="st3" d="M1160.6,737.6c0,0,16.2,1,24.8,13.6c8.6,12.7,5,16.7,0,19.3S1163,765.5,1160.6,737.6z"/>
		<path id="XMLID_490_" class="st3" d="M1156.3,771.9c0,0-16.2,1-24.8,13.6c-8.6,12.7-5,16.7,0,19.3
			C1136.6,807.2,1153.8,799.6,1156.3,771.9z"/>
		<path id="XMLID_489_" class="st3" d="M1160.6,771.9c0,0,16.2,1,24.8,13.6c8.6,12.7,5,16.7,0,19.3S1163,799.6,1160.6,771.9z"/>
		<g id="XMLID_505_">
			<path id="XMLID_507_" class="st3" d="M1156.3,530.8c0,0-16.2,1-24.8,13.6c-8.6,12.7-5,16.7,0,19.3
				C1136.6,566.2,1153.8,558.5,1156.3,530.8z"/>
			<path id="XMLID_506_" class="st3" d="M1160.6,530.8c0,0,16.2,1,24.8,13.6c8.6,12.6,5,16.7,0,19.3
				C1180.2,566.2,1163,558.5,1160.6,530.8z"/>
		</g>
		<path id="XMLID_504_" class="st3" d="M1156.3,564.9c0,0-16.2,1-24.8,13.6c-8.6,12.7-5,16.7,0,19.3
			C1136.6,600.4,1153.8,592.8,1156.3,564.9z"/>
		<path id="XMLID_503_" class="st3" d="M1160.6,564.9c0,0,16.2,1,24.8,13.6c8.6,12.7,5,16.7,0,19.3
			C1180.2,600.4,1163,592.8,1160.6,564.9z"/>
		<path id="XMLID_502_" class="st3" d="M1156.3,599.1c0,0-16.2,1-24.8,13.6c-8.6,12.7-5,16.7,0,19.3
			C1136.6,634.5,1153.8,626.9,1156.3,599.1z"/>
		<path id="XMLID_501_" class="st3" d="M1160.6,599.1c0,0,16.2,1,24.8,13.6c8.6,12.6,5,16.7,0,19.3
			C1180.2,634.5,1163,626.9,1160.6,599.1z"/>
		<path id="XMLID_500_" class="st3" d="M1156.3,633.4c0,0-16.2,1-24.8,13.6c-8.6,12.7-5,16.7,0,19.3
			C1136.6,668.8,1153.8,661.2,1156.3,633.4z"/>
		<path id="XMLID_499_" class="st3" d="M1160.6,633.4c0,0,16.2,1,24.8,13.6c8.6,12.7,5,16.7,0,19.3
			C1180.2,668.8,1163,661.2,1160.6,633.4z"/>
		<path id="XMLID_488_" class="st3" d="M1156.3,806c0,0-16.2,1-24.8,13.6c-8.6,12.7-5,16.7,0,19.3S1153.8,833.9,1156.3,806z"/>
		<path id="XMLID_487_" class="st3" d="M1160.6,806c0,0,16.2,1,24.8,13.6c8.6,12.7,5,16.7,0,19.3
			C1180.2,841.5,1163,833.9,1160.6,806z"/>
		<g id="XMLID_483_">
			<circle id="XMLID_486_" class="st3" cx="1158" cy="865.9" r="10.3"/>
			<path id="XMLID_485_" class="st3" d="M1157.4,834.7c0,0-9.6,12.8-9.6,31.2c0,7.7,9.6,0,9.6,0V834.7z"/>
			<path id="XMLID_484_" class="st3" d="M1157.4,834.7c0,0,10.9,12.8,10.9,31.2c0,9.9-10.9,0-10.9,0V834.7z"/>
		</g>
	</g>
	<line id="XMLID_498_" class="st4" x1="1158.1" y1="840.2" x2="1158.1" y2="506.8"/>
</g>
<g id="XMLID_379_">
	<line id="XMLID_378_" class="st5" x1="286.3" y1="557.5" x2="286.3" y2="729.8"/>
	<g id="XMLID_375_">
		<path id="XMLID_377_" class="st3" d="M287,579.1c0,0-14.5,0.9-22.3,12.3c-7.7,11.4-4.5,15,0,17.3C269.1,611,284.6,604.1,287,579.1
			z"/>
		<path id="XMLID_376_" class="st3" d="M290.8,579.1c0,0,14.5,0.9,22.3,12.3c7.7,11.4,4.5,15,0,17.3
			C308.7,611,293,604.1,290.8,579.1z"/>
	</g>
	<path id="XMLID_374_" class="st3" d="M287,609.9c0,0-14.5,0.9-22.3,12.3c-7.7,11.4-4.5,15,0,17.3
		C269.2,641.7,284.6,634.9,287,609.9z"/>
	<path id="XMLID_373_" class="st3" d="M290.8,609.9c0,0,14.5,0.9,22.3,12.3c7.7,11.4,4.5,15,0,17.3
		C308.5,641.7,293,634.9,290.8,609.9z"/>
	<path id="XMLID_372_" class="st3" d="M287,640.6c0,0-14.5,0.9-22.3,12.3c-7.7,11.4-4.5,15,0,17.3
		C269.2,672.4,284.6,665.6,287,640.6z"/>
	<path id="XMLID_371_" class="st3" d="M290.8,640.6c0,0,14.5,0.9,22.3,12.3c7.7,11.4,4.5,15,0,17.3
		C308.5,672.4,293,665.6,290.8,640.6z"/>
	<path id="XMLID_370_" class="st3" d="M287,671.4c0,0-14.5,0.9-22.3,12.3c-7.8,11.4-4.5,15,0,17.3
		C269.2,703.2,284.6,696.4,287,671.4z"/>
	<path id="XMLID_369_" class="st3" d="M290.8,671.4c0,0,14.5,0.9,22.3,12.3c7.7,11.4,4.5,15,0,17.3
		C308.5,703.2,293,696.4,290.8,671.4z"/>
	<path id="XMLID_368_" class="st3" d="M287,702.2c0,0-14.5,0.9-22.3,12.3c-7.8,11.4-4.5,15,0,17.3
		C269.1,734.1,284.6,727.2,287,702.2z"/>
	<path id="XMLID_367_" class="st3" d="M290.8,702.2c0,0,14.5,0.9,22.3,12.3c7.7,11.4,4.5,15,0,17.3S293,727.2,290.8,702.2z"/>
	<g id="XMLID_363_">
		<circle id="XMLID_366_" class="st3" cx="288.5" cy="756" r="9.2"/>
		<path id="XMLID_365_" class="st3" d="M287.9,727.9c0,0-8.7,11.6-8.7,28.1c0,6.9,8.7,0,8.7,0V727.9z"/>
		<path id="XMLID_364_" class="st3" d="M287.9,727.9c0,0,9.8,11.6,9.8,28.1c0,8.9-9.8,0-9.8,0V727.9z"/>
	</g>
</g>
<g>
	<path id="XMLID_478_" class="st6" d="M376.6,1344.3c-19.9-15.1-65.9,17.1-65.2,68c17.5-36.1,28.8-38.1,46.6-43.4
		C377.6,1363.2,390.2,1354.7,376.6,1344.3z"/>
	<path id="XMLID_477_" class="st6" d="M385,1399.1c3.2-12.7-21.2-19.5-43.6-9.8c-13.5,5.8-29.9,23.1-29.9,23.1s16.3-9.1,33.8-8.6
		S380.8,1415.6,385,1399.1z"/>
	<path id="XMLID_480_" class="st6" d="M311.9,1412.4c1,1.7-5-20.7,2.1-44.7c5.5-18.9,19.4-22.6,14.6-31.7c-4.5-8.5-18.4-5.5-25.7,10
		C293.3,1366.3,296.7,1388.1,311.9,1412.4z"/>
</g>
<g>
	<path id="XMLID_5_" class="st6" d="M1602.1,1184.6c13.4-20,63.8-2.1,78.4,46.9c-26.3-29.5-37-28.4-54.6-28.5
		C1606.8,1202.7,1593.1,1198.2,1602.1,1184.6z"/>
	<path id="XMLID_4_" class="st6" d="M1610.9,1239.2c-6.5-11.2,13.1-24.5,36.1-21.4c13.7,1.8,33.5,13.7,33.5,13.7s-17.2-4.1-32.7,1.2
		C1632.2,1237.9,1619.5,1253.8,1610.9,1239.2z"/>
	<path id="XMLID_1_" class="st6" d="M1680.1,1231.6c-0.4,1.9-1.7-21.1-15-42.1c-10.5-16.4-24-16.2-22.5-26.2
		c1.4-9.4,14.8-10.4,25.9,2.4C1683.1,1182.3,1686.5,1204.1,1680.1,1231.6z"/>
</g>
<g>
	<path id="XMLID_30_" class="st6" d="M1758,905.7c-17.3-16.6,9.4-63.2,60-68.9c-33.8,20.7-34.4,31.3-37.7,48.7
		C1776.8,904.2,1769.8,917,1758,905.7z"/>
	<path id="XMLID_29_" class="st6" d="M1813.4,906.7c-12.2,4.5-21.8-17.2-14.8-39.3c4.2-13.2,19.4-30.6,19.4-30.6s-7.2,16.3-4.6,32.4
		C1815.9,885.2,1829.3,900.8,1813.4,906.7z"/>
	<path id="XMLID_24_" class="st6" d="M1818.1,837.1c1.8,0.8-21.1-2.1-44,7.3c-18.1,7.4-20.2,20.8-29.8,17.5
		c-9-3.1-7.6-16.4,6.9-25.2C1770.1,825.5,1792.2,826.1,1818.1,837.1z"/>
</g>
<g>
	<path id="XMLID_33_" class="st6" d="M-53.6,863.3c12.1-20.7-26.4-58.2-76.8-49.6c38.1,10.5,41.9,20.7,49.7,36.2
		C-72,867-61.8,877.4-53.6,863.3z"/>
	<path id="XMLID_32_" class="st6" d="M-106.5,879.5c13,1,16.2-22.6,3.2-41.9c-7.7-11.6-27.1-24-27.1-24s11.4,13.6,13.5,29.8
		C-114.9,859.6-123.3,878.2-106.5,879.5z"/>
	<path id="XMLID_31_" class="st6" d="M-130.3,814c-1.5,1.3,19.6-7.8,44.4-5.1c19.4,2.2,25.2,14.4,33.4,8.6
		c7.7-5.4,2.7-17.8-13.6-22.2C-87.4,789.6-108.6,796.1-130.3,814z"/>
</g>
<text transform="matrix(1 0 0 1 -125.9014 651.4297)" class="st7 st8"> back</text>
<text transform="matrix(1 0 0 1 -92.2666 651.4297)" class="st7 st8">g</text>
<text transform="matrix(1 0 0 1 -83.7939 651.4297)" class="st7 st8">r</text>
<text transform="matrix(1 0 0 1 -78.916 651.4297)" class="st7 st8">ound:#090909;</text>
<rect x="-446.8" y="1647.9" class="st0" width="2507.8" height="3061.5"/>
<rect x="-446.8" y="-2731.1" class="st0" width="2450.8" height="3061.5"/>
</svg>
