<svg height="512pt" viewBox="0 0 512 512" width="512pt" xmlns="http://www.w3.org/2000/svg"><path d="m422.160156 0h-332.320312c-49.539063 0-89.839844 40.300781-89.839844 89.839844v332.320312c0 49.539063 40.300781 89.839844 89.839844 89.839844h332.320312c49.53125 0 89.839844-40.300781 89.839844-89.839844v-332.320312c0-49.539063-40.308594-89.839844-89.839844-89.839844zm0 0" fill="#ddf3fd"/><path d="m512 89.839844v332.320312c0 49.539063-40.308594 89.839844-89.839844 89.839844h-167.589844v-512h167.589844c49.53125 0 89.839844 40.300781 89.839844 89.839844zm0 0" fill="#b2e3fc"/><path d="m113.171875 61.316406c-26.171875 0-47.464844 21.292969-47.464844 47.464844s21.292969 47.460938 47.464844 47.460938c26.167969 0 47.460937-21.289063 47.460937-47.460938s-21.292968-47.464844-47.460937-47.464844zm0 0" fill="#fede81"/><path d="m512 262.109375v160.050781c0 49.539063-40.308594 89.839844-89.839844 89.839844h-332.320312c-49.539063 0-89.839844-40.300781-89.839844-89.839844v-128.539062h9.5l126.609375-107.261719c5.992187-5.070313 14.789063-4.628906 20.25.789063l60.171875 59.371093 38.039062-29.429687 103.960938-80.417969c.160156-.121094.320312-.242187.480469-.363281 1.410156-1.070313 2.527343-1.679688 3.476562-1.910156 5.351563-2.046876 11.652344-.929688 15.980469 3.382812l124.730469 124.328125zm0 0" fill="#bfeb89"/><path d="m512 262.109375v160.050781c0 49.539063-40.308594 89.839844-89.839844 89.839844h-167.589844v-294.910156l103.960938-80.417969c.160156-.121094.320312-.242187.480469-.363281 1.410156-1.070313 2.527343-1.679688 3.476562-1.910156 5.351563-2.046876 11.652344-.929688 15.980469 3.382812l124.730469 124.328125zm0 0" fill="#8dd760"/><path d="m346.980469 323.488281c0 8.292969-6.710938 15-15 15h-245.96875c-8.28125 0-15-6.707031-15-15 0-8.277343 6.71875-15 15-15h245.96875c8.289062 0 15 6.722657 15 15zm0 0" fill="#fff"/><path d="m301.570312 376.980469c0 8.289062-6.710937 15-15 15h-200.558593c-8.28125 0-15-6.710938-15-15 0-8.28125 6.71875-15 15-15h200.558593c8.289063 0 15 6.71875 15 15zm0 0" fill="#fff"/><path d="m325.769531 429.46875c0 8.292969-6.71875 15-15 15h-224.757812c-8.28125 0-15-6.707031-15-15 0-8.277344 6.71875-15 15-15h224.757812c8.28125 0 15 6.722656 15 15zm0 0" fill="#fff"/><g fill="#ddf3fd"><path d="m286.570312 391.980469h-32v-30h32c8.289063 0 15 6.71875 15 15 0 8.289062-6.710937 15-15 15zm0 0"/><path d="m325.769531 429.46875c0 8.292969-6.71875 15-15 15h-56.199219v-30h56.199219c8.28125 0 15 6.722656 15 15zm0 0"/><path d="m346.980469 323.488281c0 8.292969-6.710938 15-15 15h-77.410157v-30h77.410157c8.289062 0 15 6.722657 15 15zm0 0"/></g></svg>