<svg height="512pt" viewBox="-30 0 512 512" width="512pt" xmlns="http://www.w3.org/2000/svg"><path d="m452 0h-226l-60 256 60 256h226zm0 0" fill="#97e4fd"/><path d="m0 0h226v512h-226zm0 0" fill="#bcf7fc"/><path d="m392 60h-166l-60 166 60 166h166zm0 0" fill="#5b3364"/><path d="m60 60h166v332h-166zm0 0" fill="#ad2666"/><path d="m318.070312 244.3125 23.027344-18.3125-23.027344-18.3125 14.265626-25.734375-28.28125-8.105469 3.332031-29.234375-29.234375 3.332031-8.105469-28.28125-25.734375 14.265626-18.3125-23.027344-20 115.097656 20 115.097656 18.3125-23.027344 25.734375 14.265626 8.105469-28.28125 29.234375 3.332031-3.332031-29.234375 28.28125-8.105469zm0 0" fill="#ff364e"/><path d="m207.6875 133.929688-25.734375-14.265626-8.105469 28.28125-29.234375-3.332031 3.332031 29.234375-28.28125 8.105469 14.265626 25.734375-23.027344 18.3125 23.027344 18.3125-14.265626 25.734375 28.28125 8.105469-3.332031 29.234375 29.234375-3.332031 8.105469 28.28125 25.734375-14.265626 18.3125 23.027344v-230.195312zm0 0" fill="#ff6e2e"/><path d="m279.519531 236.644531 13.382813-10.644531-13.382813-10.644531 8.292969-14.957031-16.441406-4.714844 1.9375-16.992188-16.992188 1.9375-4.714844-16.441406-14.957031 8.292969-10.644531-13.382813-20 66.902344 20 66.902344 10.644531-13.382813 14.957031 8.292969 4.714844-16.441406 16.992188 1.9375-1.9375-16.992188 16.441406-4.714844zm0 0" fill="#ffa725"/><path d="m215.355469 172.480469-14.957031-8.292969-4.714844 16.441406-16.992188-1.9375 1.9375 16.992188-16.441406 4.714844 8.292969 14.957031-13.382813 10.644531 13.382813 10.644531-8.292969 14.957031 16.441406 4.714844-1.9375 16.992188 16.992188-1.9375 4.714844 16.441406 14.957031-8.292969 10.644531 13.382813v-133.804688zm0 0" fill="#ffd567"/></svg>